  0
SECTION
  2
HEADER
  9
$ANGBASE
  50
0.0
  9
$ANGDIR
  70
1
  9
$MEASUREMENT
  70
0
  0
ENDSEC
  0
SECTION
  2
TABLES
  0
TABLE
  2
LTYPE
  70
4
  0
LTYPE
  5
40F
  2
CONTINUOUS
  70
0
  3
Solid line
  72
65
  73
0
  40
0.0
  0
LTYPE
  5
410
  2
DASHDOT
 70
0
  3
Dash Dot ____ _ ____ _
 72
65
 73
4
 40
2.0
 49
1.25
 49
-0.25
 49
0.25
 49
-0.25
  0
LTYPE
  5
411
  2
DASHED
 70
0
  3
Dashed __ __ __ __ __
 72
65
 73
2
 40
0.75
 49
0.5
 49
-0.25
  0
LTYPE
  5
43B
  2
DOTTED
 70
0
  3
Dotted .  .  .  .
 72
65
 73
2
 40
0.2
 49
0.0
 49
-0.2
  0
ENDTAB
  0
TABLE
  2
STYLE
  70
4
  0
STYLE
  2
KICAD
  70
0
  40
0
  41
1
  42
1
  50
0
  71
0
  3
isocp.shx
  0
STYLE
  2
KICADB
  70
0
  40
0
  41
1
  42
1
  50
0
  71
0
  3
isocp.shx
  0
STYLE
  2
KICADI
  70
0
  40
0
  41
1
  42
1
  50
15
  71
0
  3
isocp.shx
  0
STYLE
  2
KICADBI
  70
0
  40
0
  41
1
  42
1
  50
15
  71
0
  3
isocp.shx
  0
ENDTAB
  0
TABLE
  2
LAYER
  70
1
  0
LAYER
  2
BLACK
  70
0
  62
7
  6
CONTINUOUS
  0
ENDTAB
  0
ENDSEC
  0
SECTION
  2
ENTITIES
0
LINE
8
BLACK
6
CONTINUOUS
10
0.583502
20
-1.95029
11
0.583591
21
-1.95027
0
LINE
8
BLACK
6
CONTINUOUS
10
0.583591
20
-1.95027
11
0.583677
21
-1.95025
0
LINE
8
BLACK
6
CONTINUOUS
10
0.583677
20
-1.95025
11
0.606602
21
-1.94784
0
LINE
8
BLACK
6
CONTINUOUS
10
0.606602
20
-1.94784
11
0.606616
21
-1.94784
0
LINE
8
BLACK
6
CONTINUOUS
10
0.606616
20
-1.94784
11
0.606659
21
-1.94784
0
LINE
8
BLACK
6
CONTINUOUS
10
0.606659
20
-1.94784
11
0.606702
21
-1.94784
0
LINE
8
BLACK
6
CONTINUOUS
10
0.606702
20
-1.94784
11
0.60748
21
-1.94783
0
LINE
8
BLACK
6
CONTINUOUS
10
0.60748
20
-1.94783
11
0.607482
21
-1.94783
0
LINE
8
BLACK
6
CONTINUOUS
10
0.607482
20
-1.94783
11
5.15506
21
-1.94783
0
LINE
8
BLACK
6
CONTINUOUS
10
5.15506
20
-1.94783
11
5.15542
21
-1.94783
0
LINE
8
BLACK
6
CONTINUOUS
10
5.15542
20
-1.94783
11
5.17821
21
-1.94552
0
LINE
8
BLACK
6
CONTINUOUS
10
5.17821
20
-1.94552
11
5.20007
21
-1.93884
0
LINE
8
BLACK
6
CONTINUOUS
10
5.20007
20
-1.93884
11
5.22022
21
-1.92803
0
LINE
8
BLACK
6
CONTINUOUS
10
5.22022
20
-1.92803
11
5.23792
21
-1.9135
0
LINE
8
BLACK
6
CONTINUOUS
10
5.23792
20
-1.9135
11
5.31637
21
-1.83504
0
LINE
8
BLACK
6
CONTINUOUS
10
5.31637
20
-1.83504
11
5.31641
21
-1.83501
0
LINE
8
BLACK
6
CONTINUOUS
10
5.31641
20
-1.83501
11
5.31641
21
-1.83501
0
LINE
8
BLACK
6
CONTINUOUS
10
5.31641
20
-1.83501
11
5.33422
21
-1.82038
0
LINE
8
BLACK
6
CONTINUOUS
10
5.33422
20
-1.82038
11
5.33423
21
-1.82037
0
LINE
8
BLACK
6
CONTINUOUS
10
5.33423
20
-1.82037
11
5.3343
21
-1.82033
0
LINE
8
BLACK
6
CONTINUOUS
10
5.3343
20
-1.82033
11
5.33438
21
-1.82028
0
LINE
8
BLACK
6
CONTINUOUS
10
5.33438
20
-1.82028
11
5.35469
21
-1.80938
0
LINE
8
BLACK
6
CONTINUOUS
10
5.35469
20
-1.80938
11
5.35469
21
-1.80938
0
LINE
8
BLACK
6
CONTINUOUS
10
5.35469
20
-1.80938
11
5.35469
21
-1.80938
0
LINE
8
BLACK
6
CONTINUOUS
10
5.35469
20
-1.80938
11
5.3547
21
-1.80938
0
LINE
8
BLACK
6
CONTINUOUS
10
5.3547
20
-1.80938
11
5.35479
21
-1.80934
0
LINE
8
BLACK
6
CONTINUOUS
10
5.35479
20
-1.80934
11
5.35487
21
-1.80931
0
LINE
8
BLACK
6
CONTINUOUS
10
5.35487
20
-1.80931
11
5.37691
21
-1.80257
0
LINE
8
BLACK
6
CONTINUOUS
10
5.37691
20
-1.80257
11
5.37691
21
-1.80257
0
LINE
8
BLACK
6
CONTINUOUS
10
5.37691
20
-1.80257
11
5.37691
21
-1.80257
0
LINE
8
BLACK
6
CONTINUOUS
10
5.37691
20
-1.80257
11
5.37693
21
-1.80257
0
LINE
8
BLACK
6
CONTINUOUS
10
5.37693
20
-1.80257
11
5.37702
21
-1.80255
0
LINE
8
BLACK
6
CONTINUOUS
10
5.37702
20
-1.80255
11
5.3771
21
-1.80253
0
LINE
8
BLACK
6
CONTINUOUS
10
5.3771
20
-1.80253
11
5.40004
21
-1.8002
0
LINE
8
BLACK
6
CONTINUOUS
10
5.40004
20
-1.8002
11
5.40005
21
-1.8002
0
LINE
8
BLACK
6
CONTINUOUS
10
5.40005
20
-1.8002
11
5.40009
21
-1.8002
0
LINE
8
BLACK
6
CONTINUOUS
10
5.40009
20
-1.8002
11
5.40013
21
-1.8002
0
LINE
8
BLACK
6
CONTINUOUS
10
5.40013
20
-1.8002
11
5.4005
21
-1.8002
0
LINE
8
BLACK
6
CONTINUOUS
10
5.4005
20
-1.8002
11
5.4005
21
-1.8002
0
LINE
8
BLACK
6
CONTINUOUS
10
5.4005
20
-1.8002
11
5.60748
21
-1.8002
0
LINE
8
BLACK
6
CONTINUOUS
10
5.60748
20
-1.8002
11
5.60753
21
-1.80019
0
LINE
8
BLACK
6
CONTINUOUS
10
5.60753
20
-1.80019
11
5.60758
21
-1.8002
0
LINE
8
BLACK
6
CONTINUOUS
10
5.60758
20
-1.8002
11
5.60758
21
-1.8002
0
LINE
8
BLACK
6
CONTINUOUS
10
5.60758
20
-1.8002
11
5.60772
21
-1.80021
0
LINE
8
BLACK
6
CONTINUOUS
10
5.60772
20
-1.80021
11
5.60791
21
-1.80027
0
LINE
8
BLACK
6
CONTINUOUS
10
5.60791
20
-1.80027
11
5.60808
21
-1.80036
0
LINE
8
BLACK
6
CONTINUOUS
10
5.60808
20
-1.80036
11
5.60823
21
-1.80048
0
LINE
8
BLACK
6
CONTINUOUS
10
5.60823
20
-1.80048
11
5.60835
21
-1.80063
0
LINE
8
BLACK
6
CONTINUOUS
10
5.60835
20
-1.80063
11
5.60844
21
-1.8008
0
LINE
8
BLACK
6
CONTINUOUS
10
5.60844
20
-1.8008
11
5.6085
21
-1.80099
0
LINE
8
BLACK
6
CONTINUOUS
10
5.6085
20
-1.80099
11
5.60852
21
-1.80118
0
LINE
8
BLACK
6
CONTINUOUS
10
5.60852
20
-1.80118
11
5.60851
21
-1.80123
0
LINE
8
BLACK
6
CONTINUOUS
10
5.60851
20
-1.80123
11
5.60851
21
-3.06004
0
LINE
8
BLACK
6
CONTINUOUS
10
5.60851
20
-3.06004
11
6.07899
21
-3.06004
0
LINE
8
BLACK
6
CONTINUOUS
10
6.07899
20
-3.06004
11
6.07899
21
-1.80123
0
LINE
8
BLACK
6
CONTINUOUS
10
6.07899
20
-1.80123
11
6.07898
21
-1.80118
0
LINE
8
BLACK
6
CONTINUOUS
10
6.07898
20
-1.80118
11
6.079
21
-1.80099
0
LINE
8
BLACK
6
CONTINUOUS
10
6.079
20
-1.80099
11
6.07906
21
-1.8008
0
LINE
8
BLACK
6
CONTINUOUS
10
6.07906
20
-1.8008
11
6.07915
21
-1.80063
0
LINE
8
BLACK
6
CONTINUOUS
10
6.07915
20
-1.80063
11
6.07927
21
-1.80048
0
LINE
8
BLACK
6
CONTINUOUS
10
6.07927
20
-1.80048
11
6.07942
21
-1.80036
0
LINE
8
BLACK
6
CONTINUOUS
10
6.07942
20
-1.80036
11
6.07959
21
-1.80027
0
LINE
8
BLACK
6
CONTINUOUS
10
6.07959
20
-1.80027
11
6.07978
21
-1.80021
0
LINE
8
BLACK
6
CONTINUOUS
10
6.07978
20
-1.80021
11
6.07992
21
-1.8002
0
LINE
8
BLACK
6
CONTINUOUS
10
6.07992
20
-1.8002
11
6.07997
21
-1.80019
0
LINE
8
BLACK
6
CONTINUOUS
10
6.07997
20
-1.80019
11
6.08002
21
-1.8002
0
LINE
8
BLACK
6
CONTINUOUS
10
6.08002
20
-1.8002
11
6.287
21
-1.8002
0
LINE
8
BLACK
6
CONTINUOUS
10
6.287
20
-1.8002
11
6.28705
21
-1.8002
0
LINE
8
BLACK
6
CONTINUOUS
10
6.28705
20
-1.8002
11
6.28705
21
-1.8002
0
LINE
8
BLACK
6
CONTINUOUS
10
6.28705
20
-1.8002
11
6.30999
21
-1.80245
0
LINE
8
BLACK
6
CONTINUOUS
10
6.30999
20
-1.80245
11
6.31
21
-1.80245
0
LINE
8
BLACK
6
CONTINUOUS
10
6.31
20
-1.80245
11
6.31009
21
-1.80247
0
LINE
8
BLACK
6
CONTINUOUS
10
6.31009
20
-1.80247
11
6.31018
21
-1.80249
0
LINE
8
BLACK
6
CONTINUOUS
10
6.31018
20
-1.80249
11
6.33225
21
-1.80915
0
LINE
8
BLACK
6
CONTINUOUS
10
6.33225
20
-1.80915
11
6.33226
21
-1.80915
0
LINE
8
BLACK
6
CONTINUOUS
10
6.33226
20
-1.80915
11
6.33234
21
-1.80919
0
LINE
8
BLACK
6
CONTINUOUS
10
6.33234
20
-1.80919
11
6.33242
21
-1.80922
0
LINE
8
BLACK
6
CONTINUOUS
10
6.33242
20
-1.80922
11
6.35278
21
-1.82005
0
LINE
8
BLACK
6
CONTINUOUS
10
6.35278
20
-1.82005
11
6.35279
21
-1.82005
0
LINE
8
BLACK
6
CONTINUOUS
10
6.35279
20
-1.82005
11
6.35286
21
-1.8201
0
LINE
8
BLACK
6
CONTINUOUS
10
6.35286
20
-1.8201
11
6.35294
21
-1.82015
0
LINE
8
BLACK
6
CONTINUOUS
10
6.35294
20
-1.82015
11
6.3708
21
-1.83472
0
LINE
8
BLACK
6
CONTINUOUS
10
6.3708
20
-1.83472
11
6.37081
21
-1.83473
0
LINE
8
BLACK
6
CONTINUOUS
10
6.37081
20
-1.83473
11
6.37084
21
-1.83476
0
LINE
8
BLACK
6
CONTINUOUS
10
6.37084
20
-1.83476
11
6.37087
21
-1.83479
0
LINE
8
BLACK
6
CONTINUOUS
10
6.37087
20
-1.83479
11
6.37113
21
-1.83504
0
LINE
8
BLACK
6
CONTINUOUS
10
6.37113
20
-1.83504
11
6.37113
21
-1.83504
0
LINE
8
BLACK
6
CONTINUOUS
10
6.37113
20
-1.83504
11
6.37115
21
-1.83507
0
LINE
8
BLACK
6
CONTINUOUS
10
6.37115
20
-1.83507
11
6.37116
21
-1.83508
0
LINE
8
BLACK
6
CONTINUOUS
10
6.37116
20
-1.83508
11
6.37117
21
-1.83508
0
LINE
8
BLACK
6
CONTINUOUS
10
6.37117
20
-1.83508
11
6.44962
21
-1.91354
0
LINE
8
BLACK
6
CONTINUOUS
10
6.44962
20
-1.91354
11
6.44987
21
-1.91378
0
LINE
8
BLACK
6
CONTINUOUS
10
6.44987
20
-1.91378
11
6.46762
21
-1.92826
0
LINE
8
BLACK
6
CONTINUOUS
10
6.46762
20
-1.92826
11
6.48781
21
-1.93899
0
LINE
8
BLACK
6
CONTINUOUS
10
6.48781
20
-1.93899
11
6.50969
21
-1.9456
0
LINE
8
BLACK
6
CONTINUOUS
10
6.50969
20
-1.9456
11
6.53248
21
-1.94783
0
LINE
8
BLACK
6
CONTINUOUS
10
6.53248
20
-1.94783
11
11.08
21
-1.94783
0
LINE
8
BLACK
6
CONTINUOUS
10
11.08
20
-1.94783
11
11.0801
21
-1.94784
0
LINE
8
BLACK
6
CONTINUOUS
10
11.0801
20
-1.94784
11
11.0801
21
-1.94784
0
LINE
8
BLACK
6
CONTINUOUS
10
11.0801
20
-1.94784
11
11.103
21
-1.95009
0
LINE
8
BLACK
6
CONTINUOUS
10
11.103
20
-1.95009
11
11.103
21
-1.95009
0
LINE
8
BLACK
6
CONTINUOUS
10
11.103
20
-1.95009
11
11.1031
21
-1.95011
0
LINE
8
BLACK
6
CONTINUOUS
10
11.1031
20
-1.95011
11
11.1032
21
-1.95013
0
LINE
8
BLACK
6
CONTINUOUS
10
11.1032
20
-1.95013
11
11.1253
21
-1.95679
0
LINE
8
BLACK
6
CONTINUOUS
10
11.1253
20
-1.95679
11
11.1253
21
-1.95679
0
LINE
8
BLACK
6
CONTINUOUS
10
11.1253
20
-1.95679
11
11.1254
21
-1.95683
0
LINE
8
BLACK
6
CONTINUOUS
10
11.1254
20
-1.95683
11
11.1254
21
-1.95686
0
LINE
8
BLACK
6
CONTINUOUS
10
11.1254
20
-1.95686
11
11.1458
21
-1.96768
0
LINE
8
BLACK
6
CONTINUOUS
10
11.1458
20
-1.96768
11
11.1458
21
-1.96769
0
LINE
8
BLACK
6
CONTINUOUS
10
11.1458
20
-1.96769
11
11.1459
21
-1.96774
0
LINE
8
BLACK
6
CONTINUOUS
10
11.1459
20
-1.96774
11
11.146
21
-1.96779
0
LINE
8
BLACK
6
CONTINUOUS
10
11.146
20
-1.96779
11
11.1638
21
-1.98236
0
LINE
8
BLACK
6
CONTINUOUS
10
11.1638
20
-1.98236
11
11.1638
21
-1.98236
0
LINE
8
BLACK
6
CONTINUOUS
10
11.1638
20
-1.98236
11
11.1638
21
-1.98236
0
LINE
8
BLACK
6
CONTINUOUS
10
11.1638
20
-1.98236
11
11.1638
21
-1.98237
0
LINE
8
BLACK
6
CONTINUOUS
10
11.1638
20
-1.98237
11
11.1639
21
-1.98243
0
LINE
8
BLACK
6
CONTINUOUS
10
11.1639
20
-1.98243
11
11.164
21
-1.98249
0
LINE
8
BLACK
6
CONTINUOUS
10
11.164
20
-1.98249
11
11.1786
21
-2.00026
0
LINE
8
BLACK
6
CONTINUOUS
10
11.1786
20
-2.00026
11
11.1787
21
-2.00027
0
LINE
8
BLACK
6
CONTINUOUS
10
11.1787
20
-2.00027
11
11.1787
21
-2.00034
0
LINE
8
BLACK
6
CONTINUOUS
10
11.1787
20
-2.00034
11
11.1788
21
-2.00041
0
LINE
8
BLACK
6
CONTINUOUS
10
11.1788
20
-2.00041
11
11.1897
21
-2.02069
0
LINE
8
BLACK
6
CONTINUOUS
10
11.1897
20
-2.02069
11
11.1897
21
-2.0207
0
LINE
8
BLACK
6
CONTINUOUS
10
11.1897
20
-2.0207
11
11.1898
21
-2.02079
0
LINE
8
BLACK
6
CONTINUOUS
10
11.1898
20
-2.02079
11
11.1898
21
-2.02087
0
LINE
8
BLACK
6
CONTINUOUS
10
11.1898
20
-2.02087
11
11.1966
21
-2.04289
0
LINE
8
BLACK
6
CONTINUOUS
10
11.1966
20
-2.04289
11
11.1966
21
-2.0429
0
LINE
8
BLACK
6
CONTINUOUS
10
11.1966
20
-2.0429
11
11.1966
21
-2.04299
0
LINE
8
BLACK
6
CONTINUOUS
10
11.1966
20
-2.04299
11
11.1966
21
-2.04308
0
LINE
8
BLACK
6
CONTINUOUS
10
11.1966
20
-2.04308
11
11.1991
21
-2.066
0
LINE
8
BLACK
6
CONTINUOUS
10
11.1991
20
-2.066
11
11.1991
21
-2.06602
0
LINE
8
BLACK
6
CONTINUOUS
10
11.1991
20
-2.06602
11
11.1991
21
-2.06606
0
LINE
8
BLACK
6
CONTINUOUS
10
11.1991
20
-2.06606
11
11.1991
21
-2.0661
0
LINE
8
BLACK
6
CONTINUOUS
10
11.1991
20
-2.0661
11
11.1991
21
-2.06688
0
LINE
8
BLACK
6
CONTINUOUS
10
11.1991
20
-2.06688
11
11.1991
21
-2.06688
0
LINE
8
BLACK
6
CONTINUOUS
10
11.1991
20
-2.06688
11
11.1991
21
-4.15348
0
LINE
8
BLACK
6
CONTINUOUS
10
11.1991
20
-4.15348
11
11.1991
21
-4.15352
0
LINE
8
BLACK
6
CONTINUOUS
10
11.1991
20
-4.15352
11
11.1991
21
-4.15353
0
LINE
8
BLACK
6
CONTINUOUS
10
11.1991
20
-4.15353
11
11.1968
21
-4.17647
0
LINE
8
BLACK
6
CONTINUOUS
10
11.1968
20
-4.17647
11
11.1968
21
-4.17648
0
LINE
8
BLACK
6
CONTINUOUS
10
11.1968
20
-4.17648
11
11.1968
21
-4.17657
0
LINE
8
BLACK
6
CONTINUOUS
10
11.1968
20
-4.17657
11
11.1968
21
-4.17665
0
LINE
8
BLACK
6
CONTINUOUS
10
11.1968
20
-4.17665
11
11.1901
21
-4.19872
0
LINE
8
BLACK
6
CONTINUOUS
10
11.1901
20
-4.19872
11
11.1901
21
-4.19874
0
LINE
8
BLACK
6
CONTINUOUS
10
11.1901
20
-4.19874
11
11.1901
21
-4.19882
0
LINE
8
BLACK
6
CONTINUOUS
10
11.1901
20
-4.19882
11
11.19
21
-4.1989
0
LINE
8
BLACK
6
CONTINUOUS
10
11.19
20
-4.1989
11
11.1792
21
-4.21925
0
LINE
8
BLACK
6
CONTINUOUS
10
11.1792
20
-4.21925
11
11.1792
21
-4.21926
0
LINE
8
BLACK
6
CONTINUOUS
10
11.1792
20
-4.21926
11
11.1792
21
-4.21934
0
LINE
8
BLACK
6
CONTINUOUS
10
11.1792
20
-4.21934
11
11.1791
21
-4.21941
0
LINE
8
BLACK
6
CONTINUOUS
10
11.1791
20
-4.21941
11
11.1645
21
-4.23728
0
LINE
8
BLACK
6
CONTINUOUS
10
11.1645
20
-4.23728
11
11.1645
21
-4.23729
0
LINE
8
BLACK
6
CONTINUOUS
10
11.1645
20
-4.23729
11
11.1645
21
-4.23735
0
LINE
8
BLACK
6
CONTINUOUS
10
11.1645
20
-4.23735
11
11.1644
21
-4.23741
0
LINE
8
BLACK
6
CONTINUOUS
10
11.1644
20
-4.23741
11
11.1466
21
-4.25211
0
LINE
8
BLACK
6
CONTINUOUS
10
11.1466
20
-4.25211
11
11.1466
21
-4.25211
0
LINE
8
BLACK
6
CONTINUOUS
10
11.1466
20
-4.25211
11
11.1466
21
-4.25216
0
LINE
8
BLACK
6
CONTINUOUS
10
11.1466
20
-4.25216
11
11.1465
21
-4.2522
0
LINE
8
BLACK
6
CONTINUOUS
10
11.1465
20
-4.2522
11
11.1304
21
-4.26132
0
LINE
8
BLACK
6
CONTINUOUS
10
11.1304
20
-4.26132
11
11.1304
21
-4.26134
0
LINE
8
BLACK
6
CONTINUOUS
10
11.1304
20
-4.26134
11
6.85212
21
-6.34811
0
LINE
8
BLACK
6
CONTINUOUS
10
6.85212
20
-6.34811
11
6.85206
21
-6.34813
0
LINE
8
BLACK
6
CONTINUOUS
10
6.85206
20
-6.34813
11
6.85206
21
-6.34813
0
LINE
8
BLACK
6
CONTINUOUS
10
6.85206
20
-6.34813
11
6.85205
21
-6.34813
0
LINE
8
BLACK
6
CONTINUOUS
10
6.85205
20
-6.34813
11
6.85198
21
-6.34816
0
LINE
8
BLACK
6
CONTINUOUS
10
6.85198
20
-6.34816
11
6.85198
21
-6.34816
0
LINE
8
BLACK
6
CONTINUOUS
10
6.85198
20
-6.34816
11
6.83032
21
-6.35579
0
LINE
8
BLACK
6
CONTINUOUS
10
6.83032
20
-6.35579
11
6.8303
21
-6.35579
0
LINE
8
BLACK
6
CONTINUOUS
10
6.8303
20
-6.35579
11
6.83022
21
-6.35581
0
LINE
8
BLACK
6
CONTINUOUS
10
6.83022
20
-6.35581
11
6.83013
21
-6.35583
0
LINE
8
BLACK
6
CONTINUOUS
10
6.83013
20
-6.35583
11
6.80732
21
-6.35912
0
LINE
8
BLACK
6
CONTINUOUS
10
6.80732
20
-6.35912
11
6.8073
21
-6.35912
0
LINE
8
BLACK
6
CONTINUOUS
10
6.8073
20
-6.35912
11
6.80725
21
-6.35912
0
LINE
8
BLACK
6
CONTINUOUS
10
6.80725
20
-6.35912
11
6.8072
21
-6.35913
0
LINE
8
BLACK
6
CONTINUOUS
10
6.8072
20
-6.35913
11
6.80188
21
-6.35925
0
LINE
8
BLACK
6
CONTINUOUS
10
6.80188
20
-6.35925
11
6.80187
21
-6.35925
0
LINE
8
BLACK
6
CONTINUOUS
10
6.80187
20
-6.35925
11
4.88563
21
-6.35925
0
LINE
8
BLACK
6
CONTINUOUS
10
4.88563
20
-6.35925
11
4.88559
21
-6.35925
0
LINE
8
BLACK
6
CONTINUOUS
10
4.88559
20
-6.35925
11
4.88559
21
-6.35925
0
LINE
8
BLACK
6
CONTINUOUS
10
4.88559
20
-6.35925
11
4.86265
21
-6.357
0
LINE
8
BLACK
6
CONTINUOUS
10
4.86265
20
-6.357
11
4.86263
21
-6.357
0
LINE
8
BLACK
6
CONTINUOUS
10
4.86263
20
-6.357
11
4.86254
21
-6.35698
0
LINE
8
BLACK
6
CONTINUOUS
10
4.86254
20
-6.35698
11
4.86246
21
-6.35696
0
LINE
8
BLACK
6
CONTINUOUS
10
4.86246
20
-6.35696
11
4.84039
21
-6.3503
0
LINE
8
BLACK
6
CONTINUOUS
10
4.84039
20
-6.3503
11
4.84038
21
-6.35029
0
LINE
8
BLACK
6
CONTINUOUS
10
4.84038
20
-6.35029
11
4.84033
21
-6.35027
0
LINE
8
BLACK
6
CONTINUOUS
10
4.84033
20
-6.35027
11
4.84028
21
-6.35026
0
LINE
8
BLACK
6
CONTINUOUS
10
4.84028
20
-6.35026
11
4.83539
21
-6.34811
0
LINE
8
BLACK
6
CONTINUOUS
10
4.83539
20
-6.34811
11
4.83538
21
-6.34811
0
LINE
8
BLACK
6
CONTINUOUS
10
4.83538
20
-6.34811
11
0.55714
21
-4.26134
0
LINE
8
BLACK
6
CONTINUOUS
10
0.55714
20
-4.26134
11
0.557114
21
-4.26132
0
LINE
8
BLACK
6
CONTINUOUS
10
0.557114
20
-4.26132
11
0.557113
21
-4.26132
0
LINE
8
BLACK
6
CONTINUOUS
10
0.557113
20
-4.26132
11
0.537272
21
-4.24959
0
LINE
8
BLACK
6
CONTINUOUS
10
0.537272
20
-4.24959
11
0.53726
21
-4.24958
0
LINE
8
BLACK
6
CONTINUOUS
10
0.53726
20
-4.24958
11
0.537189
21
-4.24953
0
LINE
8
BLACK
6
CONTINUOUS
10
0.537189
20
-4.24953
11
0.537117
21
-4.24947
0
LINE
8
BLACK
6
CONTINUOUS
10
0.537117
20
-4.24947
11
0.519933
21
-4.23411
0
LINE
8
BLACK
6
CONTINUOUS
10
0.519933
20
-4.23411
11
0.519933
21
-4.23411
0
LINE
8
BLACK
6
CONTINUOUS
10
0.519933
20
-4.23411
11
0.519933
21
-4.23411
0
LINE
8
BLACK
6
CONTINUOUS
10
0.519933
20
-4.23411
11
0.519923
21
-4.2341
0
LINE
8
BLACK
6
CONTINUOUS
10
0.519923
20
-4.2341
11
0.519863
21
-4.23403
0
LINE
8
BLACK
6
CONTINUOUS
10
0.519863
20
-4.23403
11
0.519803
21
-4.23397
0
LINE
8
BLACK
6
CONTINUOUS
10
0.519803
20
-4.23397
11
0.50593
21
-4.21556
0
LINE
8
BLACK
6
CONTINUOUS
10
0.50593
20
-4.21556
11
0.505922
21
-4.21555
0
LINE
8
BLACK
6
CONTINUOUS
10
0.505922
20
-4.21555
11
0.505877
21
-4.21547
0
LINE
8
BLACK
6
CONTINUOUS
10
0.505877
20
-4.21547
11
0.50583
21
-4.21539
0
LINE
8
BLACK
6
CONTINUOUS
10
0.50583
20
-4.21539
11
0.495798
21
-4.19464
0
LINE
8
BLACK
6
CONTINUOUS
10
0.495798
20
-4.19464
11
0.495792
21
-4.19463
0
LINE
8
BLACK
6
CONTINUOUS
10
0.495792
20
-4.19463
11
0.495762
21
-4.19454
0
LINE
8
BLACK
6
CONTINUOUS
10
0.495762
20
-4.19454
11
0.495731
21
-4.19446
0
LINE
8
BLACK
6
CONTINUOUS
10
0.495731
20
-4.19446
11
0.489921
21
-4.17215
0
LINE
8
BLACK
6
CONTINUOUS
10
0.489921
20
-4.17215
11
0.489918
21
-4.17214
0
LINE
8
BLACK
6
CONTINUOUS
10
0.489918
20
-4.17214
11
0.489906
21
-4.17206
0
LINE
8
BLACK
6
CONTINUOUS
10
0.489906
20
-4.17206
11
0.489892
21
-4.17198
0
LINE
8
BLACK
6
CONTINUOUS
10
0.489892
20
-4.17198
11
0.488439
21
-4.15351
0
LINE
8
BLACK
6
CONTINUOUS
10
0.488439
20
-4.15351
11
0.488435
21
-4.15348
0
LINE
8
BLACK
6
CONTINUOUS
10
0.488435
20
-4.15348
11
0.488435
21
-2.06688
0
LINE
8
BLACK
6
CONTINUOUS
10
0.488435
20
-2.06688
11
0.48844
21
-2.06683
0
LINE
8
BLACK
6
CONTINUOUS
10
0.48844
20
-2.06683
11
0.48844
21
-2.06683
0
LINE
8
BLACK
6
CONTINUOUS
10
0.48844
20
-2.06683
11
0.490689
21
-2.04389
0
LINE
8
BLACK
6
CONTINUOUS
10
0.490689
20
-2.04389
11
0.490691
21
-2.04388
0
LINE
8
BLACK
6
CONTINUOUS
10
0.490691
20
-2.04388
11
0.490709
21
-2.04379
0
LINE
8
BLACK
6
CONTINUOUS
10
0.490709
20
-2.04379
11
0.490726
21
-2.0437
0
LINE
8
BLACK
6
CONTINUOUS
10
0.490726
20
-2.0437
11
0.497389
21
-2.02164
0
LINE
8
BLACK
6
CONTINUOUS
10
0.497389
20
-2.02164
11
0.497393
21
-2.02162
0
LINE
8
BLACK
6
CONTINUOUS
10
0.497393
20
-2.02162
11
0.497428
21
-2.02154
0
LINE
8
BLACK
6
CONTINUOUS
10
0.497428
20
-2.02154
11
0.497462
21
-2.02146
0
LINE
8
BLACK
6
CONTINUOUS
10
0.497462
20
-2.02146
11
0.508284
21
-2.00111
0
LINE
8
BLACK
6
CONTINUOUS
10
0.508284
20
-2.00111
11
0.50829
21
-2.00109
0
LINE
8
BLACK
6
CONTINUOUS
10
0.50829
20
-2.00109
11
0.508341
21
-2.00102
0
LINE
8
BLACK
6
CONTINUOUS
10
0.508341
20
-2.00102
11
0.50839
21
-2.00095
0
LINE
8
BLACK
6
CONTINUOUS
10
0.50839
20
-2.00095
11
0.522959
21
-1.98308
0
LINE
8
BLACK
6
CONTINUOUS
10
0.522959
20
-1.98308
11
0.522959
21
-1.98308
0
LINE
8
BLACK
6
CONTINUOUS
10
0.522959
20
-1.98308
11
0.522959
21
-1.98308
0
LINE
8
BLACK
6
CONTINUOUS
10
0.522959
20
-1.98308
11
0.522968
21
-1.98307
0
LINE
8
BLACK
6
CONTINUOUS
10
0.522968
20
-1.98307
11
0.523031
21
-1.98301
0
LINE
8
BLACK
6
CONTINUOUS
10
0.523031
20
-1.98301
11
0.523095
21
-1.98295
0
LINE
8
BLACK
6
CONTINUOUS
10
0.523095
20
-1.98295
11
0.540856
21
-1.96825
0
LINE
8
BLACK
6
CONTINUOUS
10
0.540856
20
-1.96825
11
0.540866
21
-1.96824
0
LINE
8
BLACK
6
CONTINUOUS
10
0.540866
20
-1.96824
11
0.540941
21
-1.9682
0
LINE
8
BLACK
6
CONTINUOUS
10
0.540941
20
-1.9682
11
0.541015
21
-1.96815
0
LINE
8
BLACK
6
CONTINUOUS
10
0.541015
20
-1.96815
11
0.561292
21
-1.95718
0
LINE
8
BLACK
6
CONTINUOUS
10
0.561292
20
-1.95718
11
0.561304
21
-1.95718
0
LINE
8
BLACK
6
CONTINUOUS
10
0.561304
20
-1.95718
11
0.561387
21
-1.95714
0
LINE
8
BLACK
6
CONTINUOUS
10
0.561387
20
-1.95714
11
0.561469
21
-1.95711
0
LINE
8
BLACK
6
CONTINUOUS
10
0.561469
20
-1.95711
11
0.583489
21
-1.95029
0
LINE
8
BLACK
6
CONTINUOUS
10
0.583489
20
-1.95029
11
0.583489
21
-1.95029
0
LINE
8
BLACK
6
CONTINUOUS
10
0.583489
20
-1.95029
11
0.583502
21
-1.95029
0
LINE
8
BLACK
6
CONTINUOUS
10
0.606758
20
-1.94981
11
0.583979
21
-1.9522
0
LINE
8
BLACK
6
CONTINUOUS
10
0.583979
20
-1.9522
11
0.562143
21
-1.95896
0
LINE
8
BLACK
6
CONTINUOUS
10
0.562143
20
-1.95896
11
0.542036
21
-1.96983
0
LINE
8
BLACK
6
CONTINUOUS
10
0.542036
20
-1.96983
11
0.524424
21
-1.9844
0
LINE
8
BLACK
6
CONTINUOUS
10
0.524424
20
-1.9844
11
0.509977
21
-2.00212
0
LINE
8
BLACK
6
CONTINUOUS
10
0.509977
20
-2.00212
11
0.499246
21
-2.0223
0
LINE
8
BLACK
6
CONTINUOUS
10
0.499246
20
-2.0223
11
0.492639
21
-2.04418
0
LINE
8
BLACK
6
CONTINUOUS
10
0.492639
20
-2.04418
11
0.490404
21
-2.06698
0
LINE
8
BLACK
6
CONTINUOUS
10
0.490404
20
-2.06698
11
0.490404
21
-4.15339
0
LINE
8
BLACK
6
CONTINUOUS
10
0.490404
20
-4.15339
11
0.491848
21
-4.17174
0
LINE
8
BLACK
6
CONTINUOUS
10
0.491848
20
-4.17174
11
0.497612
21
-4.19387
0
LINE
8
BLACK
6
CONTINUOUS
10
0.497612
20
-4.19387
11
0.507561
21
-4.21445
0
LINE
8
BLACK
6
CONTINUOUS
10
0.507561
20
-4.21445
11
0.521317
21
-4.23271
0
LINE
8
BLACK
6
CONTINUOUS
10
0.521317
20
-4.23271
11
0.538357
21
-4.24794
0
LINE
8
BLACK
6
CONTINUOUS
10
0.538357
20
-4.24794
11
0.558079
21
-4.25961
0
LINE
8
BLACK
6
CONTINUOUS
10
0.558079
20
-4.25961
11
4.83618
21
-6.34631
0
LINE
8
BLACK
6
CONTINUOUS
10
4.83618
20
-6.34631
11
4.84102
21
-6.34843
0
LINE
8
BLACK
6
CONTINUOUS
10
4.84102
20
-6.34843
11
4.86293
21
-6.35505
0
LINE
8
BLACK
6
CONTINUOUS
10
4.86293
20
-6.35505
11
4.88573
21
-6.35728
0
LINE
8
BLACK
6
CONTINUOUS
10
4.88573
20
-6.35728
11
6.80181
21
-6.35728
0
LINE
8
BLACK
6
CONTINUOUS
10
6.80181
20
-6.35728
11
6.80709
21
-6.35716
0
LINE
8
BLACK
6
CONTINUOUS
10
6.80709
20
-6.35716
11
6.82975
21
-6.3539
0
LINE
8
BLACK
6
CONTINUOUS
10
6.82975
20
-6.3539
11
6.85135
21
-6.34629
0
LINE
8
BLACK
6
CONTINUOUS
10
6.85135
20
-6.34629
11
11.1294
21
-4.2596
0
LINE
8
BLACK
6
CONTINUOUS
10
11.1294
20
-4.2596
11
11.1455
21
-4.25053
0
LINE
8
BLACK
6
CONTINUOUS
10
11.1455
20
-4.25053
11
11.1631
21
-4.23596
0
LINE
8
BLACK
6
CONTINUOUS
10
11.1631
20
-4.23596
11
11.1775
21
-4.21824
0
LINE
8
BLACK
6
CONTINUOUS
10
11.1775
20
-4.21824
11
11.1883
21
-4.19806
0
LINE
8
BLACK
6
CONTINUOUS
10
11.1883
20
-4.19806
11
11.1949
21
-4.17618
0
LINE
8
BLACK
6
CONTINUOUS
10
11.1949
20
-4.17618
11
11.1971
21
-4.15338
0
LINE
8
BLACK
6
CONTINUOUS
10
11.1971
20
-4.15338
11
11.1971
21
-2.06693
0
LINE
8
BLACK
6
CONTINUOUS
10
11.1971
20
-2.06693
11
11.1971
21
-2.06616
0
LINE
8
BLACK
6
CONTINUOUS
10
11.1971
20
-2.06616
11
11.1947
21
-2.04338
0
LINE
8
BLACK
6
CONTINUOUS
10
11.1947
20
-2.04338
11
11.1879
21
-2.02154
0
LINE
8
BLACK
6
CONTINUOUS
10
11.1879
20
-2.02154
11
11.1771
21
-2.00144
0
LINE
8
BLACK
6
CONTINUOUS
10
11.1771
20
-2.00144
11
11.1625
21
-1.98382
0
LINE
8
BLACK
6
CONTINUOUS
10
11.1625
20
-1.98382
11
11.1448
21
-1.96938
0
LINE
8
BLACK
6
CONTINUOUS
10
11.1448
20
-1.96938
11
11.1246
21
-1.95865
0
LINE
8
BLACK
6
CONTINUOUS
10
11.1246
20
-1.95865
11
11.1027
21
-1.95204
0
LINE
8
BLACK
6
CONTINUOUS
10
11.1027
20
-1.95204
11
11.0799
21
-1.9498
0
LINE
8
BLACK
6
CONTINUOUS
10
11.0799
20
-1.9498
11
6.53239
21
-1.9498
0
LINE
8
BLACK
6
CONTINUOUS
10
6.53239
20
-1.9498
11
6.53234
21
-1.9498
0
LINE
8
BLACK
6
CONTINUOUS
10
6.53234
20
-1.9498
11
6.53234
21
-1.9498
0
LINE
8
BLACK
6
CONTINUOUS
10
6.53234
20
-1.9498
11
6.5094
21
-1.94755
0
LINE
8
BLACK
6
CONTINUOUS
10
6.5094
20
-1.94755
11
6.50939
21
-1.94755
0
LINE
8
BLACK
6
CONTINUOUS
10
6.50939
20
-1.94755
11
6.5093
21
-1.94753
0
LINE
8
BLACK
6
CONTINUOUS
10
6.5093
20
-1.94753
11
6.50921
21
-1.94751
0
LINE
8
BLACK
6
CONTINUOUS
10
6.50921
20
-1.94751
11
6.48714
21
-1.94085
0
LINE
8
BLACK
6
CONTINUOUS
10
6.48714
20
-1.94085
11
6.48713
21
-1.94085
0
LINE
8
BLACK
6
CONTINUOUS
10
6.48713
20
-1.94085
11
6.48705
21
-1.94081
0
LINE
8
BLACK
6
CONTINUOUS
10
6.48705
20
-1.94081
11
6.48697
21
-1.94078
0
LINE
8
BLACK
6
CONTINUOUS
10
6.48697
20
-1.94078
11
6.46661
21
-1.92995
0
LINE
8
BLACK
6
CONTINUOUS
10
6.46661
20
-1.92995
11
6.4666
21
-1.92995
0
LINE
8
BLACK
6
CONTINUOUS
10
6.4666
20
-1.92995
11
6.46653
21
-1.9299
0
LINE
8
BLACK
6
CONTINUOUS
10
6.46653
20
-1.9299
11
6.46645
21
-1.92985
0
LINE
8
BLACK
6
CONTINUOUS
10
6.46645
20
-1.92985
11
6.44859
21
-1.91528
0
LINE
8
BLACK
6
CONTINUOUS
10
6.44859
20
-1.91528
11
6.44858
21
-1.91527
0
LINE
8
BLACK
6
CONTINUOUS
10
6.44858
20
-1.91527
11
6.44855
21
-1.91524
0
LINE
8
BLACK
6
CONTINUOUS
10
6.44855
20
-1.91524
11
6.44852
21
-1.91521
0
LINE
8
BLACK
6
CONTINUOUS
10
6.44852
20
-1.91521
11
6.44826
21
-1.91496
0
LINE
8
BLACK
6
CONTINUOUS
10
6.44826
20
-1.91496
11
6.44826
21
-1.91496
0
LINE
8
BLACK
6
CONTINUOUS
10
6.44826
20
-1.91496
11
6.36978
21
-1.83647
0
LINE
8
BLACK
6
CONTINUOUS
10
6.36978
20
-1.83647
11
6.36977
21
-1.83647
0
LINE
8
BLACK
6
CONTINUOUS
10
6.36977
20
-1.83647
11
6.36952
21
-1.83622
0
LINE
8
BLACK
6
CONTINUOUS
10
6.36952
20
-1.83622
11
6.35177
21
-1.82174
0
LINE
8
BLACK
6
CONTINUOUS
10
6.35177
20
-1.82174
11
6.33158
21
-1.81101
0
LINE
8
BLACK
6
CONTINUOUS
10
6.33158
20
-1.81101
11
6.3097
21
-1.8044
0
LINE
8
BLACK
6
CONTINUOUS
10
6.3097
20
-1.8044
11
6.2869
21
-1.80217
0
LINE
8
BLACK
6
CONTINUOUS
10
6.2869
20
-1.80217
11
6.08095
21
-1.80217
0
LINE
8
BLACK
6
CONTINUOUS
10
6.08095
20
-1.80217
11
6.08095
21
-3.06098
0
LINE
8
BLACK
6
CONTINUOUS
10
6.08095
20
-3.06098
11
6.08096
21
-3.06102
0
LINE
8
BLACK
6
CONTINUOUS
10
6.08096
20
-3.06102
11
6.08095
21
-3.06107
0
LINE
8
BLACK
6
CONTINUOUS
10
6.08095
20
-3.06107
11
6.08094
21
-3.06122
0
LINE
8
BLACK
6
CONTINUOUS
10
6.08094
20
-3.06122
11
6.08088
21
-3.0614
0
LINE
8
BLACK
6
CONTINUOUS
10
6.08088
20
-3.0614
11
6.08079
21
-3.06157
0
LINE
8
BLACK
6
CONTINUOUS
10
6.08079
20
-3.06157
11
6.08067
21
-3.06172
0
LINE
8
BLACK
6
CONTINUOUS
10
6.08067
20
-3.06172
11
6.08052
21
-3.06185
0
LINE
8
BLACK
6
CONTINUOUS
10
6.08052
20
-3.06185
11
6.08035
21
-3.06194
0
LINE
8
BLACK
6
CONTINUOUS
10
6.08035
20
-3.06194
11
6.08016
21
-3.06199
0
LINE
8
BLACK
6
CONTINUOUS
10
6.08016
20
-3.06199
11
6.07997
21
-3.06201
0
LINE
8
BLACK
6
CONTINUOUS
10
6.07997
20
-3.06201
11
6.07992
21
-3.06201
0
LINE
8
BLACK
6
CONTINUOUS
10
6.07992
20
-3.06201
11
5.60758
21
-3.06201
0
LINE
8
BLACK
6
CONTINUOUS
10
5.60758
20
-3.06201
11
5.60753
21
-3.06201
0
LINE
8
BLACK
6
CONTINUOUS
10
5.60753
20
-3.06201
11
5.60748
21
-3.06201
0
LINE
8
BLACK
6
CONTINUOUS
10
5.60748
20
-3.06201
11
5.60748
21
-3.06201
0
LINE
8
BLACK
6
CONTINUOUS
10
5.60748
20
-3.06201
11
5.60734
21
-3.06199
0
LINE
8
BLACK
6
CONTINUOUS
10
5.60734
20
-3.06199
11
5.60715
21
-3.06194
0
LINE
8
BLACK
6
CONTINUOUS
10
5.60715
20
-3.06194
11
5.60698
21
-3.06185
0
LINE
8
BLACK
6
CONTINUOUS
10
5.60698
20
-3.06185
11
5.60683
21
-3.06172
0
LINE
8
BLACK
6
CONTINUOUS
10
5.60683
20
-3.06172
11
5.60671
21
-3.06157
0
LINE
8
BLACK
6
CONTINUOUS
10
5.60671
20
-3.06157
11
5.60662
21
-3.0614
0
LINE
8
BLACK
6
CONTINUOUS
10
5.60662
20
-3.0614
11
5.60656
21
-3.06122
0
LINE
8
BLACK
6
CONTINUOUS
10
5.60656
20
-3.06122
11
5.60654
21
-3.06102
0
LINE
8
BLACK
6
CONTINUOUS
10
5.60654
20
-3.06102
11
5.60655
21
-3.06098
0
LINE
8
BLACK
6
CONTINUOUS
10
5.60655
20
-3.06098
11
5.60655
21
-1.80217
0
LINE
8
BLACK
6
CONTINUOUS
10
5.60655
20
-1.80217
11
5.40055
21
-1.80217
0
LINE
8
BLACK
6
CONTINUOUS
10
5.40055
20
-1.80217
11
5.40019
21
-1.80217
0
LINE
8
BLACK
6
CONTINUOUS
10
5.40019
20
-1.80217
11
5.3774
21
-1.80448
0
LINE
8
BLACK
6
CONTINUOUS
10
5.3774
20
-1.80448
11
5.35554
21
-1.81116
0
LINE
8
BLACK
6
CONTINUOUS
10
5.35554
20
-1.81116
11
5.33539
21
-1.82197
0
LINE
8
BLACK
6
CONTINUOUS
10
5.33539
20
-1.82197
11
5.31769
21
-1.8365
0
LINE
8
BLACK
6
CONTINUOUS
10
5.31769
20
-1.8365
11
5.23924
21
-1.91496
0
LINE
8
BLACK
6
CONTINUOUS
10
5.23924
20
-1.91496
11
5.23921
21
-1.91499
0
LINE
8
BLACK
6
CONTINUOUS
10
5.23921
20
-1.91499
11
5.2392
21
-1.91499
0
LINE
8
BLACK
6
CONTINUOUS
10
5.2392
20
-1.91499
11
5.22139
21
-1.92962
0
LINE
8
BLACK
6
CONTINUOUS
10
5.22139
20
-1.92962
11
5.22139
21
-1.92962
0
LINE
8
BLACK
6
CONTINUOUS
10
5.22139
20
-1.92962
11
5.22139
21
-1.92962
0
LINE
8
BLACK
6
CONTINUOUS
10
5.22139
20
-1.92962
11
5.22138
21
-1.92963
0
LINE
8
BLACK
6
CONTINUOUS
10
5.22138
20
-1.92963
11
5.22131
21
-1.92967
0
LINE
8
BLACK
6
CONTINUOUS
10
5.22131
20
-1.92967
11
5.22123
21
-1.92972
0
LINE
8
BLACK
6
CONTINUOUS
10
5.22123
20
-1.92972
11
5.20092
21
-1.94062
0
LINE
8
BLACK
6
CONTINUOUS
10
5.20092
20
-1.94062
11
5.20091
21
-1.94062
0
LINE
8
BLACK
6
CONTINUOUS
10
5.20091
20
-1.94062
11
5.20082
21
-1.94066
0
LINE
8
BLACK
6
CONTINUOUS
10
5.20082
20
-1.94066
11
5.20074
21
-1.94069
0
LINE
8
BLACK
6
CONTINUOUS
10
5.20074
20
-1.94069
11
5.1787
21
-1.94743
0
LINE
8
BLACK
6
CONTINUOUS
10
5.1787
20
-1.94743
11
5.17868
21
-1.94743
0
LINE
8
BLACK
6
CONTINUOUS
10
5.17868
20
-1.94743
11
5.17859
21
-1.94745
0
LINE
8
BLACK
6
CONTINUOUS
10
5.17859
20
-1.94745
11
5.17851
21
-1.94747
0
LINE
8
BLACK
6
CONTINUOUS
10
5.17851
20
-1.94747
11
5.15558
21
-1.9498
0
LINE
8
BLACK
6
CONTINUOUS
10
5.15558
20
-1.9498
11
5.15556
21
-1.9498
0
LINE
8
BLACK
6
CONTINUOUS
10
5.15556
20
-1.9498
11
5.15552
21
-1.9498
0
LINE
8
BLACK
6
CONTINUOUS
10
5.15552
20
-1.9498
11
5.15548
21
-1.9498
0
LINE
8
BLACK
6
CONTINUOUS
10
5.15548
20
-1.9498
11
5.15511
21
-1.9498
0
LINE
8
BLACK
6
CONTINUOUS
10
5.15511
20
-1.9498
11
5.15511
21
-1.9498
0
LINE
8
BLACK
6
CONTINUOUS
10
5.15511
20
-1.9498
11
0.607533
21
-1.9498
0
LINE
8
BLACK
6
CONTINUOUS
10
0.607533
20
-1.9498
11
0.606758
21
-1.94981
  0
ENDSEC
  0
EOF
