  0
SECTION
  2
HEADER
  9
$ANGBASE
  50
0.0
  9
$ANGDIR
  70
1
  9
$MEASUREMENT
  70
1
  0
ENDSEC
  0
SECTION
  2
TABLES
  0
TABLE
  2
LTYPE
  70
4
  0
LTYPE
  5
40F
  2
CONTINUOUS
  70
0
  3
Solid line
  72
65
  73
0
  40
0.0
  0
LTYPE
  5
410
  2
DASHDOT
 70
0
  3
Dash Dot ____ _ ____ _
 72
65
 73
4
 40
2.0
 49
1.25
 49
-0.25
 49
0.25
 49
-0.25
  0
LTYPE
  5
411
  2
DASHED
 70
0
  3
Dashed __ __ __ __ __
 72
65
 73
2
 40
0.75
 49
0.5
 49
-0.25
  0
LTYPE
  5
43B
  2
DOTTED
 70
0
  3
Dotted .  .  .  .
 72
65
 73
2
 40
0.2
 49
0.0
 49
-0.2
  0
ENDTAB
  0
TABLE
  2
STYLE
  70
4
  0
STYLE
  2
KICAD
  70
0
  40
0
  41
1
  42
1
  50
0
  71
0
  3
isocp.shx
  0
STYLE
  2
KICADB
  70
0
  40
0
  41
1
  42
1
  50
0
  71
0
  3
isocp.shx
  0
STYLE
  2
KICADI
  70
0
  40
0
  41
1
  42
1
  50
15
  71
0
  3
isocp.shx
  0
STYLE
  2
KICADBI
  70
0
  40
0
  41
1
  42
1
  50
15
  71
0
  3
isocp.shx
  0
ENDTAB
  0
TABLE
  2
LAYER
  70
1
  0
LAYER
  2
BLACK
  70
0
  62
7
  6
CONTINUOUS
  0
ENDTAB
  0
ENDSEC
  0
SECTION
  2
ENTITIES
0
LINE
8
BLACK
6
CONTINUOUS
10
19.821
20
-49.5373
11
19.8232
21
-49.5369
0
LINE
8
BLACK
6
CONTINUOUS
10
19.8232
20
-49.5369
11
19.8254
21
-49.5364
0
LINE
8
BLACK
6
CONTINUOUS
10
19.8254
20
-49.5364
11
20.4077
21
-49.4752
0
LINE
8
BLACK
6
CONTINUOUS
10
20.4077
20
-49.4752
11
20.408
21
-49.4752
0
LINE
8
BLACK
6
CONTINUOUS
10
20.408
20
-49.4752
11
20.4091
21
-49.4752
0
LINE
8
BLACK
6
CONTINUOUS
10
20.4091
20
-49.4752
11
20.4102
21
-49.4751
0
LINE
8
BLACK
6
CONTINUOUS
10
20.4102
20
-49.4751
11
20.43
21
-49.475
0
LINE
8
BLACK
6
CONTINUOUS
10
20.43
20
-49.475
11
20.43
21
-49.475
0
LINE
8
BLACK
6
CONTINUOUS
10
20.43
20
-49.475
11
276.432
21
-49.475
0
LINE
8
BLACK
6
CONTINUOUS
10
276.432
20
-49.475
11
276.434
21
-49.4751
0
LINE
8
BLACK
6
CONTINUOUS
10
276.434
20
-49.4751
11
276.434
21
-49.4751
0
LINE
8
BLACK
6
CONTINUOUS
10
276.434
20
-49.4751
11
277.016
21
-49.5323
0
LINE
8
BLACK
6
CONTINUOUS
10
277.016
20
-49.5323
11
277.017
21
-49.5323
0
LINE
8
BLACK
6
CONTINUOUS
10
277.017
20
-49.5323
11
277.019
21
-49.5328
0
LINE
8
BLACK
6
CONTINUOUS
10
277.019
20
-49.5328
11
277.021
21
-49.5332
0
LINE
8
BLACK
6
CONTINUOUS
10
277.021
20
-49.5332
11
277.582
21
-49.7024
0
LINE
8
BLACK
6
CONTINUOUS
10
277.582
20
-49.7024
11
277.582
21
-49.7025
0
LINE
8
BLACK
6
CONTINUOUS
10
277.582
20
-49.7025
11
277.584
21
-49.7034
0
LINE
8
BLACK
6
CONTINUOUS
10
277.584
20
-49.7034
11
277.586
21
-49.7043
0
LINE
8
BLACK
6
CONTINUOUS
10
277.586
20
-49.7043
11
278.103
21
-49.9792
0
LINE
8
BLACK
6
CONTINUOUS
10
278.103
20
-49.9792
11
278.103
21
-49.9793
0
LINE
8
BLACK
6
CONTINUOUS
10
278.103
20
-49.9793
11
278.105
21
-49.9806
0
LINE
8
BLACK
6
CONTINUOUS
10
278.105
20
-49.9806
11
278.107
21
-49.9819
0
LINE
8
BLACK
6
CONTINUOUS
10
278.107
20
-49.9819
11
278.561
21
-50.3519
0
LINE
8
BLACK
6
CONTINUOUS
10
278.561
20
-50.3519
11
278.561
21
-50.3519
0
LINE
8
BLACK
6
CONTINUOUS
10
278.561
20
-50.3519
11
278.561
21
-50.3519
0
LINE
8
BLACK
6
CONTINUOUS
10
278.561
20
-50.3519
11
278.561
21
-50.3521
0
LINE
8
BLACK
6
CONTINUOUS
10
278.561
20
-50.3521
11
278.563
21
-50.3537
0
LINE
8
BLACK
6
CONTINUOUS
10
278.563
20
-50.3537
11
278.564
21
-50.3554
0
LINE
8
BLACK
6
CONTINUOUS
10
278.564
20
-50.3554
11
278.938
21
-50.8065
0
LINE
8
BLACK
6
CONTINUOUS
10
278.938
20
-50.8065
11
278.938
21
-50.8068
0
LINE
8
BLACK
6
CONTINUOUS
10
278.938
20
-50.8068
11
278.939
21
-50.8086
0
LINE
8
BLACK
6
CONTINUOUS
10
278.939
20
-50.8086
11
278.94
21
-50.8105
0
LINE
8
BLACK
6
CONTINUOUS
10
278.94
20
-50.8105
11
279.219
21
-51.3256
0
LINE
8
BLACK
6
CONTINUOUS
10
279.219
20
-51.3256
11
279.219
21
-51.3259
0
LINE
8
BLACK
6
CONTINUOUS
10
279.219
20
-51.3259
11
279.22
21
-51.328
0
LINE
8
BLACK
6
CONTINUOUS
10
279.22
20
-51.328
11
279.221
21
-51.3301
0
LINE
8
BLACK
6
CONTINUOUS
10
279.221
20
-51.3301
11
279.394
21
-51.8894
0
LINE
8
BLACK
6
CONTINUOUS
10
279.394
20
-51.8894
11
279.394
21
-51.8897
0
LINE
8
BLACK
6
CONTINUOUS
10
279.394
20
-51.8897
11
279.394
21
-51.892
0
LINE
8
BLACK
6
CONTINUOUS
10
279.394
20
-51.892
11
279.395
21
-51.8942
0
LINE
8
BLACK
6
CONTINUOUS
10
279.395
20
-51.8942
11
279.456
21
-52.4764
0
LINE
8
BLACK
6
CONTINUOUS
10
279.456
20
-52.4764
11
279.456
21
-52.4768
0
LINE
8
BLACK
6
CONTINUOUS
10
279.456
20
-52.4768
11
279.456
21
-52.4779
0
LINE
8
BLACK
6
CONTINUOUS
10
279.456
20
-52.4779
11
279.456
21
-52.479
0
LINE
8
BLACK
6
CONTINUOUS
10
279.456
20
-52.479
11
279.456
21
-52.4987
0
LINE
8
BLACK
6
CONTINUOUS
10
279.456
20
-52.4987
11
279.456
21
-52.4988
0
LINE
8
BLACK
6
CONTINUOUS
10
279.456
20
-52.4988
11
279.456
21
-107.83
0
LINE
8
BLACK
6
CONTINUOUS
10
279.456
20
-107.83
11
279.456
21
-107.834
0
LINE
8
BLACK
6
CONTINUOUS
10
279.456
20
-107.834
11
279.456
21
-107.834
0
LINE
8
BLACK
6
CONTINUOUS
10
279.456
20
-107.834
11
279.399
21
-108.414
0
LINE
8
BLACK
6
CONTINUOUS
10
279.399
20
-108.414
11
279.399
21
-108.414
0
LINE
8
BLACK
6
CONTINUOUS
10
279.399
20
-108.414
11
279.398
21
-108.416
0
LINE
8
BLACK
6
CONTINUOUS
10
279.398
20
-108.416
11
279.398
21
-108.419
0
LINE
8
BLACK
6
CONTINUOUS
10
279.398
20
-108.419
11
279.229
21
-108.979
0
LINE
8
BLACK
6
CONTINUOUS
10
279.229
20
-108.979
11
279.229
21
-108.979
0
LINE
8
BLACK
6
CONTINUOUS
10
279.229
20
-108.979
11
279.228
21
-108.981
0
LINE
8
BLACK
6
CONTINUOUS
10
279.228
20
-108.981
11
279.227
21
-108.984
0
LINE
8
BLACK
6
CONTINUOUS
10
279.227
20
-108.984
11
278.952
21
-109.501
0
LINE
8
BLACK
6
CONTINUOUS
10
278.952
20
-109.501
11
278.952
21
-109.501
0
LINE
8
BLACK
6
CONTINUOUS
10
278.952
20
-109.501
11
278.951
21
-109.503
0
LINE
8
BLACK
6
CONTINUOUS
10
278.951
20
-109.503
11
278.949
21
-109.505
0
LINE
8
BLACK
6
CONTINUOUS
10
278.949
20
-109.505
11
278.579
21
-109.958
0
LINE
8
BLACK
6
CONTINUOUS
10
278.579
20
-109.958
11
278.579
21
-109.959
0
LINE
8
BLACK
6
CONTINUOUS
10
278.579
20
-109.959
11
278.577
21
-109.96
0
LINE
8
BLACK
6
CONTINUOUS
10
278.577
20
-109.96
11
278.576
21
-109.962
0
LINE
8
BLACK
6
CONTINUOUS
10
278.576
20
-109.962
11
278.125
21
-110.335
0
LINE
8
BLACK
6
CONTINUOUS
10
278.125
20
-110.335
11
278.124
21
-110.335
0
LINE
8
BLACK
6
CONTINUOUS
10
278.124
20
-110.335
11
278.123
21
-110.336
0
LINE
8
BLACK
6
CONTINUOUS
10
278.123
20
-110.336
11
278.121
21
-110.338
0
LINE
8
BLACK
6
CONTINUOUS
10
278.121
20
-110.338
11
277.712
21
-110.569
0
LINE
8
BLACK
6
CONTINUOUS
10
277.712
20
-110.569
11
277.711
21
-110.57
0
LINE
8
BLACK
6
CONTINUOUS
10
277.711
20
-110.57
11
169.043
21
-161.242
0
LINE
8
BLACK
6
CONTINUOUS
10
169.043
20
-161.242
11
169.042
21
-161.242
0
LINE
8
BLACK
6
CONTINUOUS
10
169.042
20
-161.242
11
169.042
21
-161.243
0
LINE
8
BLACK
6
CONTINUOUS
10
169.042
20
-161.243
11
168.49
21
-161.437
0
LINE
8
BLACK
6
CONTINUOUS
10
168.49
20
-161.437
11
168.49
21
-161.437
0
LINE
8
BLACK
6
CONTINUOUS
10
168.49
20
-161.437
11
168.488
21
-161.438
0
LINE
8
BLACK
6
CONTINUOUS
10
168.488
20
-161.438
11
168.485
21
-161.438
0
LINE
8
BLACK
6
CONTINUOUS
10
168.485
20
-161.438
11
167.906
21
-161.522
0
LINE
8
BLACK
6
CONTINUOUS
10
167.906
20
-161.522
11
167.905
21
-161.522
0
LINE
8
BLACK
6
CONTINUOUS
10
167.905
20
-161.522
11
167.904
21
-161.522
0
LINE
8
BLACK
6
CONTINUOUS
10
167.904
20
-161.522
11
167.903
21
-161.522
0
LINE
8
BLACK
6
CONTINUOUS
10
167.903
20
-161.522
11
167.768
21
-161.525
0
LINE
8
BLACK
6
CONTINUOUS
10
167.768
20
-161.525
11
167.767
21
-161.525
0
LINE
8
BLACK
6
CONTINUOUS
10
167.767
20
-161.525
11
129.095
21
-161.525
0
LINE
8
BLACK
6
CONTINUOUS
10
129.095
20
-161.525
11
129.091
21
-161.525
0
LINE
8
BLACK
6
CONTINUOUS
10
129.091
20
-161.525
11
129.091
21
-161.525
0
LINE
8
BLACK
6
CONTINUOUS
10
129.091
20
-161.525
11
128.511
21
-161.468
0
LINE
8
BLACK
6
CONTINUOUS
10
128.511
20
-161.468
11
128.511
21
-161.468
0
LINE
8
BLACK
6
CONTINUOUS
10
128.511
20
-161.468
11
128.509
21
-161.467
0
LINE
8
BLACK
6
CONTINUOUS
10
128.509
20
-161.467
11
128.506
21
-161.467
0
LINE
8
BLACK
6
CONTINUOUS
10
128.506
20
-161.467
11
127.946
21
-161.298
0
LINE
8
BLACK
6
CONTINUOUS
10
127.946
20
-161.298
11
127.946
21
-161.297
0
LINE
8
BLACK
6
CONTINUOUS
10
127.946
20
-161.297
11
127.944
21
-161.297
0
LINE
8
BLACK
6
CONTINUOUS
10
127.944
20
-161.297
11
127.943
21
-161.297
0
LINE
8
BLACK
6
CONTINUOUS
10
127.943
20
-161.297
11
127.819
21
-161.242
0
LINE
8
BLACK
6
CONTINUOUS
10
127.819
20
-161.242
11
127.819
21
-161.242
0
LINE
8
BLACK
6
CONTINUOUS
10
127.819
20
-161.242
11
19.1517
21
-110.57
0
LINE
8
BLACK
6
CONTINUOUS
10
19.1517
20
-110.57
11
19.1507
21
-110.569
0
LINE
8
BLACK
6
CONTINUOUS
10
19.1507
20
-110.569
11
19.1507
21
-110.569
0
LINE
8
BLACK
6
CONTINUOUS
10
19.1507
20
-110.569
11
18.6467
21
-110.271
0
LINE
8
BLACK
6
CONTINUOUS
10
18.6467
20
-110.271
11
18.6464
21
-110.271
0
LINE
8
BLACK
6
CONTINUOUS
10
18.6464
20
-110.271
11
18.6446
21
-110.269
0
LINE
8
BLACK
6
CONTINUOUS
10
18.6446
20
-110.269
11
18.6428
21
-110.268
0
LINE
8
BLACK
6
CONTINUOUS
10
18.6428
20
-110.268
11
18.2063
21
-109.878
0
LINE
8
BLACK
6
CONTINUOUS
10
18.2063
20
-109.878
11
18.2063
21
-109.878
0
LINE
8
BLACK
6
CONTINUOUS
10
18.2063
20
-109.878
11
18.2063
21
-109.878
0
LINE
8
BLACK
6
CONTINUOUS
10
18.2063
20
-109.878
11
18.206
21
-109.878
0
LINE
8
BLACK
6
CONTINUOUS
10
18.206
20
-109.878
11
18.2045
21
-109.876
0
LINE
8
BLACK
6
CONTINUOUS
10
18.2045
20
-109.876
11
18.203
21
-109.874
0
LINE
8
BLACK
6
CONTINUOUS
10
18.203
20
-109.874
11
17.8506
21
-109.407
0
LINE
8
BLACK
6
CONTINUOUS
10
17.8506
20
-109.407
11
17.8504
21
-109.406
0
LINE
8
BLACK
6
CONTINUOUS
10
17.8504
20
-109.406
11
17.8493
21
-109.404
0
LINE
8
BLACK
6
CONTINUOUS
10
17.8493
20
-109.404
11
17.8481
21
-109.403
0
LINE
8
BLACK
6
CONTINUOUS
10
17.8481
20
-109.403
11
17.5933
21
-108.875
0
LINE
8
BLACK
6
CONTINUOUS
10
17.5933
20
-108.875
11
17.5931
21
-108.875
0
LINE
8
BLACK
6
CONTINUOUS
10
17.5931
20
-108.875
11
17.5924
21
-108.873
0
LINE
8
BLACK
6
CONTINUOUS
10
17.5924
20
-108.873
11
17.5916
21
-108.871
0
LINE
8
BLACK
6
CONTINUOUS
10
17.5916
20
-108.871
11
17.444
21
-108.304
0
LINE
8
BLACK
6
CONTINUOUS
10
17.444
20
-108.304
11
17.4439
21
-108.304
0
LINE
8
BLACK
6
CONTINUOUS
10
17.4439
20
-108.304
11
17.4436
21
-108.302
0
LINE
8
BLACK
6
CONTINUOUS
10
17.4436
20
-108.302
11
17.4433
21
-108.3
0
LINE
8
BLACK
6
CONTINUOUS
10
17.4433
20
-108.3
11
17.4063
21
-107.831
0
LINE
8
BLACK
6
CONTINUOUS
10
17.4063
20
-107.831
11
17.4062
21
-107.83
0
LINE
8
BLACK
6
CONTINUOUS
10
17.4062
20
-107.83
11
17.4063
21
-52.4988
0
LINE
8
BLACK
6
CONTINUOUS
10
17.4063
20
-52.4988
11
17.4064
21
-52.4976
0
LINE
8
BLACK
6
CONTINUOUS
10
17.4064
20
-52.4976
11
17.4064
21
-52.4976
0
LINE
8
BLACK
6
CONTINUOUS
10
17.4064
20
-52.4976
11
17.4635
21
-51.9149
0
LINE
8
BLACK
6
CONTINUOUS
10
17.4635
20
-51.9149
11
17.4635
21
-51.9145
0
LINE
8
BLACK
6
CONTINUOUS
10
17.4635
20
-51.9145
11
17.464
21
-51.9123
0
LINE
8
BLACK
6
CONTINUOUS
10
17.464
20
-51.9123
11
17.4645
21
-51.9101
0
LINE
8
BLACK
6
CONTINUOUS
10
17.4645
20
-51.9101
11
17.6337
21
-51.3496
0
LINE
8
BLACK
6
CONTINUOUS
10
17.6337
20
-51.3496
11
17.6338
21
-51.3492
0
LINE
8
BLACK
6
CONTINUOUS
10
17.6338
20
-51.3492
11
17.6347
21
-51.3471
0
LINE
8
BLACK
6
CONTINUOUS
10
17.6347
20
-51.3471
11
17.6355
21
-51.3451
0
LINE
8
BLACK
6
CONTINUOUS
10
17.6355
20
-51.3451
11
17.9104
21
-50.8281
0
LINE
8
BLACK
6
CONTINUOUS
10
17.9104
20
-50.8281
11
17.9106
21
-50.8278
0
LINE
8
BLACK
6
CONTINUOUS
10
17.9106
20
-50.8278
11
17.9119
21
-50.8259
0
LINE
8
BLACK
6
CONTINUOUS
10
17.9119
20
-50.8259
11
17.9131
21
-50.824
0
LINE
8
BLACK
6
CONTINUOUS
10
17.9131
20
-50.824
11
18.2832
21
-50.3703
0
LINE
8
BLACK
6
CONTINUOUS
10
18.2832
20
-50.3703
11
18.2832
21
-50.3703
0
LINE
8
BLACK
6
CONTINUOUS
10
18.2832
20
-50.3703
11
18.2832
21
-50.3703
0
LINE
8
BLACK
6
CONTINUOUS
10
18.2832
20
-50.3703
11
18.2834
21
-50.37
0
LINE
8
BLACK
6
CONTINUOUS
10
18.2834
20
-50.37
11
18.285
21
-50.3685
0
LINE
8
BLACK
6
CONTINUOUS
10
18.285
20
-50.3685
11
18.2866
21
-50.3668
0
LINE
8
BLACK
6
CONTINUOUS
10
18.2866
20
-50.3668
11
18.7377
21
-49.9936
0
LINE
8
BLACK
6
CONTINUOUS
10
18.7377
20
-49.9936
11
18.738
21
-49.9934
0
LINE
8
BLACK
6
CONTINUOUS
10
18.738
20
-49.9934
11
18.7399
21
-49.9922
0
LINE
8
BLACK
6
CONTINUOUS
10
18.7399
20
-49.9922
11
18.7418
21
-49.9909
0
LINE
8
BLACK
6
CONTINUOUS
10
18.7418
20
-49.9909
11
19.2568
21
-49.7124
0
LINE
8
BLACK
6
CONTINUOUS
10
19.2568
20
-49.7124
11
19.2571
21
-49.7123
0
LINE
8
BLACK
6
CONTINUOUS
10
19.2571
20
-49.7123
11
19.2592
21
-49.7114
0
LINE
8
BLACK
6
CONTINUOUS
10
19.2592
20
-49.7114
11
19.2613
21
-49.7105
0
LINE
8
BLACK
6
CONTINUOUS
10
19.2613
20
-49.7105
11
19.8206
21
-49.5374
0
LINE
8
BLACK
6
CONTINUOUS
10
19.8206
20
-49.5374
11
19.8206
21
-49.5374
0
LINE
8
BLACK
6
CONTINUOUS
10
19.8206
20
-49.5374
11
19.821
21
-49.5373
0
LINE
8
BLACK
6
CONTINUOUS
10
20.4313
20
-49.525
11
20.4117
21
-49.5251
0
LINE
8
BLACK
6
CONTINUOUS
10
20.4117
20
-49.5251
11
19.8331
21
-49.5859
0
LINE
8
BLACK
6
CONTINUOUS
10
19.8331
20
-49.5859
11
19.2784
21
-49.7576
0
LINE
8
BLACK
6
CONTINUOUS
10
19.2784
20
-49.7576
11
18.7677
21
-50.0337
0
LINE
8
BLACK
6
CONTINUOUS
10
18.7677
20
-50.0337
11
18.3204
21
-50.4038
0
LINE
8
BLACK
6
CONTINUOUS
10
18.3204
20
-50.4038
11
17.9534
21
-50.8537
0
LINE
8
BLACK
6
CONTINUOUS
10
17.9534
20
-50.8537
11
17.6808
21
-51.3664
0
LINE
8
BLACK
6
CONTINUOUS
10
17.6808
20
-51.3664
11
17.513
21
-51.9222
0
LINE
8
BLACK
6
CONTINUOUS
10
17.513
20
-51.9222
11
17.4563
21
-52.5012
0
LINE
8
BLACK
6
CONTINUOUS
10
17.4563
20
-52.5012
11
17.4563
21
-107.828
0
LINE
8
BLACK
6
CONTINUOUS
10
17.4563
20
-107.828
11
17.4929
21
-108.294
0
LINE
8
BLACK
6
CONTINUOUS
10
17.4929
20
-108.294
11
17.6393
21
-108.856
0
LINE
8
BLACK
6
CONTINUOUS
10
17.6393
20
-108.856
11
17.892
21
-109.379
0
LINE
8
BLACK
6
CONTINUOUS
10
17.892
20
-109.379
11
18.2415
21
-109.842
0
LINE
8
BLACK
6
CONTINUOUS
10
18.2415
20
-109.842
11
18.6743
21
-110.229
0
LINE
8
BLACK
6
CONTINUOUS
10
18.6743
20
-110.229
11
19.175
21
-110.525
0
LINE
8
BLACK
6
CONTINUOUS
10
19.175
20
-110.525
11
127.839
21
-161.196
0
LINE
8
BLACK
6
CONTINUOUS
10
127.839
20
-161.196
11
127.962
21
-161.25
0
LINE
8
BLACK
6
CONTINUOUS
10
127.962
20
-161.25
11
128.519
21
-161.418
0
LINE
8
BLACK
6
CONTINUOUS
10
128.519
20
-161.418
11
129.098
21
-161.475
0
LINE
8
BLACK
6
CONTINUOUS
10
129.098
20
-161.475
11
167.766
21
-161.475
0
LINE
8
BLACK
6
CONTINUOUS
10
167.766
20
-161.475
11
167.9
21
-161.472
0
LINE
8
BLACK
6
CONTINUOUS
10
167.9
20
-161.472
11
168.476
21
-161.389
0
LINE
8
BLACK
6
CONTINUOUS
10
168.476
20
-161.389
11
169.025
21
-161.196
0
LINE
8
BLACK
6
CONTINUOUS
10
169.025
20
-161.196
11
277.688
21
-110.525
0
LINE
8
BLACK
6
CONTINUOUS
10
277.688
20
-110.525
11
278.095
21
-110.295
0
LINE
8
BLACK
6
CONTINUOUS
10
278.095
20
-110.295
11
278.542
21
-109.925
0
LINE
8
BLACK
6
CONTINUOUS
10
278.542
20
-109.925
11
278.909
21
-109.475
0
LINE
8
BLACK
6
CONTINUOUS
10
278.909
20
-109.475
11
279.182
21
-108.962
0
LINE
8
BLACK
6
CONTINUOUS
10
279.182
20
-108.962
11
279.349
21
-108.406
0
LINE
8
BLACK
6
CONTINUOUS
10
279.349
20
-108.406
11
279.406
21
-107.827
0
LINE
8
BLACK
6
CONTINUOUS
10
279.406
20
-107.827
11
279.406
21
-52.5001
0
LINE
8
BLACK
6
CONTINUOUS
10
279.406
20
-52.5001
11
279.406
21
-52.4804
0
LINE
8
BLACK
6
CONTINUOUS
10
279.406
20
-52.4804
11
279.345
21
-51.9018
0
LINE
8
BLACK
6
CONTINUOUS
10
279.345
20
-51.9018
11
279.174
21
-51.3472
0
LINE
8
BLACK
6
CONTINUOUS
10
279.174
20
-51.3472
11
278.898
21
-50.8365
0
LINE
8
BLACK
6
CONTINUOUS
10
278.898
20
-50.8365
11
278.527
21
-50.3891
0
LINE
8
BLACK
6
CONTINUOUS
10
278.527
20
-50.3891
11
278.078
21
-50.0222
0
LINE
8
BLACK
6
CONTINUOUS
10
278.078
20
-50.0222
11
277.565
21
-49.7496
0
LINE
8
BLACK
6
CONTINUOUS
10
277.565
20
-49.7496
11
277.009
21
-49.5818
0
LINE
8
BLACK
6
CONTINUOUS
10
277.009
20
-49.5818
11
276.43
21
-49.525
0
LINE
8
BLACK
6
CONTINUOUS
10
276.43
20
-49.525
11
20.4313
21
-49.525
0
LINE
8
BLACK
6
CONTINUOUS
10
146.532
20
-53.8501
11
146.532
21
-53.8502
0
LINE
8
BLACK
6
CONTINUOUS
10
146.532
20
-53.8502
11
146.532
21
-53.8503
0
LINE
8
BLACK
6
CONTINUOUS
10
146.532
20
-53.8503
11
146.532
21
-53.8504
0
LINE
8
BLACK
6
CONTINUOUS
10
146.532
20
-53.8504
11
146.532
21
-53.8504
0
LINE
8
BLACK
6
CONTINUOUS
10
146.532
20
-53.8504
11
146.532
21
-53.8505
0
LINE
8
BLACK
6
CONTINUOUS
10
146.532
20
-53.8505
11
146.532
21
-53.8505
0
LINE
8
BLACK
6
CONTINUOUS
10
146.532
20
-53.8505
11
146.532
21
-53.8505
0
LINE
8
BLACK
6
CONTINUOUS
10
146.532
20
-53.8505
11
146.532
21
-53.925
0
LINE
8
BLACK
6
CONTINUOUS
10
146.532
20
-53.925
11
146.532
21
-53.925
0
LINE
8
BLACK
6
CONTINUOUS
10
146.532
20
-53.925
11
146.532
21
-53.925
0
LINE
8
BLACK
6
CONTINUOUS
10
146.532
20
-53.925
11
146.526
21
-53.9882
0
LINE
8
BLACK
6
CONTINUOUS
10
146.526
20
-53.9882
11
146.526
21
-53.9882
0
LINE
8
BLACK
6
CONTINUOUS
10
146.526
20
-53.9882
11
146.526
21
-53.9882
0
LINE
8
BLACK
6
CONTINUOUS
10
146.526
20
-53.9882
11
146.526
21
-53.9883
0
LINE
8
BLACK
6
CONTINUOUS
10
146.526
20
-53.9883
11
146.507
21
-54.049
0
LINE
8
BLACK
6
CONTINUOUS
10
146.507
20
-54.049
11
146.507
21
-54.049
0
LINE
8
BLACK
6
CONTINUOUS
10
146.507
20
-54.049
11
146.507
21
-54.0491
0
LINE
8
BLACK
6
CONTINUOUS
10
146.507
20
-54.0491
11
146.507
21
-54.0491
0
LINE
8
BLACK
6
CONTINUOUS
10
146.507
20
-54.0491
11
146.477
21
-54.1051
0
LINE
8
BLACK
6
CONTINUOUS
10
146.477
20
-54.1051
11
146.477
21
-54.1051
0
LINE
8
BLACK
6
CONTINUOUS
10
146.477
20
-54.1051
11
146.477
21
-54.1051
0
LINE
8
BLACK
6
CONTINUOUS
10
146.477
20
-54.1051
11
146.477
21
-54.1052
0
LINE
8
BLACK
6
CONTINUOUS
10
146.477
20
-54.1052
11
146.437
21
-54.1543
0
LINE
8
BLACK
6
CONTINUOUS
10
146.437
20
-54.1543
11
146.437
21
-54.1543
0
LINE
8
BLACK
6
CONTINUOUS
10
146.437
20
-54.1543
11
146.437
21
-54.1544
0
LINE
8
BLACK
6
CONTINUOUS
10
146.437
20
-54.1544
11
146.388
21
-54.1948
0
LINE
8
BLACK
6
CONTINUOUS
10
146.388
20
-54.1948
11
146.388
21
-54.1948
0
LINE
8
BLACK
6
CONTINUOUS
10
146.388
20
-54.1948
11
146.388
21
-54.1949
0
LINE
8
BLACK
6
CONTINUOUS
10
146.388
20
-54.1949
11
146.388
21
-54.1949
0
LINE
8
BLACK
6
CONTINUOUS
10
146.388
20
-54.1949
11
146.332
21
-54.225
0
LINE
8
BLACK
6
CONTINUOUS
10
146.332
20
-54.225
11
146.332
21
-54.225
0
LINE
8
BLACK
6
CONTINUOUS
10
146.332
20
-54.225
11
146.332
21
-54.2251
0
LINE
8
BLACK
6
CONTINUOUS
10
146.332
20
-54.2251
11
146.332
21
-54.2251
0
LINE
8
BLACK
6
CONTINUOUS
10
146.332
20
-54.2251
11
146.272
21
-54.2438
0
LINE
8
BLACK
6
CONTINUOUS
10
146.272
20
-54.2438
11
146.272
21
-54.2438
0
LINE
8
BLACK
6
CONTINUOUS
10
146.272
20
-54.2438
11
146.272
21
-54.2439
0
LINE
8
BLACK
6
CONTINUOUS
10
146.272
20
-54.2439
11
146.272
21
-54.2439
0
LINE
8
BLACK
6
CONTINUOUS
10
146.272
20
-54.2439
11
146.272
21
-54.2439
0
LINE
8
BLACK
6
CONTINUOUS
10
146.272
20
-54.2439
11
146.272
21
-54.2439
0
LINE
8
BLACK
6
CONTINUOUS
10
146.272
20
-54.2439
11
146.272
21
-54.2439
0
LINE
8
BLACK
6
CONTINUOUS
10
146.272
20
-54.2439
11
146.209
21
-54.2505
0
LINE
8
BLACK
6
CONTINUOUS
10
146.209
20
-54.2505
11
146.209
21
-54.2505
0
LINE
8
BLACK
6
CONTINUOUS
10
146.209
20
-54.2505
11
146.209
21
-54.2505
0
LINE
8
BLACK
6
CONTINUOUS
10
146.209
20
-54.2505
11
146.209
21
-54.2505
0
LINE
8
BLACK
6
CONTINUOUS
10
146.209
20
-54.2505
11
146.206
21
-54.2505
0
LINE
8
BLACK
6
CONTINUOUS
10
146.206
20
-54.2505
11
146.206
21
-54.2505
0
LINE
8
BLACK
6
CONTINUOUS
10
146.206
20
-54.2505
11
146.206
21
-54.2505
0
LINE
8
BLACK
6
CONTINUOUS
10
146.206
20
-54.2505
11
146.206
21
-54.2505
0
LINE
8
BLACK
6
CONTINUOUS
10
146.206
20
-54.2505
11
146.143
21
-54.2443
0
LINE
8
BLACK
6
CONTINUOUS
10
146.143
20
-54.2443
11
146.143
21
-54.2443
0
LINE
8
BLACK
6
CONTINUOUS
10
146.143
20
-54.2443
11
146.143
21
-54.2443
0
LINE
8
BLACK
6
CONTINUOUS
10
146.143
20
-54.2443
11
146.143
21
-54.2443
0
LINE
8
BLACK
6
CONTINUOUS
10
146.143
20
-54.2443
11
146.082
21
-54.2259
0
LINE
8
BLACK
6
CONTINUOUS
10
146.082
20
-54.2259
11
146.082
21
-54.2259
0
LINE
8
BLACK
6
CONTINUOUS
10
146.082
20
-54.2259
11
146.082
21
-54.2259
0
LINE
8
BLACK
6
CONTINUOUS
10
146.082
20
-54.2259
11
146.082
21
-54.2259
0
LINE
8
BLACK
6
CONTINUOUS
10
146.082
20
-54.2259
11
146.026
21
-54.1961
0
LINE
8
BLACK
6
CONTINUOUS
10
146.026
20
-54.1961
11
146.026
21
-54.1961
0
LINE
8
BLACK
6
CONTINUOUS
10
146.026
20
-54.1961
11
146.026
21
-54.196
0
LINE
8
BLACK
6
CONTINUOUS
10
146.026
20
-54.196
11
146.026
21
-54.196
0
LINE
8
BLACK
6
CONTINUOUS
10
146.026
20
-54.196
11
145.977
21
-54.1559
0
LINE
8
BLACK
6
CONTINUOUS
10
145.977
20
-54.1559
11
145.977
21
-54.1558
0
LINE
8
BLACK
6
CONTINUOUS
10
145.977
20
-54.1558
11
145.977
21
-54.1558
0
LINE
8
BLACK
6
CONTINUOUS
10
145.977
20
-54.1558
11
145.936
21
-54.1068
0
LINE
8
BLACK
6
CONTINUOUS
10
145.936
20
-54.1068
11
145.936
21
-54.1068
0
LINE
8
BLACK
6
CONTINUOUS
10
145.936
20
-54.1068
11
145.936
21
-54.1068
0
LINE
8
BLACK
6
CONTINUOUS
10
145.936
20
-54.1068
11
145.936
21
-54.1068
0
LINE
8
BLACK
6
CONTINUOUS
10
145.936
20
-54.1068
11
145.906
21
-54.0509
0
LINE
8
BLACK
6
CONTINUOUS
10
145.906
20
-54.0509
11
145.906
21
-54.0509
0
LINE
8
BLACK
6
CONTINUOUS
10
145.906
20
-54.0509
11
145.906
21
-54.0508
0
LINE
8
BLACK
6
CONTINUOUS
10
145.906
20
-54.0508
11
145.906
21
-54.0508
0
LINE
8
BLACK
6
CONTINUOUS
10
145.906
20
-54.0508
11
145.887
21
-53.9901
0
LINE
8
BLACK
6
CONTINUOUS
10
145.887
20
-53.9901
11
145.887
21
-53.9901
0
LINE
8
BLACK
6
CONTINUOUS
10
145.887
20
-53.9901
11
145.887
21
-53.99
0
LINE
8
BLACK
6
CONTINUOUS
10
145.887
20
-53.99
11
145.887
21
-53.99
0
LINE
8
BLACK
6
CONTINUOUS
10
145.887
20
-53.99
11
145.88
21
-53.9268
0
LINE
8
BLACK
6
CONTINUOUS
10
145.88
20
-53.9268
11
145.88
21
-53.9268
0
LINE
8
BLACK
6
CONTINUOUS
10
145.88
20
-53.9268
11
145.88
21
-53.9268
0
LINE
8
BLACK
6
CONTINUOUS
10
145.88
20
-53.9268
11
145.88
21
-53.9268
0
LINE
8
BLACK
6
CONTINUOUS
10
145.88
20
-53.9268
11
145.88
21
-53.9245
0
LINE
8
BLACK
6
CONTINUOUS
10
145.88
20
-53.9245
11
145.88
21
-53.9245
0
LINE
8
BLACK
6
CONTINUOUS
10
145.88
20
-53.9245
11
145.88
21
-53.85
0
LINE
8
BLACK
6
CONTINUOUS
10
145.88
20
-53.85
11
145.88
21
-53.8499
0
LINE
8
BLACK
6
CONTINUOUS
10
145.88
20
-53.8499
11
145.88
21
-53.8498
0
LINE
8
BLACK
6
CONTINUOUS
10
145.88
20
-53.8498
11
145.88
21
-53.8497
0
LINE
8
BLACK
6
CONTINUOUS
10
145.88
20
-53.8497
11
145.88
21
-53.8496
0
LINE
8
BLACK
6
CONTINUOUS
10
145.88
20
-53.8496
11
145.88
21
-53.8496
0
LINE
8
BLACK
6
CONTINUOUS
10
145.88
20
-53.8496
11
145.881
21
-53.8495
0
LINE
8
BLACK
6
CONTINUOUS
10
145.881
20
-53.8495
11
145.881
21
-53.8495
0
LINE
8
BLACK
6
CONTINUOUS
10
145.881
20
-53.8495
11
145.881
21
-53.8495
0
LINE
8
BLACK
6
CONTINUOUS
10
145.881
20
-53.8495
11
145.881
21
-53.775
0
LINE
8
BLACK
6
CONTINUOUS
10
145.881
20
-53.775
11
145.881
21
-53.775
0
LINE
8
BLACK
6
CONTINUOUS
10
145.881
20
-53.775
11
145.881
21
-53.775
0
LINE
8
BLACK
6
CONTINUOUS
10
145.881
20
-53.775
11
145.887
21
-53.7118
0
LINE
8
BLACK
6
CONTINUOUS
10
145.887
20
-53.7118
11
145.887
21
-53.7118
0
LINE
8
BLACK
6
CONTINUOUS
10
145.887
20
-53.7118
11
145.887
21
-53.7118
0
LINE
8
BLACK
6
CONTINUOUS
10
145.887
20
-53.7118
11
145.887
21
-53.7117
0
LINE
8
BLACK
6
CONTINUOUS
10
145.887
20
-53.7117
11
145.905
21
-53.651
0
LINE
8
BLACK
6
CONTINUOUS
10
145.905
20
-53.651
11
145.905
21
-53.651
0
LINE
8
BLACK
6
CONTINUOUS
10
145.905
20
-53.651
11
145.905
21
-53.6509
0
LINE
8
BLACK
6
CONTINUOUS
10
145.905
20
-53.6509
11
145.905
21
-53.6509
0
LINE
8
BLACK
6
CONTINUOUS
10
145.905
20
-53.6509
11
145.935
21
-53.5949
0
LINE
8
BLACK
6
CONTINUOUS
10
145.935
20
-53.5949
11
145.935
21
-53.5949
0
LINE
8
BLACK
6
CONTINUOUS
10
145.935
20
-53.5949
11
145.935
21
-53.5948
0
LINE
8
BLACK
6
CONTINUOUS
10
145.935
20
-53.5948
11
145.935
21
-53.5948
0
LINE
8
BLACK
6
CONTINUOUS
10
145.935
20
-53.5948
11
145.975
21
-53.5457
0
LINE
8
BLACK
6
CONTINUOUS
10
145.975
20
-53.5457
11
145.975
21
-53.5456
0
LINE
8
BLACK
6
CONTINUOUS
10
145.975
20
-53.5456
11
146.024
21
-53.5052
0
LINE
8
BLACK
6
CONTINUOUS
10
146.024
20
-53.5052
11
146.024
21
-53.5052
0
LINE
8
BLACK
6
CONTINUOUS
10
146.024
20
-53.5052
11
146.024
21
-53.5051
0
LINE
8
BLACK
6
CONTINUOUS
10
146.024
20
-53.5051
11
146.024
21
-53.5051
0
LINE
8
BLACK
6
CONTINUOUS
10
146.024
20
-53.5051
11
146.08
21
-53.475
0
LINE
8
BLACK
6
CONTINUOUS
10
146.08
20
-53.475
11
146.08
21
-53.475
0
LINE
8
BLACK
6
CONTINUOUS
10
146.08
20
-53.475
11
146.08
21
-53.4749
0
LINE
8
BLACK
6
CONTINUOUS
10
146.08
20
-53.4749
11
146.08
21
-53.4749
0
LINE
8
BLACK
6
CONTINUOUS
10
146.08
20
-53.4749
11
146.141
21
-53.4562
0
LINE
8
BLACK
6
CONTINUOUS
10
146.141
20
-53.4562
11
146.141
21
-53.4562
0
LINE
8
BLACK
6
CONTINUOUS
10
146.141
20
-53.4562
11
146.141
21
-53.4561
0
LINE
8
BLACK
6
CONTINUOUS
10
146.141
20
-53.4561
11
146.141
21
-53.4561
0
LINE
8
BLACK
6
CONTINUOUS
10
146.141
20
-53.4561
11
146.141
21
-53.4561
0
LINE
8
BLACK
6
CONTINUOUS
10
146.141
20
-53.4561
11
146.141
21
-53.4561
0
LINE
8
BLACK
6
CONTINUOUS
10
146.141
20
-53.4561
11
146.141
21
-53.4561
0
LINE
8
BLACK
6
CONTINUOUS
10
146.141
20
-53.4561
11
146.204
21
-53.4495
0
LINE
8
BLACK
6
CONTINUOUS
10
146.204
20
-53.4495
11
146.204
21
-53.4495
0
LINE
8
BLACK
6
CONTINUOUS
10
146.204
20
-53.4495
11
146.204
21
-53.4495
0
LINE
8
BLACK
6
CONTINUOUS
10
146.204
20
-53.4495
11
146.204
21
-53.4495
0
LINE
8
BLACK
6
CONTINUOUS
10
146.204
20
-53.4495
11
146.206
21
-53.4495
0
LINE
8
BLACK
6
CONTINUOUS
10
146.206
20
-53.4495
11
146.206
21
-53.4495
0
LINE
8
BLACK
6
CONTINUOUS
10
146.206
20
-53.4495
11
146.206
21
-53.4495
0
LINE
8
BLACK
6
CONTINUOUS
10
146.206
20
-53.4495
11
146.206
21
-53.4495
0
LINE
8
BLACK
6
CONTINUOUS
10
146.206
20
-53.4495
11
146.27
21
-53.4557
0
LINE
8
BLACK
6
CONTINUOUS
10
146.27
20
-53.4557
11
146.27
21
-53.4557
0
LINE
8
BLACK
6
CONTINUOUS
10
146.27
20
-53.4557
11
146.27
21
-53.4557
0
LINE
8
BLACK
6
CONTINUOUS
10
146.27
20
-53.4557
11
146.27
21
-53.4557
0
LINE
8
BLACK
6
CONTINUOUS
10
146.27
20
-53.4557
11
146.33
21
-53.4741
0
LINE
8
BLACK
6
CONTINUOUS
10
146.33
20
-53.4741
11
146.33
21
-53.4741
0
LINE
8
BLACK
6
CONTINUOUS
10
146.33
20
-53.4741
11
146.331
21
-53.4741
0
LINE
8
BLACK
6
CONTINUOUS
10
146.331
20
-53.4741
11
146.331
21
-53.4741
0
LINE
8
BLACK
6
CONTINUOUS
10
146.331
20
-53.4741
11
146.387
21
-53.5039
0
LINE
8
BLACK
6
CONTINUOUS
10
146.387
20
-53.5039
11
146.387
21
-53.5039
0
LINE
8
BLACK
6
CONTINUOUS
10
146.387
20
-53.5039
11
146.387
21
-53.504
0
LINE
8
BLACK
6
CONTINUOUS
10
146.387
20
-53.504
11
146.387
21
-53.504
0
LINE
8
BLACK
6
CONTINUOUS
10
146.387
20
-53.504
11
146.436
21
-53.5441
0
LINE
8
BLACK
6
CONTINUOUS
10
146.436
20
-53.5441
11
146.436
21
-53.5442
0
LINE
8
BLACK
6
CONTINUOUS
10
146.436
20
-53.5442
11
146.436
21
-53.5442
0
LINE
8
BLACK
6
CONTINUOUS
10
146.436
20
-53.5442
11
146.436
21
-53.5442
0
LINE
8
BLACK
6
CONTINUOUS
10
146.436
20
-53.5442
11
146.476
21
-53.5932
0
LINE
8
BLACK
6
CONTINUOUS
10
146.476
20
-53.5932
11
146.476
21
-53.5932
0
LINE
8
BLACK
6
CONTINUOUS
10
146.476
20
-53.5932
11
146.477
21
-53.5932
0
LINE
8
BLACK
6
CONTINUOUS
10
146.477
20
-53.5932
11
146.477
21
-53.5932
0
LINE
8
BLACK
6
CONTINUOUS
10
146.477
20
-53.5932
11
146.507
21
-53.6491
0
LINE
8
BLACK
6
CONTINUOUS
10
146.507
20
-53.6491
11
146.507
21
-53.6491
0
LINE
8
BLACK
6
CONTINUOUS
10
146.507
20
-53.6491
11
146.507
21
-53.6492
0
LINE
8
BLACK
6
CONTINUOUS
10
146.507
20
-53.6492
11
146.507
21
-53.6492
0
LINE
8
BLACK
6
CONTINUOUS
10
146.507
20
-53.6492
11
146.526
21
-53.7099
0
LINE
8
BLACK
6
CONTINUOUS
10
146.526
20
-53.7099
11
146.526
21
-53.7099
0
LINE
8
BLACK
6
CONTINUOUS
10
146.526
20
-53.7099
11
146.526
21
-53.71
0
LINE
8
BLACK
6
CONTINUOUS
10
146.526
20
-53.71
11
146.526
21
-53.71
0
LINE
8
BLACK
6
CONTINUOUS
10
146.526
20
-53.71
11
146.532
21
-53.7732
0
LINE
8
BLACK
6
CONTINUOUS
10
146.532
20
-53.7732
11
146.532
21
-53.7732
0
LINE
8
BLACK
6
CONTINUOUS
10
146.532
20
-53.7732
11
146.532
21
-53.7732
0
LINE
8
BLACK
6
CONTINUOUS
10
146.532
20
-53.7732
11
146.532
21
-53.7732
0
LINE
8
BLACK
6
CONTINUOUS
10
146.532
20
-53.7732
11
146.532
21
-53.7755
0
LINE
8
BLACK
6
CONTINUOUS
10
146.532
20
-53.7755
11
146.532
21
-53.85
0
LINE
8
BLACK
6
CONTINUOUS
10
146.532
20
-53.85
11
146.532
21
-53.8501
0
LINE
8
BLACK
6
CONTINUOUS
10
145.881
20
-53.9267
11
145.888
21
-53.9898
0
LINE
8
BLACK
6
CONTINUOUS
10
145.888
20
-53.9898
11
145.907
21
-54.0504
0
LINE
8
BLACK
6
CONTINUOUS
10
145.907
20
-54.0504
11
145.937
21
-54.1062
0
LINE
8
BLACK
6
CONTINUOUS
10
145.937
20
-54.1062
11
145.977
21
-54.1551
0
LINE
8
BLACK
6
CONTINUOUS
10
145.977
20
-54.1551
11
146.026
21
-54.1952
0
LINE
8
BLACK
6
CONTINUOUS
10
146.026
20
-54.1952
11
146.082
21
-54.225
0
LINE
8
BLACK
6
CONTINUOUS
10
146.082
20
-54.225
11
146.143
21
-54.2433
0
LINE
8
BLACK
6
CONTINUOUS
10
146.143
20
-54.2433
11
146.206
21
-54.2495
0
LINE
8
BLACK
6
CONTINUOUS
10
146.206
20
-54.2495
11
146.208
21
-54.2495
0
LINE
8
BLACK
6
CONTINUOUS
10
146.208
20
-54.2495
11
146.271
21
-54.2429
0
LINE
8
BLACK
6
CONTINUOUS
10
146.271
20
-54.2429
11
146.332
21
-54.2241
0
LINE
8
BLACK
6
CONTINUOUS
10
146.332
20
-54.2241
11
146.388
21
-54.194
0
LINE
8
BLACK
6
CONTINUOUS
10
146.388
20
-54.194
11
146.437
21
-54.1537
0
LINE
8
BLACK
6
CONTINUOUS
10
146.437
20
-54.1537
11
146.477
21
-54.1046
0
LINE
8
BLACK
6
CONTINUOUS
10
146.477
20
-54.1046
11
146.506
21
-54.0487
0
LINE
8
BLACK
6
CONTINUOUS
10
146.506
20
-54.0487
11
146.525
21
-53.988
0
LINE
8
BLACK
6
CONTINUOUS
10
146.525
20
-53.988
11
146.531
21
-53.925
0
LINE
8
BLACK
6
CONTINUOUS
10
146.531
20
-53.925
11
146.531
21
-53.85
0
LINE
8
BLACK
6
CONTINUOUS
10
146.531
20
-53.85
11
146.531
21
-53.8499
0
LINE
8
BLACK
6
CONTINUOUS
10
146.531
20
-53.8499
11
146.531
21
-53.8498
0
LINE
8
BLACK
6
CONTINUOUS
10
146.531
20
-53.8498
11
146.531
21
-53.8497
0
LINE
8
BLACK
6
CONTINUOUS
10
146.531
20
-53.8497
11
146.531
21
-53.8496
0
LINE
8
BLACK
6
CONTINUOUS
10
146.531
20
-53.8496
11
146.531
21
-53.8496
0
LINE
8
BLACK
6
CONTINUOUS
10
146.531
20
-53.8496
11
146.531
21
-53.8495
0
LINE
8
BLACK
6
CONTINUOUS
10
146.531
20
-53.8495
11
146.531
21
-53.8495
0
LINE
8
BLACK
6
CONTINUOUS
10
146.531
20
-53.8495
11
146.531
21
-53.8495
0
LINE
8
BLACK
6
CONTINUOUS
10
146.531
20
-53.8495
11
146.531
21
-53.8495
0
LINE
8
BLACK
6
CONTINUOUS
10
146.531
20
-53.8495
11
146.531
21
-53.7755
0
LINE
8
BLACK
6
CONTINUOUS
10
146.531
20
-53.7755
11
146.531
21
-53.7755
0
LINE
8
BLACK
6
CONTINUOUS
10
146.531
20
-53.7755
11
146.531
21
-53.7733
0
LINE
8
BLACK
6
CONTINUOUS
10
146.531
20
-53.7733
11
146.525
21
-53.7102
0
LINE
8
BLACK
6
CONTINUOUS
10
146.525
20
-53.7102
11
146.506
21
-53.6496
0
LINE
8
BLACK
6
CONTINUOUS
10
146.506
20
-53.6496
11
146.476
21
-53.5938
0
LINE
8
BLACK
6
CONTINUOUS
10
146.476
20
-53.5938
11
146.435
21
-53.5449
0
LINE
8
BLACK
6
CONTINUOUS
10
146.435
20
-53.5449
11
146.386
21
-53.5048
0
LINE
8
BLACK
6
CONTINUOUS
10
146.386
20
-53.5048
11
146.33
21
-53.475
0
LINE
8
BLACK
6
CONTINUOUS
10
146.33
20
-53.475
11
146.269
21
-53.4567
0
LINE
8
BLACK
6
CONTINUOUS
10
146.269
20
-53.4567
11
146.206
21
-53.4505
0
LINE
8
BLACK
6
CONTINUOUS
10
146.206
20
-53.4505
11
146.204
21
-53.4505
0
LINE
8
BLACK
6
CONTINUOUS
10
146.204
20
-53.4505
11
146.141
21
-53.4571
0
LINE
8
BLACK
6
CONTINUOUS
10
146.141
20
-53.4571
11
146.081
21
-53.4759
0
LINE
8
BLACK
6
CONTINUOUS
10
146.081
20
-53.4759
11
146.025
21
-53.506
0
LINE
8
BLACK
6
CONTINUOUS
10
146.025
20
-53.506
11
145.976
21
-53.5463
0
LINE
8
BLACK
6
CONTINUOUS
10
145.976
20
-53.5463
11
145.936
21
-53.5954
0
LINE
8
BLACK
6
CONTINUOUS
10
145.936
20
-53.5954
11
145.906
21
-53.6513
0
LINE
8
BLACK
6
CONTINUOUS
10
145.906
20
-53.6513
11
145.888
21
-53.712
0
LINE
8
BLACK
6
CONTINUOUS
10
145.888
20
-53.712
11
145.882
21
-53.775
0
LINE
8
BLACK
6
CONTINUOUS
10
145.882
20
-53.775
11
145.882
21
-53.85
0
LINE
8
BLACK
6
CONTINUOUS
10
145.882
20
-53.85
11
145.882
21
-53.8501
0
LINE
8
BLACK
6
CONTINUOUS
10
145.882
20
-53.8501
11
145.882
21
-53.8502
0
LINE
8
BLACK
6
CONTINUOUS
10
145.882
20
-53.8502
11
145.882
21
-53.8503
0
LINE
8
BLACK
6
CONTINUOUS
10
145.882
20
-53.8503
11
145.882
21
-53.8504
0
LINE
8
BLACK
6
CONTINUOUS
10
145.882
20
-53.8504
11
145.882
21
-53.8504
0
LINE
8
BLACK
6
CONTINUOUS
10
145.882
20
-53.8504
11
145.881
21
-53.8505
0
LINE
8
BLACK
6
CONTINUOUS
10
145.881
20
-53.8505
11
145.881
21
-53.8505
0
LINE
8
BLACK
6
CONTINUOUS
10
145.881
20
-53.8505
11
145.881
21
-53.8505
0
LINE
8
BLACK
6
CONTINUOUS
10
145.881
20
-53.8505
11
145.881
21
-53.9245
0
LINE
8
BLACK
6
CONTINUOUS
10
145.881
20
-53.9245
11
145.881
21
-53.9267
0
LINE
8
BLACK
6
CONTINUOUS
10
150.982
20
-53.8501
11
150.982
21
-53.8502
0
LINE
8
BLACK
6
CONTINUOUS
10
150.982
20
-53.8502
11
150.982
21
-53.8503
0
LINE
8
BLACK
6
CONTINUOUS
10
150.982
20
-53.8503
11
150.982
21
-53.8504
0
LINE
8
BLACK
6
CONTINUOUS
10
150.982
20
-53.8504
11
150.982
21
-53.8504
0
LINE
8
BLACK
6
CONTINUOUS
10
150.982
20
-53.8504
11
150.982
21
-53.8505
0
LINE
8
BLACK
6
CONTINUOUS
10
150.982
20
-53.8505
11
150.982
21
-53.8505
0
LINE
8
BLACK
6
CONTINUOUS
10
150.982
20
-53.8505
11
150.982
21
-53.8505
0
LINE
8
BLACK
6
CONTINUOUS
10
150.982
20
-53.8505
11
150.982
21
-53.925
0
LINE
8
BLACK
6
CONTINUOUS
10
150.982
20
-53.925
11
150.982
21
-53.925
0
LINE
8
BLACK
6
CONTINUOUS
10
150.982
20
-53.925
11
150.982
21
-53.925
0
LINE
8
BLACK
6
CONTINUOUS
10
150.982
20
-53.925
11
150.976
21
-53.9882
0
LINE
8
BLACK
6
CONTINUOUS
10
150.976
20
-53.9882
11
150.976
21
-53.9882
0
LINE
8
BLACK
6
CONTINUOUS
10
150.976
20
-53.9882
11
150.976
21
-53.9882
0
LINE
8
BLACK
6
CONTINUOUS
10
150.976
20
-53.9882
11
150.976
21
-53.9883
0
LINE
8
BLACK
6
CONTINUOUS
10
150.976
20
-53.9883
11
150.957
21
-54.049
0
LINE
8
BLACK
6
CONTINUOUS
10
150.957
20
-54.049
11
150.957
21
-54.049
0
LINE
8
BLACK
6
CONTINUOUS
10
150.957
20
-54.049
11
150.957
21
-54.0491
0
LINE
8
BLACK
6
CONTINUOUS
10
150.957
20
-54.0491
11
150.957
21
-54.0491
0
LINE
8
BLACK
6
CONTINUOUS
10
150.957
20
-54.0491
11
150.927
21
-54.1051
0
LINE
8
BLACK
6
CONTINUOUS
10
150.927
20
-54.1051
11
150.927
21
-54.1051
0
LINE
8
BLACK
6
CONTINUOUS
10
150.927
20
-54.1051
11
150.927
21
-54.1051
0
LINE
8
BLACK
6
CONTINUOUS
10
150.927
20
-54.1051
11
150.927
21
-54.1052
0
LINE
8
BLACK
6
CONTINUOUS
10
150.927
20
-54.1052
11
150.887
21
-54.1543
0
LINE
8
BLACK
6
CONTINUOUS
10
150.887
20
-54.1543
11
150.887
21
-54.1543
0
LINE
8
BLACK
6
CONTINUOUS
10
150.887
20
-54.1543
11
150.887
21
-54.1544
0
LINE
8
BLACK
6
CONTINUOUS
10
150.887
20
-54.1544
11
150.838
21
-54.1948
0
LINE
8
BLACK
6
CONTINUOUS
10
150.838
20
-54.1948
11
150.838
21
-54.1948
0
LINE
8
BLACK
6
CONTINUOUS
10
150.838
20
-54.1948
11
150.838
21
-54.1949
0
LINE
8
BLACK
6
CONTINUOUS
10
150.838
20
-54.1949
11
150.838
21
-54.1949
0
LINE
8
BLACK
6
CONTINUOUS
10
150.838
20
-54.1949
11
150.782
21
-54.225
0
LINE
8
BLACK
6
CONTINUOUS
10
150.782
20
-54.225
11
150.782
21
-54.225
0
LINE
8
BLACK
6
CONTINUOUS
10
150.782
20
-54.225
11
150.782
21
-54.2251
0
LINE
8
BLACK
6
CONTINUOUS
10
150.782
20
-54.2251
11
150.782
21
-54.2251
0
LINE
8
BLACK
6
CONTINUOUS
10
150.782
20
-54.2251
11
150.722
21
-54.2438
0
LINE
8
BLACK
6
CONTINUOUS
10
150.722
20
-54.2438
11
150.722
21
-54.2438
0
LINE
8
BLACK
6
CONTINUOUS
10
150.722
20
-54.2438
11
150.722
21
-54.2439
0
LINE
8
BLACK
6
CONTINUOUS
10
150.722
20
-54.2439
11
150.722
21
-54.2439
0
LINE
8
BLACK
6
CONTINUOUS
10
150.722
20
-54.2439
11
150.722
21
-54.2439
0
LINE
8
BLACK
6
CONTINUOUS
10
150.722
20
-54.2439
11
150.722
21
-54.2439
0
LINE
8
BLACK
6
CONTINUOUS
10
150.722
20
-54.2439
11
150.722
21
-54.2439
0
LINE
8
BLACK
6
CONTINUOUS
10
150.722
20
-54.2439
11
150.659
21
-54.2505
0
LINE
8
BLACK
6
CONTINUOUS
10
150.659
20
-54.2505
11
150.659
21
-54.2505
0
LINE
8
BLACK
6
CONTINUOUS
10
150.659
20
-54.2505
11
150.659
21
-54.2505
0
LINE
8
BLACK
6
CONTINUOUS
10
150.659
20
-54.2505
11
150.659
21
-54.2505
0
LINE
8
BLACK
6
CONTINUOUS
10
150.659
20
-54.2505
11
150.656
21
-54.2505
0
LINE
8
BLACK
6
CONTINUOUS
10
150.656
20
-54.2505
11
150.656
21
-54.2505
0
LINE
8
BLACK
6
CONTINUOUS
10
150.656
20
-54.2505
11
150.656
21
-54.2505
0
LINE
8
BLACK
6
CONTINUOUS
10
150.656
20
-54.2505
11
150.656
21
-54.2505
0
LINE
8
BLACK
6
CONTINUOUS
10
150.656
20
-54.2505
11
150.593
21
-54.2443
0
LINE
8
BLACK
6
CONTINUOUS
10
150.593
20
-54.2443
11
150.593
21
-54.2443
0
LINE
8
BLACK
6
CONTINUOUS
10
150.593
20
-54.2443
11
150.593
21
-54.2443
0
LINE
8
BLACK
6
CONTINUOUS
10
150.593
20
-54.2443
11
150.593
21
-54.2443
0
LINE
8
BLACK
6
CONTINUOUS
10
150.593
20
-54.2443
11
150.532
21
-54.2259
0
LINE
8
BLACK
6
CONTINUOUS
10
150.532
20
-54.2259
11
150.532
21
-54.2259
0
LINE
8
BLACK
6
CONTINUOUS
10
150.532
20
-54.2259
11
150.532
21
-54.2259
0
LINE
8
BLACK
6
CONTINUOUS
10
150.532
20
-54.2259
11
150.532
21
-54.2259
0
LINE
8
BLACK
6
CONTINUOUS
10
150.532
20
-54.2259
11
150.476
21
-54.1961
0
LINE
8
BLACK
6
CONTINUOUS
10
150.476
20
-54.1961
11
150.476
21
-54.1961
0
LINE
8
BLACK
6
CONTINUOUS
10
150.476
20
-54.1961
11
150.476
21
-54.196
0
LINE
8
BLACK
6
CONTINUOUS
10
150.476
20
-54.196
11
150.476
21
-54.196
0
LINE
8
BLACK
6
CONTINUOUS
10
150.476
20
-54.196
11
150.427
21
-54.1559
0
LINE
8
BLACK
6
CONTINUOUS
10
150.427
20
-54.1559
11
150.427
21
-54.1558
0
LINE
8
BLACK
6
CONTINUOUS
10
150.427
20
-54.1558
11
150.427
21
-54.1558
0
LINE
8
BLACK
6
CONTINUOUS
10
150.427
20
-54.1558
11
150.386
21
-54.1068
0
LINE
8
BLACK
6
CONTINUOUS
10
150.386
20
-54.1068
11
150.386
21
-54.1068
0
LINE
8
BLACK
6
CONTINUOUS
10
150.386
20
-54.1068
11
150.386
21
-54.1068
0
LINE
8
BLACK
6
CONTINUOUS
10
150.386
20
-54.1068
11
150.386
21
-54.1068
0
LINE
8
BLACK
6
CONTINUOUS
10
150.386
20
-54.1068
11
150.356
21
-54.0509
0
LINE
8
BLACK
6
CONTINUOUS
10
150.356
20
-54.0509
11
150.356
21
-54.0509
0
LINE
8
BLACK
6
CONTINUOUS
10
150.356
20
-54.0509
11
150.356
21
-54.0508
0
LINE
8
BLACK
6
CONTINUOUS
10
150.356
20
-54.0508
11
150.356
21
-54.0508
0
LINE
8
BLACK
6
CONTINUOUS
10
150.356
20
-54.0508
11
150.337
21
-53.9901
0
LINE
8
BLACK
6
CONTINUOUS
10
150.337
20
-53.9901
11
150.337
21
-53.9901
0
LINE
8
BLACK
6
CONTINUOUS
10
150.337
20
-53.9901
11
150.337
21
-53.99
0
LINE
8
BLACK
6
CONTINUOUS
10
150.337
20
-53.99
11
150.337
21
-53.99
0
LINE
8
BLACK
6
CONTINUOUS
10
150.337
20
-53.99
11
150.33
21
-53.9268
0
LINE
8
BLACK
6
CONTINUOUS
10
150.33
20
-53.9268
11
150.33
21
-53.9268
0
LINE
8
BLACK
6
CONTINUOUS
10
150.33
20
-53.9268
11
150.33
21
-53.9268
0
LINE
8
BLACK
6
CONTINUOUS
10
150.33
20
-53.9268
11
150.33
21
-53.9268
0
LINE
8
BLACK
6
CONTINUOUS
10
150.33
20
-53.9268
11
150.33
21
-53.9245
0
LINE
8
BLACK
6
CONTINUOUS
10
150.33
20
-53.9245
11
150.33
21
-53.9245
0
LINE
8
BLACK
6
CONTINUOUS
10
150.33
20
-53.9245
11
150.33
21
-53.85
0
LINE
8
BLACK
6
CONTINUOUS
10
150.33
20
-53.85
11
150.33
21
-53.8499
0
LINE
8
BLACK
6
CONTINUOUS
10
150.33
20
-53.8499
11
150.33
21
-53.8498
0
LINE
8
BLACK
6
CONTINUOUS
10
150.33
20
-53.8498
11
150.33
21
-53.8497
0
LINE
8
BLACK
6
CONTINUOUS
10
150.33
20
-53.8497
11
150.33
21
-53.8496
0
LINE
8
BLACK
6
CONTINUOUS
10
150.33
20
-53.8496
11
150.33
21
-53.8496
0
LINE
8
BLACK
6
CONTINUOUS
10
150.33
20
-53.8496
11
150.331
21
-53.8495
0
LINE
8
BLACK
6
CONTINUOUS
10
150.331
20
-53.8495
11
150.331
21
-53.8495
0
LINE
8
BLACK
6
CONTINUOUS
10
150.331
20
-53.8495
11
150.331
21
-53.8495
0
LINE
8
BLACK
6
CONTINUOUS
10
150.331
20
-53.8495
11
150.331
21
-53.775
0
LINE
8
BLACK
6
CONTINUOUS
10
150.331
20
-53.775
11
150.331
21
-53.775
0
LINE
8
BLACK
6
CONTINUOUS
10
150.331
20
-53.775
11
150.331
21
-53.775
0
LINE
8
BLACK
6
CONTINUOUS
10
150.331
20
-53.775
11
150.337
21
-53.7118
0
LINE
8
BLACK
6
CONTINUOUS
10
150.337
20
-53.7118
11
150.337
21
-53.7118
0
LINE
8
BLACK
6
CONTINUOUS
10
150.337
20
-53.7118
11
150.337
21
-53.7118
0
LINE
8
BLACK
6
CONTINUOUS
10
150.337
20
-53.7118
11
150.337
21
-53.7117
0
LINE
8
BLACK
6
CONTINUOUS
10
150.337
20
-53.7117
11
150.355
21
-53.651
0
LINE
8
BLACK
6
CONTINUOUS
10
150.355
20
-53.651
11
150.355
21
-53.651
0
LINE
8
BLACK
6
CONTINUOUS
10
150.355
20
-53.651
11
150.355
21
-53.6509
0
LINE
8
BLACK
6
CONTINUOUS
10
150.355
20
-53.6509
11
150.355
21
-53.6509
0
LINE
8
BLACK
6
CONTINUOUS
10
150.355
20
-53.6509
11
150.385
21
-53.5949
0
LINE
8
BLACK
6
CONTINUOUS
10
150.385
20
-53.5949
11
150.385
21
-53.5949
0
LINE
8
BLACK
6
CONTINUOUS
10
150.385
20
-53.5949
11
150.385
21
-53.5948
0
LINE
8
BLACK
6
CONTINUOUS
10
150.385
20
-53.5948
11
150.385
21
-53.5948
0
LINE
8
BLACK
6
CONTINUOUS
10
150.385
20
-53.5948
11
150.425
21
-53.5457
0
LINE
8
BLACK
6
CONTINUOUS
10
150.425
20
-53.5457
11
150.425
21
-53.5456
0
LINE
8
BLACK
6
CONTINUOUS
10
150.425
20
-53.5456
11
150.474
21
-53.5052
0
LINE
8
BLACK
6
CONTINUOUS
10
150.474
20
-53.5052
11
150.474
21
-53.5052
0
LINE
8
BLACK
6
CONTINUOUS
10
150.474
20
-53.5052
11
150.474
21
-53.5051
0
LINE
8
BLACK
6
CONTINUOUS
10
150.474
20
-53.5051
11
150.474
21
-53.5051
0
LINE
8
BLACK
6
CONTINUOUS
10
150.474
20
-53.5051
11
150.53
21
-53.475
0
LINE
8
BLACK
6
CONTINUOUS
10
150.53
20
-53.475
11
150.53
21
-53.475
0
LINE
8
BLACK
6
CONTINUOUS
10
150.53
20
-53.475
11
150.53
21
-53.4749
0
LINE
8
BLACK
6
CONTINUOUS
10
150.53
20
-53.4749
11
150.53
21
-53.4749
0
LINE
8
BLACK
6
CONTINUOUS
10
150.53
20
-53.4749
11
150.591
21
-53.4562
0
LINE
8
BLACK
6
CONTINUOUS
10
150.591
20
-53.4562
11
150.591
21
-53.4562
0
LINE
8
BLACK
6
CONTINUOUS
10
150.591
20
-53.4562
11
150.591
21
-53.4561
0
LINE
8
BLACK
6
CONTINUOUS
10
150.591
20
-53.4561
11
150.591
21
-53.4561
0
LINE
8
BLACK
6
CONTINUOUS
10
150.591
20
-53.4561
11
150.591
21
-53.4561
0
LINE
8
BLACK
6
CONTINUOUS
10
150.591
20
-53.4561
11
150.591
21
-53.4561
0
LINE
8
BLACK
6
CONTINUOUS
10
150.591
20
-53.4561
11
150.591
21
-53.4561
0
LINE
8
BLACK
6
CONTINUOUS
10
150.591
20
-53.4561
11
150.654
21
-53.4495
0
LINE
8
BLACK
6
CONTINUOUS
10
150.654
20
-53.4495
11
150.654
21
-53.4495
0
LINE
8
BLACK
6
CONTINUOUS
10
150.654
20
-53.4495
11
150.654
21
-53.4495
0
LINE
8
BLACK
6
CONTINUOUS
10
150.654
20
-53.4495
11
150.654
21
-53.4495
0
LINE
8
BLACK
6
CONTINUOUS
10
150.654
20
-53.4495
11
150.656
21
-53.4495
0
LINE
8
BLACK
6
CONTINUOUS
10
150.656
20
-53.4495
11
150.656
21
-53.4495
0
LINE
8
BLACK
6
CONTINUOUS
10
150.656
20
-53.4495
11
150.656
21
-53.4495
0
LINE
8
BLACK
6
CONTINUOUS
10
150.656
20
-53.4495
11
150.656
21
-53.4495
0
LINE
8
BLACK
6
CONTINUOUS
10
150.656
20
-53.4495
11
150.72
21
-53.4557
0
LINE
8
BLACK
6
CONTINUOUS
10
150.72
20
-53.4557
11
150.72
21
-53.4557
0
LINE
8
BLACK
6
CONTINUOUS
10
150.72
20
-53.4557
11
150.72
21
-53.4557
0
LINE
8
BLACK
6
CONTINUOUS
10
150.72
20
-53.4557
11
150.72
21
-53.4557
0
LINE
8
BLACK
6
CONTINUOUS
10
150.72
20
-53.4557
11
150.78
21
-53.4741
0
LINE
8
BLACK
6
CONTINUOUS
10
150.78
20
-53.4741
11
150.78
21
-53.4741
0
LINE
8
BLACK
6
CONTINUOUS
10
150.78
20
-53.4741
11
150.781
21
-53.4741
0
LINE
8
BLACK
6
CONTINUOUS
10
150.781
20
-53.4741
11
150.781
21
-53.4741
0
LINE
8
BLACK
6
CONTINUOUS
10
150.781
20
-53.4741
11
150.837
21
-53.5039
0
LINE
8
BLACK
6
CONTINUOUS
10
150.837
20
-53.5039
11
150.837
21
-53.5039
0
LINE
8
BLACK
6
CONTINUOUS
10
150.837
20
-53.5039
11
150.837
21
-53.504
0
LINE
8
BLACK
6
CONTINUOUS
10
150.837
20
-53.504
11
150.837
21
-53.504
0
LINE
8
BLACK
6
CONTINUOUS
10
150.837
20
-53.504
11
150.886
21
-53.5441
0
LINE
8
BLACK
6
CONTINUOUS
10
150.886
20
-53.5441
11
150.886
21
-53.5442
0
LINE
8
BLACK
6
CONTINUOUS
10
150.886
20
-53.5442
11
150.886
21
-53.5442
0
LINE
8
BLACK
6
CONTINUOUS
10
150.886
20
-53.5442
11
150.886
21
-53.5442
0
LINE
8
BLACK
6
CONTINUOUS
10
150.886
20
-53.5442
11
150.926
21
-53.5932
0
LINE
8
BLACK
6
CONTINUOUS
10
150.926
20
-53.5932
11
150.926
21
-53.5932
0
LINE
8
BLACK
6
CONTINUOUS
10
150.926
20
-53.5932
11
150.927
21
-53.5932
0
LINE
8
BLACK
6
CONTINUOUS
10
150.927
20
-53.5932
11
150.927
21
-53.5932
0
LINE
8
BLACK
6
CONTINUOUS
10
150.927
20
-53.5932
11
150.957
21
-53.6491
0
LINE
8
BLACK
6
CONTINUOUS
10
150.957
20
-53.6491
11
150.957
21
-53.6491
0
LINE
8
BLACK
6
CONTINUOUS
10
150.957
20
-53.6491
11
150.957
21
-53.6492
0
LINE
8
BLACK
6
CONTINUOUS
10
150.957
20
-53.6492
11
150.957
21
-53.6492
0
LINE
8
BLACK
6
CONTINUOUS
10
150.957
20
-53.6492
11
150.976
21
-53.7099
0
LINE
8
BLACK
6
CONTINUOUS
10
150.976
20
-53.7099
11
150.976
21
-53.7099
0
LINE
8
BLACK
6
CONTINUOUS
10
150.976
20
-53.7099
11
150.976
21
-53.71
0
LINE
8
BLACK
6
CONTINUOUS
10
150.976
20
-53.71
11
150.976
21
-53.71
0
LINE
8
BLACK
6
CONTINUOUS
10
150.976
20
-53.71
11
150.982
21
-53.7732
0
LINE
8
BLACK
6
CONTINUOUS
10
150.982
20
-53.7732
11
150.982
21
-53.7732
0
LINE
8
BLACK
6
CONTINUOUS
10
150.982
20
-53.7732
11
150.982
21
-53.7732
0
LINE
8
BLACK
6
CONTINUOUS
10
150.982
20
-53.7732
11
150.982
21
-53.7732
0
LINE
8
BLACK
6
CONTINUOUS
10
150.982
20
-53.7732
11
150.982
21
-53.7755
0
LINE
8
BLACK
6
CONTINUOUS
10
150.982
20
-53.7755
11
150.982
21
-53.85
0
LINE
8
BLACK
6
CONTINUOUS
10
150.982
20
-53.85
11
150.982
21
-53.8501
0
LINE
8
BLACK
6
CONTINUOUS
10
150.331
20
-53.9267
11
150.338
21
-53.9898
0
LINE
8
BLACK
6
CONTINUOUS
10
150.338
20
-53.9898
11
150.357
21
-54.0504
0
LINE
8
BLACK
6
CONTINUOUS
10
150.357
20
-54.0504
11
150.387
21
-54.1062
0
LINE
8
BLACK
6
CONTINUOUS
10
150.387
20
-54.1062
11
150.427
21
-54.1551
0
LINE
8
BLACK
6
CONTINUOUS
10
150.427
20
-54.1551
11
150.476
21
-54.1952
0
LINE
8
BLACK
6
CONTINUOUS
10
150.476
20
-54.1952
11
150.532
21
-54.225
0
LINE
8
BLACK
6
CONTINUOUS
10
150.532
20
-54.225
11
150.593
21
-54.2433
0
LINE
8
BLACK
6
CONTINUOUS
10
150.593
20
-54.2433
11
150.656
21
-54.2495
0
LINE
8
BLACK
6
CONTINUOUS
10
150.656
20
-54.2495
11
150.658
21
-54.2495
0
LINE
8
BLACK
6
CONTINUOUS
10
150.658
20
-54.2495
11
150.721
21
-54.2429
0
LINE
8
BLACK
6
CONTINUOUS
10
150.721
20
-54.2429
11
150.782
21
-54.2241
0
LINE
8
BLACK
6
CONTINUOUS
10
150.782
20
-54.2241
11
150.838
21
-54.194
0
LINE
8
BLACK
6
CONTINUOUS
10
150.838
20
-54.194
11
150.887
21
-54.1537
0
LINE
8
BLACK
6
CONTINUOUS
10
150.887
20
-54.1537
11
150.927
21
-54.1046
0
LINE
8
BLACK
6
CONTINUOUS
10
150.927
20
-54.1046
11
150.956
21
-54.0487
0
LINE
8
BLACK
6
CONTINUOUS
10
150.956
20
-54.0487
11
150.975
21
-53.988
0
LINE
8
BLACK
6
CONTINUOUS
10
150.975
20
-53.988
11
150.981
21
-53.925
0
LINE
8
BLACK
6
CONTINUOUS
10
150.981
20
-53.925
11
150.981
21
-53.85
0
LINE
8
BLACK
6
CONTINUOUS
10
150.981
20
-53.85
11
150.981
21
-53.8499
0
LINE
8
BLACK
6
CONTINUOUS
10
150.981
20
-53.8499
11
150.981
21
-53.8498
0
LINE
8
BLACK
6
CONTINUOUS
10
150.981
20
-53.8498
11
150.981
21
-53.8497
0
LINE
8
BLACK
6
CONTINUOUS
10
150.981
20
-53.8497
11
150.981
21
-53.8496
0
LINE
8
BLACK
6
CONTINUOUS
10
150.981
20
-53.8496
11
150.981
21
-53.8496
0
LINE
8
BLACK
6
CONTINUOUS
10
150.981
20
-53.8496
11
150.981
21
-53.8495
0
LINE
8
BLACK
6
CONTINUOUS
10
150.981
20
-53.8495
11
150.981
21
-53.8495
0
LINE
8
BLACK
6
CONTINUOUS
10
150.981
20
-53.8495
11
150.981
21
-53.8495
0
LINE
8
BLACK
6
CONTINUOUS
10
150.981
20
-53.8495
11
150.981
21
-53.8495
0
LINE
8
BLACK
6
CONTINUOUS
10
150.981
20
-53.8495
11
150.981
21
-53.7755
0
LINE
8
BLACK
6
CONTINUOUS
10
150.981
20
-53.7755
11
150.981
21
-53.7755
0
LINE
8
BLACK
6
CONTINUOUS
10
150.981
20
-53.7755
11
150.981
21
-53.7733
0
LINE
8
BLACK
6
CONTINUOUS
10
150.981
20
-53.7733
11
150.975
21
-53.7102
0
LINE
8
BLACK
6
CONTINUOUS
10
150.975
20
-53.7102
11
150.956
21
-53.6496
0
LINE
8
BLACK
6
CONTINUOUS
10
150.956
20
-53.6496
11
150.926
21
-53.5938
0
LINE
8
BLACK
6
CONTINUOUS
10
150.926
20
-53.5938
11
150.885
21
-53.5449
0
LINE
8
BLACK
6
CONTINUOUS
10
150.885
20
-53.5449
11
150.836
21
-53.5048
0
LINE
8
BLACK
6
CONTINUOUS
10
150.836
20
-53.5048
11
150.78
21
-53.475
0
LINE
8
BLACK
6
CONTINUOUS
10
150.78
20
-53.475
11
150.719
21
-53.4567
0
LINE
8
BLACK
6
CONTINUOUS
10
150.719
20
-53.4567
11
150.656
21
-53.4505
0
LINE
8
BLACK
6
CONTINUOUS
10
150.656
20
-53.4505
11
150.654
21
-53.4505
0
LINE
8
BLACK
6
CONTINUOUS
10
150.654
20
-53.4505
11
150.591
21
-53.4571
0
LINE
8
BLACK
6
CONTINUOUS
10
150.591
20
-53.4571
11
150.531
21
-53.4759
0
LINE
8
BLACK
6
CONTINUOUS
10
150.531
20
-53.4759
11
150.475
21
-53.506
0
LINE
8
BLACK
6
CONTINUOUS
10
150.475
20
-53.506
11
150.426
21
-53.5463
0
LINE
8
BLACK
6
CONTINUOUS
10
150.426
20
-53.5463
11
150.386
21
-53.5954
0
LINE
8
BLACK
6
CONTINUOUS
10
150.386
20
-53.5954
11
150.356
21
-53.6513
0
LINE
8
BLACK
6
CONTINUOUS
10
150.356
20
-53.6513
11
150.338
21
-53.712
0
LINE
8
BLACK
6
CONTINUOUS
10
150.338
20
-53.712
11
150.332
21
-53.775
0
LINE
8
BLACK
6
CONTINUOUS
10
150.332
20
-53.775
11
150.332
21
-53.85
0
LINE
8
BLACK
6
CONTINUOUS
10
150.332
20
-53.85
11
150.332
21
-53.8501
0
LINE
8
BLACK
6
CONTINUOUS
10
150.332
20
-53.8501
11
150.332
21
-53.8502
0
LINE
8
BLACK
6
CONTINUOUS
10
150.332
20
-53.8502
11
150.332
21
-53.8503
0
LINE
8
BLACK
6
CONTINUOUS
10
150.332
20
-53.8503
11
150.332
21
-53.8504
0
LINE
8
BLACK
6
CONTINUOUS
10
150.332
20
-53.8504
11
150.332
21
-53.8504
0
LINE
8
BLACK
6
CONTINUOUS
10
150.332
20
-53.8504
11
150.331
21
-53.8505
0
LINE
8
BLACK
6
CONTINUOUS
10
150.331
20
-53.8505
11
150.331
21
-53.8505
0
LINE
8
BLACK
6
CONTINUOUS
10
150.331
20
-53.8505
11
150.331
21
-53.8505
0
LINE
8
BLACK
6
CONTINUOUS
10
150.331
20
-53.8505
11
150.331
21
-53.9245
0
LINE
8
BLACK
6
CONTINUOUS
10
150.331
20
-53.9245
11
150.331
21
-53.9267
  0
ENDSEC
  0
EOF
