%TF.GenerationSoftware,KiCad,Pcbnew,(5.1.6)-1*%
%TF.CreationDate,2020-07-18T08:53:22-05:00*%
%TF.ProjectId,ErgoChoco,4572676f-4368-46f6-936f-2e6b69636164,v1.0*%
%TF.SameCoordinates,Original*%
%TF.FileFunction,Legend,Top*%
%TF.FilePolarity,Positive*%
%FSLAX46Y46*%
G04 Gerber Fmt 4.6, Leading zero omitted, Abs format (unit mm)*
G04 Created by KiCad (PCBNEW (5.1.6)-1) date 2020-07-18 08:53:22*
%MOMM*%
%LPD*%
G01*
G04 APERTURE LIST*
%ADD10C,0.150000*%
%TA.AperFunction,Profile*%
%ADD11C,0.050000*%
%TD*%
%ADD12C,0.381000*%
%ADD13C,0.120000*%
G04 APERTURE END LIST*
D10*
X139931250Y-109176857D02*
X140431250Y-109176857D01*
X140645535Y-109962571D02*
X139931250Y-109962571D01*
X139931250Y-108462571D01*
X140645535Y-108462571D01*
X141288392Y-109962571D02*
X141288392Y-108962571D01*
X141288392Y-109248285D02*
X141359821Y-109105428D01*
X141431250Y-109034000D01*
X141574107Y-108962571D01*
X141716964Y-108962571D01*
X142859821Y-108962571D02*
X142859821Y-110176857D01*
X142788392Y-110319714D01*
X142716964Y-110391142D01*
X142574107Y-110462571D01*
X142359821Y-110462571D01*
X142216964Y-110391142D01*
X142859821Y-109891142D02*
X142716964Y-109962571D01*
X142431250Y-109962571D01*
X142288392Y-109891142D01*
X142216964Y-109819714D01*
X142145535Y-109676857D01*
X142145535Y-109248285D01*
X142216964Y-109105428D01*
X142288392Y-109034000D01*
X142431250Y-108962571D01*
X142716964Y-108962571D01*
X142859821Y-109034000D01*
X143788392Y-109962571D02*
X143645535Y-109891142D01*
X143574107Y-109819714D01*
X143502678Y-109676857D01*
X143502678Y-109248285D01*
X143574107Y-109105428D01*
X143645535Y-109034000D01*
X143788392Y-108962571D01*
X144002678Y-108962571D01*
X144145535Y-109034000D01*
X144216964Y-109105428D01*
X144288392Y-109248285D01*
X144288392Y-109676857D01*
X144216964Y-109819714D01*
X144145535Y-109891142D01*
X144002678Y-109962571D01*
X143788392Y-109962571D01*
X145788392Y-109819714D02*
X145716964Y-109891142D01*
X145502678Y-109962571D01*
X145359821Y-109962571D01*
X145145535Y-109891142D01*
X145002678Y-109748285D01*
X144931250Y-109605428D01*
X144859821Y-109319714D01*
X144859821Y-109105428D01*
X144931250Y-108819714D01*
X145002678Y-108676857D01*
X145145535Y-108534000D01*
X145359821Y-108462571D01*
X145502678Y-108462571D01*
X145716964Y-108534000D01*
X145788392Y-108605428D01*
X146431250Y-109962571D02*
X146431250Y-108462571D01*
X147074107Y-109962571D02*
X147074107Y-109176857D01*
X147002678Y-109034000D01*
X146859821Y-108962571D01*
X146645535Y-108962571D01*
X146502678Y-109034000D01*
X146431250Y-109105428D01*
X148002678Y-109962571D02*
X147859821Y-109891142D01*
X147788392Y-109819714D01*
X147716964Y-109676857D01*
X147716964Y-109248285D01*
X147788392Y-109105428D01*
X147859821Y-109034000D01*
X148002678Y-108962571D01*
X148216964Y-108962571D01*
X148359821Y-109034000D01*
X148431250Y-109105428D01*
X148502678Y-109248285D01*
X148502678Y-109676857D01*
X148431250Y-109819714D01*
X148359821Y-109891142D01*
X148216964Y-109962571D01*
X148002678Y-109962571D01*
X149788392Y-109891142D02*
X149645535Y-109962571D01*
X149359821Y-109962571D01*
X149216964Y-109891142D01*
X149145535Y-109819714D01*
X149074107Y-109676857D01*
X149074107Y-109248285D01*
X149145535Y-109105428D01*
X149216964Y-109034000D01*
X149359821Y-108962571D01*
X149645535Y-108962571D01*
X149788392Y-109034000D01*
X150645535Y-109962571D02*
X150502678Y-109891142D01*
X150431250Y-109819714D01*
X150359821Y-109676857D01*
X150359821Y-109248285D01*
X150431250Y-109105428D01*
X150502678Y-109034000D01*
X150645535Y-108962571D01*
X150859821Y-108962571D01*
X151002678Y-109034000D01*
X151074107Y-109105428D01*
X151145535Y-109248285D01*
X151145535Y-109676857D01*
X151074107Y-109819714D01*
X151002678Y-109891142D01*
X150859821Y-109962571D01*
X150645535Y-109962571D01*
X152788392Y-108962571D02*
X153145535Y-109962571D01*
X153502678Y-108962571D01*
X154859821Y-109962571D02*
X154002678Y-109962571D01*
X154431250Y-109962571D02*
X154431250Y-108462571D01*
X154288392Y-108676857D01*
X154145535Y-108819714D01*
X154002678Y-108891142D01*
X155502678Y-109819714D02*
X155574107Y-109891142D01*
X155502678Y-109962571D01*
X155431250Y-109891142D01*
X155502678Y-109819714D01*
X155502678Y-109962571D01*
X156502678Y-108462571D02*
X156645535Y-108462571D01*
X156788392Y-108534000D01*
X156859821Y-108605428D01*
X156931250Y-108748285D01*
X157002678Y-109034000D01*
X157002678Y-109391142D01*
X156931250Y-109676857D01*
X156859821Y-109819714D01*
X156788392Y-109891142D01*
X156645535Y-109962571D01*
X156502678Y-109962571D01*
X156359821Y-109891142D01*
X156288392Y-109819714D01*
X156216964Y-109676857D01*
X156145535Y-109391142D01*
X156145535Y-109034000D01*
X156216964Y-108748285D01*
X156288392Y-108605428D01*
X156359821Y-108534000D01*
X156502678Y-108462571D01*
X135038392Y-112362571D02*
X135038392Y-110862571D01*
X135038392Y-112291142D02*
X134895535Y-112362571D01*
X134609821Y-112362571D01*
X134466964Y-112291142D01*
X134395535Y-112219714D01*
X134324107Y-112076857D01*
X134324107Y-111648285D01*
X134395535Y-111505428D01*
X134466964Y-111434000D01*
X134609821Y-111362571D01*
X134895535Y-111362571D01*
X135038392Y-111434000D01*
X136324107Y-112291142D02*
X136181250Y-112362571D01*
X135895535Y-112362571D01*
X135752678Y-112291142D01*
X135681250Y-112148285D01*
X135681250Y-111576857D01*
X135752678Y-111434000D01*
X135895535Y-111362571D01*
X136181250Y-111362571D01*
X136324107Y-111434000D01*
X136395535Y-111576857D01*
X136395535Y-111719714D01*
X135681250Y-111862571D01*
X136966964Y-112291142D02*
X137109821Y-112362571D01*
X137395535Y-112362571D01*
X137538392Y-112291142D01*
X137609821Y-112148285D01*
X137609821Y-112076857D01*
X137538392Y-111934000D01*
X137395535Y-111862571D01*
X137181250Y-111862571D01*
X137038392Y-111791142D01*
X136966964Y-111648285D01*
X136966964Y-111576857D01*
X137038392Y-111434000D01*
X137181250Y-111362571D01*
X137395535Y-111362571D01*
X137538392Y-111434000D01*
X138252678Y-112362571D02*
X138252678Y-111362571D01*
X138252678Y-110862571D02*
X138181250Y-110934000D01*
X138252678Y-111005428D01*
X138324107Y-110934000D01*
X138252678Y-110862571D01*
X138252678Y-111005428D01*
X139609821Y-111362571D02*
X139609821Y-112576857D01*
X139538392Y-112719714D01*
X139466964Y-112791142D01*
X139324107Y-112862571D01*
X139109821Y-112862571D01*
X138966964Y-112791142D01*
X139609821Y-112291142D02*
X139466964Y-112362571D01*
X139181250Y-112362571D01*
X139038392Y-112291142D01*
X138966964Y-112219714D01*
X138895535Y-112076857D01*
X138895535Y-111648285D01*
X138966964Y-111505428D01*
X139038392Y-111434000D01*
X139181250Y-111362571D01*
X139466964Y-111362571D01*
X139609821Y-111434000D01*
X140324107Y-111362571D02*
X140324107Y-112362571D01*
X140324107Y-111505428D02*
X140395535Y-111434000D01*
X140538392Y-111362571D01*
X140752678Y-111362571D01*
X140895535Y-111434000D01*
X140966964Y-111576857D01*
X140966964Y-112362571D01*
X142252678Y-112291142D02*
X142109821Y-112362571D01*
X141824107Y-112362571D01*
X141681250Y-112291142D01*
X141609821Y-112148285D01*
X141609821Y-111576857D01*
X141681250Y-111434000D01*
X141824107Y-111362571D01*
X142109821Y-111362571D01*
X142252678Y-111434000D01*
X142324107Y-111576857D01*
X142324107Y-111719714D01*
X141609821Y-111862571D01*
X143609821Y-112362571D02*
X143609821Y-110862571D01*
X143609821Y-112291142D02*
X143466964Y-112362571D01*
X143181250Y-112362571D01*
X143038392Y-112291142D01*
X142966964Y-112219714D01*
X142895535Y-112076857D01*
X142895535Y-111648285D01*
X142966964Y-111505428D01*
X143038392Y-111434000D01*
X143181250Y-111362571D01*
X143466964Y-111362571D01*
X143609821Y-111434000D01*
X145466964Y-112362571D02*
X145466964Y-110862571D01*
X145466964Y-111434000D02*
X145609821Y-111362571D01*
X145895535Y-111362571D01*
X146038392Y-111434000D01*
X146109821Y-111505428D01*
X146181250Y-111648285D01*
X146181250Y-112076857D01*
X146109821Y-112219714D01*
X146038392Y-112291142D01*
X145895535Y-112362571D01*
X145609821Y-112362571D01*
X145466964Y-112291142D01*
X146681250Y-111362571D02*
X147038392Y-112362571D01*
X147395535Y-111362571D02*
X147038392Y-112362571D01*
X146895535Y-112719714D01*
X146824107Y-112791142D01*
X146681250Y-112862571D01*
X149752678Y-111362571D02*
X149752678Y-112362571D01*
X149109821Y-111362571D02*
X149109821Y-112148285D01*
X149181250Y-112291142D01*
X149324107Y-112362571D01*
X149538392Y-112362571D01*
X149681250Y-112291142D01*
X149752678Y-112219714D01*
X151538392Y-110791142D02*
X150252678Y-112719714D01*
X152895535Y-112219714D02*
X152824107Y-112291142D01*
X152609821Y-112362571D01*
X152466964Y-112362571D01*
X152252678Y-112291142D01*
X152109821Y-112148285D01*
X152038392Y-112005428D01*
X151966964Y-111719714D01*
X151966964Y-111505428D01*
X152038392Y-111219714D01*
X152109821Y-111076857D01*
X152252678Y-110934000D01*
X152466964Y-110862571D01*
X152609821Y-110862571D01*
X152824107Y-110934000D01*
X152895535Y-111005428D01*
X153538392Y-112362571D02*
X153538392Y-110862571D01*
X154181250Y-112362571D02*
X154181250Y-111576857D01*
X154109821Y-111434000D01*
X153966964Y-111362571D01*
X153752678Y-111362571D01*
X153609821Y-111434000D01*
X153538392Y-111505428D01*
X155109821Y-112362571D02*
X154966964Y-112291142D01*
X154895535Y-112219714D01*
X154824107Y-112076857D01*
X154824107Y-111648285D01*
X154895535Y-111505428D01*
X154966964Y-111434000D01*
X155109821Y-111362571D01*
X155324107Y-111362571D01*
X155466964Y-111434000D01*
X155538392Y-111505428D01*
X155609821Y-111648285D01*
X155609821Y-112076857D01*
X155538392Y-112219714D01*
X155466964Y-112291142D01*
X155324107Y-112362571D01*
X155109821Y-112362571D01*
X156895535Y-112291142D02*
X156752678Y-112362571D01*
X156466964Y-112362571D01*
X156324107Y-112291142D01*
X156252678Y-112219714D01*
X156181250Y-112076857D01*
X156181250Y-111648285D01*
X156252678Y-111505428D01*
X156324107Y-111434000D01*
X156466964Y-111362571D01*
X156752678Y-111362571D01*
X156895535Y-111434000D01*
X157752678Y-112362571D02*
X157609821Y-112291142D01*
X157538392Y-112219714D01*
X157466964Y-112076857D01*
X157466964Y-111648285D01*
X157538392Y-111505428D01*
X157609821Y-111434000D01*
X157752678Y-111362571D01*
X157966964Y-111362571D01*
X158109821Y-111434000D01*
X158181250Y-111505428D01*
X158252678Y-111648285D01*
X158252678Y-112076857D01*
X158181250Y-112219714D01*
X158109821Y-112291142D01*
X157966964Y-112362571D01*
X157752678Y-112362571D01*
X159538392Y-110862571D02*
X159252678Y-110862571D01*
X159109821Y-110934000D01*
X159038392Y-111005428D01*
X158895535Y-111219714D01*
X158824107Y-111505428D01*
X158824107Y-112076857D01*
X158895535Y-112219714D01*
X158966964Y-112291142D01*
X159109821Y-112362571D01*
X159395535Y-112362571D01*
X159538392Y-112291142D01*
X159609821Y-112219714D01*
X159681250Y-112076857D01*
X159681250Y-111719714D01*
X159609821Y-111576857D01*
X159538392Y-111505428D01*
X159395535Y-111434000D01*
X159109821Y-111434000D01*
X158966964Y-111505428D01*
X158895535Y-111576857D01*
X158824107Y-111719714D01*
X161109821Y-112362571D02*
X160252678Y-112362571D01*
X160681250Y-112362571D02*
X160681250Y-110862571D01*
X160538392Y-111076857D01*
X160395535Y-111219714D01*
X160252678Y-111291142D01*
X161609821Y-110862571D02*
X162609821Y-110862571D01*
X161966964Y-112362571D01*
X145966964Y-117162571D02*
X145966964Y-116162571D01*
X145966964Y-116448285D02*
X146038392Y-116305428D01*
X146109821Y-116234000D01*
X146252678Y-116162571D01*
X146395535Y-116162571D01*
X147466964Y-117091142D02*
X147324107Y-117162571D01*
X147038392Y-117162571D01*
X146895535Y-117091142D01*
X146824107Y-116948285D01*
X146824107Y-116376857D01*
X146895535Y-116234000D01*
X147038392Y-116162571D01*
X147324107Y-116162571D01*
X147466964Y-116234000D01*
X147538392Y-116376857D01*
X147538392Y-116519714D01*
X146824107Y-116662571D01*
X148181250Y-116162571D02*
X148181250Y-117662571D01*
X148181250Y-116234000D02*
X148324107Y-116162571D01*
X148609821Y-116162571D01*
X148752678Y-116234000D01*
X148824107Y-116305428D01*
X148895535Y-116448285D01*
X148895535Y-116876857D01*
X148824107Y-117019714D01*
X148752678Y-117091142D01*
X148609821Y-117162571D01*
X148324107Y-117162571D01*
X148181250Y-117091142D01*
X149752678Y-117162571D02*
X149609821Y-117091142D01*
X149538392Y-117019714D01*
X149466964Y-116876857D01*
X149466964Y-116448285D01*
X149538392Y-116305428D01*
X149609821Y-116234000D01*
X149752678Y-116162571D01*
X149966964Y-116162571D01*
X150109821Y-116234000D01*
X150181250Y-116305428D01*
X150252678Y-116448285D01*
X150252678Y-116876857D01*
X150181250Y-117019714D01*
X150109821Y-117091142D01*
X149966964Y-117162571D01*
X149752678Y-117162571D01*
X150895535Y-117019714D02*
X150966964Y-117091142D01*
X150895535Y-117162571D01*
X150824107Y-117091142D01*
X150895535Y-117019714D01*
X150895535Y-117162571D01*
X150895535Y-116234000D02*
X150966964Y-116305428D01*
X150895535Y-116376857D01*
X150824107Y-116305428D01*
X150895535Y-116234000D01*
X150895535Y-116376857D01*
X137074107Y-119562571D02*
X137074107Y-118062571D01*
X137716964Y-119562571D02*
X137716964Y-118776857D01*
X137645535Y-118634000D01*
X137502678Y-118562571D01*
X137288392Y-118562571D01*
X137145535Y-118634000D01*
X137074107Y-118705428D01*
X138216964Y-118562571D02*
X138788392Y-118562571D01*
X138431250Y-118062571D02*
X138431250Y-119348285D01*
X138502678Y-119491142D01*
X138645535Y-119562571D01*
X138788392Y-119562571D01*
X139074107Y-118562571D02*
X139645535Y-118562571D01*
X139288392Y-118062571D02*
X139288392Y-119348285D01*
X139359821Y-119491142D01*
X139502678Y-119562571D01*
X139645535Y-119562571D01*
X140145535Y-118562571D02*
X140145535Y-120062571D01*
X140145535Y-118634000D02*
X140288392Y-118562571D01*
X140574107Y-118562571D01*
X140716964Y-118634000D01*
X140788392Y-118705428D01*
X140859821Y-118848285D01*
X140859821Y-119276857D01*
X140788392Y-119419714D01*
X140716964Y-119491142D01*
X140574107Y-119562571D01*
X140288392Y-119562571D01*
X140145535Y-119491142D01*
X141431250Y-119491142D02*
X141574107Y-119562571D01*
X141859821Y-119562571D01*
X142002678Y-119491142D01*
X142074107Y-119348285D01*
X142074107Y-119276857D01*
X142002678Y-119134000D01*
X141859821Y-119062571D01*
X141645535Y-119062571D01*
X141502678Y-118991142D01*
X141431250Y-118848285D01*
X141431250Y-118776857D01*
X141502678Y-118634000D01*
X141645535Y-118562571D01*
X141859821Y-118562571D01*
X142002678Y-118634000D01*
X142716964Y-119419714D02*
X142788392Y-119491142D01*
X142716964Y-119562571D01*
X142645535Y-119491142D01*
X142716964Y-119419714D01*
X142716964Y-119562571D01*
X142716964Y-118634000D02*
X142788392Y-118705428D01*
X142716964Y-118776857D01*
X142645535Y-118705428D01*
X142716964Y-118634000D01*
X142716964Y-118776857D01*
X144502678Y-117991142D02*
X143216964Y-119919714D01*
X146074107Y-117991142D02*
X144788392Y-119919714D01*
X147216964Y-118562571D02*
X147216964Y-119776857D01*
X147145535Y-119919714D01*
X147074107Y-119991142D01*
X146931250Y-120062571D01*
X146716964Y-120062571D01*
X146574107Y-119991142D01*
X147216964Y-119491142D02*
X147074107Y-119562571D01*
X146788392Y-119562571D01*
X146645535Y-119491142D01*
X146574107Y-119419714D01*
X146502678Y-119276857D01*
X146502678Y-118848285D01*
X146574107Y-118705428D01*
X146645535Y-118634000D01*
X146788392Y-118562571D01*
X147074107Y-118562571D01*
X147216964Y-118634000D01*
X147931250Y-119562571D02*
X147931250Y-118562571D01*
X147931250Y-118062571D02*
X147859821Y-118134000D01*
X147931250Y-118205428D01*
X148002678Y-118134000D01*
X147931250Y-118062571D01*
X147931250Y-118205428D01*
X148431250Y-118562571D02*
X149002678Y-118562571D01*
X148645535Y-118062571D02*
X148645535Y-119348285D01*
X148716964Y-119491142D01*
X148859821Y-119562571D01*
X149002678Y-119562571D01*
X149502678Y-119562571D02*
X149502678Y-118062571D01*
X150145535Y-119562571D02*
X150145535Y-118776857D01*
X150074107Y-118634000D01*
X149931250Y-118562571D01*
X149716964Y-118562571D01*
X149574107Y-118634000D01*
X149502678Y-118705428D01*
X151502678Y-118562571D02*
X151502678Y-119562571D01*
X150859821Y-118562571D02*
X150859821Y-119348285D01*
X150931250Y-119491142D01*
X151074107Y-119562571D01*
X151288392Y-119562571D01*
X151431250Y-119491142D01*
X151502678Y-119419714D01*
X152216964Y-119562571D02*
X152216964Y-118062571D01*
X152216964Y-118634000D02*
X152359821Y-118562571D01*
X152645535Y-118562571D01*
X152788392Y-118634000D01*
X152859821Y-118705428D01*
X152931250Y-118848285D01*
X152931250Y-119276857D01*
X152859821Y-119419714D01*
X152788392Y-119491142D01*
X152645535Y-119562571D01*
X152359821Y-119562571D01*
X152216964Y-119491142D01*
X153574107Y-119419714D02*
X153645535Y-119491142D01*
X153574107Y-119562571D01*
X153502678Y-119491142D01*
X153574107Y-119419714D01*
X153574107Y-119562571D01*
X154931250Y-119491142D02*
X154788392Y-119562571D01*
X154502678Y-119562571D01*
X154359821Y-119491142D01*
X154288392Y-119419714D01*
X154216964Y-119276857D01*
X154216964Y-118848285D01*
X154288392Y-118705428D01*
X154359821Y-118634000D01*
X154502678Y-118562571D01*
X154788392Y-118562571D01*
X154931250Y-118634000D01*
X155788392Y-119562571D02*
X155645535Y-119491142D01*
X155574107Y-119419714D01*
X155502678Y-119276857D01*
X155502678Y-118848285D01*
X155574107Y-118705428D01*
X155645535Y-118634000D01*
X155788392Y-118562571D01*
X156002678Y-118562571D01*
X156145535Y-118634000D01*
X156216964Y-118705428D01*
X156288392Y-118848285D01*
X156288392Y-119276857D01*
X156216964Y-119419714D01*
X156145535Y-119491142D01*
X156002678Y-119562571D01*
X155788392Y-119562571D01*
X156931250Y-119562571D02*
X156931250Y-118562571D01*
X156931250Y-118705428D02*
X157002678Y-118634000D01*
X157145535Y-118562571D01*
X157359821Y-118562571D01*
X157502678Y-118634000D01*
X157574107Y-118776857D01*
X157574107Y-119562571D01*
X157574107Y-118776857D02*
X157645535Y-118634000D01*
X157788392Y-118562571D01*
X158002678Y-118562571D01*
X158145535Y-118634000D01*
X158216964Y-118776857D01*
X158216964Y-119562571D01*
X160002678Y-117991142D02*
X158716964Y-119919714D01*
X134181250Y-121819714D02*
X134109821Y-121891142D01*
X133895535Y-121962571D01*
X133752678Y-121962571D01*
X133538392Y-121891142D01*
X133395535Y-121748285D01*
X133324107Y-121605428D01*
X133252678Y-121319714D01*
X133252678Y-121105428D01*
X133324107Y-120819714D01*
X133395535Y-120676857D01*
X133538392Y-120534000D01*
X133752678Y-120462571D01*
X133895535Y-120462571D01*
X134109821Y-120534000D01*
X134181250Y-120605428D01*
X134824107Y-121962571D02*
X134824107Y-120462571D01*
X135466964Y-121962571D02*
X135466964Y-121176857D01*
X135395535Y-121034000D01*
X135252678Y-120962571D01*
X135038392Y-120962571D01*
X134895535Y-121034000D01*
X134824107Y-121105428D01*
X136395535Y-121962571D02*
X136252678Y-121891142D01*
X136181250Y-121819714D01*
X136109821Y-121676857D01*
X136109821Y-121248285D01*
X136181250Y-121105428D01*
X136252678Y-121034000D01*
X136395535Y-120962571D01*
X136609821Y-120962571D01*
X136752678Y-121034000D01*
X136824107Y-121105428D01*
X136895535Y-121248285D01*
X136895535Y-121676857D01*
X136824107Y-121819714D01*
X136752678Y-121891142D01*
X136609821Y-121962571D01*
X136395535Y-121962571D01*
X138181250Y-121891142D02*
X138038392Y-121962571D01*
X137752678Y-121962571D01*
X137609821Y-121891142D01*
X137538392Y-121819714D01*
X137466964Y-121676857D01*
X137466964Y-121248285D01*
X137538392Y-121105428D01*
X137609821Y-121034000D01*
X137752678Y-120962571D01*
X138038392Y-120962571D01*
X138181250Y-121034000D01*
X139038392Y-121962571D02*
X138895535Y-121891142D01*
X138824107Y-121819714D01*
X138752678Y-121676857D01*
X138752678Y-121248285D01*
X138824107Y-121105428D01*
X138895535Y-121034000D01*
X139038392Y-120962571D01*
X139252678Y-120962571D01*
X139395535Y-121034000D01*
X139466964Y-121105428D01*
X139538392Y-121248285D01*
X139538392Y-121676857D01*
X139466964Y-121819714D01*
X139395535Y-121891142D01*
X139252678Y-121962571D01*
X139038392Y-121962571D01*
X140824107Y-120462571D02*
X140538392Y-120462571D01*
X140395535Y-120534000D01*
X140324107Y-120605428D01*
X140181250Y-120819714D01*
X140109821Y-121105428D01*
X140109821Y-121676857D01*
X140181250Y-121819714D01*
X140252678Y-121891142D01*
X140395535Y-121962571D01*
X140681250Y-121962571D01*
X140824107Y-121891142D01*
X140895535Y-121819714D01*
X140966964Y-121676857D01*
X140966964Y-121319714D01*
X140895535Y-121176857D01*
X140824107Y-121105428D01*
X140681250Y-121034000D01*
X140395535Y-121034000D01*
X140252678Y-121105428D01*
X140181250Y-121176857D01*
X140109821Y-121319714D01*
X142395535Y-121962571D02*
X141538392Y-121962571D01*
X141966964Y-121962571D02*
X141966964Y-120462571D01*
X141824107Y-120676857D01*
X141681250Y-120819714D01*
X141538392Y-120891142D01*
X142895535Y-120462571D02*
X143895535Y-120462571D01*
X143252678Y-121962571D01*
X145538392Y-120391142D02*
X144252678Y-122319714D01*
X146038392Y-121176857D02*
X146538392Y-121176857D01*
X146752678Y-121962571D02*
X146038392Y-121962571D01*
X146038392Y-120462571D01*
X146752678Y-120462571D01*
X147395535Y-121962571D02*
X147395535Y-120962571D01*
X147395535Y-121248285D02*
X147466964Y-121105428D01*
X147538392Y-121034000D01*
X147681250Y-120962571D01*
X147824107Y-120962571D01*
X148966964Y-120962571D02*
X148966964Y-122176857D01*
X148895535Y-122319714D01*
X148824107Y-122391142D01*
X148681250Y-122462571D01*
X148466964Y-122462571D01*
X148324107Y-122391142D01*
X148966964Y-121891142D02*
X148824107Y-121962571D01*
X148538392Y-121962571D01*
X148395535Y-121891142D01*
X148324107Y-121819714D01*
X148252678Y-121676857D01*
X148252678Y-121248285D01*
X148324107Y-121105428D01*
X148395535Y-121034000D01*
X148538392Y-120962571D01*
X148824107Y-120962571D01*
X148966964Y-121034000D01*
X149895535Y-121962571D02*
X149752678Y-121891142D01*
X149681250Y-121819714D01*
X149609821Y-121676857D01*
X149609821Y-121248285D01*
X149681250Y-121105428D01*
X149752678Y-121034000D01*
X149895535Y-120962571D01*
X150109821Y-120962571D01*
X150252678Y-121034000D01*
X150324107Y-121105428D01*
X150395535Y-121248285D01*
X150395535Y-121676857D01*
X150324107Y-121819714D01*
X150252678Y-121891142D01*
X150109821Y-121962571D01*
X149895535Y-121962571D01*
X151895535Y-121819714D02*
X151824107Y-121891142D01*
X151609821Y-121962571D01*
X151466964Y-121962571D01*
X151252678Y-121891142D01*
X151109821Y-121748285D01*
X151038392Y-121605428D01*
X150966964Y-121319714D01*
X150966964Y-121105428D01*
X151038392Y-120819714D01*
X151109821Y-120676857D01*
X151252678Y-120534000D01*
X151466964Y-120462571D01*
X151609821Y-120462571D01*
X151824107Y-120534000D01*
X151895535Y-120605428D01*
X152538392Y-121962571D02*
X152538392Y-120462571D01*
X153181250Y-121962571D02*
X153181250Y-121176857D01*
X153109821Y-121034000D01*
X152966964Y-120962571D01*
X152752678Y-120962571D01*
X152609821Y-121034000D01*
X152538392Y-121105428D01*
X154109821Y-121962571D02*
X153966964Y-121891142D01*
X153895535Y-121819714D01*
X153824107Y-121676857D01*
X153824107Y-121248285D01*
X153895535Y-121105428D01*
X153966964Y-121034000D01*
X154109821Y-120962571D01*
X154324107Y-120962571D01*
X154466964Y-121034000D01*
X154538392Y-121105428D01*
X154609821Y-121248285D01*
X154609821Y-121676857D01*
X154538392Y-121819714D01*
X154466964Y-121891142D01*
X154324107Y-121962571D01*
X154109821Y-121962571D01*
X155895535Y-121891142D02*
X155752678Y-121962571D01*
X155466964Y-121962571D01*
X155324107Y-121891142D01*
X155252678Y-121819714D01*
X155181250Y-121676857D01*
X155181250Y-121248285D01*
X155252678Y-121105428D01*
X155324107Y-121034000D01*
X155466964Y-120962571D01*
X155752678Y-120962571D01*
X155895535Y-121034000D01*
X156752678Y-121962571D02*
X156609821Y-121891142D01*
X156538392Y-121819714D01*
X156466964Y-121676857D01*
X156466964Y-121248285D01*
X156538392Y-121105428D01*
X156609821Y-121034000D01*
X156752678Y-120962571D01*
X156966964Y-120962571D01*
X157109821Y-121034000D01*
X157181250Y-121105428D01*
X157252678Y-121248285D01*
X157252678Y-121676857D01*
X157181250Y-121819714D01*
X157109821Y-121891142D01*
X156966964Y-121962571D01*
X156752678Y-121962571D01*
X157895535Y-121391142D02*
X159038392Y-121391142D01*
X159752678Y-121962571D02*
X159752678Y-120462571D01*
X160324107Y-120462571D01*
X160466964Y-120534000D01*
X160538392Y-120605428D01*
X160609821Y-120748285D01*
X160609821Y-120962571D01*
X160538392Y-121105428D01*
X160466964Y-121176857D01*
X160324107Y-121248285D01*
X159752678Y-121248285D01*
X162109821Y-121819714D02*
X162038392Y-121891142D01*
X161824107Y-121962571D01*
X161681250Y-121962571D01*
X161466964Y-121891142D01*
X161324107Y-121748285D01*
X161252678Y-121605428D01*
X161181250Y-121319714D01*
X161181250Y-121105428D01*
X161252678Y-120819714D01*
X161324107Y-120676857D01*
X161466964Y-120534000D01*
X161681250Y-120462571D01*
X161824107Y-120462571D01*
X162038392Y-120534000D01*
X162109821Y-120605428D01*
X163252678Y-121176857D02*
X163466964Y-121248285D01*
X163538392Y-121319714D01*
X163609821Y-121462571D01*
X163609821Y-121676857D01*
X163538392Y-121819714D01*
X163466964Y-121891142D01*
X163324107Y-121962571D01*
X162752678Y-121962571D01*
X162752678Y-120462571D01*
X163252678Y-120462571D01*
X163395535Y-120534000D01*
X163466964Y-120605428D01*
X163538392Y-120748285D01*
X163538392Y-120891142D01*
X163466964Y-121034000D01*
X163395535Y-121105428D01*
X163252678Y-121176857D01*
X162752678Y-121176857D01*
D11*
X14163395Y-108216023D02*
G75*
G02*
X12431250Y-105497100I1267855J2718923D01*
G01*
X122828475Y-161218923D02*
G75*
G03*
X124096330Y-161500000I1267855J2718923D01*
G01*
X174034025Y-161218923D02*
G75*
G02*
X172766170Y-161500000I-1267855J2718923D01*
G01*
X282699105Y-108216023D02*
G75*
G03*
X284431250Y-105497100I-1267855J2718923D01*
G01*
X284431250Y-52500000D02*
G75*
G03*
X281431250Y-49500000I-3000000J0D01*
G01*
X163802570Y-48621320D02*
G75*
G03*
X165923890Y-49500000I2121320J2121320D01*
G01*
X161809930Y-46628680D02*
G75*
G03*
X159688610Y-45750000I-2121320J-2121320D01*
G01*
X135052570Y-46628680D02*
G75*
G02*
X137173890Y-45750000I2121320J-2121320D01*
G01*
X130938610Y-49500000D02*
G75*
G03*
X133059930Y-48621320I0J3000000D01*
G01*
X12431250Y-52500000D02*
G75*
G02*
X15431250Y-49500000I3000000J0D01*
G01*
X12431250Y-52500000D02*
X12431250Y-105497100D01*
X14163400Y-108216020D02*
X122828480Y-161218920D01*
X124096330Y-161500000D02*
X172766170Y-161500000D01*
X282699100Y-108216020D02*
X174034020Y-161218920D01*
X284431250Y-52500000D02*
X284431250Y-105497100D01*
X165923890Y-49500000D02*
X281431250Y-49500000D01*
X161809930Y-46628680D02*
X163802570Y-48621320D01*
X154431250Y-45750000D02*
X159688610Y-45750000D01*
X154431250Y-45750000D02*
X154431250Y-77750000D01*
X142431250Y-77750000D02*
X154431250Y-77750000D01*
X142431250Y-45750000D02*
X142431250Y-77750000D01*
X137173890Y-45750000D02*
X142431250Y-45750000D01*
X133059930Y-48621320D02*
X135052570Y-46628680D01*
X15431250Y-49500000D02*
X130938610Y-49500000D01*
D10*
%TO.C,SW1*%
X127575000Y-53026000D02*
X132775000Y-53026000D01*
X132775000Y-53026000D02*
X132775000Y-58226000D01*
X132775000Y-58226000D02*
X127575000Y-58226000D01*
X127575000Y-58226000D02*
X127575000Y-53026000D01*
X131175000Y-55626000D02*
G75*
G03*
X131175000Y-55626000I-1000000J0D01*
G01*
%TO.C,MX2*%
X47484023Y-61300272D02*
X47742843Y-60334346D01*
X44119376Y-73857307D02*
X45085302Y-74116127D01*
X48708768Y-60593165D02*
X47742843Y-60334346D01*
X44119376Y-73857307D02*
X44378195Y-72891382D01*
X57901157Y-76514848D02*
X57642337Y-77480774D01*
X61265804Y-63957813D02*
X60299878Y-63698993D01*
X56676412Y-77221955D02*
X57642337Y-77480774D01*
X61265804Y-63957813D02*
X61006985Y-64923738D01*
%TO.C,MX1*%
X29131433Y-56382712D02*
X29390253Y-55416786D01*
X25766786Y-68939747D02*
X26732712Y-69198567D01*
X30356178Y-55675605D02*
X29390253Y-55416786D01*
X25766786Y-68939747D02*
X26025605Y-67973822D01*
X39548567Y-71597288D02*
X39289747Y-72563214D01*
X42913214Y-59040253D02*
X41947288Y-58781433D01*
X38323822Y-72304395D02*
X39289747Y-72563214D01*
X42913214Y-59040253D02*
X42654395Y-60006178D01*
D12*
%TO.C,U1*%
X154781250Y-50830000D02*
X157321250Y-50830000D01*
X154781250Y-48290000D02*
X154781250Y-50830000D01*
D10*
G36*
X142386615Y-54579030D02*
G01*
X142386615Y-54679030D01*
X142286615Y-54679030D01*
X142286615Y-54579030D01*
X142386615Y-54579030D01*
G37*
X142386615Y-54579030D02*
X142386615Y-54679030D01*
X142286615Y-54679030D01*
X142286615Y-54579030D01*
X142386615Y-54579030D01*
G36*
X142186615Y-54179030D02*
G01*
X142186615Y-54979030D01*
X142086615Y-54979030D01*
X142086615Y-54179030D01*
X142186615Y-54179030D01*
G37*
X142186615Y-54179030D02*
X142186615Y-54979030D01*
X142086615Y-54979030D01*
X142086615Y-54179030D01*
X142186615Y-54179030D01*
G36*
X142586615Y-54779030D02*
G01*
X142586615Y-54979030D01*
X142486615Y-54979030D01*
X142486615Y-54779030D01*
X142586615Y-54779030D01*
G37*
X142586615Y-54779030D02*
X142586615Y-54979030D01*
X142486615Y-54979030D01*
X142486615Y-54779030D01*
X142586615Y-54779030D01*
G36*
X142586615Y-54179030D02*
G01*
X142586615Y-54479030D01*
X142486615Y-54479030D01*
X142486615Y-54179030D01*
X142586615Y-54179030D01*
G37*
X142586615Y-54179030D02*
X142586615Y-54479030D01*
X142486615Y-54479030D01*
X142486615Y-54179030D01*
X142586615Y-54179030D01*
G36*
X142586615Y-54179030D02*
G01*
X142586615Y-54279030D01*
X142086615Y-54279030D01*
X142086615Y-54179030D01*
X142586615Y-54179030D01*
G37*
X142586615Y-54179030D02*
X142586615Y-54279030D01*
X142086615Y-54279030D01*
X142086615Y-54179030D01*
X142586615Y-54179030D01*
D12*
X139541250Y-78770000D02*
X139541250Y-45750000D01*
X157321250Y-78770000D02*
X139541250Y-78770000D01*
X157321250Y-45750000D02*
X157321250Y-78770000D01*
X139541250Y-45750000D02*
X157321250Y-45750000D01*
X154781250Y-48290000D02*
X157321250Y-48290000D01*
D10*
%TO.C,MX40*%
X164597832Y-147917877D02*
X163890725Y-147210770D01*
X173790220Y-157110265D02*
X174497327Y-156403158D01*
X164597832Y-146503663D02*
X163890725Y-147210770D01*
X173790220Y-157110265D02*
X173083113Y-156403158D01*
X182982608Y-146503663D02*
X183689715Y-147210770D01*
X173790220Y-137311275D02*
X173083113Y-138018382D01*
X182982608Y-147917877D02*
X183689715Y-147210770D01*
X173790220Y-137311275D02*
X174497327Y-138018382D01*
%TO.C,MX15*%
X64024883Y-72979312D02*
X64283703Y-72013386D01*
X60660236Y-85536347D02*
X61626162Y-85795167D01*
X65249628Y-72272205D02*
X64283703Y-72013386D01*
X60660236Y-85536347D02*
X60919055Y-84570422D01*
X74442017Y-88193888D02*
X74183197Y-89159814D01*
X77806664Y-75636853D02*
X76840738Y-75378033D01*
X73217272Y-88900995D02*
X74183197Y-89159814D01*
X77806664Y-75636853D02*
X77547845Y-76602778D01*
%TO.C,MX3*%
X68942443Y-54626722D02*
X69201263Y-53660796D01*
X65577796Y-67183757D02*
X66543722Y-67442577D01*
X70167188Y-53919615D02*
X69201263Y-53660796D01*
X65577796Y-67183757D02*
X65836615Y-66217832D01*
X79359577Y-69841298D02*
X79100757Y-70807224D01*
X82724224Y-57284263D02*
X81758298Y-57025443D01*
X78134832Y-70548405D02*
X79100757Y-70807224D01*
X82724224Y-57284263D02*
X82465405Y-58250188D01*
%TO.C,MX4*%
X88847943Y-53742712D02*
X89106763Y-52776786D01*
X85483296Y-66299747D02*
X86449222Y-66558567D01*
X90072688Y-53035605D02*
X89106763Y-52776786D01*
X85483296Y-66299747D02*
X85742115Y-65333822D01*
X99265077Y-68957288D02*
X99006257Y-69923214D01*
X102629724Y-56400253D02*
X101663798Y-56141433D01*
X98040332Y-69664395D02*
X99006257Y-69923214D01*
X102629724Y-56400253D02*
X102370905Y-57366178D01*
%TO.C,MX5*%
X105518213Y-64944812D02*
X105777033Y-63978886D01*
X102153566Y-77501847D02*
X103119492Y-77760667D01*
X106742958Y-64237705D02*
X105777033Y-63978886D01*
X102153566Y-77501847D02*
X102412385Y-76535922D01*
X115935347Y-80159388D02*
X115676527Y-81125314D01*
X119299994Y-67602353D02*
X118334068Y-67343533D01*
X114710602Y-80866495D02*
X115676527Y-81125314D01*
X119299994Y-67602353D02*
X119041175Y-68568278D01*
%TO.C,MX6*%
X123223753Y-72277192D02*
X123482573Y-71311266D01*
X119859106Y-84834227D02*
X120825032Y-85093047D01*
X124448498Y-71570085D02*
X123482573Y-71311266D01*
X119859106Y-84834227D02*
X120117925Y-83868302D01*
X133640887Y-87491768D02*
X133382067Y-88457694D01*
X137005534Y-74934733D02*
X136039608Y-74675913D01*
X132416142Y-88198875D02*
X133382067Y-88457694D01*
X137005534Y-74934733D02*
X136746715Y-75900658D01*
%TO.C,MX7*%
X160117925Y-75900658D02*
X159859106Y-74934733D01*
X163482573Y-88457694D02*
X164448498Y-88198875D01*
X160825032Y-74675913D02*
X159859106Y-74934733D01*
X163482573Y-88457694D02*
X163223753Y-87491768D01*
X176746715Y-83868302D02*
X177005534Y-84834227D01*
X173382067Y-71311266D02*
X172416142Y-71570085D01*
X176039608Y-85093047D02*
X177005534Y-84834227D01*
X173382067Y-71311266D02*
X173640887Y-72277192D01*
%TO.C,MX8*%
X177823475Y-68568278D02*
X177564656Y-67602353D01*
X181188123Y-81125314D02*
X182154048Y-80866495D01*
X178530582Y-67343533D02*
X177564656Y-67602353D01*
X181188123Y-81125314D02*
X180929303Y-80159388D01*
X194452265Y-76535922D02*
X194711084Y-77501847D01*
X191087617Y-63978886D02*
X190121692Y-64237705D01*
X193745158Y-77760667D02*
X194711084Y-77501847D01*
X191087617Y-63978886D02*
X191346437Y-64944812D01*
%TO.C,MX9*%
X194493735Y-57372198D02*
X194234916Y-56406273D01*
X197858383Y-69929234D02*
X198824308Y-69670415D01*
X195200842Y-56147453D02*
X194234916Y-56406273D01*
X197858383Y-69929234D02*
X197599563Y-68963308D01*
X211122525Y-65339842D02*
X211381344Y-66305767D01*
X207757877Y-52782806D02*
X206791952Y-53041625D01*
X210415418Y-66564587D02*
X211381344Y-66305767D01*
X207757877Y-52782806D02*
X208016697Y-53748732D01*
%TO.C,MX10*%
X214399245Y-58250188D02*
X214140426Y-57284263D01*
X217763893Y-70807224D02*
X218729818Y-70548405D01*
X215106352Y-57025443D02*
X214140426Y-57284263D01*
X217763893Y-70807224D02*
X217505073Y-69841298D01*
X231028035Y-66217832D02*
X231286854Y-67183757D01*
X227663387Y-53660796D02*
X226697462Y-53919615D01*
X230320928Y-67442577D02*
X231286854Y-67183757D01*
X227663387Y-53660796D02*
X227922207Y-54626722D01*
%TO.C,MX11*%
X235857665Y-64923738D02*
X235598846Y-63957813D01*
X239222313Y-77480774D02*
X240188238Y-77221955D01*
X236564772Y-63698993D02*
X235598846Y-63957813D01*
X239222313Y-77480774D02*
X238963493Y-76514848D01*
X252486455Y-72891382D02*
X252745274Y-73857307D01*
X249121807Y-60334346D02*
X248155882Y-60593165D01*
X251779348Y-74116127D02*
X252745274Y-73857307D01*
X249121807Y-60334346D02*
X249380627Y-61300272D01*
%TO.C,MX12*%
X254210255Y-60006178D02*
X253951436Y-59040253D01*
X257574903Y-72563214D02*
X258540828Y-72304395D01*
X254917362Y-58781433D02*
X253951436Y-59040253D01*
X257574903Y-72563214D02*
X257316083Y-71597288D01*
X270839045Y-67973822D02*
X271097864Y-68939747D01*
X267474397Y-55416786D02*
X266508472Y-55675605D01*
X270131938Y-69198567D02*
X271097864Y-68939747D01*
X267474397Y-55416786D02*
X267733217Y-56382712D01*
%TO.C,MX13*%
X24213873Y-74735302D02*
X24472693Y-73769376D01*
X20849226Y-87292337D02*
X21815152Y-87551157D01*
X25438618Y-74028195D02*
X24472693Y-73769376D01*
X20849226Y-87292337D02*
X21108045Y-86326412D01*
X34631007Y-89949878D02*
X34372187Y-90915804D01*
X37995654Y-77392843D02*
X37029728Y-77134023D01*
X33406262Y-90656985D02*
X34372187Y-90915804D01*
X37995654Y-77392843D02*
X37736835Y-78358768D01*
%TO.C,MX14*%
X42566463Y-79652862D02*
X42825283Y-78686936D01*
X39201816Y-92209897D02*
X40167742Y-92468717D01*
X43791208Y-78945755D02*
X42825283Y-78686936D01*
X39201816Y-92209897D02*
X39460635Y-91243972D01*
X52983597Y-94867438D02*
X52724777Y-95833364D01*
X56348244Y-82310403D02*
X55382318Y-82051583D01*
X51758852Y-95574545D02*
X52724777Y-95833364D01*
X56348244Y-82310403D02*
X56089425Y-83276328D01*
%TO.C,MX16*%
X83930383Y-72101322D02*
X84189203Y-71135396D01*
X80565736Y-84658357D02*
X81531662Y-84917177D01*
X85155128Y-71394215D02*
X84189203Y-71135396D01*
X80565736Y-84658357D02*
X80824555Y-83692432D01*
X94347517Y-87315898D02*
X94088697Y-88281824D01*
X97712164Y-74758863D02*
X96746238Y-74500043D01*
X93122772Y-88023005D02*
X94088697Y-88281824D01*
X97712164Y-74758863D02*
X97453345Y-75724788D01*
%TO.C,MX17*%
X100600653Y-83297402D02*
X100859473Y-82331476D01*
X97236006Y-95854437D02*
X98201932Y-96113257D01*
X101825398Y-82590295D02*
X100859473Y-82331476D01*
X97236006Y-95854437D02*
X97494825Y-94888512D01*
X111017787Y-98511978D02*
X110758967Y-99477904D01*
X114382434Y-85954943D02*
X113416508Y-85696123D01*
X109793042Y-99219085D02*
X110758967Y-99477904D01*
X114382434Y-85954943D02*
X114123615Y-86920868D01*
%TO.C,MX18*%
X118306193Y-90629782D02*
X118565013Y-89663856D01*
X114941546Y-103186817D02*
X115907472Y-103445637D01*
X119530938Y-89922675D02*
X118565013Y-89663856D01*
X114941546Y-103186817D02*
X115200365Y-102220892D01*
X128723327Y-105844358D02*
X128464507Y-106810284D01*
X132087974Y-93287323D02*
X131122048Y-93028503D01*
X127498582Y-106551465D02*
X128464507Y-106810284D01*
X132087974Y-93287323D02*
X131829155Y-94253248D01*
%TO.C,MX19*%
X165035495Y-94253248D02*
X164776676Y-93287323D01*
X168400143Y-106810284D02*
X169366068Y-106551465D01*
X165742602Y-93028503D02*
X164776676Y-93287323D01*
X168400143Y-106810284D02*
X168141323Y-105844358D01*
X181664285Y-102220892D02*
X181923104Y-103186817D01*
X178299637Y-89663856D02*
X177333712Y-89922675D01*
X180957178Y-103445637D02*
X181923104Y-103186817D01*
X178299637Y-89663856D02*
X178558457Y-90629782D01*
%TO.C,MX20*%
X182741035Y-86920868D02*
X182482216Y-85954943D01*
X186105683Y-99477904D02*
X187071608Y-99219085D01*
X183448142Y-85696123D02*
X182482216Y-85954943D01*
X186105683Y-99477904D02*
X185846863Y-98511978D01*
X199369825Y-94888512D02*
X199628644Y-95854437D01*
X196005177Y-82331476D02*
X195039252Y-82590295D01*
X198662718Y-96113257D02*
X199628644Y-95854437D01*
X196005177Y-82331476D02*
X196263997Y-83297402D01*
%TO.C,MX21*%
X199411305Y-75724788D02*
X199152486Y-74758863D01*
X202775953Y-88281824D02*
X203741878Y-88023005D01*
X200118412Y-74500043D02*
X199152486Y-74758863D01*
X202775953Y-88281824D02*
X202517133Y-87315898D01*
X216040095Y-83692432D02*
X216298914Y-84658357D01*
X212675447Y-71135396D02*
X211709522Y-71394215D01*
X215332988Y-84917177D02*
X216298914Y-84658357D01*
X212675447Y-71135396D02*
X212934267Y-72101322D01*
%TO.C,MX22*%
X219316805Y-76602778D02*
X219057986Y-75636853D01*
X222681453Y-89159814D02*
X223647378Y-88900995D01*
X220023912Y-75378033D02*
X219057986Y-75636853D01*
X222681453Y-89159814D02*
X222422633Y-88193888D01*
X235945595Y-84570422D02*
X236204414Y-85536347D01*
X232580947Y-72013386D02*
X231615022Y-72272205D01*
X235238488Y-85795167D02*
X236204414Y-85536347D01*
X232580947Y-72013386D02*
X232839767Y-72979312D01*
%TO.C,MX23*%
X240775225Y-83276328D02*
X240516406Y-82310403D01*
X244139873Y-95833364D02*
X245105798Y-95574545D01*
X241482332Y-82051583D02*
X240516406Y-82310403D01*
X244139873Y-95833364D02*
X243881053Y-94867438D01*
X257404015Y-91243972D02*
X257662834Y-92209897D01*
X254039367Y-78686936D02*
X253073442Y-78945755D01*
X256696908Y-92468717D02*
X257662834Y-92209897D01*
X254039367Y-78686936D02*
X254298187Y-79652862D01*
%TO.C,MX24*%
X259127815Y-78358768D02*
X258868996Y-77392843D01*
X262492463Y-90915804D02*
X263458388Y-90656985D01*
X259834922Y-77134023D02*
X258868996Y-77392843D01*
X262492463Y-90915804D02*
X262233643Y-89949878D01*
X275756605Y-86326412D02*
X276015424Y-87292337D01*
X272391957Y-73769376D02*
X271426032Y-74028195D01*
X275049498Y-87551157D02*
X276015424Y-87292337D01*
X272391957Y-73769376D02*
X272650777Y-74735302D01*
%TO.C,MX25*%
X19296313Y-93087892D02*
X19555133Y-92121966D01*
X15931666Y-105644927D02*
X16897592Y-105903747D01*
X20521058Y-92380785D02*
X19555133Y-92121966D01*
X15931666Y-105644927D02*
X16190485Y-104679002D01*
X29713447Y-108302468D02*
X29454627Y-109268394D01*
X33078094Y-95745433D02*
X32112168Y-95486613D01*
X28488702Y-109009575D02*
X29454627Y-109268394D01*
X33078094Y-95745433D02*
X32819275Y-96711358D01*
%TO.C,MX26*%
X37648903Y-98005452D02*
X37907723Y-97039526D01*
X34284256Y-110562487D02*
X35250182Y-110821307D01*
X38873648Y-97298345D02*
X37907723Y-97039526D01*
X34284256Y-110562487D02*
X34543075Y-109596562D01*
X48066037Y-113220028D02*
X47807217Y-114185954D01*
X51430684Y-100662993D02*
X50464758Y-100404173D01*
X46841292Y-113927135D02*
X47807217Y-114185954D01*
X51430684Y-100662993D02*
X51171865Y-101628918D01*
%TO.C,MX27*%
X59107323Y-91331912D02*
X59366143Y-90365986D01*
X55742676Y-103888947D02*
X56708602Y-104147767D01*
X60332068Y-90624805D02*
X59366143Y-90365986D01*
X55742676Y-103888947D02*
X56001495Y-102923022D01*
X69524457Y-106546488D02*
X69265637Y-107512414D01*
X72889104Y-93989453D02*
X71923178Y-93730633D01*
X68299712Y-107253595D02*
X69265637Y-107512414D01*
X72889104Y-93989453D02*
X72630285Y-94955378D01*
%TO.C,MX28*%
X79012823Y-90453912D02*
X79271643Y-89487986D01*
X75648176Y-103010947D02*
X76614102Y-103269767D01*
X80237568Y-89746805D02*
X79271643Y-89487986D01*
X75648176Y-103010947D02*
X75906995Y-102045022D01*
X89429957Y-105668488D02*
X89171137Y-106634414D01*
X92794604Y-93111453D02*
X91828678Y-92852633D01*
X88205212Y-106375595D02*
X89171137Y-106634414D01*
X92794604Y-93111453D02*
X92535785Y-94077378D01*
%TO.C,MX29*%
X95683093Y-101649992D02*
X95941913Y-100684066D01*
X92318446Y-114207027D02*
X93284372Y-114465847D01*
X96907838Y-100942885D02*
X95941913Y-100684066D01*
X92318446Y-114207027D02*
X92577265Y-113241102D01*
X106100227Y-116864568D02*
X105841407Y-117830494D01*
X109464874Y-104307533D02*
X108498948Y-104048713D01*
X104875482Y-117571675D02*
X105841407Y-117830494D01*
X109464874Y-104307533D02*
X109206055Y-105273458D01*
%TO.C,MX30*%
X113388633Y-108982372D02*
X113647453Y-108016446D01*
X110023986Y-121539407D02*
X110989912Y-121798227D01*
X114613378Y-108275265D02*
X113647453Y-108016446D01*
X110023986Y-121539407D02*
X110282805Y-120573482D01*
X123805767Y-124196948D02*
X123546947Y-125162874D01*
X127170414Y-111639913D02*
X126204488Y-111381093D01*
X122581022Y-124904055D02*
X123546947Y-125162874D01*
X127170414Y-111639913D02*
X126911595Y-112605838D01*
%TO.C,MX31*%
X169953055Y-112605838D02*
X169694236Y-111639913D01*
X173317703Y-125162874D02*
X174283628Y-124904055D01*
X170660162Y-111381093D02*
X169694236Y-111639913D01*
X173317703Y-125162874D02*
X173058883Y-124196948D01*
X186581845Y-120573482D02*
X186840664Y-121539407D01*
X183217197Y-108016446D02*
X182251272Y-108275265D01*
X185874738Y-121798227D02*
X186840664Y-121539407D01*
X183217197Y-108016446D02*
X183476017Y-108982372D01*
%TO.C,MX32*%
X187658595Y-105273458D02*
X187399776Y-104307533D01*
X191023243Y-117830494D02*
X191989168Y-117571675D01*
X188365702Y-104048713D02*
X187399776Y-104307533D01*
X191023243Y-117830494D02*
X190764423Y-116864568D01*
X204287385Y-113241102D02*
X204546204Y-114207027D01*
X200922737Y-100684066D02*
X199956812Y-100942885D01*
X203580278Y-114465847D02*
X204546204Y-114207027D01*
X200922737Y-100684066D02*
X201181557Y-101649992D01*
%TO.C,MX33*%
X204328865Y-94077378D02*
X204070046Y-93111453D01*
X207693513Y-106634414D02*
X208659438Y-106375595D01*
X205035972Y-92852633D02*
X204070046Y-93111453D01*
X207693513Y-106634414D02*
X207434693Y-105668488D01*
X220957655Y-102045022D02*
X221216474Y-103010947D01*
X217593007Y-89487986D02*
X216627082Y-89746805D01*
X220250548Y-103269767D02*
X221216474Y-103010947D01*
X217593007Y-89487986D02*
X217851827Y-90453912D01*
%TO.C,MX34*%
X224234365Y-94955378D02*
X223975546Y-93989453D01*
X227599013Y-107512414D02*
X228564938Y-107253595D01*
X224941472Y-93730633D02*
X223975546Y-93989453D01*
X227599013Y-107512414D02*
X227340193Y-106546488D01*
X240863155Y-102923022D02*
X241121974Y-103888947D01*
X237498507Y-90365986D02*
X236532582Y-90624805D01*
X240156048Y-104147767D02*
X241121974Y-103888947D01*
X237498507Y-90365986D02*
X237757327Y-91331912D01*
%TO.C,MX35*%
X245692785Y-101628918D02*
X245433966Y-100662993D01*
X249057433Y-114185954D02*
X250023358Y-113927135D01*
X246399892Y-100404173D02*
X245433966Y-100662993D01*
X249057433Y-114185954D02*
X248798613Y-113220028D01*
X262321575Y-109596562D02*
X262580394Y-110562487D01*
X258956927Y-97039526D02*
X257991002Y-97298345D01*
X261614468Y-110821307D02*
X262580394Y-110562487D01*
X258956927Y-97039526D02*
X259215747Y-98005452D01*
%TO.C,MX36*%
X264045375Y-96711358D02*
X263786556Y-95745433D01*
X267410023Y-109268394D02*
X268375948Y-109009575D01*
X264752482Y-95486613D02*
X263786556Y-95745433D01*
X267410023Y-109268394D02*
X267151203Y-108302468D01*
X280674165Y-104679002D02*
X280932984Y-105644927D01*
X277309517Y-92121966D02*
X276343592Y-92380785D01*
X279967058Y-105903747D02*
X280932984Y-105644927D01*
X277309517Y-92121966D02*
X277568337Y-93087892D01*
%TO.C,MX37*%
X81330413Y-118509732D02*
X81589233Y-117543806D01*
X77965766Y-131066767D02*
X78931692Y-131325587D01*
X82555158Y-117802625D02*
X81589233Y-117543806D01*
X77965766Y-131066767D02*
X78224585Y-130100842D01*
X91747547Y-133724308D02*
X91488727Y-134690234D01*
X95112194Y-121167273D02*
X94146268Y-120908453D01*
X90522802Y-134431415D02*
X91488727Y-134690234D01*
X95112194Y-121167273D02*
X94853375Y-122133198D01*
%TO.C,MX38*%
X103133052Y-125562748D02*
X103633052Y-124696722D01*
X96633052Y-136821078D02*
X97499078Y-137321078D01*
X104499078Y-125196722D02*
X103633052Y-124696722D01*
X96633052Y-136821078D02*
X97133052Y-135955052D01*
X109257408Y-142955052D02*
X108757408Y-143821078D01*
X115757408Y-131696722D02*
X114891382Y-131196722D01*
X107891382Y-143321078D02*
X108757408Y-143821078D01*
X115757408Y-131696722D02*
X115257408Y-132562748D01*
%TO.C,MX39*%
X122367323Y-138018382D02*
X123074430Y-137311275D01*
X113174935Y-147210770D02*
X113882042Y-147917877D01*
X123781537Y-138018382D02*
X123074430Y-137311275D01*
X113174935Y-147210770D02*
X113882042Y-146503663D01*
X123781537Y-156403158D02*
X123074430Y-157110265D01*
X132973925Y-147210770D02*
X132266818Y-146503663D01*
X122367323Y-156403158D02*
X123074430Y-157110265D01*
X132973925Y-147210770D02*
X132266818Y-147917877D01*
%TO.C,MX41*%
X181607242Y-132562748D02*
X181107242Y-131696722D01*
X188107242Y-143821078D02*
X188973268Y-143321078D01*
X181973268Y-131196722D02*
X181107242Y-131696722D01*
X188107242Y-143821078D02*
X187607242Y-142955052D01*
X199731598Y-135955052D02*
X200231598Y-136821078D01*
X193231598Y-124696722D02*
X192365572Y-125196722D01*
X199365572Y-137321078D02*
X200231598Y-136821078D01*
X193231598Y-124696722D02*
X193731598Y-125562748D01*
%TO.C,MX42*%
X202011275Y-122133198D02*
X201752456Y-121167273D01*
X205375923Y-134690234D02*
X206341848Y-134431415D01*
X202718382Y-120908453D02*
X201752456Y-121167273D01*
X205375923Y-134690234D02*
X205117103Y-133724308D01*
X218640065Y-130100842D02*
X218898884Y-131066767D01*
X215275417Y-117543806D02*
X214309492Y-117802625D01*
X217932958Y-131325587D02*
X218898884Y-131066767D01*
X215275417Y-117543806D02*
X215534237Y-118509732D01*
D13*
%TO.C,J1*%
X24190000Y-55940000D02*
X24190000Y-53280000D01*
X19050000Y-55940000D02*
X24190000Y-55940000D01*
X19050000Y-53280000D02*
X24190000Y-53280000D01*
X19050000Y-55940000D02*
X19050000Y-53280000D01*
X17780000Y-55940000D02*
X16450000Y-55940000D01*
X16450000Y-55940000D02*
X16450000Y-54610000D01*
%TD*%
%TO.C,REF\u002A\u002A*%
D10*
X175006166Y-56197380D02*
X174672833Y-55721190D01*
X174434738Y-56197380D02*
X174434738Y-55197380D01*
X174815690Y-55197380D01*
X174910928Y-55245000D01*
X174958547Y-55292619D01*
X175006166Y-55387857D01*
X175006166Y-55530714D01*
X174958547Y-55625952D01*
X174910928Y-55673571D01*
X174815690Y-55721190D01*
X174434738Y-55721190D01*
X175434738Y-55673571D02*
X175768071Y-55673571D01*
X175910928Y-56197380D02*
X175434738Y-56197380D01*
X175434738Y-55197380D01*
X175910928Y-55197380D01*
X176672833Y-55673571D02*
X176339500Y-55673571D01*
X176339500Y-56197380D02*
X176339500Y-55197380D01*
X176815690Y-55197380D01*
X177339500Y-55197380D02*
X177339500Y-55435476D01*
X177101404Y-55340238D02*
X177339500Y-55435476D01*
X177577595Y-55340238D01*
X177196642Y-55625952D02*
X177339500Y-55435476D01*
X177482357Y-55625952D01*
X178101404Y-55197380D02*
X178101404Y-55435476D01*
X177863309Y-55340238D02*
X178101404Y-55435476D01*
X178339500Y-55340238D01*
X177958547Y-55625952D02*
X178101404Y-55435476D01*
X178244261Y-55625952D01*
X247840666Y-119443380D02*
X247507333Y-118967190D01*
X247269238Y-119443380D02*
X247269238Y-118443380D01*
X247650190Y-118443380D01*
X247745428Y-118491000D01*
X247793047Y-118538619D01*
X247840666Y-118633857D01*
X247840666Y-118776714D01*
X247793047Y-118871952D01*
X247745428Y-118919571D01*
X247650190Y-118967190D01*
X247269238Y-118967190D01*
X248269238Y-118919571D02*
X248602571Y-118919571D01*
X248745428Y-119443380D02*
X248269238Y-119443380D01*
X248269238Y-118443380D01*
X248745428Y-118443380D01*
X249507333Y-118919571D02*
X249174000Y-118919571D01*
X249174000Y-119443380D02*
X249174000Y-118443380D01*
X249650190Y-118443380D01*
X250174000Y-118443380D02*
X250174000Y-118681476D01*
X249935904Y-118586238D02*
X250174000Y-118681476D01*
X250412095Y-118586238D01*
X250031142Y-118871952D02*
X250174000Y-118681476D01*
X250316857Y-118871952D01*
X250935904Y-118443380D02*
X250935904Y-118681476D01*
X250697809Y-118586238D02*
X250935904Y-118681476D01*
X251174000Y-118586238D01*
X250793047Y-118871952D02*
X250935904Y-118681476D01*
X251078761Y-118871952D01*
X172454736Y-131781380D02*
X172121403Y-131305190D01*
X171883308Y-131781380D02*
X171883308Y-130781380D01*
X172264260Y-130781380D01*
X172359498Y-130829000D01*
X172407117Y-130876619D01*
X172454736Y-130971857D01*
X172454736Y-131114714D01*
X172407117Y-131209952D01*
X172359498Y-131257571D01*
X172264260Y-131305190D01*
X171883308Y-131305190D01*
X172883308Y-131257571D02*
X173216641Y-131257571D01*
X173359498Y-131781380D02*
X172883308Y-131781380D01*
X172883308Y-130781380D01*
X173359498Y-130781380D01*
X174121403Y-131257571D02*
X173788070Y-131257571D01*
X173788070Y-131781380D02*
X173788070Y-130781380D01*
X174264260Y-130781380D01*
X174788070Y-130781380D02*
X174788070Y-131019476D01*
X174549974Y-130924238D02*
X174788070Y-131019476D01*
X175026165Y-130924238D01*
X174645212Y-131209952D02*
X174788070Y-131019476D01*
X174930927Y-131209952D01*
X175549974Y-130781380D02*
X175549974Y-131019476D01*
X175311879Y-130924238D02*
X175549974Y-131019476D01*
X175788070Y-130924238D01*
X175407117Y-131209952D02*
X175549974Y-131019476D01*
X175692831Y-131209952D01*
X277749166Y-68135380D02*
X277415833Y-67659190D01*
X277177738Y-68135380D02*
X277177738Y-67135380D01*
X277558690Y-67135380D01*
X277653928Y-67183000D01*
X277701547Y-67230619D01*
X277749166Y-67325857D01*
X277749166Y-67468714D01*
X277701547Y-67563952D01*
X277653928Y-67611571D01*
X277558690Y-67659190D01*
X277177738Y-67659190D01*
X278177738Y-67611571D02*
X278511071Y-67611571D01*
X278653928Y-68135380D02*
X278177738Y-68135380D01*
X278177738Y-67135380D01*
X278653928Y-67135380D01*
X279415833Y-67611571D02*
X279082500Y-67611571D01*
X279082500Y-68135380D02*
X279082500Y-67135380D01*
X279558690Y-67135380D01*
X280082500Y-67135380D02*
X280082500Y-67373476D01*
X279844404Y-67278238D02*
X280082500Y-67373476D01*
X280320595Y-67278238D01*
X279939642Y-67563952D02*
X280082500Y-67373476D01*
X280225357Y-67563952D01*
X280844404Y-67135380D02*
X280844404Y-67373476D01*
X280606309Y-67278238D02*
X280844404Y-67373476D01*
X281082500Y-67278238D01*
X280701547Y-67563952D02*
X280844404Y-67373476D01*
X280987261Y-67563952D01*
X121741096Y-131781380D02*
X121407763Y-131305190D01*
X121169668Y-131781380D02*
X121169668Y-130781380D01*
X121550620Y-130781380D01*
X121645858Y-130829000D01*
X121693477Y-130876619D01*
X121741096Y-130971857D01*
X121741096Y-131114714D01*
X121693477Y-131209952D01*
X121645858Y-131257571D01*
X121550620Y-131305190D01*
X121169668Y-131305190D01*
X122169668Y-131257571D02*
X122503001Y-131257571D01*
X122645858Y-131781380D02*
X122169668Y-131781380D01*
X122169668Y-130781380D01*
X122645858Y-130781380D01*
X123407763Y-131257571D02*
X123074430Y-131257571D01*
X123074430Y-131781380D02*
X123074430Y-130781380D01*
X123550620Y-130781380D01*
X124074430Y-130781380D02*
X124074430Y-131019476D01*
X123836334Y-130924238D02*
X124074430Y-131019476D01*
X124312525Y-130924238D01*
X123931572Y-131209952D02*
X124074430Y-131019476D01*
X124217287Y-131209952D01*
X124836334Y-130781380D02*
X124836334Y-131019476D01*
X124598239Y-130924238D02*
X124836334Y-131019476D01*
X125074430Y-130924238D01*
X124693477Y-131209952D02*
X124836334Y-131019476D01*
X124979191Y-131209952D01*
X46355166Y-119443380D02*
X46021833Y-118967190D01*
X45783738Y-119443380D02*
X45783738Y-118443380D01*
X46164690Y-118443380D01*
X46259928Y-118491000D01*
X46307547Y-118538619D01*
X46355166Y-118633857D01*
X46355166Y-118776714D01*
X46307547Y-118871952D01*
X46259928Y-118919571D01*
X46164690Y-118967190D01*
X45783738Y-118967190D01*
X46783738Y-118919571D02*
X47117071Y-118919571D01*
X47259928Y-119443380D02*
X46783738Y-119443380D01*
X46783738Y-118443380D01*
X47259928Y-118443380D01*
X48021833Y-118919571D02*
X47688500Y-118919571D01*
X47688500Y-119443380D02*
X47688500Y-118443380D01*
X48164690Y-118443380D01*
X48688500Y-118443380D02*
X48688500Y-118681476D01*
X48450404Y-118586238D02*
X48688500Y-118681476D01*
X48926595Y-118586238D01*
X48545642Y-118871952D02*
X48688500Y-118681476D01*
X48831357Y-118871952D01*
X49450404Y-118443380D02*
X49450404Y-118681476D01*
X49212309Y-118586238D02*
X49450404Y-118681476D01*
X49688500Y-118586238D01*
X49307547Y-118871952D02*
X49450404Y-118681476D01*
X49593261Y-118871952D01*
X119189666Y-56197380D02*
X118856333Y-55721190D01*
X118618238Y-56197380D02*
X118618238Y-55197380D01*
X118999190Y-55197380D01*
X119094428Y-55245000D01*
X119142047Y-55292619D01*
X119189666Y-55387857D01*
X119189666Y-55530714D01*
X119142047Y-55625952D01*
X119094428Y-55673571D01*
X118999190Y-55721190D01*
X118618238Y-55721190D01*
X119618238Y-55673571D02*
X119951571Y-55673571D01*
X120094428Y-56197380D02*
X119618238Y-56197380D01*
X119618238Y-55197380D01*
X120094428Y-55197380D01*
X120856333Y-55673571D02*
X120523000Y-55673571D01*
X120523000Y-56197380D02*
X120523000Y-55197380D01*
X120999190Y-55197380D01*
X121523000Y-55197380D02*
X121523000Y-55435476D01*
X121284904Y-55340238D02*
X121523000Y-55435476D01*
X121761095Y-55340238D01*
X121380142Y-55625952D02*
X121523000Y-55435476D01*
X121665857Y-55625952D01*
X122284904Y-55197380D02*
X122284904Y-55435476D01*
X122046809Y-55340238D02*
X122284904Y-55435476D01*
X122523000Y-55340238D01*
X122142047Y-55625952D02*
X122284904Y-55435476D01*
X122427761Y-55625952D01*
X16446666Y-68135380D02*
X16113333Y-67659190D01*
X15875238Y-68135380D02*
X15875238Y-67135380D01*
X16256190Y-67135380D01*
X16351428Y-67183000D01*
X16399047Y-67230619D01*
X16446666Y-67325857D01*
X16446666Y-67468714D01*
X16399047Y-67563952D01*
X16351428Y-67611571D01*
X16256190Y-67659190D01*
X15875238Y-67659190D01*
X16875238Y-67611571D02*
X17208571Y-67611571D01*
X17351428Y-68135380D02*
X16875238Y-68135380D01*
X16875238Y-67135380D01*
X17351428Y-67135380D01*
X18113333Y-67611571D02*
X17780000Y-67611571D01*
X17780000Y-68135380D02*
X17780000Y-67135380D01*
X18256190Y-67135380D01*
X18780000Y-67135380D02*
X18780000Y-67373476D01*
X18541904Y-67278238D02*
X18780000Y-67373476D01*
X19018095Y-67278238D01*
X18637142Y-67563952D02*
X18780000Y-67373476D01*
X18922857Y-67563952D01*
X19541904Y-67135380D02*
X19541904Y-67373476D01*
X19303809Y-67278238D02*
X19541904Y-67373476D01*
X19780000Y-67278238D01*
X19399047Y-67563952D02*
X19541904Y-67373476D01*
X19684761Y-67563952D01*
%TO.C,SW1*%
X128841666Y-60094761D02*
X128984523Y-60142380D01*
X129222619Y-60142380D01*
X129317857Y-60094761D01*
X129365476Y-60047142D01*
X129413095Y-59951904D01*
X129413095Y-59856666D01*
X129365476Y-59761428D01*
X129317857Y-59713809D01*
X129222619Y-59666190D01*
X129032142Y-59618571D01*
X128936904Y-59570952D01*
X128889285Y-59523333D01*
X128841666Y-59428095D01*
X128841666Y-59332857D01*
X128889285Y-59237619D01*
X128936904Y-59190000D01*
X129032142Y-59142380D01*
X129270238Y-59142380D01*
X129413095Y-59190000D01*
X129746428Y-59142380D02*
X129984523Y-60142380D01*
X130175000Y-59428095D01*
X130365476Y-60142380D01*
X130603571Y-59142380D01*
X131508333Y-60142380D02*
X130936904Y-60142380D01*
X131222619Y-60142380D02*
X131222619Y-59142380D01*
X131127380Y-59285238D01*
X131032142Y-59380476D01*
X130936904Y-59428095D01*
%TO.C,U1*%
X149812645Y-49121904D02*
X150269788Y-49121904D01*
X150041217Y-49921904D02*
X150041217Y-49121904D01*
X150460264Y-49121904D02*
X150993598Y-49921904D01*
X150993598Y-49121904D02*
X150460264Y-49921904D01*
X151450741Y-49121904D02*
X151526931Y-49121904D01*
X151603122Y-49160000D01*
X151641217Y-49198095D01*
X151679312Y-49274285D01*
X151717407Y-49426666D01*
X151717407Y-49617142D01*
X151679312Y-49769523D01*
X151641217Y-49845714D01*
X151603122Y-49883809D01*
X151526931Y-49921904D01*
X151450741Y-49921904D01*
X151374550Y-49883809D01*
X151336455Y-49845714D01*
X151298360Y-49769523D01*
X151260264Y-49617142D01*
X151260264Y-49426666D01*
X151298360Y-49274285D01*
X151336455Y-49198095D01*
X151374550Y-49160000D01*
X151450741Y-49121904D01*
X152631693Y-49083809D02*
X151945979Y-50112380D01*
X152898360Y-49921904D02*
X152898360Y-49121904D01*
X153088836Y-49121904D01*
X153203122Y-49160000D01*
X153279312Y-49236190D01*
X153317407Y-49312380D01*
X153355502Y-49464761D01*
X153355502Y-49579047D01*
X153317407Y-49731428D01*
X153279312Y-49807619D01*
X153203122Y-49883809D01*
X153088836Y-49921904D01*
X152898360Y-49921904D01*
X153622169Y-49121904D02*
X154117407Y-49121904D01*
X153850741Y-49426666D01*
X153965026Y-49426666D01*
X154041217Y-49464761D01*
X154079312Y-49502857D01*
X154117407Y-49579047D01*
X154117407Y-49769523D01*
X154079312Y-49845714D01*
X154041217Y-49883809D01*
X153965026Y-49921904D01*
X153736455Y-49921904D01*
X153660264Y-49883809D01*
X153622169Y-49845714D01*
X149812645Y-49121904D02*
X150269788Y-49121904D01*
X150041217Y-49921904D02*
X150041217Y-49121904D01*
X150460264Y-49121904D02*
X150993598Y-49921904D01*
X150993598Y-49121904D02*
X150460264Y-49921904D01*
X151450741Y-49121904D02*
X151526931Y-49121904D01*
X151603122Y-49160000D01*
X151641217Y-49198095D01*
X151679312Y-49274285D01*
X151717407Y-49426666D01*
X151717407Y-49617142D01*
X151679312Y-49769523D01*
X151641217Y-49845714D01*
X151603122Y-49883809D01*
X151526931Y-49921904D01*
X151450741Y-49921904D01*
X151374550Y-49883809D01*
X151336455Y-49845714D01*
X151298360Y-49769523D01*
X151260264Y-49617142D01*
X151260264Y-49426666D01*
X151298360Y-49274285D01*
X151336455Y-49198095D01*
X151374550Y-49160000D01*
X151450741Y-49121904D01*
X152631693Y-49083809D02*
X151945979Y-50112380D01*
X152898360Y-49921904D02*
X152898360Y-49121904D01*
X153088836Y-49121904D01*
X153203122Y-49160000D01*
X153279312Y-49236190D01*
X153317407Y-49312380D01*
X153355502Y-49464761D01*
X153355502Y-49579047D01*
X153317407Y-49731428D01*
X153279312Y-49807619D01*
X153203122Y-49883809D01*
X153088836Y-49921904D01*
X152898360Y-49921904D01*
X153622169Y-49121904D02*
X154117407Y-49121904D01*
X153850741Y-49426666D01*
X153965026Y-49426666D01*
X154041217Y-49464761D01*
X154079312Y-49502857D01*
X154117407Y-49579047D01*
X154117407Y-49769523D01*
X154079312Y-49845714D01*
X154041217Y-49883809D01*
X153965026Y-49921904D01*
X153736455Y-49921904D01*
X153660264Y-49883809D01*
X153622169Y-49845714D01*
X153301773Y-52461904D02*
X153301773Y-51661904D01*
X153492250Y-51661904D01*
X153606535Y-51700000D01*
X153682726Y-51776190D01*
X153720821Y-51852380D01*
X153758916Y-52004761D01*
X153758916Y-52119047D01*
X153720821Y-52271428D01*
X153682726Y-52347619D01*
X153606535Y-52423809D01*
X153492250Y-52461904D01*
X153301773Y-52461904D01*
X154063678Y-51738095D02*
X154101773Y-51700000D01*
X154177964Y-51661904D01*
X154368440Y-51661904D01*
X154444630Y-51700000D01*
X154482726Y-51738095D01*
X154520821Y-51814285D01*
X154520821Y-51890476D01*
X154482726Y-52004761D01*
X154025583Y-52461904D01*
X154520821Y-52461904D01*
X153301773Y-62621904D02*
X153301773Y-61821904D01*
X153492250Y-61821904D01*
X153606535Y-61860000D01*
X153682726Y-61936190D01*
X153720821Y-62012380D01*
X153758916Y-62164761D01*
X153758916Y-62279047D01*
X153720821Y-62431428D01*
X153682726Y-62507619D01*
X153606535Y-62583809D01*
X153492250Y-62621904D01*
X153301773Y-62621904D01*
X154254154Y-61821904D02*
X154330345Y-61821904D01*
X154406535Y-61860000D01*
X154444630Y-61898095D01*
X154482726Y-61974285D01*
X154520821Y-62126666D01*
X154520821Y-62317142D01*
X154482726Y-62469523D01*
X154444630Y-62545714D01*
X154406535Y-62583809D01*
X154330345Y-62621904D01*
X154254154Y-62621904D01*
X154177964Y-62583809D01*
X154139869Y-62545714D01*
X154101773Y-62469523D01*
X154063678Y-62317142D01*
X154063678Y-62126666D01*
X154101773Y-61974285D01*
X154139869Y-61898095D01*
X154177964Y-61860000D01*
X154254154Y-61821904D01*
X153301773Y-60081904D02*
X153301773Y-59281904D01*
X153492250Y-59281904D01*
X153606535Y-59320000D01*
X153682726Y-59396190D01*
X153720821Y-59472380D01*
X153758916Y-59624761D01*
X153758916Y-59739047D01*
X153720821Y-59891428D01*
X153682726Y-59967619D01*
X153606535Y-60043809D01*
X153492250Y-60081904D01*
X153301773Y-60081904D01*
X154520821Y-60081904D02*
X154063678Y-60081904D01*
X154292250Y-60081904D02*
X154292250Y-59281904D01*
X154216059Y-59396190D01*
X154139869Y-59472380D01*
X154063678Y-59510476D01*
X153282726Y-56780000D02*
X153206535Y-56741904D01*
X153092250Y-56741904D01*
X152977964Y-56780000D01*
X152901773Y-56856190D01*
X152863678Y-56932380D01*
X152825583Y-57084761D01*
X152825583Y-57199047D01*
X152863678Y-57351428D01*
X152901773Y-57427619D01*
X152977964Y-57503809D01*
X153092250Y-57541904D01*
X153168440Y-57541904D01*
X153282726Y-57503809D01*
X153320821Y-57465714D01*
X153320821Y-57199047D01*
X153168440Y-57199047D01*
X153663678Y-57541904D02*
X153663678Y-56741904D01*
X154120821Y-57541904D01*
X154120821Y-56741904D01*
X154501773Y-57541904D02*
X154501773Y-56741904D01*
X154692250Y-56741904D01*
X154806535Y-56780000D01*
X154882726Y-56856190D01*
X154920821Y-56932380D01*
X154958916Y-57084761D01*
X154958916Y-57199047D01*
X154920821Y-57351428D01*
X154882726Y-57427619D01*
X154806535Y-57503809D01*
X154692250Y-57541904D01*
X154501773Y-57541904D01*
X153301773Y-65161904D02*
X153301773Y-64361904D01*
X153492250Y-64361904D01*
X153606535Y-64400000D01*
X153682726Y-64476190D01*
X153720821Y-64552380D01*
X153758916Y-64704761D01*
X153758916Y-64819047D01*
X153720821Y-64971428D01*
X153682726Y-65047619D01*
X153606535Y-65123809D01*
X153492250Y-65161904D01*
X153301773Y-65161904D01*
X154444630Y-64628571D02*
X154444630Y-65161904D01*
X154254154Y-64323809D02*
X154063678Y-64895238D01*
X154558916Y-64895238D01*
X153758916Y-67625714D02*
X153720821Y-67663809D01*
X153606535Y-67701904D01*
X153530345Y-67701904D01*
X153416059Y-67663809D01*
X153339869Y-67587619D01*
X153301773Y-67511428D01*
X153263678Y-67359047D01*
X153263678Y-67244761D01*
X153301773Y-67092380D01*
X153339869Y-67016190D01*
X153416059Y-66940000D01*
X153530345Y-66901904D01*
X153606535Y-66901904D01*
X153720821Y-66940000D01*
X153758916Y-66978095D01*
X154444630Y-66901904D02*
X154292250Y-66901904D01*
X154216059Y-66940000D01*
X154177964Y-66978095D01*
X154101773Y-67092380D01*
X154063678Y-67244761D01*
X154063678Y-67549523D01*
X154101773Y-67625714D01*
X154139869Y-67663809D01*
X154216059Y-67701904D01*
X154368440Y-67701904D01*
X154444630Y-67663809D01*
X154482726Y-67625714D01*
X154520821Y-67549523D01*
X154520821Y-67359047D01*
X154482726Y-67282857D01*
X154444630Y-67244761D01*
X154368440Y-67206666D01*
X154216059Y-67206666D01*
X154139869Y-67244761D01*
X154101773Y-67282857D01*
X154063678Y-67359047D01*
X153301773Y-70241904D02*
X153301773Y-69441904D01*
X153492250Y-69441904D01*
X153606535Y-69480000D01*
X153682726Y-69556190D01*
X153720821Y-69632380D01*
X153758916Y-69784761D01*
X153758916Y-69899047D01*
X153720821Y-70051428D01*
X153682726Y-70127619D01*
X153606535Y-70203809D01*
X153492250Y-70241904D01*
X153301773Y-70241904D01*
X154025583Y-69441904D02*
X154558916Y-69441904D01*
X154216059Y-70241904D01*
X153339869Y-72362857D02*
X153606535Y-72362857D01*
X153720821Y-72781904D02*
X153339869Y-72781904D01*
X153339869Y-71981904D01*
X153720821Y-71981904D01*
X154406535Y-71981904D02*
X154254154Y-71981904D01*
X154177964Y-72020000D01*
X154139869Y-72058095D01*
X154063678Y-72172380D01*
X154025583Y-72324761D01*
X154025583Y-72629523D01*
X154063678Y-72705714D01*
X154101773Y-72743809D01*
X154177964Y-72781904D01*
X154330345Y-72781904D01*
X154406535Y-72743809D01*
X154444630Y-72705714D01*
X154482726Y-72629523D01*
X154482726Y-72439047D01*
X154444630Y-72362857D01*
X154406535Y-72324761D01*
X154330345Y-72286666D01*
X154177964Y-72286666D01*
X154101773Y-72324761D01*
X154063678Y-72362857D01*
X154025583Y-72439047D01*
X153568440Y-74902857D02*
X153682726Y-74940952D01*
X153720821Y-74979047D01*
X153758916Y-75055238D01*
X153758916Y-75169523D01*
X153720821Y-75245714D01*
X153682726Y-75283809D01*
X153606535Y-75321904D01*
X153301773Y-75321904D01*
X153301773Y-74521904D01*
X153568440Y-74521904D01*
X153644630Y-74560000D01*
X153682726Y-74598095D01*
X153720821Y-74674285D01*
X153720821Y-74750476D01*
X153682726Y-74826666D01*
X153644630Y-74864761D01*
X153568440Y-74902857D01*
X153301773Y-74902857D01*
X154444630Y-74788571D02*
X154444630Y-75321904D01*
X154254154Y-74483809D02*
X154063678Y-75055238D01*
X154558916Y-75055238D01*
X153568440Y-77442857D02*
X153682726Y-77480952D01*
X153720821Y-77519047D01*
X153758916Y-77595238D01*
X153758916Y-77709523D01*
X153720821Y-77785714D01*
X153682726Y-77823809D01*
X153606535Y-77861904D01*
X153301773Y-77861904D01*
X153301773Y-77061904D01*
X153568440Y-77061904D01*
X153644630Y-77100000D01*
X153682726Y-77138095D01*
X153720821Y-77214285D01*
X153720821Y-77290476D01*
X153682726Y-77366666D01*
X153644630Y-77404761D01*
X153568440Y-77442857D01*
X153301773Y-77442857D01*
X154482726Y-77061904D02*
X154101773Y-77061904D01*
X154063678Y-77442857D01*
X154101773Y-77404761D01*
X154177964Y-77366666D01*
X154368440Y-77366666D01*
X154444630Y-77404761D01*
X154482726Y-77442857D01*
X154520821Y-77519047D01*
X154520821Y-77709523D01*
X154482726Y-77785714D01*
X154444630Y-77823809D01*
X154368440Y-77861904D01*
X154177964Y-77861904D01*
X154101773Y-77823809D01*
X154063678Y-77785714D01*
X142646440Y-77442857D02*
X142760726Y-77480952D01*
X142798821Y-77519047D01*
X142836916Y-77595238D01*
X142836916Y-77709523D01*
X142798821Y-77785714D01*
X142760726Y-77823809D01*
X142684535Y-77861904D01*
X142379773Y-77861904D01*
X142379773Y-77061904D01*
X142646440Y-77061904D01*
X142722630Y-77100000D01*
X142760726Y-77138095D01*
X142798821Y-77214285D01*
X142798821Y-77290476D01*
X142760726Y-77366666D01*
X142722630Y-77404761D01*
X142646440Y-77442857D01*
X142379773Y-77442857D01*
X143522630Y-77061904D02*
X143370250Y-77061904D01*
X143294059Y-77100000D01*
X143255964Y-77138095D01*
X143179773Y-77252380D01*
X143141678Y-77404761D01*
X143141678Y-77709523D01*
X143179773Y-77785714D01*
X143217869Y-77823809D01*
X143294059Y-77861904D01*
X143446440Y-77861904D01*
X143522630Y-77823809D01*
X143560726Y-77785714D01*
X143598821Y-77709523D01*
X143598821Y-77519047D01*
X143560726Y-77442857D01*
X143522630Y-77404761D01*
X143446440Y-77366666D01*
X143294059Y-77366666D01*
X143217869Y-77404761D01*
X143179773Y-77442857D01*
X143141678Y-77519047D01*
X142646440Y-72362857D02*
X142760726Y-72400952D01*
X142798821Y-72439047D01*
X142836916Y-72515238D01*
X142836916Y-72629523D01*
X142798821Y-72705714D01*
X142760726Y-72743809D01*
X142684535Y-72781904D01*
X142379773Y-72781904D01*
X142379773Y-71981904D01*
X142646440Y-71981904D01*
X142722630Y-72020000D01*
X142760726Y-72058095D01*
X142798821Y-72134285D01*
X142798821Y-72210476D01*
X142760726Y-72286666D01*
X142722630Y-72324761D01*
X142646440Y-72362857D01*
X142379773Y-72362857D01*
X143103583Y-71981904D02*
X143598821Y-71981904D01*
X143332154Y-72286666D01*
X143446440Y-72286666D01*
X143522630Y-72324761D01*
X143560726Y-72362857D01*
X143598821Y-72439047D01*
X143598821Y-72629523D01*
X143560726Y-72705714D01*
X143522630Y-72743809D01*
X143446440Y-72781904D01*
X143217869Y-72781904D01*
X143141678Y-72743809D01*
X143103583Y-72705714D01*
X142646440Y-69822857D02*
X142760726Y-69860952D01*
X142798821Y-69899047D01*
X142836916Y-69975238D01*
X142836916Y-70089523D01*
X142798821Y-70165714D01*
X142760726Y-70203809D01*
X142684535Y-70241904D01*
X142379773Y-70241904D01*
X142379773Y-69441904D01*
X142646440Y-69441904D01*
X142722630Y-69480000D01*
X142760726Y-69518095D01*
X142798821Y-69594285D01*
X142798821Y-69670476D01*
X142760726Y-69746666D01*
X142722630Y-69784761D01*
X142646440Y-69822857D01*
X142379773Y-69822857D01*
X143598821Y-70241904D02*
X143141678Y-70241904D01*
X143370250Y-70241904D02*
X143370250Y-69441904D01*
X143294059Y-69556190D01*
X143217869Y-69632380D01*
X143141678Y-69670476D01*
X142703583Y-59662857D02*
X142436916Y-59662857D01*
X142436916Y-60081904D02*
X142436916Y-59281904D01*
X142817869Y-59281904D01*
X143465488Y-59548571D02*
X143465488Y-60081904D01*
X143275011Y-59243809D02*
X143084535Y-59815238D01*
X143579773Y-59815238D01*
X141903583Y-56741904D02*
X142170250Y-57541904D01*
X142436916Y-56741904D01*
X143160726Y-57465714D02*
X143122630Y-57503809D01*
X143008345Y-57541904D01*
X142932154Y-57541904D01*
X142817869Y-57503809D01*
X142741678Y-57427619D01*
X142703583Y-57351428D01*
X142665488Y-57199047D01*
X142665488Y-57084761D01*
X142703583Y-56932380D01*
X142741678Y-56856190D01*
X142817869Y-56780000D01*
X142932154Y-56741904D01*
X143008345Y-56741904D01*
X143122630Y-56780000D01*
X143160726Y-56818095D01*
X143960726Y-57465714D02*
X143922630Y-57503809D01*
X143808345Y-57541904D01*
X143732154Y-57541904D01*
X143617869Y-57503809D01*
X143541678Y-57427619D01*
X143503583Y-57351428D01*
X143465488Y-57199047D01*
X143465488Y-57084761D01*
X143503583Y-56932380D01*
X143541678Y-56856190D01*
X143617869Y-56780000D01*
X143732154Y-56741904D01*
X143808345Y-56741904D01*
X143922630Y-56780000D01*
X143960726Y-56818095D01*
X142417869Y-49921904D02*
X142151202Y-49540952D01*
X141960726Y-49921904D02*
X141960726Y-49121904D01*
X142265488Y-49121904D01*
X142341678Y-49160000D01*
X142379773Y-49198095D01*
X142417869Y-49274285D01*
X142417869Y-49388571D01*
X142379773Y-49464761D01*
X142341678Y-49502857D01*
X142265488Y-49540952D01*
X141960726Y-49540952D01*
X142722630Y-49693333D02*
X143103583Y-49693333D01*
X142646440Y-49921904D02*
X142913107Y-49121904D01*
X143179773Y-49921904D01*
X143370250Y-49121904D02*
X143560726Y-49921904D01*
X143713107Y-49350476D01*
X143865488Y-49921904D01*
X144055964Y-49121904D01*
X142417869Y-49921904D02*
X142151202Y-49540952D01*
X141960726Y-49921904D02*
X141960726Y-49121904D01*
X142265488Y-49121904D01*
X142341678Y-49160000D01*
X142379773Y-49198095D01*
X142417869Y-49274285D01*
X142417869Y-49388571D01*
X142379773Y-49464761D01*
X142341678Y-49502857D01*
X142265488Y-49540952D01*
X141960726Y-49540952D01*
X142722630Y-49693333D02*
X143103583Y-49693333D01*
X142646440Y-49921904D02*
X142913107Y-49121904D01*
X143179773Y-49921904D01*
X143370250Y-49121904D02*
X143560726Y-49921904D01*
X143713107Y-49350476D01*
X143865488Y-49921904D01*
X144055964Y-49121904D01*
X142360726Y-51700000D02*
X142284535Y-51661904D01*
X142170250Y-51661904D01*
X142055964Y-51700000D01*
X141979773Y-51776190D01*
X141941678Y-51852380D01*
X141903583Y-52004761D01*
X141903583Y-52119047D01*
X141941678Y-52271428D01*
X141979773Y-52347619D01*
X142055964Y-52423809D01*
X142170250Y-52461904D01*
X142246440Y-52461904D01*
X142360726Y-52423809D01*
X142398821Y-52385714D01*
X142398821Y-52119047D01*
X142246440Y-52119047D01*
X142741678Y-52461904D02*
X142741678Y-51661904D01*
X143198821Y-52461904D01*
X143198821Y-51661904D01*
X143579773Y-52461904D02*
X143579773Y-51661904D01*
X143770250Y-51661904D01*
X143884535Y-51700000D01*
X143960726Y-51776190D01*
X143998821Y-51852380D01*
X144036916Y-52004761D01*
X144036916Y-52119047D01*
X143998821Y-52271428D01*
X143960726Y-52347619D01*
X143884535Y-52423809D01*
X143770250Y-52461904D01*
X143579773Y-52461904D01*
X141903583Y-56741904D02*
X142170250Y-57541904D01*
X142436916Y-56741904D01*
X143160726Y-57465714D02*
X143122630Y-57503809D01*
X143008345Y-57541904D01*
X142932154Y-57541904D01*
X142817869Y-57503809D01*
X142741678Y-57427619D01*
X142703583Y-57351428D01*
X142665488Y-57199047D01*
X142665488Y-57084761D01*
X142703583Y-56932380D01*
X142741678Y-56856190D01*
X142817869Y-56780000D01*
X142932154Y-56741904D01*
X143008345Y-56741904D01*
X143122630Y-56780000D01*
X143160726Y-56818095D01*
X143960726Y-57465714D02*
X143922630Y-57503809D01*
X143808345Y-57541904D01*
X143732154Y-57541904D01*
X143617869Y-57503809D01*
X143541678Y-57427619D01*
X143503583Y-57351428D01*
X143465488Y-57199047D01*
X143465488Y-57084761D01*
X143503583Y-56932380D01*
X143541678Y-56856190D01*
X143617869Y-56780000D01*
X143732154Y-56741904D01*
X143808345Y-56741904D01*
X143922630Y-56780000D01*
X143960726Y-56818095D01*
X142703583Y-59662857D02*
X142436916Y-59662857D01*
X142436916Y-60081904D02*
X142436916Y-59281904D01*
X142817869Y-59281904D01*
X143465488Y-59548571D02*
X143465488Y-60081904D01*
X143275011Y-59243809D02*
X143084535Y-59815238D01*
X143579773Y-59815238D01*
X142646440Y-69822857D02*
X142760726Y-69860952D01*
X142798821Y-69899047D01*
X142836916Y-69975238D01*
X142836916Y-70089523D01*
X142798821Y-70165714D01*
X142760726Y-70203809D01*
X142684535Y-70241904D01*
X142379773Y-70241904D01*
X142379773Y-69441904D01*
X142646440Y-69441904D01*
X142722630Y-69480000D01*
X142760726Y-69518095D01*
X142798821Y-69594285D01*
X142798821Y-69670476D01*
X142760726Y-69746666D01*
X142722630Y-69784761D01*
X142646440Y-69822857D01*
X142379773Y-69822857D01*
X143598821Y-70241904D02*
X143141678Y-70241904D01*
X143370250Y-70241904D02*
X143370250Y-69441904D01*
X143294059Y-69556190D01*
X143217869Y-69632380D01*
X143141678Y-69670476D01*
X142646440Y-72362857D02*
X142760726Y-72400952D01*
X142798821Y-72439047D01*
X142836916Y-72515238D01*
X142836916Y-72629523D01*
X142798821Y-72705714D01*
X142760726Y-72743809D01*
X142684535Y-72781904D01*
X142379773Y-72781904D01*
X142379773Y-71981904D01*
X142646440Y-71981904D01*
X142722630Y-72020000D01*
X142760726Y-72058095D01*
X142798821Y-72134285D01*
X142798821Y-72210476D01*
X142760726Y-72286666D01*
X142722630Y-72324761D01*
X142646440Y-72362857D01*
X142379773Y-72362857D01*
X143103583Y-71981904D02*
X143598821Y-71981904D01*
X143332154Y-72286666D01*
X143446440Y-72286666D01*
X143522630Y-72324761D01*
X143560726Y-72362857D01*
X143598821Y-72439047D01*
X143598821Y-72629523D01*
X143560726Y-72705714D01*
X143522630Y-72743809D01*
X143446440Y-72781904D01*
X143217869Y-72781904D01*
X143141678Y-72743809D01*
X143103583Y-72705714D01*
X142646440Y-77442857D02*
X142760726Y-77480952D01*
X142798821Y-77519047D01*
X142836916Y-77595238D01*
X142836916Y-77709523D01*
X142798821Y-77785714D01*
X142760726Y-77823809D01*
X142684535Y-77861904D01*
X142379773Y-77861904D01*
X142379773Y-77061904D01*
X142646440Y-77061904D01*
X142722630Y-77100000D01*
X142760726Y-77138095D01*
X142798821Y-77214285D01*
X142798821Y-77290476D01*
X142760726Y-77366666D01*
X142722630Y-77404761D01*
X142646440Y-77442857D01*
X142379773Y-77442857D01*
X143522630Y-77061904D02*
X143370250Y-77061904D01*
X143294059Y-77100000D01*
X143255964Y-77138095D01*
X143179773Y-77252380D01*
X143141678Y-77404761D01*
X143141678Y-77709523D01*
X143179773Y-77785714D01*
X143217869Y-77823809D01*
X143294059Y-77861904D01*
X143446440Y-77861904D01*
X143522630Y-77823809D01*
X143560726Y-77785714D01*
X143598821Y-77709523D01*
X143598821Y-77519047D01*
X143560726Y-77442857D01*
X143522630Y-77404761D01*
X143446440Y-77366666D01*
X143294059Y-77366666D01*
X143217869Y-77404761D01*
X143179773Y-77442857D01*
X143141678Y-77519047D01*
X153568440Y-77442857D02*
X153682726Y-77480952D01*
X153720821Y-77519047D01*
X153758916Y-77595238D01*
X153758916Y-77709523D01*
X153720821Y-77785714D01*
X153682726Y-77823809D01*
X153606535Y-77861904D01*
X153301773Y-77861904D01*
X153301773Y-77061904D01*
X153568440Y-77061904D01*
X153644630Y-77100000D01*
X153682726Y-77138095D01*
X153720821Y-77214285D01*
X153720821Y-77290476D01*
X153682726Y-77366666D01*
X153644630Y-77404761D01*
X153568440Y-77442857D01*
X153301773Y-77442857D01*
X154482726Y-77061904D02*
X154101773Y-77061904D01*
X154063678Y-77442857D01*
X154101773Y-77404761D01*
X154177964Y-77366666D01*
X154368440Y-77366666D01*
X154444630Y-77404761D01*
X154482726Y-77442857D01*
X154520821Y-77519047D01*
X154520821Y-77709523D01*
X154482726Y-77785714D01*
X154444630Y-77823809D01*
X154368440Y-77861904D01*
X154177964Y-77861904D01*
X154101773Y-77823809D01*
X154063678Y-77785714D01*
X153568440Y-74902857D02*
X153682726Y-74940952D01*
X153720821Y-74979047D01*
X153758916Y-75055238D01*
X153758916Y-75169523D01*
X153720821Y-75245714D01*
X153682726Y-75283809D01*
X153606535Y-75321904D01*
X153301773Y-75321904D01*
X153301773Y-74521904D01*
X153568440Y-74521904D01*
X153644630Y-74560000D01*
X153682726Y-74598095D01*
X153720821Y-74674285D01*
X153720821Y-74750476D01*
X153682726Y-74826666D01*
X153644630Y-74864761D01*
X153568440Y-74902857D01*
X153301773Y-74902857D01*
X154444630Y-74788571D02*
X154444630Y-75321904D01*
X154254154Y-74483809D02*
X154063678Y-75055238D01*
X154558916Y-75055238D01*
X153339869Y-72362857D02*
X153606535Y-72362857D01*
X153720821Y-72781904D02*
X153339869Y-72781904D01*
X153339869Y-71981904D01*
X153720821Y-71981904D01*
X154406535Y-71981904D02*
X154254154Y-71981904D01*
X154177964Y-72020000D01*
X154139869Y-72058095D01*
X154063678Y-72172380D01*
X154025583Y-72324761D01*
X154025583Y-72629523D01*
X154063678Y-72705714D01*
X154101773Y-72743809D01*
X154177964Y-72781904D01*
X154330345Y-72781904D01*
X154406535Y-72743809D01*
X154444630Y-72705714D01*
X154482726Y-72629523D01*
X154482726Y-72439047D01*
X154444630Y-72362857D01*
X154406535Y-72324761D01*
X154330345Y-72286666D01*
X154177964Y-72286666D01*
X154101773Y-72324761D01*
X154063678Y-72362857D01*
X154025583Y-72439047D01*
X153301773Y-70241904D02*
X153301773Y-69441904D01*
X153492250Y-69441904D01*
X153606535Y-69480000D01*
X153682726Y-69556190D01*
X153720821Y-69632380D01*
X153758916Y-69784761D01*
X153758916Y-69899047D01*
X153720821Y-70051428D01*
X153682726Y-70127619D01*
X153606535Y-70203809D01*
X153492250Y-70241904D01*
X153301773Y-70241904D01*
X154025583Y-69441904D02*
X154558916Y-69441904D01*
X154216059Y-70241904D01*
X153758916Y-67625714D02*
X153720821Y-67663809D01*
X153606535Y-67701904D01*
X153530345Y-67701904D01*
X153416059Y-67663809D01*
X153339869Y-67587619D01*
X153301773Y-67511428D01*
X153263678Y-67359047D01*
X153263678Y-67244761D01*
X153301773Y-67092380D01*
X153339869Y-67016190D01*
X153416059Y-66940000D01*
X153530345Y-66901904D01*
X153606535Y-66901904D01*
X153720821Y-66940000D01*
X153758916Y-66978095D01*
X154444630Y-66901904D02*
X154292250Y-66901904D01*
X154216059Y-66940000D01*
X154177964Y-66978095D01*
X154101773Y-67092380D01*
X154063678Y-67244761D01*
X154063678Y-67549523D01*
X154101773Y-67625714D01*
X154139869Y-67663809D01*
X154216059Y-67701904D01*
X154368440Y-67701904D01*
X154444630Y-67663809D01*
X154482726Y-67625714D01*
X154520821Y-67549523D01*
X154520821Y-67359047D01*
X154482726Y-67282857D01*
X154444630Y-67244761D01*
X154368440Y-67206666D01*
X154216059Y-67206666D01*
X154139869Y-67244761D01*
X154101773Y-67282857D01*
X154063678Y-67359047D01*
X153301773Y-65161904D02*
X153301773Y-64361904D01*
X153492250Y-64361904D01*
X153606535Y-64400000D01*
X153682726Y-64476190D01*
X153720821Y-64552380D01*
X153758916Y-64704761D01*
X153758916Y-64819047D01*
X153720821Y-64971428D01*
X153682726Y-65047619D01*
X153606535Y-65123809D01*
X153492250Y-65161904D01*
X153301773Y-65161904D01*
X154444630Y-64628571D02*
X154444630Y-65161904D01*
X154254154Y-64323809D02*
X154063678Y-64895238D01*
X154558916Y-64895238D01*
X153282726Y-54240000D02*
X153206535Y-54201904D01*
X153092250Y-54201904D01*
X152977964Y-54240000D01*
X152901773Y-54316190D01*
X152863678Y-54392380D01*
X152825583Y-54544761D01*
X152825583Y-54659047D01*
X152863678Y-54811428D01*
X152901773Y-54887619D01*
X152977964Y-54963809D01*
X153092250Y-55001904D01*
X153168440Y-55001904D01*
X153282726Y-54963809D01*
X153320821Y-54925714D01*
X153320821Y-54659047D01*
X153168440Y-54659047D01*
X153663678Y-55001904D02*
X153663678Y-54201904D01*
X154120821Y-55001904D01*
X154120821Y-54201904D01*
X154501773Y-55001904D02*
X154501773Y-54201904D01*
X154692250Y-54201904D01*
X154806535Y-54240000D01*
X154882726Y-54316190D01*
X154920821Y-54392380D01*
X154958916Y-54544761D01*
X154958916Y-54659047D01*
X154920821Y-54811428D01*
X154882726Y-54887619D01*
X154806535Y-54963809D01*
X154692250Y-55001904D01*
X154501773Y-55001904D01*
X153282726Y-56780000D02*
X153206535Y-56741904D01*
X153092250Y-56741904D01*
X152977964Y-56780000D01*
X152901773Y-56856190D01*
X152863678Y-56932380D01*
X152825583Y-57084761D01*
X152825583Y-57199047D01*
X152863678Y-57351428D01*
X152901773Y-57427619D01*
X152977964Y-57503809D01*
X153092250Y-57541904D01*
X153168440Y-57541904D01*
X153282726Y-57503809D01*
X153320821Y-57465714D01*
X153320821Y-57199047D01*
X153168440Y-57199047D01*
X153663678Y-57541904D02*
X153663678Y-56741904D01*
X154120821Y-57541904D01*
X154120821Y-56741904D01*
X154501773Y-57541904D02*
X154501773Y-56741904D01*
X154692250Y-56741904D01*
X154806535Y-56780000D01*
X154882726Y-56856190D01*
X154920821Y-56932380D01*
X154958916Y-57084761D01*
X154958916Y-57199047D01*
X154920821Y-57351428D01*
X154882726Y-57427619D01*
X154806535Y-57503809D01*
X154692250Y-57541904D01*
X154501773Y-57541904D01*
X153301773Y-60081904D02*
X153301773Y-59281904D01*
X153492250Y-59281904D01*
X153606535Y-59320000D01*
X153682726Y-59396190D01*
X153720821Y-59472380D01*
X153758916Y-59624761D01*
X153758916Y-59739047D01*
X153720821Y-59891428D01*
X153682726Y-59967619D01*
X153606535Y-60043809D01*
X153492250Y-60081904D01*
X153301773Y-60081904D01*
X154520821Y-60081904D02*
X154063678Y-60081904D01*
X154292250Y-60081904D02*
X154292250Y-59281904D01*
X154216059Y-59396190D01*
X154139869Y-59472380D01*
X154063678Y-59510476D01*
X153301773Y-62621904D02*
X153301773Y-61821904D01*
X153492250Y-61821904D01*
X153606535Y-61860000D01*
X153682726Y-61936190D01*
X153720821Y-62012380D01*
X153758916Y-62164761D01*
X153758916Y-62279047D01*
X153720821Y-62431428D01*
X153682726Y-62507619D01*
X153606535Y-62583809D01*
X153492250Y-62621904D01*
X153301773Y-62621904D01*
X154254154Y-61821904D02*
X154330345Y-61821904D01*
X154406535Y-61860000D01*
X154444630Y-61898095D01*
X154482726Y-61974285D01*
X154520821Y-62126666D01*
X154520821Y-62317142D01*
X154482726Y-62469523D01*
X154444630Y-62545714D01*
X154406535Y-62583809D01*
X154330345Y-62621904D01*
X154254154Y-62621904D01*
X154177964Y-62583809D01*
X154139869Y-62545714D01*
X154101773Y-62469523D01*
X154063678Y-62317142D01*
X154063678Y-62126666D01*
X154101773Y-61974285D01*
X154139869Y-61898095D01*
X154177964Y-61860000D01*
X154254154Y-61821904D01*
X153301773Y-52461904D02*
X153301773Y-51661904D01*
X153492250Y-51661904D01*
X153606535Y-51700000D01*
X153682726Y-51776190D01*
X153720821Y-51852380D01*
X153758916Y-52004761D01*
X153758916Y-52119047D01*
X153720821Y-52271428D01*
X153682726Y-52347619D01*
X153606535Y-52423809D01*
X153492250Y-52461904D01*
X153301773Y-52461904D01*
X154063678Y-51738095D02*
X154101773Y-51700000D01*
X154177964Y-51661904D01*
X154368440Y-51661904D01*
X154444630Y-51700000D01*
X154482726Y-51738095D01*
X154520821Y-51814285D01*
X154520821Y-51890476D01*
X154482726Y-52004761D01*
X154025583Y-52461904D01*
X154520821Y-52461904D01*
%TO.C,J1*%
X14902380Y-54943333D02*
X15616666Y-54943333D01*
X15759523Y-54990952D01*
X15854761Y-55086190D01*
X15902380Y-55229047D01*
X15902380Y-55324285D01*
X15902380Y-53943333D02*
X15902380Y-54514761D01*
X15902380Y-54229047D02*
X14902380Y-54229047D01*
X15045238Y-54324285D01*
X15140476Y-54419523D01*
X15188095Y-54514761D01*
%TD*%
M02*
