%TF.GenerationSoftware,KiCad,Pcbnew,(5.1.6)-1*%
%TF.CreationDate,2020-07-11T10:23:58-05:00*%
%TF.ProjectId,ErgoChoco,4572676f-4368-46f6-936f-2e6b69636164,v1.0*%
%TF.SameCoordinates,Original*%
%TF.FileFunction,Legend,Bot*%
%TF.FilePolarity,Positive*%
%FSLAX46Y46*%
G04 Gerber Fmt 4.6, Leading zero omitted, Abs format (unit mm)*
G04 Created by KiCad (PCBNEW (5.1.6)-1) date 2020-07-11 10:23:58*
%MOMM*%
%LPD*%
G01*
G04 APERTURE LIST*
%TA.AperFunction,Profile*%
%ADD10C,0.050000*%
%TD*%
%ADD11C,0.150000*%
%TA.AperFunction,Profile*%
%ADD12C,0.001000*%
%TD*%
G04 APERTURE END LIST*
D10*
X276431250Y-49500000D02*
G75*
G02*
X279431250Y-52500000I0J-3000000D01*
G01*
X279431245Y-107828643D02*
G75*
G02*
X277699100Y-110547560I-2999995J3D01*
G01*
X169034025Y-161218923D02*
G75*
G02*
X167766170Y-161500000I-1267855J2718923D01*
G01*
X129096333Y-161499995D02*
G75*
G02*
X127828480Y-161218920I-3J2999995D01*
G01*
X19163395Y-110547563D02*
G75*
G02*
X17431250Y-107828640I1267855J2718923D01*
G01*
X17431250Y-52500000D02*
G75*
G02*
X20431250Y-49500000I3000000J0D01*
G01*
X17431250Y-107828640D02*
X17431250Y-52500000D01*
X127828480Y-161218920D02*
X19163400Y-110547560D01*
X167766170Y-161500000D02*
X129096330Y-161500000D01*
X277699100Y-110547560D02*
X169034020Y-161218920D01*
X279431250Y-52500000D02*
X279431250Y-107828640D01*
X20431250Y-49500000D02*
X276431250Y-49500000D01*
D11*
%TO.C,MX40*%
X163581451Y-150981708D02*
X163850859Y-151251115D01*
X169867631Y-141103426D02*
X170586051Y-141821846D01*
X170586051Y-141821846D02*
X166993949Y-145413949D01*
X166598562Y-148503413D02*
X165377503Y-149724472D01*
X164120267Y-150981708D02*
X163850859Y-151251115D01*
X161156782Y-148557038D02*
X161426190Y-148826446D01*
X161156782Y-144964936D02*
X167442962Y-138678757D01*
X167442962Y-138678757D02*
X167712369Y-138948164D01*
X166590295Y-148480000D02*
G75*
G02*
X166993949Y-145413949I2199705J1270000D01*
G01*
X161156783Y-148557039D02*
G75*
G02*
X161156782Y-144964936I1796051J1796052D01*
G01*
%TO.C,MX15*%
X68359331Y-77955118D02*
X68260721Y-78323136D01*
X80057264Y-78459969D02*
X79794304Y-79441349D01*
X79794304Y-79441349D02*
X74887400Y-78126548D01*
X72014152Y-79328865D02*
X70346155Y-78881926D01*
X68628739Y-78421746D02*
X68260721Y-78323136D01*
X69246822Y-74642959D02*
X69148212Y-75010977D01*
X72357674Y-72846908D02*
X80944754Y-75147809D01*
X80944754Y-75147809D02*
X80846144Y-75515827D01*
X72030295Y-79310000D02*
G75*
G02*
X74887400Y-78126548I2199705J-1270000D01*
G01*
X69246822Y-74642958D02*
G75*
G02*
X72357674Y-72846908I2453451J-657401D01*
G01*
D12*
%TO.C,J1*%
X150330750Y-53924500D02*
X150330750Y-53850000D01*
X150981750Y-53775500D02*
X150981750Y-53850000D01*
X150331250Y-53850000D02*
X150331250Y-53775000D01*
X150981250Y-53850000D02*
X150981250Y-53925000D01*
X145880750Y-53924500D02*
X145880750Y-53850000D01*
X146531750Y-53775500D02*
X146531750Y-53850000D01*
X145881250Y-53850000D02*
X145881250Y-53775000D01*
X146531250Y-53850000D02*
X146531250Y-53925000D01*
X150656250Y-54250000D02*
G75*
G02*
X150330750Y-53924500I0J325500D01*
G01*
X150656250Y-53450000D02*
G75*
G02*
X150981750Y-53775500I0J-325500D01*
G01*
X150331250Y-53775000D02*
G75*
G02*
X150656250Y-53450000I325000J0D01*
G01*
X150981250Y-53925000D02*
G75*
G02*
X150656250Y-54250000I-325000J0D01*
G01*
X146206250Y-54250000D02*
G75*
G02*
X145880750Y-53924500I0J325500D01*
G01*
X146206250Y-53450000D02*
G75*
G02*
X146531750Y-53775500I0J-325500D01*
G01*
X145881250Y-53775000D02*
G75*
G02*
X146206250Y-53450000I325000J0D01*
G01*
X146531250Y-53925000D02*
G75*
G02*
X146206250Y-54250000I-325000J0D01*
G01*
D11*
%TO.C,MX1*%
X33469331Y-61365118D02*
X33370721Y-61733136D01*
X45167264Y-61869969D02*
X44904304Y-62851349D01*
X44904304Y-62851349D02*
X39997400Y-61536548D01*
X37124152Y-62738865D02*
X35456155Y-62291926D01*
X33738739Y-61831746D02*
X33370721Y-61733136D01*
X34356822Y-58052959D02*
X34258212Y-58420977D01*
X37467674Y-56256908D02*
X46054754Y-58557809D01*
X46054754Y-58557809D02*
X45956144Y-58925827D01*
X37140295Y-62720000D02*
G75*
G02*
X39997400Y-61536548I2199705J-1270000D01*
G01*
X34356822Y-58052958D02*
G75*
G02*
X37467674Y-56256908I2453451J-657401D01*
G01*
%TO.C,MX2*%
X51819331Y-66275118D02*
X51720721Y-66643136D01*
X63517264Y-66779969D02*
X63254304Y-67761349D01*
X63254304Y-67761349D02*
X58347400Y-66446548D01*
X55474152Y-67648865D02*
X53806155Y-67201926D01*
X52088739Y-66741746D02*
X51720721Y-66643136D01*
X52706822Y-62962959D02*
X52608212Y-63330977D01*
X55817674Y-61166908D02*
X64404754Y-63467809D01*
X64404754Y-63467809D02*
X64306144Y-63835827D01*
X55490295Y-67630000D02*
G75*
G02*
X58347400Y-66446548I2199705J-1270000D01*
G01*
X52706822Y-62962958D02*
G75*
G02*
X55817674Y-61166908I2453451J-657401D01*
G01*
%TO.C,MX3*%
X73279331Y-59605118D02*
X73180721Y-59973136D01*
X84977264Y-60109969D02*
X84714304Y-61091349D01*
X84714304Y-61091349D02*
X79807400Y-59776548D01*
X76934152Y-60978865D02*
X75266155Y-60531926D01*
X73548739Y-60071746D02*
X73180721Y-59973136D01*
X74166822Y-56292959D02*
X74068212Y-56660977D01*
X77277674Y-54496908D02*
X85864754Y-56797809D01*
X85864754Y-56797809D02*
X85766144Y-57165827D01*
X76950295Y-60960000D02*
G75*
G02*
X79807400Y-59776548I2199705J-1270000D01*
G01*
X74166822Y-56292958D02*
G75*
G02*
X77277674Y-54496908I2453451J-657401D01*
G01*
%TO.C,MX4*%
X93179331Y-58725118D02*
X93080721Y-59093136D01*
X104877264Y-59229969D02*
X104614304Y-60211349D01*
X104614304Y-60211349D02*
X99707400Y-58896548D01*
X96834152Y-60098865D02*
X95166155Y-59651926D01*
X93448739Y-59191746D02*
X93080721Y-59093136D01*
X94066822Y-55412959D02*
X93968212Y-55780977D01*
X97177674Y-53616908D02*
X105764754Y-55917809D01*
X105764754Y-55917809D02*
X105666144Y-56285827D01*
X96850295Y-60080000D02*
G75*
G02*
X99707400Y-58896548I2199705J-1270000D01*
G01*
X94066822Y-55412958D02*
G75*
G02*
X97177674Y-53616908I2453451J-657401D01*
G01*
%TO.C,MX5*%
X109849331Y-69925118D02*
X109750721Y-70293136D01*
X121547264Y-70429969D02*
X121284304Y-71411349D01*
X121284304Y-71411349D02*
X116377400Y-70096548D01*
X113504152Y-71298865D02*
X111836155Y-70851926D01*
X110118739Y-70391746D02*
X109750721Y-70293136D01*
X110736822Y-66612959D02*
X110638212Y-66980977D01*
X113847674Y-64816908D02*
X122434754Y-67117809D01*
X122434754Y-67117809D02*
X122336144Y-67485827D01*
X113520295Y-71280000D02*
G75*
G02*
X116377400Y-70096548I2199705J-1270000D01*
G01*
X110736822Y-66612958D02*
G75*
G02*
X113847674Y-64816908I2453451J-657401D01*
G01*
%TO.C,MX6*%
X127559331Y-77255118D02*
X127460721Y-77623136D01*
X139257264Y-77759969D02*
X138994304Y-78741349D01*
X138994304Y-78741349D02*
X134087400Y-77426548D01*
X131214152Y-78628865D02*
X129546155Y-78181926D01*
X127828739Y-77721746D02*
X127460721Y-77623136D01*
X128446822Y-73942959D02*
X128348212Y-74310977D01*
X131557674Y-72146908D02*
X140144754Y-74447809D01*
X140144754Y-74447809D02*
X140046144Y-74815827D01*
X131230295Y-78610000D02*
G75*
G02*
X134087400Y-77426548I2199705J-1270000D01*
G01*
X128446822Y-73942958D02*
G75*
G02*
X131557674Y-72146908I2453451J-657401D01*
G01*
%TO.C,MX7*%
X157033411Y-80542120D02*
X157132021Y-80910138D01*
X167416543Y-75130367D02*
X167679503Y-76111748D01*
X167679503Y-76111748D02*
X162772600Y-77426548D01*
X160885452Y-79904409D02*
X159217455Y-80351348D01*
X157500039Y-80811528D02*
X157132021Y-80910138D01*
X156145920Y-77229961D02*
X156244530Y-77597978D01*
X157941972Y-74119109D02*
X166529052Y-71818207D01*
X166529052Y-71818207D02*
X166627662Y-72186225D01*
X160890000Y-79880000D02*
G75*
G02*
X162772600Y-77426548I2540000J0D01*
G01*
X156145921Y-77229960D02*
G75*
G02*
X157941972Y-74119109I2453451J657400D01*
G01*
%TO.C,MX8*%
X174743411Y-73212120D02*
X174842021Y-73580138D01*
X185126543Y-67800367D02*
X185389503Y-68781748D01*
X185389503Y-68781748D02*
X180482600Y-70096548D01*
X178595452Y-72574409D02*
X176927455Y-73021348D01*
X175210039Y-73481528D02*
X174842021Y-73580138D01*
X173855920Y-69899961D02*
X173954530Y-70267978D01*
X175651972Y-66789109D02*
X184239052Y-64488207D01*
X184239052Y-64488207D02*
X184337662Y-64856225D01*
X178600000Y-72550000D02*
G75*
G02*
X180482600Y-70096548I2540000J0D01*
G01*
X173855921Y-69899960D02*
G75*
G02*
X175651972Y-66789109I2453451J657400D01*
G01*
%TO.C,MX9*%
X191413411Y-62012120D02*
X191512021Y-62380138D01*
X201796543Y-56600367D02*
X202059503Y-57581748D01*
X202059503Y-57581748D02*
X197152600Y-58896548D01*
X195265452Y-61374409D02*
X193597455Y-61821348D01*
X191880039Y-62281528D02*
X191512021Y-62380138D01*
X190525920Y-58699961D02*
X190624530Y-59067978D01*
X192321972Y-55589109D02*
X200909052Y-53288207D01*
X200909052Y-53288207D02*
X201007662Y-53656225D01*
X195270000Y-61350000D02*
G75*
G02*
X197152600Y-58896548I2540000J0D01*
G01*
X190525921Y-58699960D02*
G75*
G02*
X192321972Y-55589109I2453451J657400D01*
G01*
%TO.C,MX10*%
X211313411Y-62892120D02*
X211412021Y-63260138D01*
X221696543Y-57480367D02*
X221959503Y-58461748D01*
X221959503Y-58461748D02*
X217052600Y-59776548D01*
X215165452Y-62254409D02*
X213497455Y-62701348D01*
X211780039Y-63161528D02*
X211412021Y-63260138D01*
X210425920Y-59579961D02*
X210524530Y-59947978D01*
X212221972Y-56469109D02*
X220809052Y-54168207D01*
X220809052Y-54168207D02*
X220907662Y-54536225D01*
X215170000Y-62230000D02*
G75*
G02*
X217052600Y-59776548I2540000J0D01*
G01*
X210425921Y-59579960D02*
G75*
G02*
X212221972Y-56469109I2453451J657400D01*
G01*
%TO.C,MX11*%
X232773411Y-69562120D02*
X232872021Y-69930138D01*
X243156543Y-64150367D02*
X243419503Y-65131748D01*
X243419503Y-65131748D02*
X238512600Y-66446548D01*
X236625452Y-68924409D02*
X234957455Y-69371348D01*
X233240039Y-69831528D02*
X232872021Y-69930138D01*
X231885920Y-66249961D02*
X231984530Y-66617978D01*
X233681972Y-63139109D02*
X242269052Y-60838207D01*
X242269052Y-60838207D02*
X242367662Y-61206225D01*
X236630000Y-68900000D02*
G75*
G02*
X238512600Y-66446548I2540000J0D01*
G01*
X231885921Y-66249960D02*
G75*
G02*
X233681972Y-63139109I2453451J657400D01*
G01*
%TO.C,MX12*%
X251123411Y-64652120D02*
X251222021Y-65020138D01*
X261506543Y-59240367D02*
X261769503Y-60221748D01*
X261769503Y-60221748D02*
X256862600Y-61536548D01*
X254975452Y-64014409D02*
X253307455Y-64461348D01*
X251590039Y-64921528D02*
X251222021Y-65020138D01*
X250235920Y-61339961D02*
X250334530Y-61707978D01*
X252031972Y-58229109D02*
X260619052Y-55928207D01*
X260619052Y-55928207D02*
X260717662Y-56296225D01*
X254980000Y-63990000D02*
G75*
G02*
X256862600Y-61536548I2540000J0D01*
G01*
X250235921Y-61339960D02*
G75*
G02*
X252031972Y-58229109I2453451J657400D01*
G01*
%TO.C,MX13*%
X28549331Y-79715118D02*
X28450721Y-80083136D01*
X40247264Y-80219969D02*
X39984304Y-81201349D01*
X39984304Y-81201349D02*
X35077400Y-79886548D01*
X32204152Y-81088865D02*
X30536155Y-80641926D01*
X28818739Y-80181746D02*
X28450721Y-80083136D01*
X29436822Y-76402959D02*
X29338212Y-76770977D01*
X32547674Y-74606908D02*
X41134754Y-76907809D01*
X41134754Y-76907809D02*
X41036144Y-77275827D01*
X32220295Y-81070000D02*
G75*
G02*
X35077400Y-79886548I2199705J-1270000D01*
G01*
X29436822Y-76402958D02*
G75*
G02*
X32547674Y-74606908I2453451J-657401D01*
G01*
%TO.C,MX14*%
X46899331Y-84635118D02*
X46800721Y-85003136D01*
X58597264Y-85139969D02*
X58334304Y-86121349D01*
X58334304Y-86121349D02*
X53427400Y-84806548D01*
X50554152Y-86008865D02*
X48886155Y-85561926D01*
X47168739Y-85101746D02*
X46800721Y-85003136D01*
X47786822Y-81322959D02*
X47688212Y-81690977D01*
X50897674Y-79526908D02*
X59484754Y-81827809D01*
X59484754Y-81827809D02*
X59386144Y-82195827D01*
X50570295Y-85990000D02*
G75*
G02*
X53427400Y-84806548I2199705J-1270000D01*
G01*
X47786822Y-81322958D02*
G75*
G02*
X50897674Y-79526908I2453451J-657401D01*
G01*
%TO.C,MX16*%
X88269331Y-77085118D02*
X88170721Y-77453136D01*
X99967264Y-77589969D02*
X99704304Y-78571349D01*
X99704304Y-78571349D02*
X94797400Y-77256548D01*
X91924152Y-78458865D02*
X90256155Y-78011926D01*
X88538739Y-77551746D02*
X88170721Y-77453136D01*
X89156822Y-73772959D02*
X89058212Y-74140977D01*
X92267674Y-71976908D02*
X100854754Y-74277809D01*
X100854754Y-74277809D02*
X100756144Y-74645827D01*
X91940295Y-78440000D02*
G75*
G02*
X94797400Y-77256548I2199705J-1270000D01*
G01*
X89156822Y-73772958D02*
G75*
G02*
X92267674Y-71976908I2453451J-657401D01*
G01*
%TO.C,MX17*%
X104939331Y-88275118D02*
X104840721Y-88643136D01*
X116637264Y-88779969D02*
X116374304Y-89761349D01*
X116374304Y-89761349D02*
X111467400Y-88446548D01*
X108594152Y-89648865D02*
X106926155Y-89201926D01*
X105208739Y-88741746D02*
X104840721Y-88643136D01*
X105826822Y-84962959D02*
X105728212Y-85330977D01*
X108937674Y-83166908D02*
X117524754Y-85467809D01*
X117524754Y-85467809D02*
X117426144Y-85835827D01*
X108610295Y-89630000D02*
G75*
G02*
X111467400Y-88446548I2199705J-1270000D01*
G01*
X105826822Y-84962958D02*
G75*
G02*
X108937674Y-83166908I2453451J-657401D01*
G01*
%TO.C,MX18*%
X122639331Y-95605118D02*
X122540721Y-95973136D01*
X134337264Y-96109969D02*
X134074304Y-97091349D01*
X134074304Y-97091349D02*
X129167400Y-95776548D01*
X126294152Y-96978865D02*
X124626155Y-96531926D01*
X122908739Y-96071746D02*
X122540721Y-95973136D01*
X123526822Y-92292959D02*
X123428212Y-92660977D01*
X126637674Y-90496908D02*
X135224754Y-92797809D01*
X135224754Y-92797809D02*
X135126144Y-93165827D01*
X126310295Y-96960000D02*
G75*
G02*
X129167400Y-95776548I2199705J-1270000D01*
G01*
X123526822Y-92292958D02*
G75*
G02*
X126637674Y-90496908I2453451J-657401D01*
G01*
%TO.C,MX19*%
X161953411Y-98892120D02*
X162052021Y-99260138D01*
X172336543Y-93480367D02*
X172599503Y-94461748D01*
X172599503Y-94461748D02*
X167692600Y-95776548D01*
X165805452Y-98254409D02*
X164137455Y-98701348D01*
X162420039Y-99161528D02*
X162052021Y-99260138D01*
X161065920Y-95579961D02*
X161164530Y-95947978D01*
X162861972Y-92469109D02*
X171449052Y-90168207D01*
X171449052Y-90168207D02*
X171547662Y-90536225D01*
X165810000Y-98230000D02*
G75*
G02*
X167692600Y-95776548I2540000J0D01*
G01*
X161065921Y-95579960D02*
G75*
G02*
X162861972Y-92469109I2453451J657400D01*
G01*
%TO.C,MX20*%
X179653411Y-91562120D02*
X179752021Y-91930138D01*
X190036543Y-86150367D02*
X190299503Y-87131748D01*
X190299503Y-87131748D02*
X185392600Y-88446548D01*
X183505452Y-90924409D02*
X181837455Y-91371348D01*
X180120039Y-91831528D02*
X179752021Y-91930138D01*
X178765920Y-88249961D02*
X178864530Y-88617978D01*
X180561972Y-85139109D02*
X189149052Y-82838207D01*
X189149052Y-82838207D02*
X189247662Y-83206225D01*
X183510000Y-90900000D02*
G75*
G02*
X185392600Y-88446548I2540000J0D01*
G01*
X178765921Y-88249960D02*
G75*
G02*
X180561972Y-85139109I2453451J657400D01*
G01*
%TO.C,MX21*%
X196323411Y-80372120D02*
X196422021Y-80740138D01*
X206706543Y-74960367D02*
X206969503Y-75941748D01*
X206969503Y-75941748D02*
X202062600Y-77256548D01*
X200175452Y-79734409D02*
X198507455Y-80181348D01*
X196790039Y-80641528D02*
X196422021Y-80740138D01*
X195435920Y-77059961D02*
X195534530Y-77427978D01*
X197231972Y-73949109D02*
X205819052Y-71648207D01*
X205819052Y-71648207D02*
X205917662Y-72016225D01*
X200180000Y-79710000D02*
G75*
G02*
X202062600Y-77256548I2540000J0D01*
G01*
X195435921Y-77059960D02*
G75*
G02*
X197231972Y-73949109I2453451J657400D01*
G01*
%TO.C,MX22*%
X216233411Y-81242120D02*
X216332021Y-81610138D01*
X226616543Y-75830367D02*
X226879503Y-76811748D01*
X226879503Y-76811748D02*
X221972600Y-78126548D01*
X220085452Y-80604409D02*
X218417455Y-81051348D01*
X216700039Y-81511528D02*
X216332021Y-81610138D01*
X215345920Y-77929961D02*
X215444530Y-78297978D01*
X217141972Y-74819109D02*
X225729052Y-72518207D01*
X225729052Y-72518207D02*
X225827662Y-72886225D01*
X220090000Y-80580000D02*
G75*
G02*
X221972600Y-78126548I2540000J0D01*
G01*
X215345921Y-77929960D02*
G75*
G02*
X217141972Y-74819109I2453451J657400D01*
G01*
%TO.C,MX23*%
X237693411Y-87922120D02*
X237792021Y-88290138D01*
X248076543Y-82510367D02*
X248339503Y-83491748D01*
X248339503Y-83491748D02*
X243432600Y-84806548D01*
X241545452Y-87284409D02*
X239877455Y-87731348D01*
X238160039Y-88191528D02*
X237792021Y-88290138D01*
X236805920Y-84609961D02*
X236904530Y-84977978D01*
X238601972Y-81499109D02*
X247189052Y-79198207D01*
X247189052Y-79198207D02*
X247287662Y-79566225D01*
X241550000Y-87260000D02*
G75*
G02*
X243432600Y-84806548I2540000J0D01*
G01*
X236805921Y-84609960D02*
G75*
G02*
X238601972Y-81499109I2453451J657400D01*
G01*
%TO.C,MX24*%
X256043411Y-83002120D02*
X256142021Y-83370138D01*
X266426543Y-77590367D02*
X266689503Y-78571748D01*
X266689503Y-78571748D02*
X261782600Y-79886548D01*
X259895452Y-82364409D02*
X258227455Y-82811348D01*
X256510039Y-83271528D02*
X256142021Y-83370138D01*
X255155920Y-79689961D02*
X255254530Y-80057978D01*
X256951972Y-76579109D02*
X265539052Y-74278207D01*
X265539052Y-74278207D02*
X265637662Y-74646225D01*
X259900000Y-82340000D02*
G75*
G02*
X261782600Y-79886548I2540000J0D01*
G01*
X255155921Y-79689960D02*
G75*
G02*
X256951972Y-76579109I2453451J657400D01*
G01*
%TO.C,MX25*%
X23629331Y-98065118D02*
X23530721Y-98433136D01*
X35327264Y-98569969D02*
X35064304Y-99551349D01*
X35064304Y-99551349D02*
X30157400Y-98236548D01*
X27284152Y-99438865D02*
X25616155Y-98991926D01*
X23898739Y-98531746D02*
X23530721Y-98433136D01*
X24516822Y-94752959D02*
X24418212Y-95120977D01*
X27627674Y-92956908D02*
X36214754Y-95257809D01*
X36214754Y-95257809D02*
X36116144Y-95625827D01*
X27300295Y-99420000D02*
G75*
G02*
X30157400Y-98236548I2199705J-1270000D01*
G01*
X24516822Y-94752958D02*
G75*
G02*
X27627674Y-92956908I2453451J-657401D01*
G01*
%TO.C,MX26*%
X41989331Y-102985118D02*
X41890721Y-103353136D01*
X53687264Y-103489969D02*
X53424304Y-104471349D01*
X53424304Y-104471349D02*
X48517400Y-103156548D01*
X45644152Y-104358865D02*
X43976155Y-103911926D01*
X42258739Y-103451746D02*
X41890721Y-103353136D01*
X42876822Y-99672959D02*
X42778212Y-100040977D01*
X45987674Y-97876908D02*
X54574754Y-100177809D01*
X54574754Y-100177809D02*
X54476144Y-100545827D01*
X45660295Y-104340000D02*
G75*
G02*
X48517400Y-103156548I2199705J-1270000D01*
G01*
X42876822Y-99672958D02*
G75*
G02*
X45987674Y-97876908I2453451J-657401D01*
G01*
%TO.C,MX27*%
X63439331Y-96315118D02*
X63340721Y-96683136D01*
X75137264Y-96819969D02*
X74874304Y-97801349D01*
X74874304Y-97801349D02*
X69967400Y-96486548D01*
X67094152Y-97688865D02*
X65426155Y-97241926D01*
X63708739Y-96781746D02*
X63340721Y-96683136D01*
X64326822Y-93002959D02*
X64228212Y-93370977D01*
X67437674Y-91206908D02*
X76024754Y-93507809D01*
X76024754Y-93507809D02*
X75926144Y-93875827D01*
X67110295Y-97670000D02*
G75*
G02*
X69967400Y-96486548I2199705J-1270000D01*
G01*
X64326822Y-93002958D02*
G75*
G02*
X67437674Y-91206908I2453451J-657401D01*
G01*
%TO.C,MX28*%
X83349331Y-95435118D02*
X83250721Y-95803136D01*
X95047264Y-95939969D02*
X94784304Y-96921349D01*
X94784304Y-96921349D02*
X89877400Y-95606548D01*
X87004152Y-96808865D02*
X85336155Y-96361926D01*
X83618739Y-95901746D02*
X83250721Y-95803136D01*
X84236822Y-92122959D02*
X84138212Y-92490977D01*
X87347674Y-90326908D02*
X95934754Y-92627809D01*
X95934754Y-92627809D02*
X95836144Y-92995827D01*
X87020295Y-96790000D02*
G75*
G02*
X89877400Y-95606548I2199705J-1270000D01*
G01*
X84236822Y-92122958D02*
G75*
G02*
X87347674Y-90326908I2453451J-657401D01*
G01*
%TO.C,MX29*%
X100019331Y-106625118D02*
X99920721Y-106993136D01*
X111717264Y-107129969D02*
X111454304Y-108111349D01*
X111454304Y-108111349D02*
X106547400Y-106796548D01*
X103674152Y-107998865D02*
X102006155Y-107551926D01*
X100288739Y-107091746D02*
X99920721Y-106993136D01*
X100906822Y-103312959D02*
X100808212Y-103680977D01*
X104017674Y-101516908D02*
X112604754Y-103817809D01*
X112604754Y-103817809D02*
X112506144Y-104185827D01*
X103690295Y-107980000D02*
G75*
G02*
X106547400Y-106796548I2199705J-1270000D01*
G01*
X100906822Y-103312958D02*
G75*
G02*
X104017674Y-101516908I2453451J-657401D01*
G01*
%TO.C,MX30*%
X117719331Y-113965118D02*
X117620721Y-114333136D01*
X129417264Y-114469969D02*
X129154304Y-115451349D01*
X129154304Y-115451349D02*
X124247400Y-114136548D01*
X121374152Y-115338865D02*
X119706155Y-114891926D01*
X117988739Y-114431746D02*
X117620721Y-114333136D01*
X118606822Y-110652959D02*
X118508212Y-111020977D01*
X121717674Y-108856908D02*
X130304754Y-111157809D01*
X130304754Y-111157809D02*
X130206144Y-111525827D01*
X121390295Y-115320000D02*
G75*
G02*
X124247400Y-114136548I2199705J-1270000D01*
G01*
X118606822Y-110652958D02*
G75*
G02*
X121717674Y-108856908I2453451J-657401D01*
G01*
%TO.C,MX31*%
X166873411Y-117252120D02*
X166972021Y-117620138D01*
X177256543Y-111840367D02*
X177519503Y-112821748D01*
X177519503Y-112821748D02*
X172612600Y-114136548D01*
X170725452Y-116614409D02*
X169057455Y-117061348D01*
X167340039Y-117521528D02*
X166972021Y-117620138D01*
X165985920Y-113939961D02*
X166084530Y-114307978D01*
X167781972Y-110829109D02*
X176369052Y-108528207D01*
X176369052Y-108528207D02*
X176467662Y-108896225D01*
X170730000Y-116590000D02*
G75*
G02*
X172612600Y-114136548I2540000J0D01*
G01*
X165985921Y-113939960D02*
G75*
G02*
X167781972Y-110829109I2453451J657400D01*
G01*
%TO.C,MX32*%
X184573411Y-109912120D02*
X184672021Y-110280138D01*
X194956543Y-104500367D02*
X195219503Y-105481748D01*
X195219503Y-105481748D02*
X190312600Y-106796548D01*
X188425452Y-109274409D02*
X186757455Y-109721348D01*
X185040039Y-110181528D02*
X184672021Y-110280138D01*
X183685920Y-106599961D02*
X183784530Y-106967978D01*
X185481972Y-103489109D02*
X194069052Y-101188207D01*
X194069052Y-101188207D02*
X194167662Y-101556225D01*
X188430000Y-109250000D02*
G75*
G02*
X190312600Y-106796548I2540000J0D01*
G01*
X183685921Y-106599960D02*
G75*
G02*
X185481972Y-103489109I2453451J657400D01*
G01*
%TO.C,MX33*%
X201243411Y-98722120D02*
X201342021Y-99090138D01*
X211626543Y-93310367D02*
X211889503Y-94291748D01*
X211889503Y-94291748D02*
X206982600Y-95606548D01*
X205095452Y-98084409D02*
X203427455Y-98531348D01*
X201710039Y-98991528D02*
X201342021Y-99090138D01*
X200355920Y-95409961D02*
X200454530Y-95777978D01*
X202151972Y-92299109D02*
X210739052Y-89998207D01*
X210739052Y-89998207D02*
X210837662Y-90366225D01*
X205100000Y-98060000D02*
G75*
G02*
X206982600Y-95606548I2540000J0D01*
G01*
X200355921Y-95409960D02*
G75*
G02*
X202151972Y-92299109I2453451J657400D01*
G01*
%TO.C,MX34*%
X221153411Y-99602120D02*
X221252021Y-99970138D01*
X231536543Y-94190367D02*
X231799503Y-95171748D01*
X231799503Y-95171748D02*
X226892600Y-96486548D01*
X225005452Y-98964409D02*
X223337455Y-99411348D01*
X221620039Y-99871528D02*
X221252021Y-99970138D01*
X220265920Y-96289961D02*
X220364530Y-96657978D01*
X222061972Y-93179109D02*
X230649052Y-90878207D01*
X230649052Y-90878207D02*
X230747662Y-91246225D01*
X225010000Y-98940000D02*
G75*
G02*
X226892600Y-96486548I2540000J0D01*
G01*
X220265921Y-96289960D02*
G75*
G02*
X222061972Y-93179109I2453451J657400D01*
G01*
%TO.C,MX35*%
X242603411Y-106272120D02*
X242702021Y-106640138D01*
X252986543Y-100860367D02*
X253249503Y-101841748D01*
X253249503Y-101841748D02*
X248342600Y-103156548D01*
X246455452Y-105634409D02*
X244787455Y-106081348D01*
X243070039Y-106541528D02*
X242702021Y-106640138D01*
X241715920Y-102959961D02*
X241814530Y-103327978D01*
X243511972Y-99849109D02*
X252099052Y-97548207D01*
X252099052Y-97548207D02*
X252197662Y-97916225D01*
X246460000Y-105610000D02*
G75*
G02*
X248342600Y-103156548I2540000J0D01*
G01*
X241715921Y-102959960D02*
G75*
G02*
X243511972Y-99849109I2453451J657400D01*
G01*
%TO.C,MX36*%
X260963411Y-101352120D02*
X261062021Y-101720138D01*
X271346543Y-95940367D02*
X271609503Y-96921748D01*
X271609503Y-96921748D02*
X266702600Y-98236548D01*
X264815452Y-100714409D02*
X263147455Y-101161348D01*
X261430039Y-101621528D02*
X261062021Y-101720138D01*
X260075920Y-98039961D02*
X260174530Y-98407978D01*
X261871972Y-94929109D02*
X270459052Y-92628207D01*
X270459052Y-92628207D02*
X270557662Y-92996225D01*
X264820000Y-100690000D02*
G75*
G02*
X266702600Y-98236548I2540000J0D01*
G01*
X260075921Y-98039960D02*
G75*
G02*
X261871972Y-94929109I2453451J657400D01*
G01*
%TO.C,MX37*%
X85669331Y-123485118D02*
X85570721Y-123853136D01*
X97367264Y-123989969D02*
X97104304Y-124971349D01*
X97104304Y-124971349D02*
X92197400Y-123656548D01*
X89324152Y-124858865D02*
X87656155Y-124411926D01*
X85938739Y-123951746D02*
X85570721Y-123853136D01*
X86556822Y-120172959D02*
X86458212Y-120540977D01*
X89667674Y-118376908D02*
X98254754Y-120677809D01*
X98254754Y-120677809D02*
X98156144Y-121045827D01*
X89340295Y-124840000D02*
G75*
G02*
X92197400Y-123656548I2199705J-1270000D01*
G01*
X86556822Y-120172958D02*
G75*
G02*
X89667674Y-118376908I2453451J-657401D01*
G01*
%TO.C,MX38*%
X106198739Y-130205118D02*
X106008239Y-130535074D01*
X117367409Y-133720414D02*
X116859409Y-134600295D01*
X116859409Y-134600295D02*
X112460000Y-132060295D01*
X109373473Y-132477993D02*
X107877988Y-131614574D01*
X106338194Y-130725574D02*
X106008239Y-130535074D01*
X107913239Y-127235517D02*
X107722739Y-127565473D01*
X111382943Y-126305813D02*
X119081909Y-130750813D01*
X119081909Y-130750813D02*
X118891409Y-131080768D01*
X109393949Y-132463949D02*
G75*
G02*
X112460000Y-132060295I1796051J-1796051D01*
G01*
X107913239Y-127235517D02*
G75*
G02*
X111382943Y-126305813I2199704J-1270000D01*
G01*
%TO.C,MX39*%
X124298292Y-142001451D02*
X124028885Y-142270859D01*
X134176574Y-148287631D02*
X133458154Y-149006051D01*
X133458154Y-149006051D02*
X129866051Y-145413949D01*
X126776587Y-145018562D02*
X125555528Y-143797503D01*
X124298292Y-142540267D02*
X124028885Y-142270859D01*
X126722962Y-139576782D02*
X126453554Y-139846190D01*
X130315064Y-139576782D02*
X136601243Y-145862962D01*
X136601243Y-145862962D02*
X136331836Y-146132369D01*
X126800000Y-145010295D02*
G75*
G02*
X129866051Y-145413949I1270000J-2199705D01*
G01*
X126722961Y-139576783D02*
G75*
G02*
X130315064Y-139576782I1796052J-1796051D01*
G01*
%TO.C,MX41*%
X179662739Y-136555118D02*
X179853239Y-136885074D01*
X188291409Y-128640414D02*
X188799409Y-129520295D01*
X188799409Y-129520295D02*
X184400000Y-132060295D01*
X183218473Y-134942155D02*
X181722988Y-135805574D01*
X180183194Y-136694574D02*
X179853239Y-136885074D01*
X177948239Y-133585517D02*
X178138739Y-133915473D01*
X178877943Y-130115813D02*
X186576909Y-125670813D01*
X186576909Y-125670813D02*
X186767409Y-126000768D01*
X183216548Y-134917400D02*
G75*
G02*
X184400000Y-132060295I2453452J657400D01*
G01*
X177948239Y-133585517D02*
G75*
G02*
X178877943Y-130115813I2199704J1270000D01*
G01*
%TO.C,MX42*%
X198923411Y-126772120D02*
X199022021Y-127140138D01*
X209306543Y-121360367D02*
X209569503Y-122341748D01*
X209569503Y-122341748D02*
X204662600Y-123656548D01*
X202775452Y-126134409D02*
X201107455Y-126581348D01*
X199390039Y-127041528D02*
X199022021Y-127140138D01*
X198035920Y-123459961D02*
X198134530Y-123827978D01*
X199831972Y-120349109D02*
X208419052Y-118048207D01*
X208419052Y-118048207D02*
X208517662Y-118416225D01*
X202780000Y-126110000D02*
G75*
G02*
X204662600Y-123656548I2540000J0D01*
G01*
X198035921Y-123459960D02*
G75*
G02*
X199831972Y-120349109I2453451J657400D01*
G01*
%TD*%
%TO.C,MX40*%
X164518570Y-140446860D02*
X163811463Y-139739754D01*
X164080837Y-140480532D01*
X163340059Y-140211158D01*
X164047165Y-140918265D01*
X163070685Y-140480532D02*
X163306387Y-141659043D01*
X162599280Y-140951937D02*
X163777791Y-141187639D01*
X162262563Y-141760059D02*
X162733967Y-142231463D01*
X162161547Y-141322326D02*
X162834982Y-141659043D01*
X162397250Y-142096776D01*
X161521784Y-142029433D02*
X161454441Y-142096776D01*
X161420769Y-142197791D01*
X161420769Y-142265135D01*
X161454441Y-142366150D01*
X161555456Y-142534509D01*
X161723815Y-142702868D01*
X161892173Y-142803883D01*
X161993189Y-142837555D01*
X162060532Y-142837555D01*
X162161547Y-142803883D01*
X162228891Y-142736539D01*
X162262563Y-142635524D01*
X162262563Y-142568181D01*
X162228891Y-142467165D01*
X162127876Y-142298807D01*
X161959517Y-142130448D01*
X161791158Y-142029433D01*
X161690143Y-141995761D01*
X161622799Y-141995761D01*
X161521784Y-142029433D01*
X174284556Y-149000663D02*
X174823304Y-148461915D01*
X170041915Y-153243304D02*
X170580663Y-152704556D01*
X170580663Y-153243304D02*
X170041915Y-152704556D01*
%TO.C,MX15*%
X77951335Y-73499262D02*
X78210154Y-72533337D01*
X77703308Y-73137011D01*
X77566204Y-72360791D01*
X77307384Y-73326716D01*
X77198232Y-72262193D02*
X76295462Y-73055573D01*
X76554281Y-72089647D02*
X76939413Y-73228119D01*
X75421529Y-72821403D02*
X75973487Y-72969300D01*
X75697508Y-72895351D02*
X75956327Y-71929426D01*
X76011346Y-72092064D01*
X76078689Y-72208707D01*
X76158358Y-72279353D01*
X74806415Y-71621308D02*
X75266380Y-71744555D01*
X75189129Y-72216844D01*
X75155458Y-72158523D01*
X75075789Y-72087877D01*
X74845807Y-72026254D01*
X74741489Y-72047601D01*
X74683168Y-72081272D01*
X74612522Y-72160941D01*
X74550899Y-72390923D01*
X74572246Y-72495241D01*
X74605918Y-72553562D01*
X74685586Y-72624208D01*
X74915568Y-72685831D01*
X75019886Y-72664484D01*
X75078207Y-72630812D01*
X75426518Y-86233756D02*
X76162461Y-86430952D01*
X69630963Y-84680842D02*
X70366906Y-84878038D01*
X69900337Y-85147412D02*
X70097532Y-84411468D01*
%TO.C,MX1*%
X42601370Y-56786015D02*
X42860189Y-55820089D01*
X42353343Y-56423763D01*
X42216239Y-55647543D01*
X41957420Y-56613469D01*
X41848267Y-55548946D02*
X40945497Y-56342325D01*
X41204317Y-55376400D02*
X41589448Y-56514872D01*
X40071565Y-56108156D02*
X40623522Y-56256052D01*
X40347543Y-56182104D02*
X40606362Y-55216178D01*
X40661381Y-55378817D01*
X40728725Y-55495460D01*
X40808393Y-55566105D01*
X40536518Y-69643756D02*
X41272461Y-69840952D01*
X34740963Y-68090842D02*
X35476906Y-68288038D01*
X35010337Y-68557412D02*
X35207532Y-67821468D01*
%TO.C,MX2*%
X60951370Y-61696015D02*
X61210189Y-60730089D01*
X60703343Y-61333763D01*
X60566239Y-60557543D01*
X60307420Y-61523469D01*
X60198267Y-60458946D02*
X59295497Y-61252325D01*
X59554317Y-60286400D02*
X59939448Y-61424872D01*
X59207692Y-60292120D02*
X59174020Y-60233798D01*
X59094352Y-60163153D01*
X58864370Y-60101529D01*
X58760052Y-60122876D01*
X58701731Y-60156548D01*
X58631085Y-60236216D01*
X58606435Y-60328209D01*
X58615458Y-60478523D01*
X59019519Y-61178377D01*
X58421565Y-61018156D01*
X58886518Y-74553756D02*
X59622461Y-74750952D01*
X53090963Y-73000842D02*
X53826906Y-73198038D01*
X53360337Y-73467412D02*
X53557532Y-72731468D01*
%TO.C,MX3*%
X82411370Y-55026015D02*
X82670189Y-54060089D01*
X82163343Y-54663763D01*
X82026239Y-53887543D01*
X81767420Y-54853469D01*
X81658267Y-53788946D02*
X80755497Y-54582325D01*
X81014317Y-53616400D02*
X81399448Y-54754872D01*
X80738338Y-53542451D02*
X80140384Y-53382230D01*
X80363761Y-53836475D01*
X80225772Y-53799501D01*
X80121454Y-53820848D01*
X80063133Y-53854519D01*
X79992487Y-53934188D01*
X79930863Y-54164170D01*
X79952210Y-54268488D01*
X79985882Y-54326809D01*
X80065550Y-54397455D01*
X80341529Y-54471403D01*
X80445847Y-54450056D01*
X80504168Y-54416384D01*
X80346518Y-67883756D02*
X81082461Y-68080952D01*
X74550963Y-66330842D02*
X75286906Y-66528038D01*
X74820337Y-66797412D02*
X75017532Y-66061468D01*
%TO.C,MX4*%
X102311370Y-54146015D02*
X102570189Y-53180089D01*
X102063343Y-53783763D01*
X101926239Y-53007543D01*
X101667420Y-53973469D01*
X101558267Y-52908946D02*
X100655497Y-53702325D01*
X100914317Y-52736400D02*
X101299448Y-53874872D01*
X100046104Y-52848855D02*
X99873558Y-53492805D01*
X100374684Y-52542507D02*
X100419795Y-53294077D01*
X99821841Y-53133856D01*
X100246518Y-67003756D02*
X100982461Y-67200952D01*
X94450963Y-65450842D02*
X95186906Y-65648038D01*
X94720337Y-65917412D02*
X94917532Y-65181468D01*
%TO.C,MX5*%
X118981370Y-65346015D02*
X119240189Y-64380089D01*
X118733343Y-64983763D01*
X118596239Y-64207543D01*
X118337420Y-65173469D01*
X118228267Y-64108946D02*
X117325497Y-64902325D01*
X117584317Y-63936400D02*
X117969448Y-65074872D01*
X116756380Y-63714555D02*
X117216345Y-63837802D01*
X117139094Y-64310091D01*
X117105422Y-64251770D01*
X117025754Y-64181124D01*
X116795772Y-64119501D01*
X116691454Y-64140848D01*
X116633133Y-64174519D01*
X116562487Y-64254188D01*
X116500863Y-64484170D01*
X116522210Y-64588488D01*
X116555882Y-64646809D01*
X116635550Y-64717455D01*
X116865533Y-64779078D01*
X116969850Y-64757731D01*
X117028172Y-64724060D01*
X116916518Y-78203756D02*
X117652461Y-78400952D01*
X111120963Y-76650842D02*
X111856906Y-76848038D01*
X111390337Y-77117412D02*
X111587532Y-76381468D01*
%TO.C,MX6*%
X136691370Y-72676015D02*
X136950189Y-71710089D01*
X136443343Y-72313763D01*
X136306239Y-71537543D01*
X136047420Y-72503469D01*
X135938267Y-71438946D02*
X135035497Y-72232325D01*
X135294317Y-71266400D02*
X135679448Y-72404872D01*
X134512377Y-71056879D02*
X134696362Y-71106178D01*
X134776031Y-71176824D01*
X134809702Y-71235145D01*
X134864721Y-71397784D01*
X134861419Y-71594095D01*
X134762821Y-71962067D01*
X134692175Y-72041735D01*
X134633854Y-72075407D01*
X134529536Y-72096754D01*
X134345550Y-72047455D01*
X134265882Y-71976809D01*
X134232210Y-71918488D01*
X134210863Y-71814170D01*
X134272487Y-71584188D01*
X134343133Y-71504519D01*
X134401454Y-71470848D01*
X134505772Y-71449501D01*
X134689758Y-71498800D01*
X134769426Y-71569445D01*
X134803098Y-71627767D01*
X134824445Y-71732084D01*
X134626518Y-85533756D02*
X135362461Y-85730952D01*
X128830963Y-83980842D02*
X129566906Y-84178038D01*
X129100337Y-84447412D02*
X129297532Y-83711468D01*
%TO.C,MX7*%
X162652438Y-72010481D02*
X162393619Y-71044555D01*
X162256514Y-71820775D01*
X161749668Y-71217101D01*
X162008487Y-72183027D01*
X161381697Y-71315699D02*
X160996565Y-72454170D01*
X160737746Y-71488245D02*
X161640516Y-72281624D01*
X160461767Y-71562193D02*
X159817817Y-71734739D01*
X160490604Y-72589742D01*
X167293093Y-84178038D02*
X168029036Y-83980842D01*
X161497538Y-85730952D02*
X162233481Y-85533756D01*
X161964107Y-86000326D02*
X161766912Y-85264382D01*
%TO.C,MX8*%
X180362438Y-64680481D02*
X180103619Y-63714555D01*
X179966514Y-64490775D01*
X179459668Y-63887101D01*
X179718487Y-64853027D01*
X179091697Y-63985699D02*
X178706565Y-65124170D01*
X178447746Y-64158245D02*
X179350516Y-64951624D01*
X178052707Y-64707785D02*
X178132376Y-64637139D01*
X178166047Y-64578818D01*
X178187394Y-64474500D01*
X178175070Y-64428503D01*
X178104424Y-64348835D01*
X178046103Y-64315163D01*
X177941785Y-64293816D01*
X177757799Y-64343115D01*
X177678131Y-64413761D01*
X177644459Y-64472082D01*
X177623112Y-64576400D01*
X177635437Y-64622397D01*
X177706083Y-64702065D01*
X177764404Y-64735736D01*
X177868721Y-64757084D01*
X178052707Y-64707785D01*
X178157025Y-64729132D01*
X178215346Y-64762803D01*
X178285992Y-64842472D01*
X178335291Y-65026458D01*
X178313944Y-65130775D01*
X178280272Y-65189096D01*
X178200604Y-65259742D01*
X178016618Y-65309041D01*
X177912300Y-65287694D01*
X177853979Y-65254022D01*
X177783333Y-65174354D01*
X177734034Y-64990368D01*
X177755382Y-64886051D01*
X177789053Y-64827729D01*
X177868721Y-64757084D01*
X185003093Y-76848038D02*
X185739036Y-76650842D01*
X179207538Y-78400952D02*
X179943481Y-78203756D01*
X179674107Y-78670326D02*
X179476912Y-77934382D01*
%TO.C,MX9*%
X197032438Y-53480481D02*
X196773619Y-52514555D01*
X196636514Y-53290775D01*
X196129668Y-52687101D01*
X196388487Y-53653027D01*
X195761697Y-52785699D02*
X195376565Y-53924170D01*
X195117746Y-52958245D02*
X196020516Y-53751624D01*
X194962597Y-54035093D02*
X194778611Y-54084392D01*
X194674293Y-54063045D01*
X194615972Y-54029373D01*
X194487005Y-53916033D01*
X194391710Y-53744372D01*
X194293112Y-53376400D01*
X194314459Y-53272082D01*
X194348131Y-53213761D01*
X194427799Y-53143115D01*
X194611785Y-53093816D01*
X194716103Y-53115163D01*
X194774424Y-53148835D01*
X194845070Y-53228503D01*
X194906693Y-53458486D01*
X194885346Y-53562803D01*
X194851674Y-53621125D01*
X194772006Y-53691771D01*
X194588020Y-53741069D01*
X194483703Y-53719722D01*
X194425382Y-53686051D01*
X194354736Y-53606382D01*
X201673093Y-65648038D02*
X202409036Y-65450842D01*
X195877538Y-67200952D02*
X196613481Y-67003756D01*
X196344107Y-67470326D02*
X196146912Y-66734382D01*
%TO.C,MX10*%
X217392403Y-54237233D02*
X217133584Y-53271308D01*
X216996479Y-54047528D01*
X216489633Y-53443854D01*
X216748452Y-54409779D01*
X216121661Y-53542451D02*
X215736530Y-54680923D01*
X215477711Y-53714997D02*
X216380480Y-54508377D01*
X214862597Y-54915093D02*
X215414554Y-54767196D01*
X215138576Y-54841145D02*
X214879757Y-53875219D01*
X215008724Y-53988559D01*
X215125366Y-54055902D01*
X215229684Y-54077249D01*
X214005824Y-54109388D02*
X213913831Y-54134038D01*
X213834163Y-54204684D01*
X213800491Y-54263005D01*
X213779144Y-54367322D01*
X213782446Y-54563633D01*
X213844070Y-54793615D01*
X213939365Y-54965277D01*
X214010011Y-55044945D01*
X214068332Y-55078617D01*
X214172650Y-55099964D01*
X214264643Y-55075314D01*
X214344311Y-55004668D01*
X214377983Y-54946347D01*
X214399330Y-54842029D01*
X214396027Y-54645719D01*
X214334404Y-54415736D01*
X214239108Y-54244075D01*
X214168463Y-54164407D01*
X214110141Y-54130735D01*
X214005824Y-54109388D01*
X221573093Y-66528038D02*
X222309036Y-66330842D01*
X215777538Y-68080952D02*
X216513481Y-67883756D01*
X216244107Y-68350326D02*
X216046912Y-67614382D01*
%TO.C,MX11*%
X238852403Y-60907233D02*
X238593584Y-59941308D01*
X238456479Y-60717528D01*
X237949633Y-60113854D01*
X238208452Y-61079779D01*
X237581661Y-60212451D02*
X237196530Y-61350923D01*
X236937711Y-60384997D02*
X237840480Y-61178377D01*
X236322597Y-61585093D02*
X236874554Y-61437196D01*
X236598576Y-61511145D02*
X236339757Y-60545219D01*
X236468724Y-60658559D01*
X236585366Y-60725902D01*
X236689684Y-60747249D01*
X235402668Y-61831587D02*
X235954625Y-61683691D01*
X235678646Y-61757639D02*
X235419827Y-60791713D01*
X235548794Y-60905053D01*
X235665437Y-60972397D01*
X235769754Y-60993744D01*
X243033093Y-73198038D02*
X243769036Y-73000842D01*
X237237538Y-74750952D02*
X237973481Y-74553756D01*
X237704107Y-75020326D02*
X237506912Y-74284382D01*
%TO.C,MX12*%
X257202403Y-55997233D02*
X256943584Y-55031308D01*
X256806479Y-55807528D01*
X256299633Y-55203854D01*
X256558452Y-56169779D01*
X255931661Y-55302451D02*
X255546530Y-56440923D01*
X255287711Y-55474997D02*
X256190480Y-56268377D01*
X254672597Y-56675093D02*
X255224554Y-56527196D01*
X254948576Y-56601145D02*
X254689757Y-55635219D01*
X254818724Y-55748559D01*
X254935366Y-55815902D01*
X255039684Y-55837249D01*
X254070456Y-55899758D02*
X254012134Y-55866086D01*
X253907817Y-55844739D01*
X253677834Y-55906362D01*
X253598166Y-55977008D01*
X253564494Y-56035330D01*
X253543147Y-56139647D01*
X253567797Y-56231640D01*
X253650767Y-56357305D01*
X254350622Y-56761366D01*
X253752668Y-56921587D01*
X261383093Y-68288038D02*
X262119036Y-68090842D01*
X255587538Y-69840952D02*
X256323481Y-69643756D01*
X256054107Y-70110326D02*
X255856912Y-69374382D01*
%TO.C,MX13*%
X38141335Y-75259262D02*
X38400154Y-74293337D01*
X37893308Y-74897011D01*
X37756204Y-74120791D01*
X37497384Y-75086716D01*
X37388232Y-74022193D02*
X36485462Y-74815573D01*
X36744281Y-73849647D02*
X37129413Y-74988119D01*
X35611529Y-74581403D02*
X36163487Y-74729300D01*
X35887508Y-74655351D02*
X36146327Y-73689426D01*
X36201346Y-73852064D01*
X36268689Y-73968707D01*
X36348358Y-74039353D01*
X35548373Y-73529204D02*
X34950419Y-73368983D01*
X35173797Y-73823228D01*
X35035807Y-73786254D01*
X34931489Y-73807601D01*
X34873168Y-73841272D01*
X34802522Y-73920941D01*
X34740899Y-74150923D01*
X34762246Y-74255241D01*
X34795918Y-74313562D01*
X34875586Y-74384208D01*
X35151565Y-74458156D01*
X35255882Y-74436809D01*
X35314203Y-74403137D01*
X35616518Y-87993756D02*
X36352461Y-88190952D01*
X29820963Y-86440842D02*
X30556906Y-86638038D01*
X30090337Y-86907412D02*
X30287532Y-86171468D01*
%TO.C,MX14*%
X56491335Y-80179262D02*
X56750154Y-79213337D01*
X56243308Y-79817011D01*
X56106204Y-79040791D01*
X55847384Y-80006716D01*
X55738232Y-78942193D02*
X54835462Y-79735573D01*
X55094281Y-78769647D02*
X55479413Y-79908119D01*
X53961529Y-79501403D02*
X54513487Y-79649300D01*
X54237508Y-79575351D02*
X54496327Y-78609426D01*
X54551346Y-78772064D01*
X54618689Y-78888707D01*
X54698358Y-78959353D01*
X53306139Y-78635608D02*
X53133593Y-79279558D01*
X53634719Y-78329259D02*
X53679831Y-79080830D01*
X53081876Y-78920609D01*
X53966518Y-92913756D02*
X54702461Y-93110952D01*
X48170963Y-91360842D02*
X48906906Y-91558038D01*
X48440337Y-91827412D02*
X48637532Y-91091468D01*
%TO.C,MX16*%
X97861335Y-72629262D02*
X98120154Y-71663337D01*
X97613308Y-72267011D01*
X97476204Y-71490791D01*
X97217384Y-72456716D01*
X97108232Y-71392193D02*
X96205462Y-72185573D01*
X96464281Y-71219647D02*
X96849413Y-72358119D01*
X95331529Y-71951403D02*
X95883487Y-72099300D01*
X95607508Y-72025351D02*
X95866327Y-71059426D01*
X95921346Y-71222064D01*
X95988689Y-71338707D01*
X96068358Y-71409353D01*
X94762412Y-70763632D02*
X94946398Y-70812931D01*
X95026066Y-70883577D01*
X95059738Y-70941898D01*
X95114757Y-71104537D01*
X95111454Y-71300848D01*
X95012856Y-71668819D01*
X94942210Y-71748488D01*
X94883889Y-71782159D01*
X94779572Y-71803506D01*
X94595586Y-71754208D01*
X94515918Y-71683562D01*
X94482246Y-71625241D01*
X94460899Y-71520923D01*
X94522522Y-71290941D01*
X94593168Y-71211272D01*
X94651489Y-71177601D01*
X94755807Y-71156254D01*
X94939793Y-71205552D01*
X95019461Y-71276198D01*
X95053133Y-71334519D01*
X95074480Y-71438837D01*
X95336518Y-85363756D02*
X96072461Y-85560952D01*
X89540963Y-83810842D02*
X90276906Y-84008038D01*
X89810337Y-84277412D02*
X90007532Y-83541468D01*
%TO.C,MX17*%
X114531335Y-83819262D02*
X114790154Y-82853337D01*
X114283308Y-83457011D01*
X114146204Y-82680791D01*
X113887384Y-83646716D01*
X113778232Y-82582193D02*
X112875462Y-83375573D01*
X113134281Y-82409647D02*
X113519413Y-83548119D01*
X112001529Y-83141403D02*
X112553487Y-83289300D01*
X112277508Y-83215351D02*
X112536327Y-82249426D01*
X112591346Y-82412064D01*
X112658689Y-82528707D01*
X112738358Y-82599353D01*
X111938373Y-82089204D02*
X111294422Y-81916658D01*
X111449572Y-82993506D01*
X112006518Y-96553756D02*
X112742461Y-96750952D01*
X106210963Y-95000842D02*
X106946906Y-95198038D01*
X106480337Y-95467412D02*
X106677532Y-94731468D01*
%TO.C,MX18*%
X132231335Y-91149262D02*
X132490154Y-90183337D01*
X131983308Y-90787011D01*
X131846204Y-90010791D01*
X131587384Y-90976716D01*
X131478232Y-89912193D02*
X130575462Y-90705573D01*
X130834281Y-89739647D02*
X131219413Y-90878119D01*
X129701529Y-90471403D02*
X130253487Y-90619300D01*
X129977508Y-90545351D02*
X130236327Y-89579426D01*
X130291346Y-89742064D01*
X130358689Y-89858707D01*
X130438358Y-89929353D01*
X129297468Y-89771549D02*
X129401786Y-89750202D01*
X129460107Y-89716530D01*
X129530753Y-89636862D01*
X129543078Y-89590865D01*
X129521731Y-89486548D01*
X129488059Y-89428227D01*
X129408391Y-89357581D01*
X129224405Y-89308282D01*
X129120087Y-89329629D01*
X129061766Y-89363301D01*
X128991120Y-89442969D01*
X128978795Y-89488965D01*
X129000142Y-89593283D01*
X129033814Y-89651604D01*
X129113482Y-89722250D01*
X129297468Y-89771549D01*
X129377136Y-89842195D01*
X129410808Y-89900516D01*
X129432155Y-90004834D01*
X129382856Y-90188819D01*
X129312210Y-90268488D01*
X129253889Y-90302159D01*
X129149572Y-90323506D01*
X128965586Y-90274208D01*
X128885918Y-90203562D01*
X128852246Y-90145241D01*
X128830899Y-90040923D01*
X128880198Y-89856937D01*
X128950844Y-89777269D01*
X129009165Y-89743597D01*
X129113482Y-89722250D01*
X129706518Y-103883756D02*
X130442461Y-104080952D01*
X123910963Y-102330842D02*
X124646906Y-102528038D01*
X124180337Y-102797412D02*
X124377532Y-102061468D01*
%TO.C,MX19*%
X168032403Y-90237233D02*
X167773584Y-89271308D01*
X167636479Y-90047528D01*
X167129633Y-89443854D01*
X167388452Y-90409779D01*
X166761661Y-89542451D02*
X166376530Y-90680923D01*
X166117711Y-89714997D02*
X167020480Y-90508377D01*
X165502597Y-90915093D02*
X166054554Y-90767196D01*
X165778576Y-90841145D02*
X165519757Y-89875219D01*
X165648724Y-89988559D01*
X165765366Y-90055902D01*
X165869684Y-90077249D01*
X165042632Y-91038340D02*
X164858646Y-91087639D01*
X164754329Y-91066292D01*
X164696007Y-91032620D01*
X164567040Y-90919280D01*
X164471745Y-90747619D01*
X164373147Y-90379647D01*
X164394494Y-90275330D01*
X164428166Y-90217008D01*
X164507834Y-90146362D01*
X164691820Y-90097064D01*
X164796138Y-90118411D01*
X164854459Y-90152082D01*
X164925105Y-90231751D01*
X164986729Y-90461733D01*
X164965382Y-90566051D01*
X164931710Y-90624372D01*
X164852042Y-90695018D01*
X164668056Y-90744317D01*
X164563738Y-90722970D01*
X164505417Y-90689298D01*
X164434771Y-90609630D01*
X172213093Y-102528038D02*
X172949036Y-102330842D01*
X166417538Y-104080952D02*
X167153481Y-103883756D01*
X166884107Y-104350326D02*
X166686912Y-103614382D01*
%TO.C,MX20*%
X185732403Y-82907233D02*
X185473584Y-81941308D01*
X185336479Y-82717528D01*
X184829633Y-82113854D01*
X185088452Y-83079779D01*
X184461661Y-82212451D02*
X184076530Y-83350923D01*
X183817711Y-82384997D02*
X184720480Y-83178377D01*
X183520385Y-82563263D02*
X183462064Y-82529592D01*
X183357746Y-82508245D01*
X183127764Y-82569868D01*
X183048095Y-82640514D01*
X183014424Y-82698835D01*
X182993077Y-82803153D01*
X183017726Y-82895146D01*
X183100697Y-83020811D01*
X183800551Y-83424872D01*
X183202597Y-83585093D01*
X182345824Y-82779388D02*
X182253831Y-82804038D01*
X182174163Y-82874684D01*
X182140491Y-82933005D01*
X182119144Y-83037322D01*
X182122446Y-83233633D01*
X182184070Y-83463615D01*
X182279365Y-83635277D01*
X182350011Y-83714945D01*
X182408332Y-83748617D01*
X182512650Y-83769964D01*
X182604643Y-83745314D01*
X182684311Y-83674668D01*
X182717983Y-83616347D01*
X182739330Y-83512029D01*
X182736027Y-83315719D01*
X182674404Y-83085736D01*
X182579108Y-82914075D01*
X182508463Y-82834407D01*
X182450141Y-82800735D01*
X182345824Y-82779388D01*
X189913093Y-95198038D02*
X190649036Y-95000842D01*
X184117538Y-96750952D02*
X184853481Y-96553756D01*
X184584107Y-97020326D02*
X184386912Y-96284382D01*
%TO.C,MX21*%
X202402403Y-71717233D02*
X202143584Y-70751308D01*
X202006479Y-71527528D01*
X201499633Y-70923854D01*
X201758452Y-71889779D01*
X201131661Y-71022451D02*
X200746530Y-72160923D01*
X200487711Y-71194997D02*
X201390480Y-71988377D01*
X200190385Y-71373263D02*
X200132064Y-71339592D01*
X200027746Y-71318245D01*
X199797764Y-71379868D01*
X199718095Y-71450514D01*
X199684424Y-71508835D01*
X199663077Y-71613153D01*
X199687726Y-71705146D01*
X199770697Y-71830811D01*
X200470551Y-72234872D01*
X199872597Y-72395093D01*
X198952668Y-72641587D02*
X199504625Y-72493691D01*
X199228646Y-72567639D02*
X198969827Y-71601713D01*
X199098794Y-71715053D01*
X199215437Y-71782397D01*
X199319754Y-71803744D01*
X206583093Y-84008038D02*
X207319036Y-83810842D01*
X200787538Y-85560952D02*
X201523481Y-85363756D01*
X201254107Y-85830326D02*
X201056912Y-85094382D01*
%TO.C,MX22*%
X222312403Y-72587233D02*
X222053584Y-71621308D01*
X221916479Y-72397528D01*
X221409633Y-71793854D01*
X221668452Y-72759779D01*
X221041661Y-71892451D02*
X220656530Y-73030923D01*
X220397711Y-72064997D02*
X221300480Y-72858377D01*
X220100385Y-72243263D02*
X220042064Y-72209592D01*
X219937746Y-72188245D01*
X219707764Y-72249868D01*
X219628095Y-72320514D01*
X219594424Y-72378835D01*
X219573077Y-72483153D01*
X219597726Y-72575146D01*
X219680697Y-72700811D01*
X220380551Y-73104872D01*
X219782597Y-73265093D01*
X219180456Y-72489758D02*
X219122134Y-72456086D01*
X219017817Y-72434739D01*
X218787834Y-72496362D01*
X218708166Y-72567008D01*
X218674494Y-72625330D01*
X218653147Y-72729647D01*
X218677797Y-72821640D01*
X218760767Y-72947305D01*
X219460622Y-73351366D01*
X218862668Y-73511587D01*
X226493093Y-84878038D02*
X227229036Y-84680842D01*
X220697538Y-86430952D02*
X221433481Y-86233756D01*
X221164107Y-86700326D02*
X220966912Y-85964382D01*
%TO.C,MX23*%
X243772403Y-79267233D02*
X243513584Y-78301308D01*
X243376479Y-79077528D01*
X242869633Y-78473854D01*
X243128452Y-79439779D01*
X242501661Y-78572451D02*
X242116530Y-79710923D01*
X241857711Y-78744997D02*
X242760480Y-79538377D01*
X241560385Y-78923263D02*
X241502064Y-78889592D01*
X241397746Y-78868245D01*
X241167764Y-78929868D01*
X241088095Y-79000514D01*
X241054424Y-79058835D01*
X241033077Y-79163153D01*
X241057726Y-79255146D01*
X241140697Y-79380811D01*
X241840551Y-79784872D01*
X241242597Y-79945093D01*
X240661803Y-79065440D02*
X240063848Y-79225661D01*
X240484421Y-79507360D01*
X240346432Y-79544334D01*
X240266764Y-79614980D01*
X240233092Y-79673301D01*
X240211745Y-79777619D01*
X240273369Y-80007601D01*
X240344015Y-80087270D01*
X240402336Y-80120941D01*
X240506653Y-80142288D01*
X240782632Y-80068340D01*
X240862300Y-79997694D01*
X240895972Y-79939373D01*
X247953093Y-91558038D02*
X248689036Y-91360842D01*
X242157538Y-93110952D02*
X242893481Y-92913756D01*
X242624107Y-93380326D02*
X242426912Y-92644382D01*
%TO.C,MX24*%
X262122403Y-74347233D02*
X261863584Y-73381308D01*
X261726479Y-74157528D01*
X261219633Y-73553854D01*
X261478452Y-74519779D01*
X260851661Y-73652451D02*
X260466530Y-74790923D01*
X260207711Y-73824997D02*
X261110480Y-74618377D01*
X259910385Y-74003263D02*
X259852064Y-73969592D01*
X259747746Y-73948245D01*
X259517764Y-74009868D01*
X259438095Y-74080514D01*
X259404424Y-74138835D01*
X259383077Y-74243153D01*
X259407726Y-74335146D01*
X259490697Y-74460811D01*
X260190551Y-74864872D01*
X259592597Y-75025093D01*
X258592114Y-74602987D02*
X258764660Y-75246938D01*
X258723499Y-74173392D02*
X259138352Y-74801715D01*
X258540398Y-74961937D01*
X266303093Y-86638038D02*
X267039036Y-86440842D01*
X260507538Y-88190952D02*
X261243481Y-87993756D01*
X260974107Y-88460326D02*
X260776912Y-87724382D01*
%TO.C,MX25*%
X33221335Y-93609262D02*
X33480154Y-92643337D01*
X32973308Y-93247011D01*
X32836204Y-92470791D01*
X32577384Y-93436716D01*
X32468232Y-92372193D02*
X31565462Y-93165573D01*
X31824281Y-92199647D02*
X32209413Y-93338119D01*
X31477656Y-92205367D02*
X31443985Y-92147046D01*
X31364317Y-92076400D01*
X31134334Y-92014776D01*
X31030017Y-92036123D01*
X30971695Y-92069795D01*
X30901049Y-92149463D01*
X30876400Y-92241456D01*
X30885422Y-92391770D01*
X31289483Y-93091624D01*
X30691529Y-92931403D01*
X30076415Y-91731308D02*
X30536380Y-91854555D01*
X30459129Y-92326844D01*
X30425458Y-92268523D01*
X30345789Y-92197877D01*
X30115807Y-92136254D01*
X30011489Y-92157601D01*
X29953168Y-92191272D01*
X29882522Y-92270941D01*
X29820899Y-92500923D01*
X29842246Y-92605241D01*
X29875918Y-92663562D01*
X29955586Y-92734208D01*
X30185568Y-92795831D01*
X30289886Y-92774484D01*
X30348207Y-92740812D01*
X30696518Y-106343756D02*
X31432461Y-106540952D01*
X24900963Y-104790842D02*
X25636906Y-104988038D01*
X25170337Y-105257412D02*
X25367532Y-104521468D01*
%TO.C,MX26*%
X51581335Y-98529262D02*
X51840154Y-97563337D01*
X51333308Y-98167011D01*
X51196204Y-97390791D01*
X50937384Y-98356716D01*
X50828232Y-97292193D02*
X49925462Y-98085573D01*
X50184281Y-97119647D02*
X50569413Y-98258119D01*
X49837656Y-97125367D02*
X49803985Y-97067046D01*
X49724317Y-96996400D01*
X49494334Y-96934776D01*
X49390017Y-96956123D01*
X49331695Y-96989795D01*
X49261049Y-97069463D01*
X49236400Y-97161456D01*
X49245422Y-97311770D01*
X49649483Y-98011624D01*
X49051529Y-97851403D01*
X48482412Y-96663632D02*
X48666398Y-96712931D01*
X48746066Y-96783577D01*
X48779738Y-96841898D01*
X48834757Y-97004537D01*
X48831454Y-97200848D01*
X48732856Y-97568819D01*
X48662210Y-97648488D01*
X48603889Y-97682159D01*
X48499572Y-97703506D01*
X48315586Y-97654208D01*
X48235918Y-97583562D01*
X48202246Y-97525241D01*
X48180899Y-97420923D01*
X48242522Y-97190941D01*
X48313168Y-97111272D01*
X48371489Y-97077601D01*
X48475807Y-97056254D01*
X48659793Y-97105552D01*
X48739461Y-97176198D01*
X48773133Y-97234519D01*
X48794480Y-97338837D01*
X49056518Y-111263756D02*
X49792461Y-111460952D01*
X43260963Y-109710842D02*
X43996906Y-109908038D01*
X43530337Y-110177412D02*
X43727532Y-109441468D01*
%TO.C,MX27*%
X73031335Y-91859262D02*
X73290154Y-90893337D01*
X72783308Y-91497011D01*
X72646204Y-90720791D01*
X72387384Y-91686716D01*
X72278232Y-90622193D02*
X71375462Y-91415573D01*
X71634281Y-90449647D02*
X72019413Y-91588119D01*
X71287656Y-90455367D02*
X71253985Y-90397046D01*
X71174317Y-90326400D01*
X70944334Y-90264776D01*
X70840017Y-90286123D01*
X70781695Y-90319795D01*
X70711049Y-90399463D01*
X70686400Y-90491456D01*
X70695422Y-90641770D01*
X71099483Y-91341624D01*
X70501529Y-91181403D01*
X70438373Y-90129204D02*
X69794422Y-89956658D01*
X69949572Y-91033506D01*
X70506518Y-104593756D02*
X71242461Y-104790952D01*
X64710963Y-103040842D02*
X65446906Y-103238038D01*
X64980337Y-103507412D02*
X65177532Y-102771468D01*
%TO.C,MX28*%
X92941335Y-90979262D02*
X93200154Y-90013337D01*
X92693308Y-90617011D01*
X92556204Y-89840791D01*
X92297384Y-90806716D01*
X92188232Y-89742193D02*
X91285462Y-90535573D01*
X91544281Y-89569647D02*
X91929413Y-90708119D01*
X91197656Y-89575367D02*
X91163985Y-89517046D01*
X91084317Y-89446400D01*
X90854334Y-89384776D01*
X90750017Y-89406123D01*
X90691695Y-89439795D01*
X90621049Y-89519463D01*
X90596400Y-89611456D01*
X90605422Y-89761770D01*
X91009483Y-90461624D01*
X90411529Y-90301403D01*
X90007468Y-89601549D02*
X90111786Y-89580202D01*
X90170107Y-89546530D01*
X90240753Y-89466862D01*
X90253078Y-89420865D01*
X90231731Y-89316548D01*
X90198059Y-89258227D01*
X90118391Y-89187581D01*
X89934405Y-89138282D01*
X89830087Y-89159629D01*
X89771766Y-89193301D01*
X89701120Y-89272969D01*
X89688795Y-89318965D01*
X89710142Y-89423283D01*
X89743814Y-89481604D01*
X89823482Y-89552250D01*
X90007468Y-89601549D01*
X90087136Y-89672195D01*
X90120808Y-89730516D01*
X90142155Y-89834834D01*
X90092856Y-90018819D01*
X90022210Y-90098488D01*
X89963889Y-90132159D01*
X89859572Y-90153506D01*
X89675586Y-90104208D01*
X89595918Y-90033562D01*
X89562246Y-89975241D01*
X89540899Y-89870923D01*
X89590198Y-89686937D01*
X89660844Y-89607269D01*
X89719165Y-89573597D01*
X89823482Y-89552250D01*
X90416518Y-103713756D02*
X91152461Y-103910952D01*
X84620963Y-102160842D02*
X85356906Y-102358038D01*
X84890337Y-102627412D02*
X85087532Y-101891468D01*
%TO.C,MX29*%
X109611335Y-102169262D02*
X109870154Y-101203337D01*
X109363308Y-101807011D01*
X109226204Y-101030791D01*
X108967384Y-101996716D01*
X108858232Y-100932193D02*
X107955462Y-101725573D01*
X108214281Y-100759647D02*
X108599413Y-101898119D01*
X107867656Y-100765367D02*
X107833985Y-100707046D01*
X107754317Y-100636400D01*
X107524334Y-100574776D01*
X107420017Y-100596123D01*
X107361695Y-100629795D01*
X107291049Y-100709463D01*
X107266400Y-100801456D01*
X107275422Y-100951770D01*
X107679483Y-101651624D01*
X107081529Y-101491403D01*
X106621565Y-101368156D02*
X106437579Y-101318857D01*
X106357911Y-101248211D01*
X106324239Y-101189890D01*
X106269220Y-101027251D01*
X106272522Y-100830941D01*
X106371120Y-100462969D01*
X106441766Y-100383301D01*
X106500087Y-100349629D01*
X106604405Y-100328282D01*
X106788391Y-100377581D01*
X106868059Y-100448227D01*
X106901731Y-100506548D01*
X106923078Y-100610865D01*
X106861454Y-100840848D01*
X106790808Y-100920516D01*
X106732487Y-100954188D01*
X106628169Y-100975535D01*
X106444184Y-100926236D01*
X106364515Y-100855590D01*
X106330844Y-100797269D01*
X106309497Y-100692951D01*
X107086518Y-114903756D02*
X107822461Y-115100952D01*
X101290963Y-113350842D02*
X102026906Y-113548038D01*
X101560337Y-113817412D02*
X101757532Y-113081468D01*
%TO.C,MX30*%
X127311335Y-109509262D02*
X127570154Y-108543337D01*
X127063308Y-109147011D01*
X126926204Y-108370791D01*
X126667384Y-109336716D01*
X126558232Y-108272193D02*
X125655462Y-109065573D01*
X125914281Y-108099647D02*
X126299413Y-109238119D01*
X125638302Y-108025699D02*
X125040348Y-107865477D01*
X125263726Y-108319722D01*
X125125736Y-108282748D01*
X125021419Y-108304095D01*
X124963098Y-108337767D01*
X124892452Y-108417435D01*
X124830828Y-108647417D01*
X124852175Y-108751735D01*
X124885847Y-108810056D01*
X124965515Y-108880702D01*
X125241494Y-108954650D01*
X125345812Y-108933303D01*
X125404133Y-108899631D01*
X124442394Y-107705256D02*
X124350401Y-107680606D01*
X124246084Y-107701954D01*
X124187762Y-107735625D01*
X124117117Y-107815293D01*
X124021821Y-107986955D01*
X123960198Y-108216937D01*
X123956895Y-108413248D01*
X123978242Y-108517565D01*
X124011914Y-108575886D01*
X124091582Y-108646532D01*
X124183575Y-108671182D01*
X124287893Y-108649835D01*
X124346214Y-108616163D01*
X124416860Y-108536495D01*
X124512155Y-108364834D01*
X124573779Y-108134851D01*
X124577081Y-107938541D01*
X124555734Y-107834223D01*
X124522062Y-107775902D01*
X124442394Y-107705256D01*
X124786518Y-122243756D02*
X125522461Y-122440952D01*
X118990963Y-120690842D02*
X119726906Y-120888038D01*
X119260337Y-121157412D02*
X119457532Y-120421468D01*
%TO.C,MX31*%
X172952403Y-108597233D02*
X172693584Y-107631308D01*
X172556479Y-108407528D01*
X172049633Y-107803854D01*
X172308452Y-108769779D01*
X171681661Y-107902451D02*
X171296530Y-109040923D01*
X171037711Y-108074997D02*
X171940480Y-108868377D01*
X170761732Y-108148946D02*
X170163778Y-108309167D01*
X170584351Y-108590866D01*
X170446361Y-108627840D01*
X170366693Y-108698486D01*
X170333021Y-108756807D01*
X170311674Y-108861125D01*
X170373298Y-109091107D01*
X170443944Y-109170775D01*
X170502265Y-109204447D01*
X170606583Y-109225794D01*
X170882562Y-109151846D01*
X170962230Y-109081200D01*
X170995902Y-109022879D01*
X169502668Y-109521587D02*
X170054625Y-109373691D01*
X169778646Y-109447639D02*
X169519827Y-108481713D01*
X169648794Y-108595053D01*
X169765437Y-108662397D01*
X169869754Y-108683744D01*
X177133093Y-120888038D02*
X177869036Y-120690842D01*
X171337538Y-122440952D02*
X172073481Y-122243756D01*
X171804107Y-122710326D02*
X171606912Y-121974382D01*
%TO.C,MX32*%
X190652403Y-101257233D02*
X190393584Y-100291308D01*
X190256479Y-101067528D01*
X189749633Y-100463854D01*
X190008452Y-101429779D01*
X189381661Y-100562451D02*
X188996530Y-101700923D01*
X188737711Y-100734997D02*
X189640480Y-101528377D01*
X188461732Y-100808946D02*
X187863778Y-100969167D01*
X188284351Y-101250866D01*
X188146361Y-101287840D01*
X188066693Y-101358486D01*
X188033021Y-101416807D01*
X188011674Y-101521125D01*
X188073298Y-101751107D01*
X188143944Y-101830775D01*
X188202265Y-101864447D01*
X188306583Y-101885794D01*
X188582562Y-101811846D01*
X188662230Y-101741200D01*
X188695902Y-101682879D01*
X187520456Y-101159758D02*
X187462134Y-101126086D01*
X187357817Y-101104739D01*
X187127834Y-101166362D01*
X187048166Y-101237008D01*
X187014494Y-101295330D01*
X186993147Y-101399647D01*
X187017797Y-101491640D01*
X187100767Y-101617305D01*
X187800622Y-102021366D01*
X187202668Y-102181587D01*
X194833093Y-113548038D02*
X195569036Y-113350842D01*
X189037538Y-115100952D02*
X189773481Y-114903756D01*
X189504107Y-115370326D02*
X189306912Y-114634382D01*
%TO.C,MX33*%
X207322403Y-90067233D02*
X207063584Y-89101308D01*
X206926479Y-89877528D01*
X206419633Y-89273854D01*
X206678452Y-90239779D01*
X206051661Y-89372451D02*
X205666530Y-90510923D01*
X205407711Y-89544997D02*
X206310480Y-90338377D01*
X205131732Y-89618946D02*
X204533778Y-89779167D01*
X204954351Y-90060866D01*
X204816361Y-90097840D01*
X204736693Y-90168486D01*
X204703021Y-90226807D01*
X204681674Y-90331125D01*
X204743298Y-90561107D01*
X204813944Y-90640775D01*
X204872265Y-90674447D01*
X204976583Y-90695794D01*
X205252562Y-90621846D01*
X205332230Y-90551200D01*
X205365902Y-90492879D01*
X204211803Y-89865440D02*
X203613848Y-90025661D01*
X204034421Y-90307360D01*
X203896432Y-90344334D01*
X203816764Y-90414980D01*
X203783092Y-90473301D01*
X203761745Y-90577619D01*
X203823369Y-90807601D01*
X203894015Y-90887270D01*
X203952336Y-90920941D01*
X204056653Y-90942288D01*
X204332632Y-90868340D01*
X204412300Y-90797694D01*
X204445972Y-90739373D01*
X211503093Y-102358038D02*
X212239036Y-102160842D01*
X205707538Y-103910952D02*
X206443481Y-103713756D01*
X206174107Y-104180326D02*
X205976912Y-103444382D01*
%TO.C,MX34*%
X227232403Y-90947233D02*
X226973584Y-89981308D01*
X226836479Y-90757528D01*
X226329633Y-90153854D01*
X226588452Y-91119779D01*
X225961661Y-90252451D02*
X225576530Y-91390923D01*
X225317711Y-90424997D02*
X226220480Y-91218377D01*
X225041732Y-90498946D02*
X224443778Y-90659167D01*
X224864351Y-90940866D01*
X224726361Y-90977840D01*
X224646693Y-91048486D01*
X224613021Y-91106807D01*
X224591674Y-91211125D01*
X224653298Y-91441107D01*
X224723944Y-91520775D01*
X224782265Y-91554447D01*
X224886583Y-91575794D01*
X225162562Y-91501846D01*
X225242230Y-91431200D01*
X225275902Y-91372879D01*
X223702114Y-91202987D02*
X223874660Y-91846938D01*
X223833499Y-90773392D02*
X224248352Y-91401715D01*
X223650398Y-91561937D01*
X231413093Y-103238038D02*
X232149036Y-103040842D01*
X225617538Y-104790952D02*
X226353481Y-104593756D01*
X226084107Y-105060326D02*
X225886912Y-104324382D01*
%TO.C,MX35*%
X248682403Y-97617233D02*
X248423584Y-96651308D01*
X248286479Y-97427528D01*
X247779633Y-96823854D01*
X248038452Y-97789779D01*
X247411661Y-96922451D02*
X247026530Y-98060923D01*
X246767711Y-97094997D02*
X247670480Y-97888377D01*
X246491732Y-97168946D02*
X245893778Y-97329167D01*
X246314351Y-97610866D01*
X246176361Y-97647840D01*
X246096693Y-97718486D01*
X246063021Y-97776807D01*
X246041674Y-97881125D01*
X246103298Y-98111107D01*
X246173944Y-98190775D01*
X246232265Y-98224447D01*
X246336583Y-98245794D01*
X246612562Y-98171846D01*
X246692230Y-98101200D01*
X246725902Y-98042879D01*
X245019845Y-97563337D02*
X245479810Y-97440089D01*
X245649053Y-97887729D01*
X245590732Y-97854058D01*
X245486414Y-97832711D01*
X245256432Y-97894334D01*
X245176764Y-97964980D01*
X245143092Y-98023301D01*
X245121745Y-98127619D01*
X245183369Y-98357601D01*
X245254015Y-98437270D01*
X245312336Y-98470941D01*
X245416653Y-98492288D01*
X245646636Y-98430665D01*
X245726304Y-98360019D01*
X245759976Y-98301698D01*
X252863093Y-109908038D02*
X253599036Y-109710842D01*
X247067538Y-111460952D02*
X247803481Y-111263756D01*
X247534107Y-111730326D02*
X247336912Y-110994382D01*
%TO.C,MX36*%
X267042403Y-92697233D02*
X266783584Y-91731308D01*
X266646479Y-92507528D01*
X266139633Y-91903854D01*
X266398452Y-92869779D01*
X265771661Y-92002451D02*
X265386530Y-93140923D01*
X265127711Y-92174997D02*
X266030480Y-92968377D01*
X264851732Y-92248946D02*
X264253778Y-92409167D01*
X264674351Y-92690866D01*
X264536361Y-92727840D01*
X264456693Y-92798486D01*
X264423021Y-92856807D01*
X264401674Y-92961125D01*
X264463298Y-93191107D01*
X264533944Y-93270775D01*
X264592265Y-93304447D01*
X264696583Y-93325794D01*
X264972562Y-93251846D01*
X265052230Y-93181200D01*
X265085902Y-93122879D01*
X263425841Y-92631012D02*
X263609827Y-92581713D01*
X263714145Y-92603060D01*
X263772466Y-92636732D01*
X263901433Y-92750072D01*
X263996729Y-92921733D01*
X264095326Y-93289705D01*
X264073979Y-93394022D01*
X264040307Y-93452344D01*
X263960639Y-93522989D01*
X263776653Y-93572288D01*
X263672336Y-93550941D01*
X263614015Y-93517270D01*
X263543369Y-93437601D01*
X263481745Y-93207619D01*
X263503092Y-93103301D01*
X263536764Y-93044980D01*
X263616432Y-92974334D01*
X263800418Y-92925035D01*
X263904736Y-92946382D01*
X263963057Y-92980054D01*
X264033703Y-93059722D01*
X271223093Y-104988038D02*
X271959036Y-104790842D01*
X265427538Y-106540952D02*
X266163481Y-106343756D01*
X265894107Y-106810326D02*
X265696912Y-106074382D01*
%TO.C,MX37*%
X95261335Y-119029262D02*
X95520154Y-118063337D01*
X95013308Y-118667011D01*
X94876204Y-117890791D01*
X94617384Y-118856716D01*
X94508232Y-117792193D02*
X93605462Y-118585573D01*
X93864281Y-117619647D02*
X94249413Y-118758119D01*
X93588302Y-117545699D02*
X92990348Y-117385477D01*
X93213726Y-117839722D01*
X93075736Y-117802748D01*
X92971419Y-117824095D01*
X92913098Y-117857767D01*
X92842452Y-117937435D01*
X92780828Y-118167417D01*
X92802175Y-118271735D01*
X92835847Y-118330056D01*
X92915515Y-118400702D01*
X93191494Y-118474650D01*
X93295812Y-118453303D01*
X93354133Y-118419631D01*
X92668373Y-117299204D02*
X92024422Y-117126658D01*
X92179572Y-118203506D01*
X92736518Y-131763756D02*
X93472461Y-131960952D01*
X86940963Y-130210842D02*
X87676906Y-130408038D01*
X87210337Y-130677412D02*
X87407532Y-129941468D01*
%TO.C,MX38*%
X116617163Y-128383685D02*
X117117163Y-127517660D01*
X116471345Y-127969583D01*
X116539813Y-127184327D01*
X116039813Y-128050352D01*
X116209899Y-126993850D02*
X115132548Y-127526542D01*
X115632548Y-126660517D02*
X115709899Y-127859876D01*
X115385112Y-126517660D02*
X114849002Y-126208136D01*
X114947200Y-126704717D01*
X114823483Y-126633289D01*
X114717194Y-126626909D01*
X114652146Y-126644339D01*
X114563287Y-126703008D01*
X114444240Y-126909204D01*
X114437860Y-127015492D01*
X114455290Y-127080541D01*
X114513959Y-127169400D01*
X114761395Y-127312257D01*
X114867683Y-127318636D01*
X114932732Y-127301207D01*
X114139844Y-126293576D02*
X114246132Y-126299955D01*
X114311181Y-126282525D01*
X114400039Y-126223856D01*
X114423849Y-126182617D01*
X114430229Y-126076329D01*
X114412799Y-126011280D01*
X114354130Y-125922422D01*
X114189173Y-125827184D01*
X114082885Y-125820804D01*
X114017836Y-125838234D01*
X113928977Y-125896903D01*
X113905168Y-125938142D01*
X113898788Y-126044430D01*
X113916218Y-126109479D01*
X113974887Y-126198337D01*
X114139844Y-126293576D01*
X114198513Y-126382434D01*
X114215943Y-126447483D01*
X114209563Y-126553771D01*
X114114325Y-126718728D01*
X114025467Y-126777397D01*
X113960418Y-126794827D01*
X113854130Y-126788447D01*
X113689173Y-126693209D01*
X113630504Y-126604351D01*
X113613074Y-126539302D01*
X113619454Y-126433014D01*
X113714692Y-126268057D01*
X113803550Y-126209387D01*
X113868599Y-126191958D01*
X113974887Y-126198337D01*
X110882447Y-140030791D02*
X111542276Y-140411744D01*
X105686295Y-137030791D02*
X106346124Y-137411744D01*
X105825733Y-137551182D02*
X106206685Y-136891353D01*
%TO.C,MX39*%
X134833139Y-142938570D02*
X135540245Y-142231463D01*
X134799467Y-142500837D01*
X135068841Y-141760059D01*
X134361734Y-142467165D01*
X134799467Y-141490685D02*
X133620956Y-141726387D01*
X134328062Y-141019280D02*
X134092360Y-142197791D01*
X134126032Y-140817250D02*
X133688299Y-140379517D01*
X133654627Y-140884593D01*
X133553612Y-140783578D01*
X133452597Y-140749906D01*
X133385253Y-140749906D01*
X133284238Y-140783578D01*
X133115879Y-140951937D01*
X133082208Y-141052952D01*
X133082208Y-141120295D01*
X133115879Y-141221311D01*
X133317910Y-141423341D01*
X133418925Y-141457013D01*
X133486269Y-141457013D01*
X132644475Y-140749906D02*
X132509788Y-140615219D01*
X132476116Y-140514204D01*
X132476116Y-140446860D01*
X132509788Y-140278502D01*
X132610803Y-140110143D01*
X132880177Y-139840769D01*
X132981192Y-139807097D01*
X133048536Y-139807097D01*
X133149551Y-139840769D01*
X133284238Y-139975456D01*
X133317910Y-140076471D01*
X133317910Y-140143815D01*
X133284238Y-140244830D01*
X133115879Y-140413189D01*
X133014864Y-140446860D01*
X132947521Y-140446860D01*
X132846505Y-140413189D01*
X132711818Y-140278502D01*
X132678147Y-140177486D01*
X132678147Y-140110143D01*
X132711818Y-140009128D01*
X126279336Y-152704556D02*
X126818084Y-153243304D01*
X122036695Y-148461915D02*
X122575443Y-149000663D01*
X122036695Y-149000663D02*
X122575443Y-148461915D01*
%TO.C,MX41*%
X183294544Y-126621781D02*
X182794544Y-125755755D01*
X182863012Y-126541011D01*
X182217194Y-126089088D01*
X182717194Y-126955114D01*
X181887280Y-126279565D02*
X181809929Y-127478923D01*
X181309929Y-126612898D02*
X182387280Y-127145590D01*
X180775528Y-127306335D02*
X181108861Y-127883685D01*
X180791248Y-126857373D02*
X181354587Y-127356915D01*
X180818477Y-127666439D01*
X180201596Y-128407495D02*
X180696468Y-128121781D01*
X180449032Y-128264638D02*
X179949032Y-127398612D01*
X180102939Y-127474711D01*
X180233037Y-127509571D01*
X180339325Y-127503191D01*
X190513875Y-137411744D02*
X191173704Y-137030791D01*
X185317723Y-140411744D02*
X185977552Y-140030791D01*
X185838114Y-140551182D02*
X185457162Y-139891353D01*
%TO.C,MX42*%
X205002403Y-118117233D02*
X204743584Y-117151308D01*
X204606479Y-117927528D01*
X204099633Y-117323854D01*
X204358452Y-118289779D01*
X203731661Y-117422451D02*
X203346530Y-118560923D01*
X203087711Y-117594997D02*
X203990480Y-118388377D01*
X202392044Y-118126493D02*
X202564590Y-118770443D01*
X202523428Y-117696898D02*
X202938281Y-118325221D01*
X202340327Y-118485442D01*
X201870456Y-118019758D02*
X201812134Y-117986086D01*
X201707817Y-117964739D01*
X201477834Y-118026362D01*
X201398166Y-118097008D01*
X201364494Y-118155330D01*
X201343147Y-118259647D01*
X201367797Y-118351640D01*
X201450767Y-118477305D01*
X202150622Y-118881366D01*
X201552668Y-119041587D01*
X209183093Y-130408038D02*
X209919036Y-130210842D01*
X203387538Y-131960952D02*
X204123481Y-131763756D01*
X203854107Y-132230326D02*
X203656912Y-131494382D01*
%TD*%
M02*
