M48
; DRILL file {KiCad (5.1.6)-1} date 07/11/20 10:24:03
; FORMAT={-:-/ absolute / inch / decimal}
; #@! TF.CreationDate,2020-07-11T10:24:03-05:00
; #@! TF.GenerationSoftware,Kicad,Pcbnew,(5.1.6)-1
FMAT,2
INCH
T1C0.0157
T2C0.0236
T3C0.0256
T4C0.0409
T5C0.0866
T6C0.0689
T7C0.1181
T8C0.1570
%
G90
G05
T1
X1.3248Y-4.1693
X1.4449Y-3.5689
X1.4528Y-3.9567
X1.6181Y-3.5728
X1.6378Y-3.4075
X1.6496Y-3.2283
X1.8425Y-2.5079
X1.9252Y-2.8504
X2.0531Y-2.8484
X2.1752Y-4.1555
X2.2303Y-3.7835
X2.3701Y-3.4331
X2.3898Y-4.6083
X2.4685Y-4.1417
X2.5138Y-2.874
X2.561Y-2.7126
X2.561Y-4.2343
X2.5846Y-3.4488
X2.9232Y-3.0295
X2.9941Y-4.248
X3.0197Y-3.8917
X3.1417Y-4.0807
X3.1693Y-3.5512
X3.2146Y-3.1693
X3.3425Y-3.3563
X3.3543Y-2.7165
X3.4094Y-2.4469
X3.5551Y-2.5925
X3.7185Y-4.2362
X3.7756Y-4.4823
X3.8051Y-3.8583
X3.8976Y-4.9626
X3.9232Y-3.4941
X3.9823Y-3.6161
X3.9961Y-3.1358
X4.0709Y-2.7008
X4.1673Y-2.8642
X4.1909Y-2.4094
X4.3524Y-4.4724
X4.4217Y-5.472
X4.4311Y-4.9665
X4.5098Y-4.0709
X4.561Y-4.9154
X4.6476Y-4.7736
X4.6535Y-3.5768
X4.6949Y-5.3465
X4.8484Y-2.8524
X4.8484Y-4.0217
X5.0354Y-5.5138
X5.0433Y-3.3248
X5.1555Y-4.2421
X5.2579Y-4.1398
X5.3091Y-3.5315
X5.3248Y-5.5512
X5.3524Y-3.8642
X5.374Y-5.5551
X5.3898Y-5.3346
X5.4213Y-5.5513
X5.4252Y-3.4685
X5.4665Y-5.8543
X5.4706Y-5.5455
X5.5335Y-3.7283
X5.5453Y-3.1437
X5.5768Y-2.0374
X5.6161Y-4.1122
X5.6161Y-4.2264
X5.624Y-2.1201
X5.6555Y-4.1516
X5.6555Y-4.2795
X5.7028Y-3.9252
X5.7028Y-4.0079
X5.7559Y-4.5925
X5.7815Y-4.2441
X5.7815Y-4.5138
X5.7816Y-3.2126
X5.8031Y-5.2559
X5.8071Y-2.2343
X5.8231Y-3.2126
X5.8231Y-4.2441
X5.8386Y-4.8819
X5.8386Y-5.1516
X5.8583Y-4.3819
X5.8644Y-3.2126
X5.8644Y-4.2441
X5.874Y-4.7106
X5.9094Y-2.2323
X5.9252Y-5.0394
X5.9488Y-3.0394
X5.9717Y-4.748
X5.9744Y-4.6988
X5.9744Y-5.6457
X5.9902Y-3.378
X6.0152Y-4.7498
X6.0175Y-4.7912
X6.0175Y-4.8613
X6.0197Y-5.4724
X6.0591Y-2.1201
X6.1063Y-2.0374
X6.1319Y-4.9685
X6.1378Y-5.2047
X6.1496Y-5.3425
X6.1555Y-6.0217
X6.1555Y-6.2165
X6.1634Y-5.2441
X6.185Y-5.0768
X6.2067Y-6.0217
X6.2067Y-6.0984
X6.2579Y-6.0984
X6.2598Y-6.0236
X6.2735Y-5.0472
X6.2776Y-4.8602
X6.3051Y-5.3169
X6.3425Y-5.2441
X6.3641Y-5.5375
X6.3681Y-4.498
X6.3742Y-3.2695
X6.4114Y-6.1791
X6.4134Y-4.5276
X6.4252Y-4.4409
X6.4488Y-4.75
X6.4488Y-6.2756
X6.4665Y-4.4744
X6.4724Y-4.8937
X6.5455Y-3.9742
X6.6104Y-6.2167
X6.6535Y-6.1292
X6.685Y-6.0984
X6.7185Y-2.8583
X6.7579Y-3.3524
X6.7776Y-5.4193
X6.9094Y-3.5748
X6.9114Y-5.2461
X6.9213Y-5.7362
X6.9469Y-4.1535
X6.9606Y-3.2421
X7.0512Y-5.8366
X7.1063Y-4.2953
X7.185Y-3.9665
X7.3858Y-4.063
X7.4134Y-4.6713
X7.435Y-2.561
X7.439Y-2.9882
X7.4705Y-3.0354
X7.5256Y-4.939
X7.6181Y-3.2677
X7.6378Y-3.7244
X7.6476Y-2.9882
X7.6614Y-4.8937
X7.6634Y-3.8228
X7.752Y-5.439
X7.7953Y-4.5453
X7.8051Y-4.4567
X7.813Y-3.9902
X7.8287Y-3.6969
X7.9134Y-4.5453
X8.0945Y-2.1102
X8.1142Y-2.5945
X8.2835Y-2.8268
X8.3012Y-3.3209
X8.3189Y-3.4311
X8.3268Y-2.6575
X8.3917Y-4.6319
X8.4764Y-3.5669
X8.5Y-5.1457
X8.5098Y-4.0335
X8.5413Y-4.2894
X8.6457Y-4.061
X8.6457Y-4.1457
X8.8169Y-4.3209
X8.8701Y-2.1535
X8.874Y-4.874
X9.0669Y-2.8563
X9.2539Y-3.5925
X9.3228Y-4.0728
X9.3917Y-3.1063
X9.4902Y-4.3169
X9.4902Y-4.4134
X9.7067Y-4.6181
X9.7146Y-2.4173
X9.8937Y-3.1398
X10.0531Y-2.8169
X10.0965Y-3.8504
X10.1555Y-3.5354
X10.2067Y-3.6496
X10.2126Y-4.3563
X10.2126Y-4.4528
X10.4311Y-2.2205
X10.4567Y-2.7008
X10.626Y-2.939
X10.6476Y-3.4311
X10.8228Y-3.6516
X10.8563Y-4.1437
T3
X5.7562Y-2.1201
X5.9313Y-2.1201
T4
X8.7684Y-3.3786
X8.865Y-3.3527
X8.1783Y-4.0668
X8.2749Y-4.0409
X7.522Y-4.5073
X7.6186Y-4.4814
X7.3665Y-5.484
X7.4531Y-5.434
X3.0161Y-2.6302
X3.1127Y-2.6561
X2.1712Y-2.8928
X2.2678Y-2.9187
X4.9594Y-4.0476
X5.056Y-4.0734
X7.135Y-3.0624
X7.2316Y-3.0365
X4.2625Y-3.759
X4.3591Y-3.7849
X3.4125Y-4.0409
X3.5091Y-4.0668
X8.9621Y-4.1014
X9.0587Y-4.0755
X5.1531Y-3.3251
X5.2497Y-3.351
X7.9846Y-3.3443
X8.0812Y-3.3184
X7.7913Y-2.6215
X7.8879Y-2.5956
X1.9775Y-3.6157
X2.0741Y-3.6416
X2.8224Y-3.3527
X2.919Y-3.3786
X10.5295Y-4.1703
X10.626Y-4.1444
X6.7513Y-5.9724
X6.8221Y-5.9017
X4.0688Y-4.4814
X4.1654Y-4.5073
X3.5039Y-5.1452
X3.6005Y-5.1711
X6.6314Y-4.0734
X6.728Y-4.0476
X3.6062Y-3.3184
X3.7028Y-3.3443
X6.4377Y-3.351
X6.5343Y-3.3251
X6.8251Y-4.7963
X6.9217Y-4.7704
X4.8653Y-5.9017
X4.9361Y-5.9724
X2.6287Y-4.0755
X2.7253Y-4.1014
X4.4558Y-3.0365
X4.5524Y-3.0624
X9.4196Y-2.9187
X9.5162Y-2.8928
X1.0614Y-4.1444
X1.1579Y-4.1703
X9.6133Y-3.6416
X9.7099Y-3.6157
X1.7842Y-4.3381
X1.8808Y-4.364
X4.7657Y-4.7704
X4.8623Y-4.7963
X10.1421Y-2.7254
X10.2386Y-2.6995
X10.3358Y-3.4479
X10.4323Y-3.422
X4.2343Y-5.434
X4.3209Y-5.484
X8.5747Y-2.6561
X8.6713Y-2.6302
X7.3283Y-3.7849
X7.4249Y-3.759
X9.8066Y-4.364
X9.9032Y-4.3381
X8.0869Y-5.1711
X8.1835Y-5.1452
X1.4488Y-2.6995
X1.5454Y-2.7254
X3.7995Y-2.5956
X3.8961Y-2.6215
X1.2551Y-3.422
X1.3517Y-3.4479
T5
X6.9461Y-2.2835
X9.1115Y-2.2835
X10.8839Y-3.2165
X4.7414Y-2.2835
X0.8036Y-3.2165
X5.017Y-5.1378
X8.2847Y-4.3701
X6.6705Y-5.1378
X3.4028Y-4.3701
X2.576Y-2.2835
T6
X7.7879Y-3.19
X8.1743Y-3.0864
X7.5946Y-2.4671
X7.981Y-2.3636
X1.8844Y-3.3837
X2.2707Y-3.4872
X2.7293Y-3.1207
X3.1156Y-3.2242
X10.3328Y-4.0159
X10.7192Y-3.9124
X6.5039Y-5.9371
X6.7867Y-5.6542
X3.9757Y-4.2494
X4.3621Y-4.3529
X3.4108Y-4.9132
X3.7971Y-5.0167
X6.4348Y-3.9191
X6.8211Y-3.8156
X3.5131Y-3.0864
X3.8995Y-3.19
X6.2411Y-3.1966
X6.6274Y-3.0931
X6.6285Y-4.6419
X7.0148Y-4.5384
X4.9007Y-5.6542
X5.1835Y-5.9371
X2.5356Y-3.8435
X2.9219Y-3.947
X4.3627Y-2.8045
X4.7491Y-2.9081
X9.223Y-2.7644
X9.6093Y-2.6608
X0.9682Y-3.9124
X1.3546Y-4.0159
X9.4167Y-3.4872
X9.803Y-3.3837
X1.6911Y-4.1061
X2.0774Y-4.2096
X4.6726Y-4.5384
X5.0589Y-4.6419
X9.9454Y-2.5711
X10.3318Y-2.4675
X10.1391Y-3.2935
X10.5255Y-3.19
X4.2044Y-5.1858
X4.5508Y-5.3858
X8.3781Y-2.5018
X8.7644Y-2.3982
X7.1316Y-3.6305
X7.518Y-3.527
X9.61Y-4.2096
X9.9963Y-4.1061
X7.8903Y-5.0167
X8.2766Y-4.9132
X1.3556Y-2.4675
X1.742Y-2.5711
X3.7064Y-2.3636
X4.0928Y-2.4671
X1.1619Y-3.19
X1.5483Y-3.2935
X8.5718Y-3.2242
X8.9581Y-3.1207
X7.9816Y-3.9124
X8.368Y-3.8089
X7.3253Y-4.3529
X7.7117Y-4.2494
X7.1366Y-5.3858
X7.483Y-5.1858
X2.923Y-2.3982
X3.3093Y-2.5018
X2.0781Y-2.6608
X2.4644Y-2.7644
X4.8663Y-3.8156
X5.2526Y-3.9191
X6.9383Y-2.9081
X7.3247Y-2.8045
X4.1694Y-3.527
X4.5558Y-3.6305
X3.3194Y-3.8089
X3.7058Y-3.9124
X8.7655Y-3.947
X9.1518Y-3.8435
X5.06Y-3.0931
X5.4463Y-3.1966
T7
X8.4005Y-2.3922
X8.6161Y-2.2309
X7.154Y-3.521
X7.3696Y-3.3597
X9.6324Y-4.1001
X9.848Y-3.9388
X7.9127Y-4.9072
X8.1283Y-4.7459
X1.4298Y-2.3839
X1.6972Y-2.352
X3.7806Y-2.2799
X4.048Y-2.2481
X1.2361Y-3.1063
X1.5035Y-3.0744
X8.5942Y-3.1147
X8.8098Y-2.9534
X8.004Y-3.8029
X8.2196Y-3.6416
X7.3477Y-4.2434
X7.5633Y-4.0821
X7.1299Y-5.2742
X7.2964Y-5.0626
X2.9971Y-2.3146
X3.2645Y-2.2827
X2.1523Y-2.5772
X2.4196Y-2.5453
X4.9404Y-3.7319
X5.2078Y-3.7
X6.9607Y-2.7985
X7.1763Y-2.6372
X4.2436Y-3.4433
X4.511Y-3.4114
X3.3936Y-3.7252
X3.661Y-3.6933
X8.7879Y-3.8375
X9.0035Y-3.6762
X5.1341Y-3.0095
X5.4015Y-2.9776
X7.8103Y-3.0804
X8.0259Y-2.9191
X7.617Y-2.3576
X7.8326Y-2.1963
X1.9586Y-3.3
X2.2259Y-3.2681
X2.8034Y-3.037
X3.0708Y-3.0051
X10.3552Y-3.9064
X10.5708Y-3.7451
X6.4685Y-5.831
X6.5746Y-5.5835
X4.0499Y-4.1658
X4.3173Y-4.1339
X3.4849Y-4.8295
X3.7523Y-4.7977
X6.4572Y-3.8096
X6.6728Y-3.6483
X3.5873Y-3.0028
X3.8547Y-2.9709
X6.2635Y-3.0871
X6.4791Y-2.9258
X6.6509Y-4.5324
X6.8665Y-4.3711
X5.0068Y-5.6189
X5.2543Y-5.725
X2.6097Y-3.7599
X2.8771Y-3.728
X4.4369Y-2.7209
X4.7043Y-2.689
X9.2454Y-2.6548
X9.461Y-2.4935
X1.0424Y-3.8288
X1.3098Y-3.7969
X9.4391Y-3.3777
X9.6547Y-3.2164
X1.7652Y-4.0225
X2.0326Y-3.9906
X4.7467Y-4.4547
X5.0141Y-4.4229
X9.9678Y-2.4615
X10.1834Y-2.3002
X10.1615Y-3.184
X10.3771Y-3.0227
X4.2977Y-5.1242
X4.5642Y-5.1626
T8
X9.6098Y-3.4354
X1.8843Y-4.1579
X4.8657Y-4.5902
X10.1386Y-2.5193
X10.3323Y-3.2417
X4.3776Y-5.2858
X8.5713Y-2.45
X7.3248Y-3.5787
X9.8031Y-4.1579
X8.0835Y-4.965
X1.5488Y-2.5193
X3.8996Y-2.4154
X1.3551Y-3.2417
X8.765Y-3.1724
X8.1748Y-3.8606
X7.5185Y-4.3012
X7.3098Y-5.2858
X3.1161Y-2.45
X2.2713Y-2.7126
X5.0594Y-3.8673
X7.1315Y-2.8563
X4.3626Y-3.5787
X3.5126Y-3.8606
X8.9587Y-3.8953
X5.2531Y-3.1449
X7.9811Y-3.1382
X7.7878Y-2.4154
X2.0776Y-3.4354
X2.9224Y-3.1724
X10.526Y-3.9642
X6.6453Y-5.7957
X4.1689Y-4.3012
X3.6039Y-4.965
X6.628Y-3.8673
X3.7063Y-3.1382
X6.4343Y-3.1449
X6.8217Y-4.5902
X5.0421Y-5.7957
X2.7287Y-3.8953
X4.5559Y-2.8563
X9.4161Y-2.7126
X1.1614Y-3.9642
T2
G00X5.706Y-2.0217
M15
G01X5.706Y-2.0531
M16
G05
G00X5.9815Y-2.0217
M15
G01X5.9815Y-2.0531
M16
G05
T0
M30
