M48
; DRILL file {KiCad (5.1.6)-1} date 07/18/20 08:55:16
; FORMAT={-:-/ absolute / inch / decimal}
; #@! TF.CreationDate,2020-07-18T08:55:16-05:00
; #@! TF.GenerationSoftware,Kicad,Pcbnew,(5.1.6)-1
FMAT,2
INCH
T1C0.0157
T2C0.0394
T3C0.0409
T4C0.0430
T5C0.0866
T6C0.0689
T7C0.1181
T8C0.1570
%
G90
G05
T1
X1.02Y-2.03
X1.2449Y-4.2501
X1.2628Y-4.3001
X1.4383Y-3.5274
X1.4564Y-3.5775
X1.5872Y-4.4895
X1.6319Y-2.8049
X1.65Y-2.855
X1.7808Y-3.767
X1.8949Y-4.4207
X1.9745Y-3.0445
X1.9997Y-4.3562
X2.0885Y-3.6981
X2.1933Y-3.6336
X2.2821Y-2.9756
X2.3869Y-2.9111
X2.4321Y-4.3144
X2.6257Y-3.5918
X2.8076Y-4.1761
X2.8193Y-2.8693
X2.8597Y-4.1257
X3.0012Y-3.4536
X3.0533Y-3.4032
X3.1948Y-2.731
X3.2157Y-4.248
X3.2469Y-2.6806
X3.256Y-5.3356
X3.4093Y-3.5255
X3.4934Y-4.3694
X3.5Y-5.4221
X3.603Y-2.803
X3.6047Y-4.3926
X3.6407Y-5.4643
X3.687Y-3.6469
X3.7983Y-3.6701
X3.8721Y-4.627
X3.8807Y-2.9243
X3.8843Y-5.6984
X3.9919Y-2.9475
X4.0657Y-3.9044
X4.1327Y-5.7874
X4.1384Y-4.7418
X4.2497Y-4.7646
X4.2593Y-3.1819
X4.2807Y-5.8338
X4.332Y-4.0193
X4.4433Y-4.0421
X4.5105Y-6.0599
X4.5257Y-3.2967
X4.5691Y-4.9517
X4.6369Y-3.3195
X4.7627Y-4.2233
X4.7775Y-6.1597
X4.8207Y-4.9167
X4.9498Y-6.2202
X4.9563Y-3.495
X4.9769Y-4.8819
X5.0107Y-4.1883
X5.1669Y-4.1535
X5.2057Y-3.46
X5.3619Y-3.4252
X5.4528Y-3.34
X5.4528Y-3.495
X5.5438Y-6.2202
X5.625Y-3.495
X5.625Y-4.2233
X5.625Y-4.9517
X5.625Y-6.29
X5.8812Y-3.46
X5.8812Y-4.1883
X5.8812Y-4.9167
X5.8812Y-6.255
X6.195Y-4.8819
X6.2615Y-4.1535
X6.2748Y-3.4252
X6.6347Y-3.495
X6.8283Y-4.2233
X6.9057Y-3.4
X6.9881Y-3.3155
X7.0219Y-4.9517
X7.0581Y-6.0824
X7.0993Y-4.1225
X7.1817Y-4.0381
X7.2681Y-5.9159
X7.2929Y-4.8451
X7.3317Y-3.245
X7.3753Y-4.7606
X7.3836Y-5.8086
X7.5253Y-3.9675
X7.6057Y-3.0736
X7.6881Y-2.9891
X7.6962Y-5.714
X7.7189Y-4.69
X7.7993Y-3.7961
X7.8817Y-3.7117
X7.9054Y-5.548
X7.988Y-2.9389
X7.9929Y-4.5187
X8.023Y-5.4394
X8.0753Y-4.4342
X8.1816Y-3.6615
X8.2507Y-2.7728
X8.3181Y-2.7283
X8.3312Y-5.3474
X8.3752Y-4.384
X8.4443Y-3.4954
X8.5117Y-3.4509
X8.5539Y-5.1735
X8.6379Y-4.2179
X8.6894Y-5.0546
X8.7053Y-4.1734
X8.7717Y-2.81
X8.9653Y-3.5325
X9.0307Y-2.7728
X9.1117Y-2.7283
X9.1589Y-4.2551
X9.2243Y-3.4954
X9.3053Y-3.4509
X9.4179Y-4.2179
X9.4989Y-4.1734
X9.6165Y-3.085
X9.8101Y-3.8075
X9.8707Y-2.975
X9.9481Y-2.9167
X10.0038Y-4.5301
X10.0643Y-3.6975
X10.1417Y-3.6393
X10.2579Y-4.4201
X10.3353Y-4.3618
X10.3391Y-2.8914
X10.5327Y-3.6139
X10.5957Y-2.7874
X10.7181Y-2.7104
X10.7263Y-4.3365
X10.7893Y-3.5099
X10.9117Y-3.433
X10.9829Y-4.2324
X11.1053Y-4.1555
T2
X0.7Y-2.15
X0.8Y-2.15
X0.9Y-2.15
T3
X6.9482Y-5.9725
X7.0189Y-5.9018
X3.8721Y-4.4817
X3.9686Y-4.5076
X0.8647Y-4.1446
X0.9613Y-4.1705
X3.307Y-5.1455
X3.4036Y-5.1714
X9.6165Y-2.919
X9.7131Y-2.8931
X4.7627Y-4.0478
X4.8593Y-4.0737
X6.6347Y-3.3512
X6.7313Y-3.3253
X7.0219Y-4.7963
X7.1185Y-4.7704
X7.5634Y-5.484
X7.65Y-5.434
X8.9653Y-3.3788
X9.0619Y-3.3529
X1.0583Y-3.4221
X1.1549Y-3.448
X4.9563Y-3.3253
X5.0529Y-3.3512
X2.4321Y-4.0755
X2.5287Y-4.1014
X9.1589Y-4.1014
X9.2555Y-4.0755
X10.3391Y-2.7254
X10.4357Y-2.6995
X4.0657Y-3.7592
X4.1622Y-3.7851
X3.603Y-2.5956
X3.6995Y-2.6215
X4.2593Y-3.0366
X4.3559Y-3.0625
X4.0376Y-5.434
X4.1242Y-5.484
X7.7189Y-4.5076
X7.8155Y-4.4817
X10.5327Y-3.448
X10.6293Y-3.4221
X1.7808Y-3.6157
X1.8774Y-3.6416
X3.4093Y-3.3184
X3.5059Y-3.3443
X2.8193Y-2.6304
X2.9159Y-2.6563
X3.2157Y-4.0409
X3.3123Y-4.0668
X4.5691Y-4.7704
X4.6657Y-4.7963
X10.7263Y-4.1705
X10.8229Y-4.1446
X1.2519Y-2.6995
X1.3485Y-2.7254
X8.1816Y-3.3443
X8.2782Y-3.3184
X8.7717Y-2.6563
X8.8683Y-2.6304
X1.5872Y-4.3382
X1.6838Y-4.3641
X8.3752Y-4.0668
X8.4718Y-4.0409
X8.284Y-5.1714
X8.3806Y-5.1455
X4.6687Y-5.9018
X4.7394Y-5.9725
X1.9745Y-2.8931
X2.071Y-2.919
X6.8283Y-4.0737
X6.9249Y-4.0478
X7.988Y-2.6217
X8.0846Y-2.5958
X2.6257Y-3.3529
X2.7223Y-3.3788
X10.0038Y-4.3641
X10.1003Y-4.3382
X9.8101Y-3.6416
X9.9067Y-3.6157
X7.5253Y-3.7851
X7.6219Y-3.7592
X7.3317Y-3.0625
X7.4283Y-3.0366
T4
X5.5438Y-1.9512
X5.5438Y-2.0512
X5.5438Y-2.1512
X5.5438Y-2.2512
X5.5438Y-2.3512
X5.5438Y-2.4512
X5.5438Y-2.5512
X5.5438Y-2.6512
X5.5438Y-2.7512
X5.5438Y-2.8512
X5.5438Y-2.9512
X5.5438Y-3.0512
X6.1437Y-1.9512
X6.1437Y-2.0512
X6.1437Y-2.1512
X6.1437Y-2.2512
X6.1437Y-2.3512
X6.1437Y-2.4512
X6.1437Y-2.5512
X6.1437Y-2.6512
X6.1437Y-2.7512
X6.1437Y-2.8512
X6.1437Y-2.9512
X6.1437Y-3.0512
T5
X4.745Y-2.175
X1.8775Y-4.665
X10.9875Y-2.645
X6.9425Y-2.175
X6.842Y-5.1507
X4.8454Y-5.1507
X0.7Y-2.645
X9.81Y-4.665
T6
X3.1226Y-3.8089
X3.509Y-3.9124
X4.476Y-4.5384
X4.8624Y-4.6419
X10.5296Y-4.0161
X10.916Y-3.9126
X1.1588Y-2.4675
X1.5452Y-2.5711
X7.985Y-3.1899
X8.3714Y-3.0864
X8.5751Y-2.5019
X8.9614Y-2.3984
X1.4941Y-4.1062
X1.8805Y-4.2097
X8.1786Y-3.9124
X8.565Y-3.8089
X8.0874Y-5.017
X8.4737Y-4.9135
X4.704Y-5.6543
X4.9869Y-5.9371
X1.8813Y-2.6611
X2.2677Y-2.7647
X6.6316Y-3.9194
X7.018Y-3.8158
X7.7914Y-2.4674
X8.1778Y-2.3638
X2.5325Y-3.1209
X2.9189Y-3.2245
X9.8071Y-4.2097
X10.1935Y-4.1062
X9.6135Y-3.4872
X9.9999Y-3.3837
X7.3287Y-3.6307
X7.7151Y-3.5272
X7.1351Y-2.9081
X7.5214Y-2.8046
X6.7007Y-5.9371
X6.9836Y-5.6543
X3.7789Y-4.2497
X4.1653Y-4.3532
X0.7716Y-3.9126
X1.1579Y-4.0161
X3.2139Y-4.9135
X3.6002Y-5.017
X9.4199Y-2.7647
X9.8063Y-2.6611
X4.6696Y-3.8158
X5.056Y-3.9194
X6.438Y-3.1968
X6.8244Y-3.0933
X6.8252Y-4.6419
X7.2116Y-4.5384
X7.3335Y-5.3858
X7.6799Y-5.1858
X8.7687Y-3.2245
X9.155Y-3.1209
X0.9652Y-3.1901
X1.3515Y-3.2936
X4.8632Y-3.0933
X5.2496Y-3.1968
X2.3389Y-3.8435
X2.7253Y-3.947
X8.9623Y-3.947
X9.3486Y-3.8435
X10.1424Y-2.5711
X10.5288Y-2.4675
X3.9725Y-3.5272
X4.3589Y-3.6307
X3.5098Y-2.3636
X3.8962Y-2.4671
X4.1661Y-2.8046
X4.5525Y-2.9081
X4.0077Y-5.1858
X4.3541Y-5.3858
X7.5223Y-4.3532
X7.9087Y-4.2497
X10.336Y-3.2936
X10.7224Y-3.1901
X1.6877Y-3.3837
X2.0741Y-3.4872
X3.3162Y-3.0864
X3.7026Y-3.1899
X2.7261Y-2.3984
X3.1125Y-2.5019
T7
X6.8476Y-4.5324
X7.0632Y-4.3711
X7.3268Y-5.2742
X7.4933Y-5.0626
X8.7911Y-3.1149
X9.0067Y-2.9536
X1.0394Y-3.1064
X1.3067Y-3.0745
X4.9374Y-3.0096
X5.2047Y-2.9778
X2.4131Y-3.7598
X2.6805Y-3.7279
X8.9847Y-3.8375
X9.2003Y-3.6762
X10.1648Y-2.4615
X10.3804Y-2.3002
X4.0467Y-3.4435
X4.3141Y-3.4116
X3.584Y-2.2799
X3.8514Y-2.2481
X4.2403Y-2.721
X4.5077Y-2.6891
X4.101Y-5.1242
X4.3675Y-5.1626
X7.5447Y-4.2437
X7.7603Y-4.0824
X10.3585Y-3.1841
X10.574Y-3.0228
X1.7619Y-3.3
X2.0293Y-3.2681
X3.3904Y-3.0027
X3.6578Y-2.9708
X2.8003Y-2.3147
X3.0677Y-2.2829
X3.1968Y-3.7253
X3.4642Y-3.6934
X4.5502Y-4.4547
X4.8175Y-4.4228
X10.5521Y-3.9066
X10.7677Y-3.7453
X1.233Y-2.3839
X1.5003Y-2.352
X8.0074Y-3.0804
X8.223Y-2.9191
X8.5975Y-2.3924
X8.8131Y-2.2311
X1.5683Y-4.0226
X1.8357Y-3.9907
X8.201Y-3.8029
X8.4166Y-3.6416
X8.1098Y-4.9075
X8.3254Y-4.7462
X4.8101Y-5.6189
X5.0576Y-5.725
X1.9555Y-2.5775
X2.2229Y-2.5456
X6.654Y-3.8098
X6.8696Y-3.6485
X7.8138Y-2.3578
X8.0294Y-2.1965
X2.6067Y-3.0373
X2.8741Y-3.0054
X9.8295Y-4.1002
X10.0451Y-3.9389
X9.6359Y-3.3777
X9.8515Y-3.2164
X7.3511Y-3.5212
X7.5667Y-3.3599
X7.1575Y-2.7986
X7.3731Y-2.6373
X6.6654Y-5.8311
X6.7714Y-5.5836
X3.8531Y-4.1661
X4.1205Y-4.1342
X0.8458Y-3.829
X1.1131Y-3.7971
X3.288Y-4.8298
X3.5554Y-4.7979
X9.4423Y-2.6551
X9.6579Y-2.4938
X4.7438Y-3.7322
X5.0111Y-3.7003
X6.4604Y-3.0873
X6.676Y-2.926
T8
X10.5292Y-3.2418
X1.8809Y-3.4354
X3.5094Y-3.1381
X2.9193Y-2.4502
X3.3158Y-3.8607
X4.6692Y-4.5901
X10.7228Y-3.9644
X1.352Y-2.5193
X8.1782Y-3.1381
X8.7683Y-2.4502
X1.6873Y-4.158
X8.3718Y-3.8607
X8.2805Y-4.9652
X4.8454Y-5.7957
X2.0745Y-2.7129
X6.8248Y-3.8676
X7.9846Y-2.4156
X2.7257Y-3.1727
X10.0003Y-4.158
X9.8067Y-3.4354
X7.5219Y-3.5789
X7.3283Y-2.8564
X6.8421Y-5.7957
X3.9721Y-4.3015
X0.9648Y-3.9644
X3.407Y-4.9652
X9.6131Y-2.7129
X4.8628Y-3.8676
X6.6312Y-3.1451
X7.0184Y-4.5901
X7.5067Y-5.2858
X8.9619Y-3.1727
X1.1584Y-3.2418
X5.0564Y-3.1451
X2.5321Y-3.8952
X9.1555Y-3.8952
X10.3356Y-2.5193
X4.1657Y-3.5789
X3.703Y-2.4154
X4.3593Y-2.8564
X4.1809Y-5.2858
X7.7155Y-4.3015
T0
M30
