%TF.GenerationSoftware,KiCad,Pcbnew,(5.1.6)-1*%
%TF.CreationDate,2020-07-11T10:23:58-05:00*%
%TF.ProjectId,ErgoChoco,4572676f-4368-46f6-936f-2e6b69636164,v1.0*%
%TF.SameCoordinates,Original*%
%TF.FileFunction,Paste,Bot*%
%TF.FilePolarity,Positive*%
%FSLAX46Y46*%
G04 Gerber Fmt 4.6, Leading zero omitted, Abs format (unit mm)*
G04 Created by KiCad (PCBNEW (5.1.6)-1) date 2020-07-11 10:23:58*
%MOMM*%
%LPD*%
G01*
G04 APERTURE LIST*
%TA.AperFunction,Profile*%
%ADD10C,0.050000*%
%TD*%
%TA.AperFunction,Profile*%
%ADD11C,0.001000*%
%TD*%
%ADD12C,0.150000*%
G04 APERTURE END LIST*
D10*
X276431250Y-49500000D02*
G75*
G02*
X279431250Y-52500000I0J-3000000D01*
G01*
X279431245Y-107828643D02*
G75*
G02*
X277699100Y-110547560I-2999995J3D01*
G01*
X169034025Y-161218923D02*
G75*
G02*
X167766170Y-161500000I-1267855J2718923D01*
G01*
X129096333Y-161499995D02*
G75*
G02*
X127828480Y-161218920I-3J2999995D01*
G01*
X19163395Y-110547563D02*
G75*
G02*
X17431250Y-107828640I1267855J2718923D01*
G01*
X17431250Y-52500000D02*
G75*
G02*
X20431250Y-49500000I3000000J0D01*
G01*
X17431250Y-107828640D02*
X17431250Y-52500000D01*
X127828480Y-161218920D02*
X19163400Y-110547560D01*
X167766170Y-161500000D02*
X129096330Y-161500000D01*
X277699100Y-110547560D02*
X169034020Y-161218920D01*
X279431250Y-52500000D02*
X279431250Y-107828640D01*
X20431250Y-49500000D02*
X276431250Y-49500000D01*
D11*
%TO.C,J1*%
X150330750Y-53924500D02*
X150330750Y-53850000D01*
X150981750Y-53775500D02*
X150981750Y-53850000D01*
X150331250Y-53850000D02*
X150331250Y-53775000D01*
X150981250Y-53850000D02*
X150981250Y-53925000D01*
X145880750Y-53924500D02*
X145880750Y-53850000D01*
X146531750Y-53775500D02*
X146531750Y-53850000D01*
X145881250Y-53850000D02*
X145881250Y-53775000D01*
X146531250Y-53850000D02*
X146531250Y-53925000D01*
X150656250Y-54250000D02*
G75*
G02*
X150330750Y-53924500I0J325500D01*
G01*
X150656250Y-53450000D02*
G75*
G02*
X150981750Y-53775500I0J-325500D01*
G01*
X150331250Y-53775000D02*
G75*
G02*
X150656250Y-53450000I325000J0D01*
G01*
X150981250Y-53925000D02*
G75*
G02*
X150656250Y-54250000I-325000J0D01*
G01*
X146206250Y-54250000D02*
G75*
G02*
X145880750Y-53924500I0J325500D01*
G01*
X146206250Y-53450000D02*
G75*
G02*
X146531750Y-53775500I0J-325500D01*
G01*
X145881250Y-53775000D02*
G75*
G02*
X146206250Y-53450000I325000J0D01*
G01*
X146531250Y-53925000D02*
G75*
G02*
X146206250Y-54250000I-325000J0D01*
G01*
%TD*%
D12*
%TO.C,MX40*%
G36*
X161630544Y-152545121D02*
G01*
X159862777Y-150777354D01*
X161665900Y-148974231D01*
X163433667Y-150741998D01*
X161630544Y-152545121D01*
G37*
G36*
X169627921Y-140955641D02*
G01*
X167860154Y-139187874D01*
X169663277Y-137384751D01*
X171431044Y-139152518D01*
X169627921Y-140955641D01*
G37*
%TD*%
%TO.C,MX15*%
G36*
X66029922Y-77047289D02*
G01*
X66676969Y-74632474D01*
X69140080Y-75292463D01*
X68493033Y-77707278D01*
X66029922Y-77047289D01*
G37*
G36*
X80065395Y-78178482D02*
G01*
X80712442Y-75763667D01*
X83175553Y-76423656D01*
X82528506Y-78838471D01*
X80065395Y-78178482D01*
G37*
%TD*%
%TO.C,MX1*%
G36*
X31139922Y-60457289D02*
G01*
X31786969Y-58042474D01*
X34250080Y-58702463D01*
X33603033Y-61117278D01*
X31139922Y-60457289D01*
G37*
G36*
X45175395Y-61588482D02*
G01*
X45822442Y-59173667D01*
X48285553Y-59833656D01*
X47638506Y-62248471D01*
X45175395Y-61588482D01*
G37*
%TD*%
%TO.C,MX2*%
G36*
X49489922Y-65367289D02*
G01*
X50136969Y-62952474D01*
X52600080Y-63612463D01*
X51953033Y-66027278D01*
X49489922Y-65367289D01*
G37*
G36*
X63525395Y-66498482D02*
G01*
X64172442Y-64083667D01*
X66635553Y-64743656D01*
X65988506Y-67158471D01*
X63525395Y-66498482D01*
G37*
%TD*%
%TO.C,MX3*%
G36*
X70949922Y-58697289D02*
G01*
X71596969Y-56282474D01*
X74060080Y-56942463D01*
X73413033Y-59357278D01*
X70949922Y-58697289D01*
G37*
G36*
X84985395Y-59828482D02*
G01*
X85632442Y-57413667D01*
X88095553Y-58073656D01*
X87448506Y-60488471D01*
X84985395Y-59828482D01*
G37*
%TD*%
%TO.C,MX4*%
G36*
X90849922Y-57817289D02*
G01*
X91496969Y-55402474D01*
X93960080Y-56062463D01*
X93313033Y-58477278D01*
X90849922Y-57817289D01*
G37*
G36*
X104885395Y-58948482D02*
G01*
X105532442Y-56533667D01*
X107995553Y-57193656D01*
X107348506Y-59608471D01*
X104885395Y-58948482D01*
G37*
%TD*%
%TO.C,MX5*%
G36*
X107519922Y-69017289D02*
G01*
X108166969Y-66602474D01*
X110630080Y-67262463D01*
X109983033Y-69677278D01*
X107519922Y-69017289D01*
G37*
G36*
X121555395Y-70148482D02*
G01*
X122202442Y-67733667D01*
X124665553Y-68393656D01*
X124018506Y-70808471D01*
X121555395Y-70148482D01*
G37*
%TD*%
%TO.C,MX6*%
G36*
X125229922Y-76347289D02*
G01*
X125876969Y-73932474D01*
X128340080Y-74592463D01*
X127693033Y-77007278D01*
X125229922Y-76347289D01*
G37*
G36*
X139265395Y-77478482D02*
G01*
X139912442Y-75063667D01*
X142375553Y-75723656D01*
X141728506Y-78138471D01*
X139265395Y-77478482D01*
G37*
%TD*%
%TO.C,MX7*%
G36*
X154562168Y-80920622D02*
G01*
X153915121Y-78505807D01*
X156378232Y-77845818D01*
X157025279Y-80260633D01*
X154562168Y-80920622D01*
G37*
G36*
X167282841Y-74882527D02*
G01*
X166635794Y-72467712D01*
X169098905Y-71807723D01*
X169745952Y-74222538D01*
X167282841Y-74882527D01*
G37*
%TD*%
%TO.C,MX8*%
G36*
X172272168Y-73590622D02*
G01*
X171625121Y-71175807D01*
X174088232Y-70515818D01*
X174735279Y-72930633D01*
X172272168Y-73590622D01*
G37*
G36*
X184992841Y-67552527D02*
G01*
X184345794Y-65137712D01*
X186808905Y-64477723D01*
X187455952Y-66892538D01*
X184992841Y-67552527D01*
G37*
%TD*%
%TO.C,MX9*%
G36*
X188942168Y-62390622D02*
G01*
X188295121Y-59975807D01*
X190758232Y-59315818D01*
X191405279Y-61730633D01*
X188942168Y-62390622D01*
G37*
G36*
X201662841Y-56352527D02*
G01*
X201015794Y-53937712D01*
X203478905Y-53277723D01*
X204125952Y-55692538D01*
X201662841Y-56352527D01*
G37*
%TD*%
%TO.C,MX10*%
G36*
X208842168Y-63270622D02*
G01*
X208195121Y-60855807D01*
X210658232Y-60195818D01*
X211305279Y-62610633D01*
X208842168Y-63270622D01*
G37*
G36*
X221562841Y-57232527D02*
G01*
X220915794Y-54817712D01*
X223378905Y-54157723D01*
X224025952Y-56572538D01*
X221562841Y-57232527D01*
G37*
%TD*%
%TO.C,MX11*%
G36*
X230302168Y-69940622D02*
G01*
X229655121Y-67525807D01*
X232118232Y-66865818D01*
X232765279Y-69280633D01*
X230302168Y-69940622D01*
G37*
G36*
X243022841Y-63902527D02*
G01*
X242375794Y-61487712D01*
X244838905Y-60827723D01*
X245485952Y-63242538D01*
X243022841Y-63902527D01*
G37*
%TD*%
%TO.C,MX12*%
G36*
X248652168Y-65030622D02*
G01*
X248005121Y-62615807D01*
X250468232Y-61955818D01*
X251115279Y-64370633D01*
X248652168Y-65030622D01*
G37*
G36*
X261372841Y-58992527D02*
G01*
X260725794Y-56577712D01*
X263188905Y-55917723D01*
X263835952Y-58332538D01*
X261372841Y-58992527D01*
G37*
%TD*%
%TO.C,MX13*%
G36*
X26219922Y-78807289D02*
G01*
X26866969Y-76392474D01*
X29330080Y-77052463D01*
X28683033Y-79467278D01*
X26219922Y-78807289D01*
G37*
G36*
X40255395Y-79938482D02*
G01*
X40902442Y-77523667D01*
X43365553Y-78183656D01*
X42718506Y-80598471D01*
X40255395Y-79938482D01*
G37*
%TD*%
%TO.C,MX14*%
G36*
X44569922Y-83727289D02*
G01*
X45216969Y-81312474D01*
X47680080Y-81972463D01*
X47033033Y-84387278D01*
X44569922Y-83727289D01*
G37*
G36*
X58605395Y-84858482D02*
G01*
X59252442Y-82443667D01*
X61715553Y-83103656D01*
X61068506Y-85518471D01*
X58605395Y-84858482D01*
G37*
%TD*%
%TO.C,MX16*%
G36*
X85939922Y-76177289D02*
G01*
X86586969Y-73762474D01*
X89050080Y-74422463D01*
X88403033Y-76837278D01*
X85939922Y-76177289D01*
G37*
G36*
X99975395Y-77308482D02*
G01*
X100622442Y-74893667D01*
X103085553Y-75553656D01*
X102438506Y-77968471D01*
X99975395Y-77308482D01*
G37*
%TD*%
%TO.C,MX17*%
G36*
X102609922Y-87367289D02*
G01*
X103256969Y-84952474D01*
X105720080Y-85612463D01*
X105073033Y-88027278D01*
X102609922Y-87367289D01*
G37*
G36*
X116645395Y-88498482D02*
G01*
X117292442Y-86083667D01*
X119755553Y-86743656D01*
X119108506Y-89158471D01*
X116645395Y-88498482D01*
G37*
%TD*%
%TO.C,MX18*%
G36*
X120309922Y-94697289D02*
G01*
X120956969Y-92282474D01*
X123420080Y-92942463D01*
X122773033Y-95357278D01*
X120309922Y-94697289D01*
G37*
G36*
X134345395Y-95828482D02*
G01*
X134992442Y-93413667D01*
X137455553Y-94073656D01*
X136808506Y-96488471D01*
X134345395Y-95828482D01*
G37*
%TD*%
%TO.C,MX19*%
G36*
X159482168Y-99270622D02*
G01*
X158835121Y-96855807D01*
X161298232Y-96195818D01*
X161945279Y-98610633D01*
X159482168Y-99270622D01*
G37*
G36*
X172202841Y-93232527D02*
G01*
X171555794Y-90817712D01*
X174018905Y-90157723D01*
X174665952Y-92572538D01*
X172202841Y-93232527D01*
G37*
%TD*%
%TO.C,MX20*%
G36*
X177182168Y-91940622D02*
G01*
X176535121Y-89525807D01*
X178998232Y-88865818D01*
X179645279Y-91280633D01*
X177182168Y-91940622D01*
G37*
G36*
X189902841Y-85902527D02*
G01*
X189255794Y-83487712D01*
X191718905Y-82827723D01*
X192365952Y-85242538D01*
X189902841Y-85902527D01*
G37*
%TD*%
%TO.C,MX21*%
G36*
X193852168Y-80750622D02*
G01*
X193205121Y-78335807D01*
X195668232Y-77675818D01*
X196315279Y-80090633D01*
X193852168Y-80750622D01*
G37*
G36*
X206572841Y-74712527D02*
G01*
X205925794Y-72297712D01*
X208388905Y-71637723D01*
X209035952Y-74052538D01*
X206572841Y-74712527D01*
G37*
%TD*%
%TO.C,MX22*%
G36*
X213762168Y-81620622D02*
G01*
X213115121Y-79205807D01*
X215578232Y-78545818D01*
X216225279Y-80960633D01*
X213762168Y-81620622D01*
G37*
G36*
X226482841Y-75582527D02*
G01*
X225835794Y-73167712D01*
X228298905Y-72507723D01*
X228945952Y-74922538D01*
X226482841Y-75582527D01*
G37*
%TD*%
%TO.C,MX23*%
G36*
X235222168Y-88300622D02*
G01*
X234575121Y-85885807D01*
X237038232Y-85225818D01*
X237685279Y-87640633D01*
X235222168Y-88300622D01*
G37*
G36*
X247942841Y-82262527D02*
G01*
X247295794Y-79847712D01*
X249758905Y-79187723D01*
X250405952Y-81602538D01*
X247942841Y-82262527D01*
G37*
%TD*%
%TO.C,MX24*%
G36*
X253572168Y-83380622D02*
G01*
X252925121Y-80965807D01*
X255388232Y-80305818D01*
X256035279Y-82720633D01*
X253572168Y-83380622D01*
G37*
G36*
X266292841Y-77342527D02*
G01*
X265645794Y-74927712D01*
X268108905Y-74267723D01*
X268755952Y-76682538D01*
X266292841Y-77342527D01*
G37*
%TD*%
%TO.C,MX25*%
G36*
X21299922Y-97157289D02*
G01*
X21946969Y-94742474D01*
X24410080Y-95402463D01*
X23763033Y-97817278D01*
X21299922Y-97157289D01*
G37*
G36*
X35335395Y-98288482D02*
G01*
X35982442Y-95873667D01*
X38445553Y-96533656D01*
X37798506Y-98948471D01*
X35335395Y-98288482D01*
G37*
%TD*%
%TO.C,MX26*%
G36*
X39659922Y-102077289D02*
G01*
X40306969Y-99662474D01*
X42770080Y-100322463D01*
X42123033Y-102737278D01*
X39659922Y-102077289D01*
G37*
G36*
X53695395Y-103208482D02*
G01*
X54342442Y-100793667D01*
X56805553Y-101453656D01*
X56158506Y-103868471D01*
X53695395Y-103208482D01*
G37*
%TD*%
%TO.C,MX27*%
G36*
X61109922Y-95407289D02*
G01*
X61756969Y-92992474D01*
X64220080Y-93652463D01*
X63573033Y-96067278D01*
X61109922Y-95407289D01*
G37*
G36*
X75145395Y-96538482D02*
G01*
X75792442Y-94123667D01*
X78255553Y-94783656D01*
X77608506Y-97198471D01*
X75145395Y-96538482D01*
G37*
%TD*%
%TO.C,MX28*%
G36*
X81019922Y-94527289D02*
G01*
X81666969Y-92112474D01*
X84130080Y-92772463D01*
X83483033Y-95187278D01*
X81019922Y-94527289D01*
G37*
G36*
X95055395Y-95658482D02*
G01*
X95702442Y-93243667D01*
X98165553Y-93903656D01*
X97518506Y-96318471D01*
X95055395Y-95658482D01*
G37*
%TD*%
%TO.C,MX29*%
G36*
X97689922Y-105717289D02*
G01*
X98336969Y-103302474D01*
X100800080Y-103962463D01*
X100153033Y-106377278D01*
X97689922Y-105717289D01*
G37*
G36*
X111725395Y-106848482D02*
G01*
X112372442Y-104433667D01*
X114835553Y-105093656D01*
X114188506Y-107508471D01*
X111725395Y-106848482D01*
G37*
%TD*%
%TO.C,MX30*%
G36*
X115389922Y-113057289D02*
G01*
X116036969Y-110642474D01*
X118500080Y-111302463D01*
X117853033Y-113717278D01*
X115389922Y-113057289D01*
G37*
G36*
X129425395Y-114188482D02*
G01*
X130072442Y-111773667D01*
X132535553Y-112433656D01*
X131888506Y-114848471D01*
X129425395Y-114188482D01*
G37*
%TD*%
%TO.C,MX31*%
G36*
X164402168Y-117630622D02*
G01*
X163755121Y-115215807D01*
X166218232Y-114555818D01*
X166865279Y-116970633D01*
X164402168Y-117630622D01*
G37*
G36*
X177122841Y-111592527D02*
G01*
X176475794Y-109177712D01*
X178938905Y-108517723D01*
X179585952Y-110932538D01*
X177122841Y-111592527D01*
G37*
%TD*%
%TO.C,MX32*%
G36*
X182102168Y-110290622D02*
G01*
X181455121Y-107875807D01*
X183918232Y-107215818D01*
X184565279Y-109630633D01*
X182102168Y-110290622D01*
G37*
G36*
X194822841Y-104252527D02*
G01*
X194175794Y-101837712D01*
X196638905Y-101177723D01*
X197285952Y-103592538D01*
X194822841Y-104252527D01*
G37*
%TD*%
%TO.C,MX33*%
G36*
X198772168Y-99100622D02*
G01*
X198125121Y-96685807D01*
X200588232Y-96025818D01*
X201235279Y-98440633D01*
X198772168Y-99100622D01*
G37*
G36*
X211492841Y-93062527D02*
G01*
X210845794Y-90647712D01*
X213308905Y-89987723D01*
X213955952Y-92402538D01*
X211492841Y-93062527D01*
G37*
%TD*%
%TO.C,MX34*%
G36*
X218682168Y-99980622D02*
G01*
X218035121Y-97565807D01*
X220498232Y-96905818D01*
X221145279Y-99320633D01*
X218682168Y-99980622D01*
G37*
G36*
X231402841Y-93942527D02*
G01*
X230755794Y-91527712D01*
X233218905Y-90867723D01*
X233865952Y-93282538D01*
X231402841Y-93942527D01*
G37*
%TD*%
%TO.C,MX35*%
G36*
X240132168Y-106650622D02*
G01*
X239485121Y-104235807D01*
X241948232Y-103575818D01*
X242595279Y-105990633D01*
X240132168Y-106650622D01*
G37*
G36*
X252852841Y-100612527D02*
G01*
X252205794Y-98197712D01*
X254668905Y-97537723D01*
X255315952Y-99952538D01*
X252852841Y-100612527D01*
G37*
%TD*%
%TO.C,MX36*%
G36*
X258492168Y-101730622D02*
G01*
X257845121Y-99315807D01*
X260308232Y-98655818D01*
X260955279Y-101070633D01*
X258492168Y-101730622D01*
G37*
G36*
X271212841Y-95692527D02*
G01*
X270565794Y-93277712D01*
X273028905Y-92617723D01*
X273675952Y-95032538D01*
X271212841Y-95692527D01*
G37*
%TD*%
%TO.C,MX37*%
G36*
X83339922Y-122577289D02*
G01*
X83986969Y-120162474D01*
X86450080Y-120822463D01*
X85803033Y-123237278D01*
X83339922Y-122577289D01*
G37*
G36*
X97375395Y-123708482D02*
G01*
X98022442Y-121293667D01*
X100485553Y-121953656D01*
X99838506Y-124368471D01*
X97375395Y-123708482D01*
G37*
%TD*%
%TO.C,MX38*%
G36*
X104183666Y-128725327D02*
G01*
X105433666Y-126560263D01*
X107642030Y-127835263D01*
X106392030Y-130000327D01*
X104183666Y-128725327D01*
G37*
G36*
X117448118Y-133450623D02*
G01*
X118698118Y-131285559D01*
X120906482Y-132560559D01*
X119656482Y-134725623D01*
X117448118Y-133450623D01*
G37*
%TD*%
%TO.C,MX39*%
G36*
X122734879Y-140050544D02*
G01*
X124502646Y-138282777D01*
X126305769Y-140085900D01*
X124538002Y-141853667D01*
X122734879Y-140050544D01*
G37*
G36*
X134324359Y-148047921D02*
G01*
X136092126Y-146280154D01*
X137895249Y-148083277D01*
X136127482Y-149851044D01*
X134324359Y-148047921D01*
G37*
%TD*%
%TO.C,MX41*%
G36*
X177373666Y-137560327D02*
G01*
X176123666Y-135395263D01*
X178332030Y-134120263D01*
X179582030Y-136285327D01*
X177373666Y-137560327D01*
G37*
G36*
X188098118Y-128435623D02*
G01*
X186848118Y-126270559D01*
X189056482Y-124995559D01*
X190306482Y-127160623D01*
X188098118Y-128435623D01*
G37*
%TD*%
%TO.C,MX42*%
G36*
X196452168Y-127150622D02*
G01*
X195805121Y-124735807D01*
X198268232Y-124075818D01*
X198915279Y-126490633D01*
X196452168Y-127150622D01*
G37*
G36*
X209172841Y-121112527D02*
G01*
X208525794Y-118697712D01*
X210988905Y-118037723D01*
X211635952Y-120452538D01*
X209172841Y-121112527D01*
G37*
%TD*%
M02*
