%TF.GenerationSoftware,KiCad,Pcbnew,(5.1.6)-1*%
%TF.CreationDate,2020-07-11T10:23:58-05:00*%
%TF.ProjectId,ErgoChoco,4572676f-4368-46f6-936f-2e6b69636164,v1.0*%
%TF.SameCoordinates,Original*%
%TF.FileFunction,Legend,Top*%
%TF.FilePolarity,Positive*%
%FSLAX46Y46*%
G04 Gerber Fmt 4.6, Leading zero omitted, Abs format (unit mm)*
G04 Created by KiCad (PCBNEW (5.1.6)-1) date 2020-07-11 10:23:58*
%MOMM*%
%LPD*%
G01*
G04 APERTURE LIST*
%ADD10C,0.150000*%
%ADD11C,0.300000*%
%TA.AperFunction,Profile*%
%ADD12C,0.050000*%
%TD*%
%ADD13C,0.100000*%
%ADD14C,0.120000*%
%TA.AperFunction,Profile*%
%ADD15C,0.001000*%
%TD*%
%ADD16C,0.127000*%
%ADD17C,0.015000*%
G04 APERTURE END LIST*
D10*
X215807142Y-120252380D02*
X215807142Y-119585714D01*
X215807142Y-119776190D02*
X215854761Y-119680952D01*
X215902380Y-119633333D01*
X215997619Y-119585714D01*
X216092857Y-119585714D01*
X216807142Y-120204761D02*
X216711904Y-120252380D01*
X216521428Y-120252380D01*
X216426190Y-120204761D01*
X216378571Y-120109523D01*
X216378571Y-119728571D01*
X216426190Y-119633333D01*
X216521428Y-119585714D01*
X216711904Y-119585714D01*
X216807142Y-119633333D01*
X216854761Y-119728571D01*
X216854761Y-119823809D01*
X216378571Y-119919047D01*
X217283333Y-119585714D02*
X217283333Y-120585714D01*
X217283333Y-119633333D02*
X217378571Y-119585714D01*
X217569047Y-119585714D01*
X217664285Y-119633333D01*
X217711904Y-119680952D01*
X217759523Y-119776190D01*
X217759523Y-120061904D01*
X217711904Y-120157142D01*
X217664285Y-120204761D01*
X217569047Y-120252380D01*
X217378571Y-120252380D01*
X217283333Y-120204761D01*
X218330952Y-120252380D02*
X218235714Y-120204761D01*
X218188095Y-120157142D01*
X218140476Y-120061904D01*
X218140476Y-119776190D01*
X218188095Y-119680952D01*
X218235714Y-119633333D01*
X218330952Y-119585714D01*
X218473809Y-119585714D01*
X218569047Y-119633333D01*
X218616666Y-119680952D01*
X218664285Y-119776190D01*
X218664285Y-120061904D01*
X218616666Y-120157142D01*
X218569047Y-120204761D01*
X218473809Y-120252380D01*
X218330952Y-120252380D01*
X219092857Y-120157142D02*
X219140476Y-120204761D01*
X219092857Y-120252380D01*
X219045238Y-120204761D01*
X219092857Y-120157142D01*
X219092857Y-120252380D01*
X219092857Y-119633333D02*
X219140476Y-119680952D01*
X219092857Y-119728571D01*
X219045238Y-119680952D01*
X219092857Y-119633333D01*
X219092857Y-119728571D01*
X215769047Y-122077380D02*
X215769047Y-121077380D01*
X216197619Y-122077380D02*
X216197619Y-121553571D01*
X216150000Y-121458333D01*
X216054761Y-121410714D01*
X215911904Y-121410714D01*
X215816666Y-121458333D01*
X215769047Y-121505952D01*
X216530952Y-121410714D02*
X216911904Y-121410714D01*
X216673809Y-121077380D02*
X216673809Y-121934523D01*
X216721428Y-122029761D01*
X216816666Y-122077380D01*
X216911904Y-122077380D01*
X217102380Y-121410714D02*
X217483333Y-121410714D01*
X217245238Y-121077380D02*
X217245238Y-121934523D01*
X217292857Y-122029761D01*
X217388095Y-122077380D01*
X217483333Y-122077380D01*
X217816666Y-121410714D02*
X217816666Y-122410714D01*
X217816666Y-121458333D02*
X217911904Y-121410714D01*
X218102380Y-121410714D01*
X218197619Y-121458333D01*
X218245238Y-121505952D01*
X218292857Y-121601190D01*
X218292857Y-121886904D01*
X218245238Y-121982142D01*
X218197619Y-122029761D01*
X218102380Y-122077380D01*
X217911904Y-122077380D01*
X217816666Y-122029761D01*
X218673809Y-122029761D02*
X218769047Y-122077380D01*
X218959523Y-122077380D01*
X219054761Y-122029761D01*
X219102380Y-121934523D01*
X219102380Y-121886904D01*
X219054761Y-121791666D01*
X218959523Y-121744047D01*
X218816666Y-121744047D01*
X218721428Y-121696428D01*
X218673809Y-121601190D01*
X218673809Y-121553571D01*
X218721428Y-121458333D01*
X218816666Y-121410714D01*
X218959523Y-121410714D01*
X219054761Y-121458333D01*
X219530952Y-121982142D02*
X219578571Y-122029761D01*
X219530952Y-122077380D01*
X219483333Y-122029761D01*
X219530952Y-121982142D01*
X219530952Y-122077380D01*
X219530952Y-121458333D02*
X219578571Y-121505952D01*
X219530952Y-121553571D01*
X219483333Y-121505952D01*
X219530952Y-121458333D01*
X219530952Y-121553571D01*
X220721428Y-121029761D02*
X219864285Y-122315476D01*
X221769047Y-121029761D02*
X220911904Y-122315476D01*
X222530952Y-121410714D02*
X222530952Y-122220238D01*
X222483333Y-122315476D01*
X222435714Y-122363095D01*
X222340476Y-122410714D01*
X222197619Y-122410714D01*
X222102380Y-122363095D01*
X222530952Y-122029761D02*
X222435714Y-122077380D01*
X222245238Y-122077380D01*
X222150000Y-122029761D01*
X222102380Y-121982142D01*
X222054761Y-121886904D01*
X222054761Y-121601190D01*
X222102380Y-121505952D01*
X222150000Y-121458333D01*
X222245238Y-121410714D01*
X222435714Y-121410714D01*
X222530952Y-121458333D01*
X223007142Y-122077380D02*
X223007142Y-121410714D01*
X223007142Y-121077380D02*
X222959523Y-121125000D01*
X223007142Y-121172619D01*
X223054761Y-121125000D01*
X223007142Y-121077380D01*
X223007142Y-121172619D01*
X223340476Y-121410714D02*
X223721428Y-121410714D01*
X223483333Y-121077380D02*
X223483333Y-121934523D01*
X223530952Y-122029761D01*
X223626190Y-122077380D01*
X223721428Y-122077380D01*
X224054761Y-122077380D02*
X224054761Y-121077380D01*
X224483333Y-122077380D02*
X224483333Y-121553571D01*
X224435714Y-121458333D01*
X224340476Y-121410714D01*
X224197619Y-121410714D01*
X224102380Y-121458333D01*
X224054761Y-121505952D01*
X225388095Y-121410714D02*
X225388095Y-122077380D01*
X224959523Y-121410714D02*
X224959523Y-121934523D01*
X225007142Y-122029761D01*
X225102380Y-122077380D01*
X225245238Y-122077380D01*
X225340476Y-122029761D01*
X225388095Y-121982142D01*
X225864285Y-122077380D02*
X225864285Y-121077380D01*
X225864285Y-121458333D02*
X225959523Y-121410714D01*
X226150000Y-121410714D01*
X226245238Y-121458333D01*
X226292857Y-121505952D01*
X226340476Y-121601190D01*
X226340476Y-121886904D01*
X226292857Y-121982142D01*
X226245238Y-122029761D01*
X226150000Y-122077380D01*
X225959523Y-122077380D01*
X225864285Y-122029761D01*
X226769047Y-121982142D02*
X226816666Y-122029761D01*
X226769047Y-122077380D01*
X226721428Y-122029761D01*
X226769047Y-121982142D01*
X226769047Y-122077380D01*
X227673809Y-122029761D02*
X227578571Y-122077380D01*
X227388095Y-122077380D01*
X227292857Y-122029761D01*
X227245238Y-121982142D01*
X227197619Y-121886904D01*
X227197619Y-121601190D01*
X227245238Y-121505952D01*
X227292857Y-121458333D01*
X227388095Y-121410714D01*
X227578571Y-121410714D01*
X227673809Y-121458333D01*
X228245238Y-122077380D02*
X228150000Y-122029761D01*
X228102380Y-121982142D01*
X228054761Y-121886904D01*
X228054761Y-121601190D01*
X228102380Y-121505952D01*
X228150000Y-121458333D01*
X228245238Y-121410714D01*
X228388095Y-121410714D01*
X228483333Y-121458333D01*
X228530952Y-121505952D01*
X228578571Y-121601190D01*
X228578571Y-121886904D01*
X228530952Y-121982142D01*
X228483333Y-122029761D01*
X228388095Y-122077380D01*
X228245238Y-122077380D01*
X229007142Y-122077380D02*
X229007142Y-121410714D01*
X229007142Y-121505952D02*
X229054761Y-121458333D01*
X229150000Y-121410714D01*
X229292857Y-121410714D01*
X229388095Y-121458333D01*
X229435714Y-121553571D01*
X229435714Y-122077380D01*
X229435714Y-121553571D02*
X229483333Y-121458333D01*
X229578571Y-121410714D01*
X229721428Y-121410714D01*
X229816666Y-121458333D01*
X229864285Y-121553571D01*
X229864285Y-122077380D01*
X231054761Y-121029761D02*
X230197619Y-122315476D01*
X231959523Y-121982142D02*
X231911904Y-122029761D01*
X231769047Y-122077380D01*
X231673809Y-122077380D01*
X231530952Y-122029761D01*
X231435714Y-121934523D01*
X231388095Y-121839285D01*
X231340476Y-121648809D01*
X231340476Y-121505952D01*
X231388095Y-121315476D01*
X231435714Y-121220238D01*
X231530952Y-121125000D01*
X231673809Y-121077380D01*
X231769047Y-121077380D01*
X231911904Y-121125000D01*
X231959523Y-121172619D01*
X232388095Y-122077380D02*
X232388095Y-121077380D01*
X232816666Y-122077380D02*
X232816666Y-121553571D01*
X232769047Y-121458333D01*
X232673809Y-121410714D01*
X232530952Y-121410714D01*
X232435714Y-121458333D01*
X232388095Y-121505952D01*
X233435714Y-122077380D02*
X233340476Y-122029761D01*
X233292857Y-121982142D01*
X233245238Y-121886904D01*
X233245238Y-121601190D01*
X233292857Y-121505952D01*
X233340476Y-121458333D01*
X233435714Y-121410714D01*
X233578571Y-121410714D01*
X233673809Y-121458333D01*
X233721428Y-121505952D01*
X233769047Y-121601190D01*
X233769047Y-121886904D01*
X233721428Y-121982142D01*
X233673809Y-122029761D01*
X233578571Y-122077380D01*
X233435714Y-122077380D01*
X234626190Y-122029761D02*
X234530952Y-122077380D01*
X234340476Y-122077380D01*
X234245238Y-122029761D01*
X234197619Y-121982142D01*
X234150000Y-121886904D01*
X234150000Y-121601190D01*
X234197619Y-121505952D01*
X234245238Y-121458333D01*
X234340476Y-121410714D01*
X234530952Y-121410714D01*
X234626190Y-121458333D01*
X235197619Y-122077380D02*
X235102380Y-122029761D01*
X235054761Y-121982142D01*
X235007142Y-121886904D01*
X235007142Y-121601190D01*
X235054761Y-121505952D01*
X235102380Y-121458333D01*
X235197619Y-121410714D01*
X235340476Y-121410714D01*
X235435714Y-121458333D01*
X235483333Y-121505952D01*
X235530952Y-121601190D01*
X235530952Y-121886904D01*
X235483333Y-121982142D01*
X235435714Y-122029761D01*
X235340476Y-122077380D01*
X235197619Y-122077380D01*
X236388095Y-121077380D02*
X236197619Y-121077380D01*
X236102380Y-121125000D01*
X236054761Y-121172619D01*
X235959523Y-121315476D01*
X235911904Y-121505952D01*
X235911904Y-121886904D01*
X235959523Y-121982142D01*
X236007142Y-122029761D01*
X236102380Y-122077380D01*
X236292857Y-122077380D01*
X236388095Y-122029761D01*
X236435714Y-121982142D01*
X236483333Y-121886904D01*
X236483333Y-121648809D01*
X236435714Y-121553571D01*
X236388095Y-121505952D01*
X236292857Y-121458333D01*
X236102380Y-121458333D01*
X236007142Y-121505952D01*
X235959523Y-121553571D01*
X235911904Y-121648809D01*
X237435714Y-122077380D02*
X236864285Y-122077380D01*
X237150000Y-122077380D02*
X237150000Y-121077380D01*
X237054761Y-121220238D01*
X236959523Y-121315476D01*
X236864285Y-121363095D01*
X237769047Y-121077380D02*
X238435714Y-121077380D01*
X238007142Y-122077380D01*
X239530952Y-121029761D02*
X238673809Y-122315476D01*
X239864285Y-121553571D02*
X240197619Y-121553571D01*
X240340476Y-122077380D02*
X239864285Y-122077380D01*
X239864285Y-121077380D01*
X240340476Y-121077380D01*
X240769047Y-122077380D02*
X240769047Y-121410714D01*
X240769047Y-121601190D02*
X240816666Y-121505952D01*
X240864285Y-121458333D01*
X240959523Y-121410714D01*
X241054761Y-121410714D01*
X241816666Y-121410714D02*
X241816666Y-122220238D01*
X241769047Y-122315476D01*
X241721428Y-122363095D01*
X241626190Y-122410714D01*
X241483333Y-122410714D01*
X241388095Y-122363095D01*
X241816666Y-122029761D02*
X241721428Y-122077380D01*
X241530952Y-122077380D01*
X241435714Y-122029761D01*
X241388095Y-121982142D01*
X241340476Y-121886904D01*
X241340476Y-121601190D01*
X241388095Y-121505952D01*
X241435714Y-121458333D01*
X241530952Y-121410714D01*
X241721428Y-121410714D01*
X241816666Y-121458333D01*
X242435714Y-122077380D02*
X242340476Y-122029761D01*
X242292857Y-121982142D01*
X242245238Y-121886904D01*
X242245238Y-121601190D01*
X242292857Y-121505952D01*
X242340476Y-121458333D01*
X242435714Y-121410714D01*
X242578571Y-121410714D01*
X242673809Y-121458333D01*
X242721428Y-121505952D01*
X242769047Y-121601190D01*
X242769047Y-121886904D01*
X242721428Y-121982142D01*
X242673809Y-122029761D01*
X242578571Y-122077380D01*
X242435714Y-122077380D01*
X243769047Y-121982142D02*
X243721428Y-122029761D01*
X243578571Y-122077380D01*
X243483333Y-122077380D01*
X243340476Y-122029761D01*
X243245238Y-121934523D01*
X243197619Y-121839285D01*
X243150000Y-121648809D01*
X243150000Y-121505952D01*
X243197619Y-121315476D01*
X243245238Y-121220238D01*
X243340476Y-121125000D01*
X243483333Y-121077380D01*
X243578571Y-121077380D01*
X243721428Y-121125000D01*
X243769047Y-121172619D01*
X244197619Y-122077380D02*
X244197619Y-121077380D01*
X244626190Y-122077380D02*
X244626190Y-121553571D01*
X244578571Y-121458333D01*
X244483333Y-121410714D01*
X244340476Y-121410714D01*
X244245238Y-121458333D01*
X244197619Y-121505952D01*
X245245238Y-122077380D02*
X245150000Y-122029761D01*
X245102380Y-121982142D01*
X245054761Y-121886904D01*
X245054761Y-121601190D01*
X245102380Y-121505952D01*
X245150000Y-121458333D01*
X245245238Y-121410714D01*
X245388095Y-121410714D01*
X245483333Y-121458333D01*
X245530952Y-121505952D01*
X245578571Y-121601190D01*
X245578571Y-121886904D01*
X245530952Y-121982142D01*
X245483333Y-122029761D01*
X245388095Y-122077380D01*
X245245238Y-122077380D01*
X246435714Y-122029761D02*
X246340476Y-122077380D01*
X246150000Y-122077380D01*
X246054761Y-122029761D01*
X246007142Y-121982142D01*
X245959523Y-121886904D01*
X245959523Y-121601190D01*
X246007142Y-121505952D01*
X246054761Y-121458333D01*
X246150000Y-121410714D01*
X246340476Y-121410714D01*
X246435714Y-121458333D01*
X247007142Y-122077380D02*
X246911904Y-122029761D01*
X246864285Y-121982142D01*
X246816666Y-121886904D01*
X246816666Y-121601190D01*
X246864285Y-121505952D01*
X246911904Y-121458333D01*
X247007142Y-121410714D01*
X247150000Y-121410714D01*
X247245238Y-121458333D01*
X247292857Y-121505952D01*
X247340476Y-121601190D01*
X247340476Y-121886904D01*
X247292857Y-121982142D01*
X247245238Y-122029761D01*
X247150000Y-122077380D01*
X247007142Y-122077380D01*
X247769047Y-121696428D02*
X248530952Y-121696428D01*
X249007142Y-122077380D02*
X249007142Y-121077380D01*
X249388095Y-121077380D01*
X249483333Y-121125000D01*
X249530952Y-121172619D01*
X249578571Y-121267857D01*
X249578571Y-121410714D01*
X249530952Y-121505952D01*
X249483333Y-121553571D01*
X249388095Y-121601190D01*
X249007142Y-121601190D01*
X250578571Y-121982142D02*
X250530952Y-122029761D01*
X250388095Y-122077380D01*
X250292857Y-122077380D01*
X250150000Y-122029761D01*
X250054761Y-121934523D01*
X250007142Y-121839285D01*
X249959523Y-121648809D01*
X249959523Y-121505952D01*
X250007142Y-121315476D01*
X250054761Y-121220238D01*
X250150000Y-121125000D01*
X250292857Y-121077380D01*
X250388095Y-121077380D01*
X250530952Y-121125000D01*
X250578571Y-121172619D01*
X251340476Y-121553571D02*
X251483333Y-121601190D01*
X251530952Y-121648809D01*
X251578571Y-121744047D01*
X251578571Y-121886904D01*
X251530952Y-121982142D01*
X251483333Y-122029761D01*
X251388095Y-122077380D01*
X251007142Y-122077380D01*
X251007142Y-121077380D01*
X251340476Y-121077380D01*
X251435714Y-121125000D01*
X251483333Y-121172619D01*
X251530952Y-121267857D01*
X251530952Y-121363095D01*
X251483333Y-121458333D01*
X251435714Y-121505952D01*
X251340476Y-121553571D01*
X251007142Y-121553571D01*
D11*
X54207142Y-123728571D02*
X54207142Y-122228571D01*
X54207142Y-123657142D02*
X54064285Y-123728571D01*
X53778571Y-123728571D01*
X53635714Y-123657142D01*
X53564285Y-123585714D01*
X53492857Y-123442857D01*
X53492857Y-123014285D01*
X53564285Y-122871428D01*
X53635714Y-122800000D01*
X53778571Y-122728571D01*
X54064285Y-122728571D01*
X54207142Y-122800000D01*
X55492857Y-123657142D02*
X55349999Y-123728571D01*
X55064285Y-123728571D01*
X54921428Y-123657142D01*
X54849999Y-123514285D01*
X54849999Y-122942857D01*
X54921428Y-122800000D01*
X55064285Y-122728571D01*
X55349999Y-122728571D01*
X55492857Y-122800000D01*
X55564285Y-122942857D01*
X55564285Y-123085714D01*
X54849999Y-123228571D01*
X56135714Y-123657142D02*
X56278571Y-123728571D01*
X56564285Y-123728571D01*
X56707142Y-123657142D01*
X56778571Y-123514285D01*
X56778571Y-123442857D01*
X56707142Y-123300000D01*
X56564285Y-123228571D01*
X56349999Y-123228571D01*
X56207142Y-123157142D01*
X56135714Y-123014285D01*
X56135714Y-122942857D01*
X56207142Y-122800000D01*
X56349999Y-122728571D01*
X56564285Y-122728571D01*
X56707142Y-122800000D01*
X57421428Y-123728571D02*
X57421428Y-122728571D01*
X57421428Y-122228571D02*
X57349999Y-122300000D01*
X57421428Y-122371428D01*
X57492857Y-122300000D01*
X57421428Y-122228571D01*
X57421428Y-122371428D01*
X58778571Y-122728571D02*
X58778571Y-123942857D01*
X58707142Y-124085714D01*
X58635714Y-124157142D01*
X58492857Y-124228571D01*
X58278571Y-124228571D01*
X58135714Y-124157142D01*
X58778571Y-123657142D02*
X58635714Y-123728571D01*
X58349999Y-123728571D01*
X58207142Y-123657142D01*
X58135714Y-123585714D01*
X58064285Y-123442857D01*
X58064285Y-123014285D01*
X58135714Y-122871428D01*
X58207142Y-122800000D01*
X58349999Y-122728571D01*
X58635714Y-122728571D01*
X58778571Y-122800000D01*
X59492857Y-122728571D02*
X59492857Y-123728571D01*
X59492857Y-122871428D02*
X59564285Y-122800000D01*
X59707142Y-122728571D01*
X59921428Y-122728571D01*
X60064285Y-122800000D01*
X60135714Y-122942857D01*
X60135714Y-123728571D01*
X61421428Y-123657142D02*
X61278571Y-123728571D01*
X60992857Y-123728571D01*
X60849999Y-123657142D01*
X60778571Y-123514285D01*
X60778571Y-122942857D01*
X60849999Y-122800000D01*
X60992857Y-122728571D01*
X61278571Y-122728571D01*
X61421428Y-122800000D01*
X61492857Y-122942857D01*
X61492857Y-123085714D01*
X60778571Y-123228571D01*
X62778571Y-123728571D02*
X62778571Y-122228571D01*
X62778571Y-123657142D02*
X62635714Y-123728571D01*
X62349999Y-123728571D01*
X62207142Y-123657142D01*
X62135714Y-123585714D01*
X62064285Y-123442857D01*
X62064285Y-123014285D01*
X62135714Y-122871428D01*
X62207142Y-122800000D01*
X62349999Y-122728571D01*
X62635714Y-122728571D01*
X62778571Y-122800000D01*
X64635714Y-123728571D02*
X64635714Y-122228571D01*
X64635714Y-122800000D02*
X64778571Y-122728571D01*
X65064285Y-122728571D01*
X65207142Y-122800000D01*
X65278571Y-122871428D01*
X65349999Y-123014285D01*
X65349999Y-123442857D01*
X65278571Y-123585714D01*
X65207142Y-123657142D01*
X65064285Y-123728571D01*
X64778571Y-123728571D01*
X64635714Y-123657142D01*
X65849999Y-122728571D02*
X66207142Y-123728571D01*
X66564285Y-122728571D02*
X66207142Y-123728571D01*
X66064285Y-124085714D01*
X65992857Y-124157142D01*
X65849999Y-124228571D01*
X68921428Y-122728571D02*
X68921428Y-123728571D01*
X68278571Y-122728571D02*
X68278571Y-123514285D01*
X68350000Y-123657142D01*
X68492857Y-123728571D01*
X68707142Y-123728571D01*
X68850000Y-123657142D01*
X68921428Y-123585714D01*
X70707142Y-122157142D02*
X69421428Y-124085714D01*
X72064285Y-123585714D02*
X71992857Y-123657142D01*
X71778571Y-123728571D01*
X71635714Y-123728571D01*
X71421428Y-123657142D01*
X71278571Y-123514285D01*
X71207142Y-123371428D01*
X71135714Y-123085714D01*
X71135714Y-122871428D01*
X71207142Y-122585714D01*
X71278571Y-122442857D01*
X71421428Y-122300000D01*
X71635714Y-122228571D01*
X71778571Y-122228571D01*
X71992857Y-122300000D01*
X72064285Y-122371428D01*
X72707142Y-123728571D02*
X72707142Y-122228571D01*
X73350000Y-123728571D02*
X73350000Y-122942857D01*
X73278571Y-122800000D01*
X73135714Y-122728571D01*
X72921428Y-122728571D01*
X72778571Y-122800000D01*
X72707142Y-122871428D01*
X74278571Y-123728571D02*
X74135714Y-123657142D01*
X74064285Y-123585714D01*
X73992857Y-123442857D01*
X73992857Y-123014285D01*
X74064285Y-122871428D01*
X74135714Y-122800000D01*
X74278571Y-122728571D01*
X74492857Y-122728571D01*
X74635714Y-122800000D01*
X74707142Y-122871428D01*
X74778571Y-123014285D01*
X74778571Y-123442857D01*
X74707142Y-123585714D01*
X74635714Y-123657142D01*
X74492857Y-123728571D01*
X74278571Y-123728571D01*
X76064285Y-123657142D02*
X75921428Y-123728571D01*
X75635714Y-123728571D01*
X75492857Y-123657142D01*
X75421428Y-123585714D01*
X75350000Y-123442857D01*
X75350000Y-123014285D01*
X75421428Y-122871428D01*
X75492857Y-122800000D01*
X75635714Y-122728571D01*
X75921428Y-122728571D01*
X76064285Y-122800000D01*
X76921428Y-123728571D02*
X76778571Y-123657142D01*
X76707142Y-123585714D01*
X76635714Y-123442857D01*
X76635714Y-123014285D01*
X76707142Y-122871428D01*
X76778571Y-122800000D01*
X76921428Y-122728571D01*
X77135714Y-122728571D01*
X77278571Y-122800000D01*
X77350000Y-122871428D01*
X77421428Y-123014285D01*
X77421428Y-123442857D01*
X77350000Y-123585714D01*
X77278571Y-123657142D01*
X77135714Y-123728571D01*
X76921428Y-123728571D01*
X78707142Y-122228571D02*
X78421428Y-122228571D01*
X78278571Y-122300000D01*
X78207142Y-122371428D01*
X78064285Y-122585714D01*
X77992857Y-122871428D01*
X77992857Y-123442857D01*
X78064285Y-123585714D01*
X78135714Y-123657142D01*
X78278571Y-123728571D01*
X78564285Y-123728571D01*
X78707142Y-123657142D01*
X78778571Y-123585714D01*
X78850000Y-123442857D01*
X78850000Y-123085714D01*
X78778571Y-122942857D01*
X78707142Y-122871428D01*
X78564285Y-122800000D01*
X78278571Y-122800000D01*
X78135714Y-122871428D01*
X78064285Y-122942857D01*
X77992857Y-123085714D01*
X80278571Y-123728571D02*
X79421428Y-123728571D01*
X79850000Y-123728571D02*
X79850000Y-122228571D01*
X79707142Y-122442857D01*
X79564285Y-122585714D01*
X79421428Y-122657142D01*
X80778571Y-122228571D02*
X81778571Y-122228571D01*
X81135714Y-123728571D01*
X53500000Y-120442857D02*
X54000000Y-120442857D01*
X54214285Y-121228571D02*
X53500000Y-121228571D01*
X53500000Y-119728571D01*
X54214285Y-119728571D01*
X54857142Y-121228571D02*
X54857142Y-120228571D01*
X54857142Y-120514285D02*
X54928571Y-120371428D01*
X55000000Y-120300000D01*
X55142857Y-120228571D01*
X55285714Y-120228571D01*
X56428571Y-120228571D02*
X56428571Y-121442857D01*
X56357142Y-121585714D01*
X56285714Y-121657142D01*
X56142857Y-121728571D01*
X55928571Y-121728571D01*
X55785714Y-121657142D01*
X56428571Y-121157142D02*
X56285714Y-121228571D01*
X56000000Y-121228571D01*
X55857142Y-121157142D01*
X55785714Y-121085714D01*
X55714285Y-120942857D01*
X55714285Y-120514285D01*
X55785714Y-120371428D01*
X55857142Y-120300000D01*
X56000000Y-120228571D01*
X56285714Y-120228571D01*
X56428571Y-120300000D01*
X57357142Y-121228571D02*
X57214285Y-121157142D01*
X57142857Y-121085714D01*
X57071428Y-120942857D01*
X57071428Y-120514285D01*
X57142857Y-120371428D01*
X57214285Y-120300000D01*
X57357142Y-120228571D01*
X57571428Y-120228571D01*
X57714285Y-120300000D01*
X57785714Y-120371428D01*
X57857142Y-120514285D01*
X57857142Y-120942857D01*
X57785714Y-121085714D01*
X57714285Y-121157142D01*
X57571428Y-121228571D01*
X57357142Y-121228571D01*
X59357142Y-121085714D02*
X59285714Y-121157142D01*
X59071428Y-121228571D01*
X58928571Y-121228571D01*
X58714285Y-121157142D01*
X58571428Y-121014285D01*
X58500000Y-120871428D01*
X58428571Y-120585714D01*
X58428571Y-120371428D01*
X58500000Y-120085714D01*
X58571428Y-119942857D01*
X58714285Y-119800000D01*
X58928571Y-119728571D01*
X59071428Y-119728571D01*
X59285714Y-119800000D01*
X59357142Y-119871428D01*
X60000000Y-121228571D02*
X60000000Y-119728571D01*
X60642857Y-121228571D02*
X60642857Y-120442857D01*
X60571428Y-120300000D01*
X60428571Y-120228571D01*
X60214285Y-120228571D01*
X60071428Y-120300000D01*
X60000000Y-120371428D01*
X61571428Y-121228571D02*
X61428571Y-121157142D01*
X61357142Y-121085714D01*
X61285714Y-120942857D01*
X61285714Y-120514285D01*
X61357142Y-120371428D01*
X61428571Y-120300000D01*
X61571428Y-120228571D01*
X61785714Y-120228571D01*
X61928571Y-120300000D01*
X62000000Y-120371428D01*
X62071428Y-120514285D01*
X62071428Y-120942857D01*
X62000000Y-121085714D01*
X61928571Y-121157142D01*
X61785714Y-121228571D01*
X61571428Y-121228571D01*
X63357142Y-121157142D02*
X63214285Y-121228571D01*
X62928571Y-121228571D01*
X62785714Y-121157142D01*
X62714285Y-121085714D01*
X62642857Y-120942857D01*
X62642857Y-120514285D01*
X62714285Y-120371428D01*
X62785714Y-120300000D01*
X62928571Y-120228571D01*
X63214285Y-120228571D01*
X63357142Y-120300000D01*
X64214285Y-121228571D02*
X64071428Y-121157142D01*
X64000000Y-121085714D01*
X63928571Y-120942857D01*
X63928571Y-120514285D01*
X64000000Y-120371428D01*
X64071428Y-120300000D01*
X64214285Y-120228571D01*
X64428571Y-120228571D01*
X64571428Y-120300000D01*
X64642857Y-120371428D01*
X64714285Y-120514285D01*
X64714285Y-120942857D01*
X64642857Y-121085714D01*
X64571428Y-121157142D01*
X64428571Y-121228571D01*
X64214285Y-121228571D01*
X66357142Y-120228571D02*
X66714285Y-121228571D01*
X67071428Y-120228571D01*
X68428571Y-121228571D02*
X67571428Y-121228571D01*
X68000000Y-121228571D02*
X68000000Y-119728571D01*
X67857142Y-119942857D01*
X67714285Y-120085714D01*
X67571428Y-120157142D01*
X69071428Y-121085714D02*
X69142857Y-121157142D01*
X69071428Y-121228571D01*
X69000000Y-121157142D01*
X69071428Y-121085714D01*
X69071428Y-121228571D01*
X70071428Y-119728571D02*
X70214285Y-119728571D01*
X70357142Y-119800000D01*
X70428571Y-119871428D01*
X70500000Y-120014285D01*
X70571428Y-120300000D01*
X70571428Y-120657142D01*
X70500000Y-120942857D01*
X70428571Y-121085714D01*
X70357142Y-121157142D01*
X70214285Y-121228571D01*
X70071428Y-121228571D01*
X69928571Y-121157142D01*
X69857142Y-121085714D01*
X69785714Y-120942857D01*
X69714285Y-120657142D01*
X69714285Y-120300000D01*
X69785714Y-120014285D01*
X69857142Y-119871428D01*
X69928571Y-119800000D01*
X70071428Y-119728571D01*
D12*
X276431250Y-49500000D02*
G75*
G02*
X279431250Y-52500000I0J-3000000D01*
G01*
X279431245Y-107828643D02*
G75*
G02*
X277699100Y-110547560I-2999995J3D01*
G01*
X169034025Y-161218923D02*
G75*
G02*
X167766170Y-161500000I-1267855J2718923D01*
G01*
X129096333Y-161499995D02*
G75*
G02*
X127828480Y-161218920I-3J2999995D01*
G01*
X19163395Y-110547563D02*
G75*
G02*
X17431250Y-107828640I1267855J2718923D01*
G01*
X17431250Y-52500000D02*
G75*
G02*
X20431250Y-49500000I3000000J0D01*
G01*
X17431250Y-107828640D02*
X17431250Y-52500000D01*
X127828480Y-161218920D02*
X19163400Y-110547560D01*
X167766170Y-161500000D02*
X129096330Y-161500000D01*
X277699100Y-110547560D02*
X169034020Y-161218920D01*
X279431250Y-52500000D02*
X279431250Y-107828640D01*
X20431250Y-49500000D02*
X276431250Y-49500000D01*
D10*
%TO.C,MX40*%
X159597612Y-147917107D02*
X158890505Y-147210000D01*
X168790000Y-157109495D02*
X169497107Y-156402388D01*
X159597612Y-146502893D02*
X158890505Y-147210000D01*
X168790000Y-157109495D02*
X168082893Y-156402388D01*
X177982388Y-146502893D02*
X178689495Y-147210000D01*
X168790000Y-137310505D02*
X168082893Y-138017612D01*
X177982388Y-147917107D02*
X178689495Y-147210000D01*
X168790000Y-137310505D02*
X169497107Y-138017612D01*
%TO.C,SW1*%
X144034900Y-107094950D02*
G75*
G03*
X144034900Y-107094950I-1000000J0D01*
G01*
X140434900Y-104494950D02*
X145634900Y-104494950D01*
X140434900Y-109694950D02*
X140434900Y-104494950D01*
X145634900Y-109694950D02*
X140434900Y-109694950D01*
X145634900Y-104494950D02*
X145634900Y-109694950D01*
D13*
%TO.C,Q1*%
X231187000Y-111269500D02*
X230937000Y-111269500D01*
X230937000Y-111269500D02*
X230562000Y-111594500D01*
X230562000Y-111594500D02*
X230562000Y-111894500D01*
X230562000Y-111894500D02*
X229112000Y-111894500D01*
X234512000Y-111719500D02*
X234512000Y-111269500D01*
X234512000Y-111269500D02*
X234137000Y-111269500D01*
X230912000Y-118219500D02*
X230562000Y-118219500D01*
X230562000Y-118219500D02*
X230562000Y-117869500D01*
X234512000Y-117894500D02*
X234512000Y-118219500D01*
X234512000Y-118219500D02*
X234212000Y-118219500D01*
D10*
%TO.C,MX15*%
X69021433Y-72972712D02*
X69280253Y-72006786D01*
X65656786Y-85529747D02*
X66622712Y-85788567D01*
X70246178Y-72265605D02*
X69280253Y-72006786D01*
X65656786Y-85529747D02*
X65915605Y-84563822D01*
X79438567Y-88187288D02*
X79179747Y-89153214D01*
X82803214Y-75630253D02*
X81837288Y-75371433D01*
X78213822Y-88894395D02*
X79179747Y-89153214D01*
X82803214Y-75630253D02*
X82544395Y-76596178D01*
D14*
%TO.C,C1*%
X151580796Y-118084888D02*
X151215112Y-117719204D01*
X152584888Y-117080796D02*
X152219204Y-116715112D01*
%TO.C,C2*%
X150065112Y-140680796D02*
X150430796Y-140315112D01*
X151069204Y-141684888D02*
X151434888Y-141319204D01*
%TO.C,C3*%
X137784289Y-133663420D02*
X137418605Y-133297736D01*
X138788381Y-132659328D02*
X138422697Y-132293644D01*
%TO.C,C4*%
X158484888Y-134419204D02*
X158119204Y-134784888D01*
X157480796Y-133415112D02*
X157115112Y-133780796D01*
%TO.C,C5*%
X149669204Y-114215112D02*
X150034888Y-114580796D01*
X148665112Y-115219204D02*
X149030796Y-115584888D01*
%TO.C,C6*%
X134299029Y-124300760D02*
X133933345Y-123935076D01*
X135303121Y-123296668D02*
X134937437Y-122930984D01*
%TO.C,C7*%
X142136163Y-116463627D02*
X141770479Y-116097943D01*
X143140255Y-115459535D02*
X142774571Y-115093851D01*
%TO.C,D1*%
X47228094Y-67392370D02*
X49159946Y-67910008D01*
X49159946Y-67910008D02*
X50169340Y-64142897D01*
X47228094Y-67392370D02*
X48237489Y-63625259D01*
%TO.C,D2*%
X65578094Y-72302370D02*
X67509946Y-72820008D01*
X67509946Y-72820008D02*
X68519340Y-69052897D01*
X65578094Y-72302370D02*
X66587489Y-68535259D01*
%TO.C,D3*%
X87038094Y-65632370D02*
X88969946Y-66150008D01*
X88969946Y-66150008D02*
X89979340Y-62382897D01*
X87038094Y-65632370D02*
X88047489Y-61865259D01*
%TO.C,D4*%
X106938094Y-64752370D02*
X108869946Y-65270008D01*
X108869946Y-65270008D02*
X109879340Y-61502897D01*
X106938094Y-64752370D02*
X107947489Y-60985259D01*
%TO.C,D5*%
X123608094Y-75952370D02*
X125539946Y-76470008D01*
X125539946Y-76470008D02*
X126549340Y-72702897D01*
X123608094Y-75952370D02*
X124617489Y-72185259D01*
%TO.C,D6*%
X141318094Y-83282370D02*
X143249946Y-83800008D01*
X143249946Y-83800008D02*
X144259340Y-80032897D01*
X141318094Y-83282370D02*
X142327489Y-79515259D01*
%TO.C,D7*%
X171965143Y-78882446D02*
X173896995Y-78364808D01*
X173896995Y-78364808D02*
X172887600Y-74597697D01*
X171965143Y-78882446D02*
X170955749Y-75115335D01*
%TO.C,D8*%
X189675143Y-71552446D02*
X191606995Y-71034808D01*
X191606995Y-71034808D02*
X190597600Y-67267697D01*
X189675143Y-71552446D02*
X188665749Y-67785335D01*
%TO.C,D9*%
X206345143Y-60352446D02*
X208276995Y-59834808D01*
X208276995Y-59834808D02*
X207267600Y-56067697D01*
X206345143Y-60352446D02*
X205335749Y-56585335D01*
%TO.C,D10*%
X226245143Y-61232446D02*
X228176995Y-60714808D01*
X228176995Y-60714808D02*
X227167600Y-56947697D01*
X226245143Y-61232446D02*
X225235749Y-57465335D01*
%TO.C,D11*%
X247705143Y-67902446D02*
X249636995Y-67384808D01*
X249636995Y-67384808D02*
X248627600Y-63617697D01*
X247705143Y-67902446D02*
X246695749Y-64135335D01*
%TO.C,D12*%
X266055143Y-62992446D02*
X267986995Y-62474808D01*
X267986995Y-62474808D02*
X266977600Y-58707697D01*
X266055143Y-62992446D02*
X265045749Y-59225335D01*
%TO.C,D13*%
X42308094Y-85742370D02*
X44239946Y-86260008D01*
X44239946Y-86260008D02*
X45249340Y-82492897D01*
X42308094Y-85742370D02*
X43317489Y-81975259D01*
%TO.C,D14*%
X60658094Y-90662370D02*
X62589946Y-91180008D01*
X62589946Y-91180008D02*
X63599340Y-87412897D01*
X60658094Y-90662370D02*
X61667489Y-86895259D01*
%TO.C,D15*%
X82115361Y-83982370D02*
X84047213Y-84500008D01*
X84047213Y-84500008D02*
X85056607Y-80732897D01*
X82115361Y-83982370D02*
X83124756Y-80215259D01*
%TO.C,D16*%
X102028094Y-83112370D02*
X103959946Y-83630008D01*
X103959946Y-83630008D02*
X104969340Y-79862897D01*
X102028094Y-83112370D02*
X103037489Y-79345259D01*
%TO.C,D17*%
X118698094Y-94302370D02*
X120629946Y-94820008D01*
X120629946Y-94820008D02*
X121639340Y-91052897D01*
X118698094Y-94302370D02*
X119707489Y-90535259D01*
%TO.C,D18*%
X136398094Y-101632370D02*
X138329946Y-102150008D01*
X138329946Y-102150008D02*
X139339340Y-98382897D01*
X136398094Y-101632370D02*
X137407489Y-97865259D01*
%TO.C,D19*%
X176885143Y-97232446D02*
X178816995Y-96714808D01*
X178816995Y-96714808D02*
X177807600Y-92947697D01*
X176885143Y-97232446D02*
X175875749Y-93465335D01*
%TO.C,D20*%
X194585143Y-89902446D02*
X196516995Y-89384808D01*
X196516995Y-89384808D02*
X195507600Y-85617697D01*
X194585143Y-89902446D02*
X193575749Y-86135335D01*
%TO.C,D21*%
X211255143Y-78712446D02*
X213186995Y-78194808D01*
X213186995Y-78194808D02*
X212177600Y-74427697D01*
X211255143Y-78712446D02*
X210245749Y-74945335D01*
%TO.C,D22*%
X231165143Y-79582446D02*
X233096995Y-79064808D01*
X233096995Y-79064808D02*
X232087600Y-75297697D01*
X231165143Y-79582446D02*
X230155749Y-75815335D01*
%TO.C,D23*%
X252625143Y-86262446D02*
X254556995Y-85744808D01*
X254556995Y-85744808D02*
X253547600Y-81977697D01*
X252625143Y-86262446D02*
X251615749Y-82495335D01*
%TO.C,D24*%
X270975143Y-81342446D02*
X272906995Y-80824808D01*
X272906995Y-80824808D02*
X271897600Y-77057697D01*
X270975143Y-81342446D02*
X269965749Y-77575335D01*
%TO.C,D25*%
X37388094Y-104032370D02*
X39319946Y-104550008D01*
X39319946Y-104550008D02*
X40329340Y-100782897D01*
X37388094Y-104032370D02*
X38397489Y-100265259D01*
%TO.C,D26*%
X55748094Y-109012370D02*
X57679946Y-109530008D01*
X57679946Y-109530008D02*
X58689340Y-105762897D01*
X55748094Y-109012370D02*
X56757489Y-105245259D01*
%TO.C,D27*%
X77198094Y-102342370D02*
X79129946Y-102860008D01*
X79129946Y-102860008D02*
X80139340Y-99092897D01*
X77198094Y-102342370D02*
X78207489Y-98575259D01*
%TO.C,D28*%
X97108094Y-101462370D02*
X99039946Y-101980008D01*
X99039946Y-101980008D02*
X100049340Y-98212897D01*
X97108094Y-101462370D02*
X98117489Y-97695259D01*
%TO.C,D29*%
X114656731Y-109356514D02*
X116588583Y-109874152D01*
X116588583Y-109874152D02*
X117597977Y-106107041D01*
X114656731Y-109356514D02*
X115666126Y-105589403D01*
%TO.C,D30*%
X123815486Y-105766731D02*
X123297848Y-107698583D01*
X123297848Y-107698583D02*
X127064959Y-108707977D01*
X123815486Y-105766731D02*
X127582597Y-106776126D01*
%TO.C,D31*%
X181805143Y-115592446D02*
X183736995Y-115074808D01*
X183736995Y-115074808D02*
X182727600Y-111307697D01*
X181805143Y-115592446D02*
X180795749Y-111825335D01*
%TO.C,D32*%
X199505143Y-108252446D02*
X201436995Y-107734808D01*
X201436995Y-107734808D02*
X200427600Y-103967697D01*
X199505143Y-108252446D02*
X198495749Y-104485335D01*
%TO.C,D33*%
X216175143Y-97062446D02*
X218106995Y-96544808D01*
X218106995Y-96544808D02*
X217097600Y-92777697D01*
X216175143Y-97062446D02*
X215165749Y-93295335D01*
%TO.C,D34*%
X236085143Y-97942446D02*
X238016995Y-97424808D01*
X238016995Y-97424808D02*
X237007600Y-93657697D01*
X236085143Y-97942446D02*
X235075749Y-94175335D01*
%TO.C,D35*%
X257535143Y-104612446D02*
X259466995Y-104094808D01*
X259466995Y-104094808D02*
X258457600Y-100327697D01*
X257535143Y-104612446D02*
X256525749Y-100845335D01*
%TO.C,D36*%
X275895143Y-99692446D02*
X277826995Y-99174808D01*
X277826995Y-99174808D02*
X276817600Y-95407697D01*
X275895143Y-99692446D02*
X274885749Y-95925335D01*
%TO.C,D37*%
X99428094Y-129512370D02*
X101359946Y-130030008D01*
X101359946Y-130030008D02*
X102369340Y-126262897D01*
X99428094Y-129512370D02*
X100437489Y-125745259D01*
%TO.C,D38*%
X118342815Y-139199137D02*
X120074865Y-140199137D01*
X120074865Y-140199137D02*
X122024865Y-136821638D01*
X118342815Y-139199137D02*
X120292815Y-135821638D01*
%TO.C,D39*%
X133869143Y-153676193D02*
X135283357Y-155090407D01*
X135283357Y-155090407D02*
X138041073Y-152332691D01*
X133869143Y-153676193D02*
X136626859Y-150918477D01*
%TO.C,D40*%
X175917135Y-142496102D02*
X177331349Y-141081888D01*
X177331349Y-141081888D02*
X174573633Y-138324172D01*
X175917135Y-142496102D02*
X173159419Y-139738386D01*
%TO.C,D41*%
X194244665Y-131152310D02*
X195976715Y-130152310D01*
X195976715Y-130152310D02*
X194026715Y-126774811D01*
X194244665Y-131152310D02*
X192294665Y-127774811D01*
%TO.C,D42*%
X213855143Y-125112446D02*
X215786995Y-124594808D01*
X215786995Y-124594808D02*
X214777600Y-120827697D01*
X213855143Y-125112446D02*
X212845749Y-121345335D01*
%TO.C,F1*%
X141940000Y-61002064D02*
X141940000Y-59797936D01*
X143760000Y-61002064D02*
X143760000Y-59797936D01*
D15*
%TO.C,J1*%
X150330750Y-53924500D02*
X150330750Y-53850000D01*
X150981750Y-53775500D02*
X150981750Y-53850000D01*
X150331250Y-53850000D02*
X150331250Y-53775000D01*
X150981250Y-53850000D02*
X150981250Y-53925000D01*
X145880750Y-53924500D02*
X145880750Y-53850000D01*
X146531750Y-53775500D02*
X146531750Y-53850000D01*
X145881250Y-53850000D02*
X145881250Y-53775000D01*
X146531250Y-53850000D02*
X146531250Y-53925000D01*
D16*
X149881250Y-55100000D02*
G75*
G03*
X149881250Y-55100000I-150000J0D01*
G01*
X144681250Y-48700000D02*
X152181250Y-48700000D01*
X144681250Y-50325000D02*
X144681250Y-48700000D01*
X144681250Y-53700000D02*
X144681250Y-53200000D01*
X145431250Y-53700000D02*
X144681250Y-53700000D01*
X152181250Y-53700000D02*
X151431250Y-53700000D01*
X152181250Y-53200000D02*
X152181250Y-53700000D01*
X152181250Y-48700000D02*
X152181250Y-50325000D01*
D15*
X150656250Y-54250000D02*
G75*
G02*
X150330750Y-53924500I0J325500D01*
G01*
X150656250Y-53450000D02*
G75*
G02*
X150981750Y-53775500I0J-325500D01*
G01*
X150331250Y-53775000D02*
G75*
G02*
X150656250Y-53450000I325000J0D01*
G01*
X150981250Y-53925000D02*
G75*
G02*
X150656250Y-54250000I-325000J0D01*
G01*
X146206250Y-54250000D02*
G75*
G02*
X145880750Y-53924500I0J325500D01*
G01*
X146206250Y-53450000D02*
G75*
G02*
X146531750Y-53775500I0J-325500D01*
G01*
X145881250Y-53775000D02*
G75*
G02*
X146206250Y-53450000I325000J0D01*
G01*
X146531250Y-53925000D02*
G75*
G02*
X146206250Y-54250000I-325000J0D01*
G01*
D10*
%TO.C,MX1*%
X34131433Y-56382712D02*
X34390253Y-55416786D01*
X30766786Y-68939747D02*
X31732712Y-69198567D01*
X35356178Y-55675605D02*
X34390253Y-55416786D01*
X30766786Y-68939747D02*
X31025605Y-67973822D01*
X44548567Y-71597288D02*
X44289747Y-72563214D01*
X47913214Y-59040253D02*
X46947288Y-58781433D01*
X43323822Y-72304395D02*
X44289747Y-72563214D01*
X47913214Y-59040253D02*
X47654395Y-60006178D01*
%TO.C,MX2*%
X52481433Y-61292712D02*
X52740253Y-60326786D01*
X49116786Y-73849747D02*
X50082712Y-74108567D01*
X53706178Y-60585605D02*
X52740253Y-60326786D01*
X49116786Y-73849747D02*
X49375605Y-72883822D01*
X62898567Y-76507288D02*
X62639747Y-77473214D01*
X66263214Y-63950253D02*
X65297288Y-63691433D01*
X61673822Y-77214395D02*
X62639747Y-77473214D01*
X66263214Y-63950253D02*
X66004395Y-64916178D01*
%TO.C,MX3*%
X73941433Y-54622712D02*
X74200253Y-53656786D01*
X70576786Y-67179747D02*
X71542712Y-67438567D01*
X75166178Y-53915605D02*
X74200253Y-53656786D01*
X70576786Y-67179747D02*
X70835605Y-66213822D01*
X84358567Y-69837288D02*
X84099747Y-70803214D01*
X87723214Y-57280253D02*
X86757288Y-57021433D01*
X83133822Y-70544395D02*
X84099747Y-70803214D01*
X87723214Y-57280253D02*
X87464395Y-58246178D01*
%TO.C,MX4*%
X93841433Y-53742712D02*
X94100253Y-52776786D01*
X90476786Y-66299747D02*
X91442712Y-66558567D01*
X95066178Y-53035605D02*
X94100253Y-52776786D01*
X90476786Y-66299747D02*
X90735605Y-65333822D01*
X104258567Y-68957288D02*
X103999747Y-69923214D01*
X107623214Y-56400253D02*
X106657288Y-56141433D01*
X103033822Y-69664395D02*
X103999747Y-69923214D01*
X107623214Y-56400253D02*
X107364395Y-57366178D01*
%TO.C,MX5*%
X110511433Y-64942712D02*
X110770253Y-63976786D01*
X107146786Y-77499747D02*
X108112712Y-77758567D01*
X111736178Y-64235605D02*
X110770253Y-63976786D01*
X107146786Y-77499747D02*
X107405605Y-76533822D01*
X120928567Y-80157288D02*
X120669747Y-81123214D01*
X124293214Y-67600253D02*
X123327288Y-67341433D01*
X119703822Y-80864395D02*
X120669747Y-81123214D01*
X124293214Y-67600253D02*
X124034395Y-68566178D01*
%TO.C,MX6*%
X128221433Y-72272712D02*
X128480253Y-71306786D01*
X124856786Y-84829747D02*
X125822712Y-85088567D01*
X129446178Y-71565605D02*
X128480253Y-71306786D01*
X124856786Y-84829747D02*
X125115605Y-83863822D01*
X138638567Y-87487288D02*
X138379747Y-88453214D01*
X142003214Y-74930253D02*
X141037288Y-74671433D01*
X137413822Y-88194395D02*
X138379747Y-88453214D01*
X142003214Y-74930253D02*
X141744395Y-75896178D01*
%TO.C,MX7*%
X155115605Y-75896178D02*
X154856786Y-74930253D01*
X158480253Y-88453214D02*
X159446178Y-88194395D01*
X155822712Y-74671433D02*
X154856786Y-74930253D01*
X158480253Y-88453214D02*
X158221433Y-87487288D01*
X171744395Y-83863822D02*
X172003214Y-84829747D01*
X168379747Y-71306786D02*
X167413822Y-71565605D01*
X171037288Y-85088567D02*
X172003214Y-84829747D01*
X168379747Y-71306786D02*
X168638567Y-72272712D01*
%TO.C,MX8*%
X172825605Y-68566178D02*
X172566786Y-67600253D01*
X176190253Y-81123214D02*
X177156178Y-80864395D01*
X173532712Y-67341433D02*
X172566786Y-67600253D01*
X176190253Y-81123214D02*
X175931433Y-80157288D01*
X189454395Y-76533822D02*
X189713214Y-77499747D01*
X186089747Y-63976786D02*
X185123822Y-64235605D01*
X188747288Y-77758567D02*
X189713214Y-77499747D01*
X186089747Y-63976786D02*
X186348567Y-64942712D01*
%TO.C,MX9*%
X189495605Y-57366178D02*
X189236786Y-56400253D01*
X192860253Y-69923214D02*
X193826178Y-69664395D01*
X190202712Y-56141433D02*
X189236786Y-56400253D01*
X192860253Y-69923214D02*
X192601433Y-68957288D01*
X206124395Y-65333822D02*
X206383214Y-66299747D01*
X202759747Y-52776786D02*
X201793822Y-53035605D01*
X205417288Y-66558567D02*
X206383214Y-66299747D01*
X202759747Y-52776786D02*
X203018567Y-53742712D01*
%TO.C,MX10*%
X209395605Y-58246178D02*
X209136786Y-57280253D01*
X212760253Y-70803214D02*
X213726178Y-70544395D01*
X210102712Y-57021433D02*
X209136786Y-57280253D01*
X212760253Y-70803214D02*
X212501433Y-69837288D01*
X226024395Y-66213822D02*
X226283214Y-67179747D01*
X222659747Y-53656786D02*
X221693822Y-53915605D01*
X225317288Y-67438567D02*
X226283214Y-67179747D01*
X222659747Y-53656786D02*
X222918567Y-54622712D01*
%TO.C,MX11*%
X230855605Y-64916178D02*
X230596786Y-63950253D01*
X234220253Y-77473214D02*
X235186178Y-77214395D01*
X231562712Y-63691433D02*
X230596786Y-63950253D01*
X234220253Y-77473214D02*
X233961433Y-76507288D01*
X247484395Y-72883822D02*
X247743214Y-73849747D01*
X244119747Y-60326786D02*
X243153822Y-60585605D01*
X246777288Y-74108567D02*
X247743214Y-73849747D01*
X244119747Y-60326786D02*
X244378567Y-61292712D01*
%TO.C,MX12*%
X249205605Y-60006178D02*
X248946786Y-59040253D01*
X252570253Y-72563214D02*
X253536178Y-72304395D01*
X249912712Y-58781433D02*
X248946786Y-59040253D01*
X252570253Y-72563214D02*
X252311433Y-71597288D01*
X265834395Y-67973822D02*
X266093214Y-68939747D01*
X262469747Y-55416786D02*
X261503822Y-55675605D01*
X265127288Y-69198567D02*
X266093214Y-68939747D01*
X262469747Y-55416786D02*
X262728567Y-56382712D01*
%TO.C,MX13*%
X29211433Y-74732712D02*
X29470253Y-73766786D01*
X25846786Y-87289747D02*
X26812712Y-87548567D01*
X30436178Y-74025605D02*
X29470253Y-73766786D01*
X25846786Y-87289747D02*
X26105605Y-86323822D01*
X39628567Y-89947288D02*
X39369747Y-90913214D01*
X42993214Y-77390253D02*
X42027288Y-77131433D01*
X38403822Y-90654395D02*
X39369747Y-90913214D01*
X42993214Y-77390253D02*
X42734395Y-78356178D01*
%TO.C,MX14*%
X47561433Y-79652712D02*
X47820253Y-78686786D01*
X44196786Y-92209747D02*
X45162712Y-92468567D01*
X48786178Y-78945605D02*
X47820253Y-78686786D01*
X44196786Y-92209747D02*
X44455605Y-91243822D01*
X57978567Y-94867288D02*
X57719747Y-95833214D01*
X61343214Y-82310253D02*
X60377288Y-82051433D01*
X56753822Y-95574395D02*
X57719747Y-95833214D01*
X61343214Y-82310253D02*
X61084395Y-83276178D01*
%TO.C,MX16*%
X88931433Y-72102712D02*
X89190253Y-71136786D01*
X85566786Y-84659747D02*
X86532712Y-84918567D01*
X90156178Y-71395605D02*
X89190253Y-71136786D01*
X85566786Y-84659747D02*
X85825605Y-83693822D01*
X99348567Y-87317288D02*
X99089747Y-88283214D01*
X102713214Y-74760253D02*
X101747288Y-74501433D01*
X98123822Y-88024395D02*
X99089747Y-88283214D01*
X102713214Y-74760253D02*
X102454395Y-75726178D01*
%TO.C,MX17*%
X105601433Y-83292712D02*
X105860253Y-82326786D01*
X102236786Y-95849747D02*
X103202712Y-96108567D01*
X106826178Y-82585605D02*
X105860253Y-82326786D01*
X102236786Y-95849747D02*
X102495605Y-94883822D01*
X116018567Y-98507288D02*
X115759747Y-99473214D01*
X119383214Y-85950253D02*
X118417288Y-85691433D01*
X114793822Y-99214395D02*
X115759747Y-99473214D01*
X119383214Y-85950253D02*
X119124395Y-86916178D01*
%TO.C,MX18*%
X123301433Y-90622712D02*
X123560253Y-89656786D01*
X119936786Y-103179747D02*
X120902712Y-103438567D01*
X124526178Y-89915605D02*
X123560253Y-89656786D01*
X119936786Y-103179747D02*
X120195605Y-102213822D01*
X133718567Y-105837288D02*
X133459747Y-106803214D01*
X137083214Y-93280253D02*
X136117288Y-93021433D01*
X132493822Y-106544395D02*
X133459747Y-106803214D01*
X137083214Y-93280253D02*
X136824395Y-94246178D01*
%TO.C,MX19*%
X160035605Y-94246178D02*
X159776786Y-93280253D01*
X163400253Y-106803214D02*
X164366178Y-106544395D01*
X160742712Y-93021433D02*
X159776786Y-93280253D01*
X163400253Y-106803214D02*
X163141433Y-105837288D01*
X176664395Y-102213822D02*
X176923214Y-103179747D01*
X173299747Y-89656786D02*
X172333822Y-89915605D01*
X175957288Y-103438567D02*
X176923214Y-103179747D01*
X173299747Y-89656786D02*
X173558567Y-90622712D01*
%TO.C,MX20*%
X177735605Y-86916178D02*
X177476786Y-85950253D01*
X181100253Y-99473214D02*
X182066178Y-99214395D01*
X178442712Y-85691433D02*
X177476786Y-85950253D01*
X181100253Y-99473214D02*
X180841433Y-98507288D01*
X194364395Y-94883822D02*
X194623214Y-95849747D01*
X190999747Y-82326786D02*
X190033822Y-82585605D01*
X193657288Y-96108567D02*
X194623214Y-95849747D01*
X190999747Y-82326786D02*
X191258567Y-83292712D01*
%TO.C,MX21*%
X194405605Y-75726178D02*
X194146786Y-74760253D01*
X197770253Y-88283214D02*
X198736178Y-88024395D01*
X195112712Y-74501433D02*
X194146786Y-74760253D01*
X197770253Y-88283214D02*
X197511433Y-87317288D01*
X211034395Y-83693822D02*
X211293214Y-84659747D01*
X207669747Y-71136786D02*
X206703822Y-71395605D01*
X210327288Y-84918567D02*
X211293214Y-84659747D01*
X207669747Y-71136786D02*
X207928567Y-72102712D01*
%TO.C,MX22*%
X214315605Y-76596178D02*
X214056786Y-75630253D01*
X217680253Y-89153214D02*
X218646178Y-88894395D01*
X215022712Y-75371433D02*
X214056786Y-75630253D01*
X217680253Y-89153214D02*
X217421433Y-88187288D01*
X230944395Y-84563822D02*
X231203214Y-85529747D01*
X227579747Y-72006786D02*
X226613822Y-72265605D01*
X230237288Y-85788567D02*
X231203214Y-85529747D01*
X227579747Y-72006786D02*
X227838567Y-72972712D01*
%TO.C,MX23*%
X235775605Y-83276178D02*
X235516786Y-82310253D01*
X239140253Y-95833214D02*
X240106178Y-95574395D01*
X236482712Y-82051433D02*
X235516786Y-82310253D01*
X239140253Y-95833214D02*
X238881433Y-94867288D01*
X252404395Y-91243822D02*
X252663214Y-92209747D01*
X249039747Y-78686786D02*
X248073822Y-78945605D01*
X251697288Y-92468567D02*
X252663214Y-92209747D01*
X249039747Y-78686786D02*
X249298567Y-79652712D01*
%TO.C,MX24*%
X254125605Y-78356178D02*
X253866786Y-77390253D01*
X257490253Y-90913214D02*
X258456178Y-90654395D01*
X254832712Y-77131433D02*
X253866786Y-77390253D01*
X257490253Y-90913214D02*
X257231433Y-89947288D01*
X270754395Y-86323822D02*
X271013214Y-87289747D01*
X267389747Y-73766786D02*
X266423822Y-74025605D01*
X270047288Y-87548567D02*
X271013214Y-87289747D01*
X267389747Y-73766786D02*
X267648567Y-74732712D01*
%TO.C,MX25*%
X24291433Y-93082712D02*
X24550253Y-92116786D01*
X20926786Y-105639747D02*
X21892712Y-105898567D01*
X25516178Y-92375605D02*
X24550253Y-92116786D01*
X20926786Y-105639747D02*
X21185605Y-104673822D01*
X34708567Y-108297288D02*
X34449747Y-109263214D01*
X38073214Y-95740253D02*
X37107288Y-95481433D01*
X33483822Y-109004395D02*
X34449747Y-109263214D01*
X38073214Y-95740253D02*
X37814395Y-96706178D01*
%TO.C,MX26*%
X42651433Y-98002712D02*
X42910253Y-97036786D01*
X39286786Y-110559747D02*
X40252712Y-110818567D01*
X43876178Y-97295605D02*
X42910253Y-97036786D01*
X39286786Y-110559747D02*
X39545605Y-109593822D01*
X53068567Y-113217288D02*
X52809747Y-114183214D01*
X56433214Y-100660253D02*
X55467288Y-100401433D01*
X51843822Y-113924395D02*
X52809747Y-114183214D01*
X56433214Y-100660253D02*
X56174395Y-101626178D01*
%TO.C,MX27*%
X64101433Y-91332712D02*
X64360253Y-90366786D01*
X60736786Y-103889747D02*
X61702712Y-104148567D01*
X65326178Y-90625605D02*
X64360253Y-90366786D01*
X60736786Y-103889747D02*
X60995605Y-102923822D01*
X74518567Y-106547288D02*
X74259747Y-107513214D01*
X77883214Y-93990253D02*
X76917288Y-93731433D01*
X73293822Y-107254395D02*
X74259747Y-107513214D01*
X77883214Y-93990253D02*
X77624395Y-94956178D01*
%TO.C,MX28*%
X84011433Y-90452712D02*
X84270253Y-89486786D01*
X80646786Y-103009747D02*
X81612712Y-103268567D01*
X85236178Y-89745605D02*
X84270253Y-89486786D01*
X80646786Y-103009747D02*
X80905605Y-102043822D01*
X94428567Y-105667288D02*
X94169747Y-106633214D01*
X97793214Y-93110253D02*
X96827288Y-92851433D01*
X93203822Y-106374395D02*
X94169747Y-106633214D01*
X97793214Y-93110253D02*
X97534395Y-94076178D01*
%TO.C,MX29*%
X100681433Y-101642712D02*
X100940253Y-100676786D01*
X97316786Y-114199747D02*
X98282712Y-114458567D01*
X101906178Y-100935605D02*
X100940253Y-100676786D01*
X97316786Y-114199747D02*
X97575605Y-113233822D01*
X111098567Y-116857288D02*
X110839747Y-117823214D01*
X114463214Y-104300253D02*
X113497288Y-104041433D01*
X109873822Y-117564395D02*
X110839747Y-117823214D01*
X114463214Y-104300253D02*
X114204395Y-105266178D01*
%TO.C,MX30*%
X118381433Y-108982712D02*
X118640253Y-108016786D01*
X115016786Y-121539747D02*
X115982712Y-121798567D01*
X119606178Y-108275605D02*
X118640253Y-108016786D01*
X115016786Y-121539747D02*
X115275605Y-120573822D01*
X128798567Y-124197288D02*
X128539747Y-125163214D01*
X132163214Y-111640253D02*
X131197288Y-111381433D01*
X127573822Y-124904395D02*
X128539747Y-125163214D01*
X132163214Y-111640253D02*
X131904395Y-112606178D01*
%TO.C,MX31*%
X164955605Y-112606178D02*
X164696786Y-111640253D01*
X168320253Y-125163214D02*
X169286178Y-124904395D01*
X165662712Y-111381433D02*
X164696786Y-111640253D01*
X168320253Y-125163214D02*
X168061433Y-124197288D01*
X181584395Y-120573822D02*
X181843214Y-121539747D01*
X178219747Y-108016786D02*
X177253822Y-108275605D01*
X180877288Y-121798567D02*
X181843214Y-121539747D01*
X178219747Y-108016786D02*
X178478567Y-108982712D01*
%TO.C,MX32*%
X182655605Y-105266178D02*
X182396786Y-104300253D01*
X186020253Y-117823214D02*
X186986178Y-117564395D01*
X183362712Y-104041433D02*
X182396786Y-104300253D01*
X186020253Y-117823214D02*
X185761433Y-116857288D01*
X199284395Y-113233822D02*
X199543214Y-114199747D01*
X195919747Y-100676786D02*
X194953822Y-100935605D01*
X198577288Y-114458567D02*
X199543214Y-114199747D01*
X195919747Y-100676786D02*
X196178567Y-101642712D01*
%TO.C,MX33*%
X199325605Y-94076178D02*
X199066786Y-93110253D01*
X202690253Y-106633214D02*
X203656178Y-106374395D01*
X200032712Y-92851433D02*
X199066786Y-93110253D01*
X202690253Y-106633214D02*
X202431433Y-105667288D01*
X215954395Y-102043822D02*
X216213214Y-103009747D01*
X212589747Y-89486786D02*
X211623822Y-89745605D01*
X215247288Y-103268567D02*
X216213214Y-103009747D01*
X212589747Y-89486786D02*
X212848567Y-90452712D01*
%TO.C,MX34*%
X219235605Y-94956178D02*
X218976786Y-93990253D01*
X222600253Y-107513214D02*
X223566178Y-107254395D01*
X219942712Y-93731433D02*
X218976786Y-93990253D01*
X222600253Y-107513214D02*
X222341433Y-106547288D01*
X235864395Y-102923822D02*
X236123214Y-103889747D01*
X232499747Y-90366786D02*
X231533822Y-90625605D01*
X235157288Y-104148567D02*
X236123214Y-103889747D01*
X232499747Y-90366786D02*
X232758567Y-91332712D01*
%TO.C,MX35*%
X240685605Y-101626178D02*
X240426786Y-100660253D01*
X244050253Y-114183214D02*
X245016178Y-113924395D01*
X241392712Y-100401433D02*
X240426786Y-100660253D01*
X244050253Y-114183214D02*
X243791433Y-113217288D01*
X257314395Y-109593822D02*
X257573214Y-110559747D01*
X253949747Y-97036786D02*
X252983822Y-97295605D01*
X256607288Y-110818567D02*
X257573214Y-110559747D01*
X253949747Y-97036786D02*
X254208567Y-98002712D01*
%TO.C,MX36*%
X259045605Y-96706178D02*
X258786786Y-95740253D01*
X262410253Y-109263214D02*
X263376178Y-109004395D01*
X259752712Y-95481433D02*
X258786786Y-95740253D01*
X262410253Y-109263214D02*
X262151433Y-108297288D01*
X275674395Y-104673822D02*
X275933214Y-105639747D01*
X272309747Y-92116786D02*
X271343822Y-92375605D01*
X274967288Y-105898567D02*
X275933214Y-105639747D01*
X272309747Y-92116786D02*
X272568567Y-93082712D01*
%TO.C,MX37*%
X86331433Y-118502712D02*
X86590253Y-117536786D01*
X82966786Y-131059747D02*
X83932712Y-131318567D01*
X87556178Y-117795605D02*
X86590253Y-117536786D01*
X82966786Y-131059747D02*
X83225605Y-130093822D01*
X96748567Y-133717288D02*
X96489747Y-134683214D01*
X100113214Y-121160253D02*
X99147288Y-120901433D01*
X95523822Y-134424395D02*
X96489747Y-134683214D01*
X100113214Y-121160253D02*
X99854395Y-122126178D01*
%TO.C,MX38*%
X108127822Y-125563848D02*
X108627822Y-124697822D01*
X101627822Y-136822178D02*
X102493848Y-137322178D01*
X109493848Y-125197822D02*
X108627822Y-124697822D01*
X101627822Y-136822178D02*
X102127822Y-135956152D01*
X114252178Y-142956152D02*
X113752178Y-143822178D01*
X120752178Y-131697822D02*
X119886152Y-131197822D01*
X112886152Y-143322178D02*
X113752178Y-143822178D01*
X120752178Y-131697822D02*
X120252178Y-132563848D01*
%TO.C,MX39*%
X127362893Y-138017612D02*
X128070000Y-137310505D01*
X118170505Y-147210000D02*
X118877612Y-147917107D01*
X128777107Y-138017612D02*
X128070000Y-137310505D01*
X118170505Y-147210000D02*
X118877612Y-146502893D01*
X128777107Y-156402388D02*
X128070000Y-157109495D01*
X137969495Y-147210000D02*
X137262388Y-146502893D01*
X127362893Y-156402388D02*
X128070000Y-157109495D01*
X137969495Y-147210000D02*
X137262388Y-147917107D01*
%TO.C,MX41*%
X176607822Y-132563848D02*
X176107822Y-131697822D01*
X183107822Y-143822178D02*
X183973848Y-143322178D01*
X176973848Y-131197822D02*
X176107822Y-131697822D01*
X183107822Y-143822178D02*
X182607822Y-142956152D01*
X194732178Y-135956152D02*
X195232178Y-136822178D01*
X188232178Y-124697822D02*
X187366152Y-125197822D01*
X194366152Y-137322178D02*
X195232178Y-136822178D01*
X188232178Y-124697822D02*
X188732178Y-125563848D01*
%TO.C,MX42*%
X197005605Y-122126178D02*
X196746786Y-121160253D01*
X200370253Y-134683214D02*
X201336178Y-134424395D01*
X197712712Y-120901433D02*
X196746786Y-121160253D01*
X200370253Y-134683214D02*
X200111433Y-133717288D01*
X213634395Y-130093822D02*
X213893214Y-131059747D01*
X210269747Y-117536786D02*
X209303822Y-117795605D01*
X212927288Y-131318567D02*
X213893214Y-131059747D01*
X210269747Y-117536786D02*
X210528567Y-118502712D01*
D14*
%TO.C,NPNR1*%
X222000578Y-115962500D02*
X221483422Y-115962500D01*
X222000578Y-114542500D02*
X221483422Y-114542500D01*
%TO.C,R1*%
X46728698Y-70373492D02*
X46862548Y-69873957D01*
X48100312Y-70741015D02*
X48234162Y-70241480D01*
%TO.C,R2*%
X65078698Y-75283492D02*
X65212548Y-74783957D01*
X66450312Y-75651015D02*
X66584162Y-75151480D01*
%TO.C,R3*%
X86538698Y-68613492D02*
X86672548Y-68113957D01*
X87910312Y-68981015D02*
X88044162Y-68481480D01*
%TO.C,R4*%
X106438698Y-67733492D02*
X106572548Y-67233957D01*
X107810312Y-68101015D02*
X107944162Y-67601480D01*
%TO.C,R5*%
X123108698Y-78933492D02*
X123242548Y-78433957D01*
X124480312Y-79301015D02*
X124614162Y-78801480D01*
%TO.C,R6*%
X140818698Y-86263492D02*
X140952548Y-85763957D01*
X142190312Y-86631015D02*
X142324162Y-86131480D01*
%TO.C,R7*%
X173023939Y-81713453D02*
X172890089Y-81213918D01*
X174395553Y-81345930D02*
X174261703Y-80846395D01*
%TO.C,R8*%
X190733939Y-74383453D02*
X190600089Y-73883918D01*
X192105553Y-74015930D02*
X191971703Y-73516395D01*
%TO.C,R9*%
X207403939Y-63183453D02*
X207270089Y-62683918D01*
X208775553Y-62815930D02*
X208641703Y-62316395D01*
%TO.C,R10*%
X227303939Y-64063453D02*
X227170089Y-63563918D01*
X228675553Y-63695930D02*
X228541703Y-63196395D01*
%TO.C,R11*%
X248763939Y-70733453D02*
X248630089Y-70233918D01*
X250135553Y-70365930D02*
X250001703Y-69866395D01*
%TO.C,R12*%
X267113939Y-65823453D02*
X266980089Y-65323918D01*
X268485553Y-65455930D02*
X268351703Y-64956395D01*
%TO.C,R13*%
X41808698Y-88723492D02*
X41942548Y-88223957D01*
X43180312Y-89091015D02*
X43314162Y-88591480D01*
%TO.C,R14*%
X60158698Y-93643492D02*
X60292548Y-93143957D01*
X61530312Y-94011015D02*
X61664162Y-93511480D01*
%TO.C,R15*%
X81618698Y-86963492D02*
X81752548Y-86463957D01*
X82990312Y-87331015D02*
X83124162Y-86831480D01*
%TO.C,R16*%
X101528698Y-86093492D02*
X101662548Y-85593957D01*
X102900312Y-86461015D02*
X103034162Y-85961480D01*
%TO.C,R17*%
X118199411Y-97283492D02*
X118333261Y-96783957D01*
X119571025Y-97651015D02*
X119704875Y-97151480D01*
%TO.C,R18*%
X135898698Y-104613492D02*
X136032548Y-104113957D01*
X137270312Y-104981015D02*
X137404162Y-104481480D01*
%TO.C,R19*%
X177943939Y-100063453D02*
X177810089Y-99563918D01*
X179315553Y-99695930D02*
X179181703Y-99196395D01*
%TO.C,R20*%
X195643939Y-92733453D02*
X195510089Y-92233918D01*
X197015553Y-92365930D02*
X196881703Y-91866395D01*
%TO.C,R21*%
X212313939Y-81543453D02*
X212180089Y-81043918D01*
X213685553Y-81175930D02*
X213551703Y-80676395D01*
%TO.C,R22*%
X232223939Y-82413453D02*
X232090089Y-81913918D01*
X233595553Y-82045930D02*
X233461703Y-81546395D01*
%TO.C,R23*%
X253683939Y-89093453D02*
X253550089Y-88593918D01*
X255055553Y-88725930D02*
X254921703Y-88226395D01*
%TO.C,R24*%
X272033939Y-84173453D02*
X271900089Y-83673918D01*
X273405553Y-83805930D02*
X273271703Y-83306395D01*
%TO.C,R25*%
X36888698Y-107073492D02*
X37022548Y-106573957D01*
X38260312Y-107441015D02*
X38394162Y-106941480D01*
%TO.C,R26*%
X55248698Y-111993492D02*
X55382548Y-111493957D01*
X56620312Y-112361015D02*
X56754162Y-111861480D01*
%TO.C,R27*%
X76698698Y-105323492D02*
X76832548Y-104823957D01*
X78070312Y-105691015D02*
X78204162Y-105191480D01*
%TO.C,R28*%
X96608698Y-104443492D02*
X96742548Y-103943957D01*
X97980312Y-104811015D02*
X98114162Y-104311480D01*
%TO.C,R29*%
X113278698Y-115633492D02*
X113412548Y-115133957D01*
X114650312Y-116001015D02*
X114784162Y-115501480D01*
%TO.C,R30*%
X120208006Y-125847732D02*
X119708471Y-125713882D01*
X120575529Y-124476118D02*
X120075994Y-124342268D01*
%TO.C,R31*%
X182863939Y-118423453D02*
X182730089Y-117923918D01*
X184235553Y-118055930D02*
X184101703Y-117556395D01*
%TO.C,R32*%
X200563939Y-111083453D02*
X200430089Y-110583918D01*
X201935553Y-110715930D02*
X201801703Y-110216395D01*
%TO.C,R33*%
X217233939Y-99893453D02*
X217100089Y-99393918D01*
X218605553Y-99525930D02*
X218471703Y-99026395D01*
%TO.C,R34*%
X237143939Y-100773453D02*
X237010089Y-100273918D01*
X238515553Y-100405930D02*
X238381703Y-99906395D01*
%TO.C,R35*%
X258593939Y-107443453D02*
X258460089Y-106943918D01*
X259965553Y-107075930D02*
X259831703Y-106576395D01*
%TO.C,R36*%
X276953939Y-102523453D02*
X276820089Y-102023918D01*
X278325553Y-102155930D02*
X278191703Y-101656395D01*
%TO.C,R37*%
X98928698Y-132493492D02*
X99062548Y-131993957D01*
X100300312Y-132861015D02*
X100434162Y-132361480D01*
%TO.C,R38*%
X116891743Y-142349306D02*
X117150321Y-141901436D01*
X118121499Y-143059306D02*
X118380077Y-142611436D01*
%TO.C,R39*%
X130732332Y-157223126D02*
X131098016Y-156857442D01*
X131736424Y-158227218D02*
X132102108Y-157861534D01*
%TO.C,R40*%
X178249582Y-144418428D02*
X177883898Y-144052744D01*
X179253674Y-143414336D02*
X178887990Y-143048652D01*
%TO.C,R41*%
X196000101Y-133612816D02*
X195741523Y-133164946D01*
X197229857Y-132902816D02*
X196971279Y-132454946D01*
%TO.C,R42*%
X214913939Y-127943453D02*
X214780089Y-127443918D01*
X216285553Y-127575930D02*
X216151703Y-127076395D01*
%TO.C,R43*%
X145610000Y-96841422D02*
X145610000Y-97358578D01*
X144190000Y-96841422D02*
X144190000Y-97358578D01*
%TO.C,R44*%
X146721250Y-66258578D02*
X146721250Y-65741422D01*
X148141250Y-66258578D02*
X148141250Y-65741422D01*
%TO.C,R45*%
X148721250Y-66258578D02*
X148721250Y-65741422D01*
X150141250Y-66258578D02*
X150141250Y-65741422D01*
%TO.C,R46*%
X145977796Y-141683388D02*
X145612112Y-141317704D01*
X146981888Y-140679296D02*
X146616204Y-140313612D01*
D10*
%TO.C,U1*%
X155749805Y-129051142D02*
X155343219Y-128644556D01*
X148431250Y-136369697D02*
X147953953Y-135892400D01*
X141112695Y-129051142D02*
X141589992Y-129528439D01*
X148431250Y-121732587D02*
X148908547Y-122209884D01*
X155749805Y-129051142D02*
X155272508Y-129528439D01*
X148431250Y-121732587D02*
X147953953Y-122209884D01*
X141112695Y-129051142D02*
X141589992Y-128573845D01*
X148431250Y-136369697D02*
X148908547Y-135892400D01*
X155343219Y-128644556D02*
X156244780Y-127742994D01*
%TO.C,U2*%
X149881250Y-60650000D02*
X149881250Y-59350000D01*
X146981250Y-60650000D02*
X149881250Y-60650000D01*
X146981250Y-59350000D02*
X146981250Y-60650000D01*
X146981250Y-59350000D02*
X149881250Y-59350000D01*
D14*
%TO.C,Y1*%
X137096595Y-117487512D02*
X137096595Y-120787512D01*
X137096595Y-120787512D02*
X141096595Y-120787512D01*
%TD*%
%TO.C,SW1*%
D10*
X139375661Y-108428283D02*
X139423280Y-108285426D01*
X139423280Y-108047330D01*
X139375661Y-107952092D01*
X139328042Y-107904473D01*
X139232804Y-107856854D01*
X139137566Y-107856854D01*
X139042328Y-107904473D01*
X138994709Y-107952092D01*
X138947090Y-108047330D01*
X138899471Y-108237807D01*
X138851852Y-108333045D01*
X138804233Y-108380664D01*
X138708995Y-108428283D01*
X138613757Y-108428283D01*
X138518519Y-108380664D01*
X138470900Y-108333045D01*
X138423280Y-108237807D01*
X138423280Y-107999711D01*
X138470900Y-107856854D01*
X138423280Y-107523521D02*
X139423280Y-107285426D01*
X138708995Y-107094950D01*
X139423280Y-106904473D01*
X138423280Y-106666378D01*
X139423280Y-105761616D02*
X139423280Y-106333045D01*
X139423280Y-106047330D02*
X138423280Y-106047330D01*
X138566138Y-106142569D01*
X138661376Y-106237807D01*
X138708995Y-106333045D01*
%TO.C,REF\u002A\u002A*%
X168097916Y-131452380D02*
X167764583Y-130976190D01*
X167526488Y-131452380D02*
X167526488Y-130452380D01*
X167907440Y-130452380D01*
X168002678Y-130500000D01*
X168050297Y-130547619D01*
X168097916Y-130642857D01*
X168097916Y-130785714D01*
X168050297Y-130880952D01*
X168002678Y-130928571D01*
X167907440Y-130976190D01*
X167526488Y-130976190D01*
X168526488Y-130928571D02*
X168859821Y-130928571D01*
X169002678Y-131452380D02*
X168526488Y-131452380D01*
X168526488Y-130452380D01*
X169002678Y-130452380D01*
X169764583Y-130928571D02*
X169431250Y-130928571D01*
X169431250Y-131452380D02*
X169431250Y-130452380D01*
X169907440Y-130452380D01*
X170431250Y-130452380D02*
X170431250Y-130690476D01*
X170193154Y-130595238D02*
X170431250Y-130690476D01*
X170669345Y-130595238D01*
X170288392Y-130880952D02*
X170431250Y-130690476D01*
X170574107Y-130880952D01*
X171193154Y-130452380D02*
X171193154Y-130690476D01*
X170955059Y-130595238D02*
X171193154Y-130690476D01*
X171431250Y-130595238D01*
X171050297Y-130880952D02*
X171193154Y-130690476D01*
X171336011Y-130880952D01*
X126097916Y-131452380D02*
X125764583Y-130976190D01*
X125526488Y-131452380D02*
X125526488Y-130452380D01*
X125907440Y-130452380D01*
X126002678Y-130500000D01*
X126050297Y-130547619D01*
X126097916Y-130642857D01*
X126097916Y-130785714D01*
X126050297Y-130880952D01*
X126002678Y-130928571D01*
X125907440Y-130976190D01*
X125526488Y-130976190D01*
X126526488Y-130928571D02*
X126859821Y-130928571D01*
X127002678Y-131452380D02*
X126526488Y-131452380D01*
X126526488Y-130452380D01*
X127002678Y-130452380D01*
X127764583Y-130928571D02*
X127431250Y-130928571D01*
X127431250Y-131452380D02*
X127431250Y-130452380D01*
X127907440Y-130452380D01*
X128431250Y-130452380D02*
X128431250Y-130690476D01*
X128193154Y-130595238D02*
X128431250Y-130690476D01*
X128669345Y-130595238D01*
X128288392Y-130880952D02*
X128431250Y-130690476D01*
X128574107Y-130880952D01*
X129193154Y-130452380D02*
X129193154Y-130690476D01*
X128955059Y-130595238D02*
X129193154Y-130690476D01*
X129431250Y-130595238D01*
X129050297Y-130880952D02*
X129193154Y-130690476D01*
X129336011Y-130880952D01*
X209097916Y-111952380D02*
X208764583Y-111476190D01*
X208526488Y-111952380D02*
X208526488Y-110952380D01*
X208907440Y-110952380D01*
X209002678Y-111000000D01*
X209050297Y-111047619D01*
X209097916Y-111142857D01*
X209097916Y-111285714D01*
X209050297Y-111380952D01*
X209002678Y-111428571D01*
X208907440Y-111476190D01*
X208526488Y-111476190D01*
X209526488Y-111428571D02*
X209859821Y-111428571D01*
X210002678Y-111952380D02*
X209526488Y-111952380D01*
X209526488Y-110952380D01*
X210002678Y-110952380D01*
X210764583Y-111428571D02*
X210431250Y-111428571D01*
X210431250Y-111952380D02*
X210431250Y-110952380D01*
X210907440Y-110952380D01*
X211431250Y-110952380D02*
X211431250Y-111190476D01*
X211193154Y-111095238D02*
X211431250Y-111190476D01*
X211669345Y-111095238D01*
X211288392Y-111380952D02*
X211431250Y-111190476D01*
X211574107Y-111380952D01*
X212193154Y-110952380D02*
X212193154Y-111190476D01*
X211955059Y-111095238D02*
X212193154Y-111190476D01*
X212431250Y-111095238D01*
X212050297Y-111380952D02*
X212193154Y-111190476D01*
X212336011Y-111380952D01*
X85097916Y-111952380D02*
X84764583Y-111476190D01*
X84526488Y-111952380D02*
X84526488Y-110952380D01*
X84907440Y-110952380D01*
X85002678Y-111000000D01*
X85050297Y-111047619D01*
X85097916Y-111142857D01*
X85097916Y-111285714D01*
X85050297Y-111380952D01*
X85002678Y-111428571D01*
X84907440Y-111476190D01*
X84526488Y-111476190D01*
X85526488Y-111428571D02*
X85859821Y-111428571D01*
X86002678Y-111952380D02*
X85526488Y-111952380D01*
X85526488Y-110952380D01*
X86002678Y-110952380D01*
X86764583Y-111428571D02*
X86431250Y-111428571D01*
X86431250Y-111952380D02*
X86431250Y-110952380D01*
X86907440Y-110952380D01*
X87431250Y-110952380D02*
X87431250Y-111190476D01*
X87193154Y-111095238D02*
X87431250Y-111190476D01*
X87669345Y-111095238D01*
X87288392Y-111380952D02*
X87431250Y-111190476D01*
X87574107Y-111380952D01*
X88193154Y-110952380D02*
X88193154Y-111190476D01*
X87955059Y-111095238D02*
X88193154Y-111190476D01*
X88431250Y-111095238D01*
X88050297Y-111380952D02*
X88193154Y-111190476D01*
X88336011Y-111380952D01*
X275116666Y-82652380D02*
X274783333Y-82176190D01*
X274545238Y-82652380D02*
X274545238Y-81652380D01*
X274926190Y-81652380D01*
X275021428Y-81700000D01*
X275069047Y-81747619D01*
X275116666Y-81842857D01*
X275116666Y-81985714D01*
X275069047Y-82080952D01*
X275021428Y-82128571D01*
X274926190Y-82176190D01*
X274545238Y-82176190D01*
X275545238Y-82128571D02*
X275878571Y-82128571D01*
X276021428Y-82652380D02*
X275545238Y-82652380D01*
X275545238Y-81652380D01*
X276021428Y-81652380D01*
X276783333Y-82128571D02*
X276450000Y-82128571D01*
X276450000Y-82652380D02*
X276450000Y-81652380D01*
X276926190Y-81652380D01*
X277450000Y-81652380D02*
X277450000Y-81890476D01*
X277211904Y-81795238D02*
X277450000Y-81890476D01*
X277688095Y-81795238D01*
X277307142Y-82080952D02*
X277450000Y-81890476D01*
X277592857Y-82080952D01*
X278211904Y-81652380D02*
X278211904Y-81890476D01*
X277973809Y-81795238D02*
X278211904Y-81890476D01*
X278450000Y-81795238D01*
X278069047Y-82080952D02*
X278211904Y-81890476D01*
X278354761Y-82080952D01*
X19079166Y-82652380D02*
X18745833Y-82176190D01*
X18507738Y-82652380D02*
X18507738Y-81652380D01*
X18888690Y-81652380D01*
X18983928Y-81700000D01*
X19031547Y-81747619D01*
X19079166Y-81842857D01*
X19079166Y-81985714D01*
X19031547Y-82080952D01*
X18983928Y-82128571D01*
X18888690Y-82176190D01*
X18507738Y-82176190D01*
X19507738Y-82128571D02*
X19841071Y-82128571D01*
X19983928Y-82652380D02*
X19507738Y-82652380D01*
X19507738Y-81652380D01*
X19983928Y-81652380D01*
X20745833Y-82128571D02*
X20412500Y-82128571D01*
X20412500Y-82652380D02*
X20412500Y-81652380D01*
X20888690Y-81652380D01*
X21412500Y-81652380D02*
X21412500Y-81890476D01*
X21174404Y-81795238D02*
X21412500Y-81890476D01*
X21650595Y-81795238D01*
X21269642Y-82080952D02*
X21412500Y-81890476D01*
X21555357Y-82080952D01*
X22174404Y-81652380D02*
X22174404Y-81890476D01*
X21936309Y-81795238D02*
X22174404Y-81890476D01*
X22412500Y-81795238D01*
X22031547Y-82080952D02*
X22174404Y-81890476D01*
X22317261Y-82080952D01*
X230097916Y-58952380D02*
X229764583Y-58476190D01*
X229526488Y-58952380D02*
X229526488Y-57952380D01*
X229907440Y-57952380D01*
X230002678Y-58000000D01*
X230050297Y-58047619D01*
X230097916Y-58142857D01*
X230097916Y-58285714D01*
X230050297Y-58380952D01*
X230002678Y-58428571D01*
X229907440Y-58476190D01*
X229526488Y-58476190D01*
X230526488Y-58428571D02*
X230859821Y-58428571D01*
X231002678Y-58952380D02*
X230526488Y-58952380D01*
X230526488Y-57952380D01*
X231002678Y-57952380D01*
X231764583Y-58428571D02*
X231431250Y-58428571D01*
X231431250Y-58952380D02*
X231431250Y-57952380D01*
X231907440Y-57952380D01*
X232431250Y-57952380D02*
X232431250Y-58190476D01*
X232193154Y-58095238D02*
X232431250Y-58190476D01*
X232669345Y-58095238D01*
X232288392Y-58380952D02*
X232431250Y-58190476D01*
X232574107Y-58380952D01*
X233193154Y-57952380D02*
X233193154Y-58190476D01*
X232955059Y-58095238D02*
X233193154Y-58190476D01*
X233431250Y-58095238D01*
X233050297Y-58380952D02*
X233193154Y-58190476D01*
X233336011Y-58380952D01*
X64097916Y-58952380D02*
X63764583Y-58476190D01*
X63526488Y-58952380D02*
X63526488Y-57952380D01*
X63907440Y-57952380D01*
X64002678Y-58000000D01*
X64050297Y-58047619D01*
X64097916Y-58142857D01*
X64097916Y-58285714D01*
X64050297Y-58380952D01*
X64002678Y-58428571D01*
X63907440Y-58476190D01*
X63526488Y-58476190D01*
X64526488Y-58428571D02*
X64859821Y-58428571D01*
X65002678Y-58952380D02*
X64526488Y-58952380D01*
X64526488Y-57952380D01*
X65002678Y-57952380D01*
X65764583Y-58428571D02*
X65431250Y-58428571D01*
X65431250Y-58952380D02*
X65431250Y-57952380D01*
X65907440Y-57952380D01*
X66431250Y-57952380D02*
X66431250Y-58190476D01*
X66193154Y-58095238D02*
X66431250Y-58190476D01*
X66669345Y-58095238D01*
X66288392Y-58380952D02*
X66431250Y-58190476D01*
X66574107Y-58380952D01*
X67193154Y-57952380D02*
X67193154Y-58190476D01*
X66955059Y-58095238D02*
X67193154Y-58190476D01*
X67431250Y-58095238D01*
X67050297Y-58380952D02*
X67193154Y-58190476D01*
X67336011Y-58380952D01*
X175097916Y-58952380D02*
X174764583Y-58476190D01*
X174526488Y-58952380D02*
X174526488Y-57952380D01*
X174907440Y-57952380D01*
X175002678Y-58000000D01*
X175050297Y-58047619D01*
X175097916Y-58142857D01*
X175097916Y-58285714D01*
X175050297Y-58380952D01*
X175002678Y-58428571D01*
X174907440Y-58476190D01*
X174526488Y-58476190D01*
X175526488Y-58428571D02*
X175859821Y-58428571D01*
X176002678Y-58952380D02*
X175526488Y-58952380D01*
X175526488Y-57952380D01*
X176002678Y-57952380D01*
X176764583Y-58428571D02*
X176431250Y-58428571D01*
X176431250Y-58952380D02*
X176431250Y-57952380D01*
X176907440Y-57952380D01*
X177431250Y-57952380D02*
X177431250Y-58190476D01*
X177193154Y-58095238D02*
X177431250Y-58190476D01*
X177669345Y-58095238D01*
X177288392Y-58380952D02*
X177431250Y-58190476D01*
X177574107Y-58380952D01*
X178193154Y-57952380D02*
X178193154Y-58190476D01*
X177955059Y-58095238D02*
X178193154Y-58190476D01*
X178431250Y-58095238D01*
X178050297Y-58380952D02*
X178193154Y-58190476D01*
X178336011Y-58380952D01*
X119097916Y-58952380D02*
X118764583Y-58476190D01*
X118526488Y-58952380D02*
X118526488Y-57952380D01*
X118907440Y-57952380D01*
X119002678Y-58000000D01*
X119050297Y-58047619D01*
X119097916Y-58142857D01*
X119097916Y-58285714D01*
X119050297Y-58380952D01*
X119002678Y-58428571D01*
X118907440Y-58476190D01*
X118526488Y-58476190D01*
X119526488Y-58428571D02*
X119859821Y-58428571D01*
X120002678Y-58952380D02*
X119526488Y-58952380D01*
X119526488Y-57952380D01*
X120002678Y-57952380D01*
X120764583Y-58428571D02*
X120431250Y-58428571D01*
X120431250Y-58952380D02*
X120431250Y-57952380D01*
X120907440Y-57952380D01*
X121431250Y-57952380D02*
X121431250Y-58190476D01*
X121193154Y-58095238D02*
X121431250Y-58190476D01*
X121669345Y-58095238D01*
X121288392Y-58380952D02*
X121431250Y-58190476D01*
X121574107Y-58380952D01*
X122193154Y-57952380D02*
X122193154Y-58190476D01*
X121955059Y-58095238D02*
X122193154Y-58190476D01*
X122431250Y-58095238D01*
X122050297Y-58380952D02*
X122193154Y-58190476D01*
X122336011Y-58380952D01*
%TO.C,Q1*%
X238459619Y-114839738D02*
X238412000Y-114934976D01*
X238316761Y-115030214D01*
X238173904Y-115173071D01*
X238126285Y-115268309D01*
X238126285Y-115363547D01*
X238364380Y-115315928D02*
X238316761Y-115411166D01*
X238221523Y-115506404D01*
X238031047Y-115554023D01*
X237697714Y-115554023D01*
X237507238Y-115506404D01*
X237412000Y-115411166D01*
X237364380Y-115315928D01*
X237364380Y-115125452D01*
X237412000Y-115030214D01*
X237507238Y-114934976D01*
X237697714Y-114887357D01*
X238031047Y-114887357D01*
X238221523Y-114934976D01*
X238316761Y-115030214D01*
X238364380Y-115125452D01*
X238364380Y-115315928D01*
X238364380Y-113934976D02*
X238364380Y-114506404D01*
X238364380Y-114220690D02*
X237364380Y-114220690D01*
X237507238Y-114315928D01*
X237602476Y-114411166D01*
X237650095Y-114506404D01*
%TO.C,C1*%
X150362884Y-118701413D02*
X150295541Y-118701413D01*
X150160854Y-118634069D01*
X150093510Y-118566726D01*
X150026167Y-118432038D01*
X150026167Y-118297351D01*
X150059838Y-118196336D01*
X150160854Y-118027977D01*
X150261869Y-117926962D01*
X150430228Y-117825947D01*
X150531243Y-117792275D01*
X150665930Y-117792275D01*
X150800617Y-117859619D01*
X150867961Y-117926962D01*
X150935304Y-118061649D01*
X150935304Y-118128993D01*
X150968976Y-119442191D02*
X150564915Y-119038130D01*
X150766945Y-119240161D02*
X151474052Y-118533054D01*
X151305693Y-118566726D01*
X151171006Y-118566726D01*
X151069991Y-118533054D01*
%TO.C,C2*%
X149717961Y-140203663D02*
X149717961Y-140271006D01*
X149650617Y-140405693D01*
X149583274Y-140473037D01*
X149448586Y-140540380D01*
X149313899Y-140540380D01*
X149212884Y-140506709D01*
X149044525Y-140405693D01*
X148943510Y-140304678D01*
X148842495Y-140136319D01*
X148808823Y-140035304D01*
X148808823Y-139900617D01*
X148876167Y-139765930D01*
X148943510Y-139698586D01*
X149078197Y-139631243D01*
X149145541Y-139631243D01*
X149414915Y-139361869D02*
X149414915Y-139294525D01*
X149448586Y-139193510D01*
X149616945Y-139025151D01*
X149717961Y-138991480D01*
X149785304Y-138991480D01*
X149886319Y-139025151D01*
X149953663Y-139092495D01*
X150021006Y-139227182D01*
X150021006Y-140035304D01*
X150458739Y-139597571D01*
%TO.C,C3*%
X136566377Y-134279945D02*
X136499034Y-134279945D01*
X136364347Y-134212601D01*
X136297003Y-134145258D01*
X136229660Y-134010570D01*
X136229660Y-133875883D01*
X136263331Y-133774868D01*
X136364347Y-133606509D01*
X136465362Y-133505494D01*
X136633721Y-133404479D01*
X136734736Y-133370807D01*
X136869423Y-133370807D01*
X137004110Y-133438151D01*
X137071454Y-133505494D01*
X137138797Y-133640181D01*
X137138797Y-133707525D01*
X137441843Y-133875883D02*
X137879576Y-134313616D01*
X137374499Y-134347288D01*
X137475515Y-134448303D01*
X137509186Y-134549319D01*
X137509186Y-134616662D01*
X137475515Y-134717677D01*
X137307156Y-134886036D01*
X137206141Y-134919708D01*
X137138797Y-134919708D01*
X137037782Y-134886036D01*
X136835751Y-134684006D01*
X136802079Y-134582990D01*
X136802079Y-134515647D01*
%TO.C,C4*%
X159101413Y-135637115D02*
X159101413Y-135704458D01*
X159034069Y-135839145D01*
X158966726Y-135906489D01*
X158832038Y-135973832D01*
X158697351Y-135973832D01*
X158596336Y-135940161D01*
X158427977Y-135839145D01*
X158326962Y-135738130D01*
X158225947Y-135569771D01*
X158192275Y-135468756D01*
X158192275Y-135334069D01*
X158259619Y-135199382D01*
X158326962Y-135132038D01*
X158461649Y-135064695D01*
X158528993Y-135064695D01*
X159303443Y-134626962D02*
X159774848Y-135098367D01*
X158865710Y-134525947D02*
X159202428Y-135199382D01*
X159640161Y-134761649D01*
%TO.C,C5*%
X150146336Y-113867961D02*
X150078993Y-113867961D01*
X149944306Y-113800617D01*
X149876962Y-113733274D01*
X149809619Y-113598586D01*
X149809619Y-113463899D01*
X149843290Y-113362884D01*
X149944306Y-113194525D01*
X150045321Y-113093510D01*
X150213680Y-112992495D01*
X150314695Y-112958823D01*
X150449382Y-112958823D01*
X150584069Y-113026167D01*
X150651413Y-113093510D01*
X150718756Y-113228197D01*
X150718756Y-113295541D01*
X151425863Y-113867961D02*
X151089145Y-113531243D01*
X150718756Y-113834289D01*
X150786100Y-113834289D01*
X150887115Y-113867961D01*
X151055474Y-114036319D01*
X151089145Y-114137335D01*
X151089145Y-114204678D01*
X151055474Y-114305693D01*
X150887115Y-114474052D01*
X150786100Y-114507724D01*
X150718756Y-114507724D01*
X150617741Y-114474052D01*
X150449382Y-114305693D01*
X150415710Y-114204678D01*
X150415710Y-114137335D01*
%TO.C,C6*%
X133081117Y-124917285D02*
X133013774Y-124917285D01*
X132879087Y-124849941D01*
X132811743Y-124782598D01*
X132744400Y-124647910D01*
X132744400Y-124513223D01*
X132778071Y-124412208D01*
X132879087Y-124243849D01*
X132980102Y-124142834D01*
X133148461Y-124041819D01*
X133249476Y-124008147D01*
X133384163Y-124008147D01*
X133518850Y-124075491D01*
X133586194Y-124142834D01*
X133653537Y-124277521D01*
X133653537Y-124344865D01*
X134326972Y-124883613D02*
X134192285Y-124748926D01*
X134091270Y-124715254D01*
X134023926Y-124715254D01*
X133855568Y-124748926D01*
X133687209Y-124849941D01*
X133417835Y-125119315D01*
X133384163Y-125220330D01*
X133384163Y-125287674D01*
X133417835Y-125388689D01*
X133552522Y-125523376D01*
X133653537Y-125557048D01*
X133720881Y-125557048D01*
X133821896Y-125523376D01*
X133990255Y-125355017D01*
X134023926Y-125254002D01*
X134023926Y-125186659D01*
X133990255Y-125085643D01*
X133855568Y-124950956D01*
X133754552Y-124917285D01*
X133687209Y-124917285D01*
X133586194Y-124950956D01*
%TO.C,C7*%
X140918251Y-117080152D02*
X140850908Y-117080152D01*
X140716221Y-117012808D01*
X140648877Y-116945465D01*
X140581534Y-116810777D01*
X140581534Y-116676090D01*
X140615205Y-116575075D01*
X140716221Y-116406716D01*
X140817236Y-116305701D01*
X140985595Y-116204686D01*
X141086610Y-116171014D01*
X141221297Y-116171014D01*
X141355984Y-116238358D01*
X141423328Y-116305701D01*
X141490671Y-116440388D01*
X141490671Y-116507732D01*
X141793717Y-116676090D02*
X142265121Y-117147495D01*
X141254969Y-117551556D01*
%TO.C,D1*%
X47090444Y-65790248D02*
X46124518Y-65531429D01*
X46186142Y-65301446D01*
X46269112Y-65175781D01*
X46385755Y-65108438D01*
X46490072Y-65087091D01*
X46686383Y-65090393D01*
X46824372Y-65127367D01*
X46996033Y-65222663D01*
X47075702Y-65293309D01*
X47143045Y-65409951D01*
X47152067Y-65560265D01*
X47090444Y-65790248D01*
X47484835Y-64318361D02*
X47336938Y-64870318D01*
X47410886Y-64594339D02*
X46444961Y-64335520D01*
X46558301Y-64464487D01*
X46625644Y-64581130D01*
X46646991Y-64685447D01*
%TO.C,D2*%
X65440444Y-70700248D02*
X64474518Y-70441429D01*
X64536142Y-70211446D01*
X64619112Y-70085781D01*
X64735755Y-70018438D01*
X64840072Y-69997091D01*
X65036383Y-70000393D01*
X65174372Y-70037367D01*
X65346033Y-70132663D01*
X65425702Y-70203309D01*
X65493045Y-70319951D01*
X65502067Y-70470265D01*
X65440444Y-70700248D01*
X64813005Y-69546149D02*
X64779334Y-69487827D01*
X64757986Y-69383510D01*
X64819610Y-69153527D01*
X64890256Y-69073859D01*
X64948577Y-69040187D01*
X65052895Y-69018840D01*
X65144888Y-69043490D01*
X65270552Y-69126460D01*
X65674613Y-69826315D01*
X65834835Y-69228361D01*
%TO.C,D3*%
X86900444Y-64030248D02*
X85934518Y-63771429D01*
X85996142Y-63541446D01*
X86079112Y-63415781D01*
X86195755Y-63348438D01*
X86300072Y-63327091D01*
X86496383Y-63330393D01*
X86634372Y-63367367D01*
X86806033Y-63462663D01*
X86885702Y-63533309D01*
X86953045Y-63649951D01*
X86962067Y-63800265D01*
X86900444Y-64030248D01*
X86168688Y-62897496D02*
X86328909Y-62299542D01*
X86610608Y-62720115D01*
X86647582Y-62582125D01*
X86718228Y-62502457D01*
X86776549Y-62468785D01*
X86880867Y-62447438D01*
X87110849Y-62509062D01*
X87190517Y-62579708D01*
X87224189Y-62638029D01*
X87245536Y-62742346D01*
X87171588Y-63018325D01*
X87100942Y-63097993D01*
X87042621Y-63131665D01*
%TO.C,D4*%
X106800444Y-63150248D02*
X105834518Y-62891429D01*
X105896142Y-62661446D01*
X105979112Y-62535781D01*
X106095755Y-62468438D01*
X106200072Y-62447091D01*
X106396383Y-62450393D01*
X106534372Y-62487367D01*
X106706033Y-62582663D01*
X106785702Y-62653309D01*
X106853045Y-62769951D01*
X106862067Y-62920265D01*
X106800444Y-63150248D01*
X106526235Y-61597807D02*
X107170185Y-61770354D01*
X106096639Y-61729192D02*
X106724963Y-62144045D01*
X106885184Y-61546091D01*
%TO.C,D5*%
X123470444Y-74350248D02*
X122504518Y-74091429D01*
X122566142Y-73861446D01*
X122649112Y-73735781D01*
X122765755Y-73668438D01*
X122870072Y-73647091D01*
X123066383Y-73650393D01*
X123204372Y-73687367D01*
X123376033Y-73782663D01*
X123455702Y-73853309D01*
X123523045Y-73969951D01*
X123532067Y-74120265D01*
X123470444Y-74350248D01*
X122886584Y-72665538D02*
X122763337Y-73125503D01*
X123210977Y-73294746D01*
X123177305Y-73236425D01*
X123155958Y-73132107D01*
X123217582Y-72902125D01*
X123288228Y-72822457D01*
X123346549Y-72788785D01*
X123450867Y-72767438D01*
X123680849Y-72829062D01*
X123760517Y-72899708D01*
X123794189Y-72958029D01*
X123815536Y-73062346D01*
X123753912Y-73292329D01*
X123683266Y-73371997D01*
X123624945Y-73405669D01*
%TO.C,D6*%
X141180444Y-81680248D02*
X140214518Y-81421429D01*
X140276142Y-81191446D01*
X140359112Y-81065781D01*
X140475755Y-80998438D01*
X140580072Y-80977091D01*
X140776383Y-80980393D01*
X140914372Y-81017367D01*
X141086033Y-81112663D01*
X141165702Y-81183309D01*
X141233045Y-81299951D01*
X141242067Y-81450265D01*
X141180444Y-81680248D01*
X140584260Y-80041534D02*
X140534961Y-80225520D01*
X140556308Y-80329838D01*
X140589979Y-80388159D01*
X140703319Y-80517126D01*
X140874981Y-80612422D01*
X141242952Y-80711019D01*
X141347270Y-80689672D01*
X141405591Y-80656001D01*
X141476237Y-80576332D01*
X141525536Y-80392346D01*
X141504189Y-80288029D01*
X141470517Y-80229708D01*
X141390849Y-80159062D01*
X141160867Y-80097438D01*
X141056549Y-80118785D01*
X140998228Y-80152457D01*
X140927582Y-80232125D01*
X140878283Y-80416111D01*
X140899630Y-80520429D01*
X140933302Y-80578750D01*
X141012970Y-80649396D01*
%TO.C,D7*%
X169788874Y-76372071D02*
X170754800Y-76113252D01*
X170816423Y-76343234D01*
X170807401Y-76493548D01*
X170740058Y-76610191D01*
X170660389Y-76680837D01*
X170488728Y-76776132D01*
X170350739Y-76813106D01*
X170154428Y-76816409D01*
X170050111Y-76795062D01*
X169933468Y-76727718D01*
X169850498Y-76602053D01*
X169788874Y-76372071D01*
X170988969Y-76987185D02*
X171161515Y-77631135D01*
X170084667Y-77475986D01*
%TO.C,D8*%
X187498874Y-69042071D02*
X188464800Y-68783252D01*
X188526423Y-69013234D01*
X188517401Y-69163548D01*
X188450058Y-69280191D01*
X188370389Y-69350837D01*
X188198728Y-69446132D01*
X188060739Y-69483106D01*
X187864428Y-69486409D01*
X187760111Y-69465062D01*
X187643468Y-69397718D01*
X187560498Y-69272053D01*
X187498874Y-69042071D01*
X188346625Y-69998090D02*
X188367972Y-69893772D01*
X188401644Y-69835451D01*
X188481312Y-69764805D01*
X188527308Y-69752480D01*
X188631626Y-69773827D01*
X188689947Y-69807499D01*
X188760593Y-69887167D01*
X188809892Y-70071153D01*
X188788545Y-70175471D01*
X188754873Y-70233792D01*
X188675205Y-70304438D01*
X188629208Y-70316763D01*
X188524891Y-70295416D01*
X188466570Y-70261744D01*
X188395924Y-70182076D01*
X188346625Y-69998090D01*
X188275979Y-69918421D01*
X188217658Y-69884750D01*
X188113340Y-69863403D01*
X187929354Y-69912702D01*
X187849686Y-69983347D01*
X187816014Y-70041669D01*
X187794667Y-70145986D01*
X187843966Y-70329972D01*
X187914612Y-70409640D01*
X187972933Y-70443312D01*
X188077251Y-70464659D01*
X188261237Y-70415360D01*
X188340905Y-70344714D01*
X188374577Y-70286393D01*
X188395924Y-70182076D01*
%TO.C,D9*%
X204168874Y-57842071D02*
X205134800Y-57583252D01*
X205196423Y-57813234D01*
X205187401Y-57963548D01*
X205120058Y-58080191D01*
X205040389Y-58150837D01*
X204868728Y-58246132D01*
X204730739Y-58283106D01*
X204534428Y-58286409D01*
X204430111Y-58265062D01*
X204313468Y-58197718D01*
X204230498Y-58072053D01*
X204168874Y-57842071D01*
X204440018Y-58853993D02*
X204489317Y-59037979D01*
X204559962Y-59117647D01*
X204618284Y-59151319D01*
X204780922Y-59206338D01*
X204977233Y-59203036D01*
X205345205Y-59104438D01*
X205424873Y-59033792D01*
X205458545Y-58975471D01*
X205479892Y-58871153D01*
X205430593Y-58687167D01*
X205359947Y-58607499D01*
X205301626Y-58573827D01*
X205197308Y-58552480D01*
X204967326Y-58614104D01*
X204887658Y-58684750D01*
X204853986Y-58743071D01*
X204832639Y-58847389D01*
X204881938Y-59031374D01*
X204952584Y-59111043D01*
X205010905Y-59144714D01*
X205115222Y-59166061D01*
%TO.C,D10*%
X223945627Y-58262106D02*
X224911553Y-58003287D01*
X224973176Y-58233270D01*
X224964154Y-58383584D01*
X224896810Y-58500226D01*
X224817142Y-58570872D01*
X224645481Y-58666167D01*
X224507492Y-58703142D01*
X224311181Y-58706444D01*
X224206863Y-58685097D01*
X224090221Y-58617753D01*
X224007250Y-58492089D01*
X223945627Y-58262106D01*
X224340018Y-59733993D02*
X224192121Y-59182036D01*
X224266069Y-59458015D02*
X225231995Y-59199195D01*
X225069356Y-59144177D01*
X224952714Y-59076833D01*
X224882068Y-58997165D01*
X225466165Y-60073128D02*
X225490814Y-60165121D01*
X225469467Y-60269439D01*
X225435795Y-60327760D01*
X225356127Y-60398406D01*
X225184466Y-60493701D01*
X224954484Y-60555325D01*
X224758173Y-60558627D01*
X224653856Y-60537280D01*
X224595534Y-60503609D01*
X224524888Y-60423940D01*
X224500239Y-60331947D01*
X224521586Y-60227630D01*
X224555258Y-60169309D01*
X224634926Y-60098663D01*
X224806587Y-60003367D01*
X225036570Y-59941744D01*
X225232880Y-59938441D01*
X225337198Y-59959788D01*
X225395519Y-59993460D01*
X225466165Y-60073128D01*
%TO.C,D11*%
X245405627Y-64932106D02*
X246371553Y-64673287D01*
X246433176Y-64903270D01*
X246424154Y-65053584D01*
X246356810Y-65170226D01*
X246277142Y-65240872D01*
X246105481Y-65336167D01*
X245967492Y-65373142D01*
X245771181Y-65376444D01*
X245666863Y-65355097D01*
X245550221Y-65287753D01*
X245467250Y-65162089D01*
X245405627Y-64932106D01*
X245800018Y-66403993D02*
X245652121Y-65852036D01*
X245726069Y-66128015D02*
X246691995Y-65869195D01*
X246529356Y-65814177D01*
X246412714Y-65746833D01*
X246342068Y-65667165D01*
X246046512Y-67323923D02*
X245898615Y-66771965D01*
X245972564Y-67047944D02*
X246938490Y-66789125D01*
X246775851Y-66734106D01*
X246659208Y-66666763D01*
X246588562Y-66587094D01*
%TO.C,D12*%
X263755627Y-60022106D02*
X264721553Y-59763287D01*
X264783176Y-59993270D01*
X264774154Y-60143584D01*
X264706810Y-60260226D01*
X264627142Y-60330872D01*
X264455481Y-60426167D01*
X264317492Y-60463142D01*
X264121181Y-60466444D01*
X264016863Y-60445097D01*
X263900221Y-60377753D01*
X263817250Y-60252089D01*
X263755627Y-60022106D01*
X264150018Y-61493993D02*
X264002121Y-60942036D01*
X264076069Y-61218015D02*
X265041995Y-60959195D01*
X264879356Y-60904177D01*
X264762714Y-60836833D01*
X264692068Y-60757165D01*
X265122548Y-61627795D02*
X265180870Y-61661467D01*
X265251515Y-61741135D01*
X265313139Y-61971118D01*
X265291792Y-62075435D01*
X265258120Y-62133757D01*
X265178452Y-62204403D01*
X265086459Y-62229052D01*
X264936145Y-62220030D01*
X264236291Y-61815969D01*
X264396512Y-62413923D01*
%TO.C,D13*%
X42047197Y-84600212D02*
X41081271Y-84341393D01*
X41142894Y-84111411D01*
X41225865Y-83985746D01*
X41342507Y-83918403D01*
X41446825Y-83897056D01*
X41643136Y-83900358D01*
X41781125Y-83937332D01*
X41952786Y-84032628D01*
X42032454Y-84103273D01*
X42099798Y-84219916D01*
X42108820Y-84370230D01*
X42047197Y-84600212D01*
X42441588Y-83128325D02*
X42293691Y-83680283D01*
X42367639Y-83404304D02*
X41401713Y-83145485D01*
X41515053Y-83274452D01*
X41582397Y-83391094D01*
X41603744Y-83495412D01*
X41561935Y-82547531D02*
X41722156Y-81949577D01*
X42003855Y-82370150D01*
X42040829Y-82232160D01*
X42111475Y-82152492D01*
X42169796Y-82118820D01*
X42274114Y-82097473D01*
X42504096Y-82159097D01*
X42583764Y-82229743D01*
X42617436Y-82288064D01*
X42638783Y-82392382D01*
X42564835Y-82668361D01*
X42494189Y-82748029D01*
X42435868Y-82781701D01*
%TO.C,D14*%
X60397197Y-89520212D02*
X59431271Y-89261393D01*
X59492894Y-89031411D01*
X59575865Y-88905746D01*
X59692507Y-88838403D01*
X59796825Y-88817056D01*
X59993136Y-88820358D01*
X60131125Y-88857332D01*
X60302786Y-88952628D01*
X60382454Y-89023273D01*
X60449798Y-89139916D01*
X60458820Y-89290230D01*
X60397197Y-89520212D01*
X60791588Y-88048325D02*
X60643691Y-88600283D01*
X60717639Y-88324304D02*
X59751713Y-88065485D01*
X59865053Y-88194452D01*
X59932397Y-88311094D01*
X59953744Y-88415412D01*
X60369482Y-87047843D02*
X61013432Y-87220389D01*
X59939887Y-87179227D02*
X60568210Y-87594081D01*
X60728431Y-86996126D01*
%TO.C,D15*%
X81854464Y-82840212D02*
X80888538Y-82581393D01*
X80950161Y-82351411D01*
X81033132Y-82225746D01*
X81149774Y-82158403D01*
X81254092Y-82137056D01*
X81450403Y-82140358D01*
X81588392Y-82177332D01*
X81760053Y-82272628D01*
X81839721Y-82343273D01*
X81907065Y-82459916D01*
X81916087Y-82610230D01*
X81854464Y-82840212D01*
X82248855Y-81368325D02*
X82100958Y-81920283D01*
X82174906Y-81644304D02*
X81208980Y-81385485D01*
X81322320Y-81514452D01*
X81389664Y-81631094D01*
X81411011Y-81735412D01*
X81517098Y-80235573D02*
X81393851Y-80695538D01*
X81841491Y-80864782D01*
X81807819Y-80806460D01*
X81786472Y-80702143D01*
X81848096Y-80472160D01*
X81918742Y-80392492D01*
X81977063Y-80358820D01*
X82081381Y-80337473D01*
X82311363Y-80399097D01*
X82391031Y-80469743D01*
X82424703Y-80528064D01*
X82446050Y-80632382D01*
X82384426Y-80862364D01*
X82313781Y-80942032D01*
X82255459Y-80975704D01*
%TO.C,D16*%
X101767197Y-81970212D02*
X100801271Y-81711393D01*
X100862894Y-81481411D01*
X100945865Y-81355746D01*
X101062507Y-81288403D01*
X101166825Y-81267056D01*
X101363136Y-81270358D01*
X101501125Y-81307332D01*
X101672786Y-81402628D01*
X101752454Y-81473273D01*
X101819798Y-81589916D01*
X101828820Y-81740230D01*
X101767197Y-81970212D01*
X102161588Y-80498325D02*
X102013691Y-81050283D01*
X102087639Y-80774304D02*
X101121713Y-80515485D01*
X101235053Y-80644452D01*
X101302397Y-80761094D01*
X101323744Y-80865412D01*
X101417507Y-79411570D02*
X101368208Y-79595556D01*
X101389555Y-79699873D01*
X101423227Y-79758195D01*
X101536567Y-79887162D01*
X101708228Y-79982457D01*
X102076199Y-80081055D01*
X102180517Y-80059708D01*
X102238838Y-80026036D01*
X102309484Y-79946368D01*
X102358783Y-79762382D01*
X102337436Y-79658064D01*
X102303764Y-79599743D01*
X102224096Y-79529097D01*
X101994114Y-79467473D01*
X101889796Y-79488820D01*
X101831475Y-79522492D01*
X101760829Y-79602160D01*
X101711530Y-79786146D01*
X101732877Y-79890464D01*
X101766549Y-79948785D01*
X101846217Y-80019431D01*
%TO.C,D17*%
X118437197Y-93160212D02*
X117471271Y-92901393D01*
X117532894Y-92671411D01*
X117615865Y-92545746D01*
X117732507Y-92478403D01*
X117836825Y-92457056D01*
X118033136Y-92460358D01*
X118171125Y-92497332D01*
X118342786Y-92592628D01*
X118422454Y-92663273D01*
X118489798Y-92779916D01*
X118498820Y-92930230D01*
X118437197Y-93160212D01*
X118831588Y-91688325D02*
X118683691Y-92240283D01*
X118757639Y-91964304D02*
X117791713Y-91705485D01*
X117905053Y-91834452D01*
X117972397Y-91951094D01*
X117993744Y-92055412D01*
X117951935Y-91107531D02*
X118124481Y-90463580D01*
X118979484Y-91136368D01*
%TO.C,D18*%
X136137197Y-100490212D02*
X135171271Y-100231393D01*
X135232894Y-100001411D01*
X135315865Y-99875746D01*
X135432507Y-99808403D01*
X135536825Y-99787056D01*
X135733136Y-99790358D01*
X135871125Y-99827332D01*
X136042786Y-99922628D01*
X136122454Y-99993273D01*
X136189798Y-100109916D01*
X136198820Y-100260230D01*
X136137197Y-100490212D01*
X136531588Y-99018325D02*
X136383691Y-99570283D01*
X136457639Y-99294304D02*
X135491713Y-99035485D01*
X135605053Y-99164452D01*
X135672397Y-99281094D01*
X135693744Y-99385412D01*
X136127527Y-98318471D02*
X136056881Y-98398139D01*
X135998559Y-98431811D01*
X135894242Y-98453158D01*
X135848245Y-98440833D01*
X135768577Y-98370187D01*
X135734905Y-98311866D01*
X135713558Y-98207549D01*
X135762857Y-98023563D01*
X135833503Y-97943895D01*
X135891824Y-97910223D01*
X135996142Y-97888876D01*
X136042138Y-97901200D01*
X136121807Y-97971846D01*
X136155478Y-98030168D01*
X136176825Y-98134485D01*
X136127527Y-98318471D01*
X136148874Y-98422789D01*
X136182545Y-98481110D01*
X136262214Y-98551756D01*
X136446199Y-98601055D01*
X136550517Y-98579708D01*
X136608838Y-98546036D01*
X136679484Y-98466368D01*
X136728783Y-98282382D01*
X136707436Y-98178064D01*
X136673764Y-98119743D01*
X136594096Y-98049097D01*
X136410110Y-97999798D01*
X136305793Y-98021145D01*
X136247471Y-98054817D01*
X136176825Y-98134485D01*
%TO.C,D19*%
X174585627Y-94262106D02*
X175551553Y-94003287D01*
X175613176Y-94233270D01*
X175604154Y-94383584D01*
X175536810Y-94500226D01*
X175457142Y-94570872D01*
X175285481Y-94666167D01*
X175147492Y-94703142D01*
X174951181Y-94706444D01*
X174846863Y-94685097D01*
X174730221Y-94617753D01*
X174647250Y-94492089D01*
X174585627Y-94262106D01*
X174980018Y-95733993D02*
X174832121Y-95182036D01*
X174906069Y-95458015D02*
X175871995Y-95199195D01*
X175709356Y-95144177D01*
X175592714Y-95076833D01*
X175522068Y-94997165D01*
X175103265Y-96193958D02*
X175152564Y-96377944D01*
X175223210Y-96457612D01*
X175281531Y-96491284D01*
X175444170Y-96546303D01*
X175640480Y-96543000D01*
X176008452Y-96444403D01*
X176088120Y-96373757D01*
X176121792Y-96315435D01*
X176143139Y-96211118D01*
X176093840Y-96027132D01*
X176023194Y-95947464D01*
X175964873Y-95913792D01*
X175860555Y-95892445D01*
X175630573Y-95954068D01*
X175550905Y-96024714D01*
X175517233Y-96083036D01*
X175495886Y-96187353D01*
X175545185Y-96371339D01*
X175615831Y-96451007D01*
X175674152Y-96484679D01*
X175778470Y-96506026D01*
%TO.C,D20*%
X192285627Y-86932106D02*
X193251553Y-86673287D01*
X193313176Y-86903270D01*
X193304154Y-87053584D01*
X193236810Y-87170226D01*
X193157142Y-87240872D01*
X192985481Y-87336167D01*
X192847492Y-87373142D01*
X192651181Y-87376444D01*
X192546863Y-87355097D01*
X192430221Y-87287753D01*
X192347250Y-87162089D01*
X192285627Y-86932106D01*
X193406054Y-87617866D02*
X193464375Y-87651538D01*
X193535021Y-87731206D01*
X193596645Y-87961188D01*
X193575298Y-88065506D01*
X193541626Y-88123827D01*
X193461958Y-88194473D01*
X193369965Y-88219123D01*
X193219651Y-88210100D01*
X192519796Y-87806039D01*
X192680018Y-88403993D01*
X193806165Y-88743128D02*
X193830814Y-88835121D01*
X193809467Y-88939439D01*
X193775795Y-88997760D01*
X193696127Y-89068406D01*
X193524466Y-89163701D01*
X193294484Y-89225325D01*
X193098173Y-89228627D01*
X192993856Y-89207280D01*
X192935534Y-89173609D01*
X192864888Y-89093940D01*
X192840239Y-89001947D01*
X192861586Y-88897630D01*
X192895258Y-88839309D01*
X192974926Y-88768663D01*
X193146587Y-88673367D01*
X193376570Y-88611744D01*
X193572880Y-88608441D01*
X193677198Y-88629788D01*
X193735519Y-88663460D01*
X193806165Y-88743128D01*
%TO.C,D21*%
X208955627Y-75742106D02*
X209921553Y-75483287D01*
X209983176Y-75713270D01*
X209974154Y-75863584D01*
X209906810Y-75980226D01*
X209827142Y-76050872D01*
X209655481Y-76146167D01*
X209517492Y-76183142D01*
X209321181Y-76186444D01*
X209216863Y-76165097D01*
X209100221Y-76097753D01*
X209017250Y-75972089D01*
X208955627Y-75742106D01*
X210076054Y-76427866D02*
X210134375Y-76461538D01*
X210205021Y-76541206D01*
X210266645Y-76771188D01*
X210245298Y-76875506D01*
X210211626Y-76933827D01*
X210131958Y-77004473D01*
X210039965Y-77029123D01*
X209889651Y-77020100D01*
X209189796Y-76616039D01*
X209350018Y-77213993D01*
X209596512Y-78133923D02*
X209448615Y-77581965D01*
X209522564Y-77857944D02*
X210488490Y-77599125D01*
X210325851Y-77544106D01*
X210209208Y-77476763D01*
X210138562Y-77397094D01*
%TO.C,D22*%
X228865627Y-76612106D02*
X229831553Y-76353287D01*
X229893176Y-76583270D01*
X229884154Y-76733584D01*
X229816810Y-76850226D01*
X229737142Y-76920872D01*
X229565481Y-77016167D01*
X229427492Y-77053142D01*
X229231181Y-77056444D01*
X229126863Y-77035097D01*
X229010221Y-76967753D01*
X228927250Y-76842089D01*
X228865627Y-76612106D01*
X229986054Y-77297866D02*
X230044375Y-77331538D01*
X230115021Y-77411206D01*
X230176645Y-77641188D01*
X230155298Y-77745506D01*
X230121626Y-77803827D01*
X230041958Y-77874473D01*
X229949965Y-77899123D01*
X229799651Y-77890100D01*
X229099796Y-77486039D01*
X229260018Y-78083993D01*
X230232548Y-78217795D02*
X230290870Y-78251467D01*
X230361515Y-78331135D01*
X230423139Y-78561118D01*
X230401792Y-78665435D01*
X230368120Y-78723757D01*
X230288452Y-78794403D01*
X230196459Y-78819052D01*
X230046145Y-78810030D01*
X229346291Y-78405969D01*
X229506512Y-79003923D01*
%TO.C,D23*%
X250325627Y-83292106D02*
X251291553Y-83033287D01*
X251353176Y-83263270D01*
X251344154Y-83413584D01*
X251276810Y-83530226D01*
X251197142Y-83600872D01*
X251025481Y-83696167D01*
X250887492Y-83733142D01*
X250691181Y-83736444D01*
X250586863Y-83715097D01*
X250470221Y-83647753D01*
X250387250Y-83522089D01*
X250325627Y-83292106D01*
X251446054Y-83977866D02*
X251504375Y-84011538D01*
X251575021Y-84091206D01*
X251636645Y-84321188D01*
X251615298Y-84425506D01*
X251581626Y-84483827D01*
X251501958Y-84554473D01*
X251409965Y-84579123D01*
X251259651Y-84570100D01*
X250559796Y-84166039D01*
X250720018Y-84763993D01*
X251772217Y-84827150D02*
X251932438Y-85425104D01*
X251478193Y-85201726D01*
X251515167Y-85339716D01*
X251493820Y-85444033D01*
X251460148Y-85502354D01*
X251380480Y-85573000D01*
X251150498Y-85634624D01*
X251046180Y-85613277D01*
X250987859Y-85579605D01*
X250917213Y-85499937D01*
X250843265Y-85223958D01*
X250864612Y-85119640D01*
X250898284Y-85061319D01*
%TO.C,D24*%
X268675627Y-78372106D02*
X269641553Y-78113287D01*
X269703176Y-78343270D01*
X269694154Y-78493584D01*
X269626810Y-78610226D01*
X269547142Y-78680872D01*
X269375481Y-78776167D01*
X269237492Y-78813142D01*
X269041181Y-78816444D01*
X268936863Y-78795097D01*
X268820221Y-78727753D01*
X268737250Y-78602089D01*
X268675627Y-78372106D01*
X269796054Y-79057866D02*
X269854375Y-79091538D01*
X269925021Y-79171206D01*
X269986645Y-79401188D01*
X269965298Y-79505506D01*
X269931626Y-79563827D01*
X269851958Y-79634473D01*
X269759965Y-79659123D01*
X269609651Y-79650100D01*
X268909796Y-79246039D01*
X269070018Y-79843993D01*
X269935813Y-80499384D02*
X269291863Y-80671930D01*
X270242161Y-80170804D02*
X269490591Y-80125692D01*
X269650812Y-80723646D01*
%TO.C,D25*%
X37127197Y-102890212D02*
X36161271Y-102631393D01*
X36222894Y-102401411D01*
X36305865Y-102275746D01*
X36422507Y-102208403D01*
X36526825Y-102187056D01*
X36723136Y-102190358D01*
X36861125Y-102227332D01*
X37032786Y-102322628D01*
X37112454Y-102393273D01*
X37179798Y-102509916D01*
X37188820Y-102660230D01*
X37127197Y-102890212D01*
X36499758Y-101736113D02*
X36466086Y-101677792D01*
X36444739Y-101573474D01*
X36506363Y-101343492D01*
X36577009Y-101263824D01*
X36635330Y-101230152D01*
X36739648Y-101208805D01*
X36831641Y-101233455D01*
X36957305Y-101316425D01*
X37361366Y-102016279D01*
X37521588Y-101418325D01*
X36789831Y-100285573D02*
X36666584Y-100745538D01*
X37114224Y-100914782D01*
X37080552Y-100856460D01*
X37059205Y-100752143D01*
X37120829Y-100522160D01*
X37191475Y-100442492D01*
X37249796Y-100408820D01*
X37354114Y-100387473D01*
X37584096Y-100449097D01*
X37663764Y-100519743D01*
X37697436Y-100578064D01*
X37718783Y-100682382D01*
X37657159Y-100912364D01*
X37586514Y-100992032D01*
X37528192Y-101025704D01*
%TO.C,D26*%
X55487197Y-107870212D02*
X54521271Y-107611393D01*
X54582894Y-107381411D01*
X54665865Y-107255746D01*
X54782507Y-107188403D01*
X54886825Y-107167056D01*
X55083136Y-107170358D01*
X55221125Y-107207332D01*
X55392786Y-107302628D01*
X55472454Y-107373273D01*
X55539798Y-107489916D01*
X55548820Y-107640230D01*
X55487197Y-107870212D01*
X54859758Y-106716113D02*
X54826086Y-106657792D01*
X54804739Y-106553474D01*
X54866363Y-106323492D01*
X54937009Y-106243824D01*
X54995330Y-106210152D01*
X55099648Y-106188805D01*
X55191641Y-106213455D01*
X55317305Y-106296425D01*
X55721366Y-106996279D01*
X55881588Y-106398325D01*
X55137507Y-105311570D02*
X55088208Y-105495556D01*
X55109555Y-105599873D01*
X55143227Y-105658195D01*
X55256567Y-105787162D01*
X55428228Y-105882457D01*
X55796199Y-105981055D01*
X55900517Y-105959708D01*
X55958838Y-105926036D01*
X56029484Y-105846368D01*
X56078783Y-105662382D01*
X56057436Y-105558064D01*
X56023764Y-105499743D01*
X55944096Y-105429097D01*
X55714114Y-105367473D01*
X55609796Y-105388820D01*
X55551475Y-105422492D01*
X55480829Y-105502160D01*
X55431530Y-105686146D01*
X55452877Y-105790464D01*
X55486549Y-105848785D01*
X55566217Y-105919431D01*
%TO.C,D27*%
X76937197Y-101200212D02*
X75971271Y-100941393D01*
X76032894Y-100711411D01*
X76115865Y-100585746D01*
X76232507Y-100518403D01*
X76336825Y-100497056D01*
X76533136Y-100500358D01*
X76671125Y-100537332D01*
X76842786Y-100632628D01*
X76922454Y-100703273D01*
X76989798Y-100819916D01*
X76998820Y-100970230D01*
X76937197Y-101200212D01*
X76309758Y-100046113D02*
X76276086Y-99987792D01*
X76254739Y-99883474D01*
X76316363Y-99653492D01*
X76387009Y-99573824D01*
X76445330Y-99540152D01*
X76549648Y-99518805D01*
X76641641Y-99543455D01*
X76767305Y-99626425D01*
X77171366Y-100326279D01*
X77331588Y-99728325D01*
X76451935Y-99147531D02*
X76624481Y-98503580D01*
X77479484Y-99176368D01*
%TO.C,D28*%
X96847197Y-100320212D02*
X95881271Y-100061393D01*
X95942894Y-99831411D01*
X96025865Y-99705746D01*
X96142507Y-99638403D01*
X96246825Y-99617056D01*
X96443136Y-99620358D01*
X96581125Y-99657332D01*
X96752786Y-99752628D01*
X96832454Y-99823273D01*
X96899798Y-99939916D01*
X96908820Y-100090230D01*
X96847197Y-100320212D01*
X96219758Y-99166113D02*
X96186086Y-99107792D01*
X96164739Y-99003474D01*
X96226363Y-98773492D01*
X96297009Y-98693824D01*
X96355330Y-98660152D01*
X96459648Y-98638805D01*
X96551641Y-98663455D01*
X96677305Y-98746425D01*
X97081366Y-99446279D01*
X97241588Y-98848325D01*
X96837527Y-98148471D02*
X96766881Y-98228139D01*
X96708559Y-98261811D01*
X96604242Y-98283158D01*
X96558245Y-98270833D01*
X96478577Y-98200187D01*
X96444905Y-98141866D01*
X96423558Y-98037549D01*
X96472857Y-97853563D01*
X96543503Y-97773895D01*
X96601824Y-97740223D01*
X96706142Y-97718876D01*
X96752138Y-97731200D01*
X96831807Y-97801846D01*
X96865478Y-97860168D01*
X96886825Y-97964485D01*
X96837527Y-98148471D01*
X96858874Y-98252789D01*
X96892545Y-98311110D01*
X96972214Y-98381756D01*
X97156199Y-98431055D01*
X97260517Y-98409708D01*
X97318838Y-98376036D01*
X97389484Y-98296368D01*
X97438783Y-98112382D01*
X97417436Y-98008064D01*
X97383764Y-97949743D01*
X97304096Y-97879097D01*
X97120110Y-97829798D01*
X97015793Y-97851145D01*
X96957471Y-97884817D01*
X96886825Y-97964485D01*
%TO.C,D29*%
X114395834Y-108214356D02*
X113429908Y-107955537D01*
X113491531Y-107725555D01*
X113574502Y-107599890D01*
X113691144Y-107532547D01*
X113795462Y-107511200D01*
X113991773Y-107514502D01*
X114129762Y-107551476D01*
X114301423Y-107646772D01*
X114381091Y-107717417D01*
X114448435Y-107834060D01*
X114457457Y-107984374D01*
X114395834Y-108214356D01*
X113768395Y-107060257D02*
X113734723Y-107001936D01*
X113713376Y-106897618D01*
X113775000Y-106667636D01*
X113845646Y-106587968D01*
X113903967Y-106554296D01*
X114008285Y-106532949D01*
X114100278Y-106557599D01*
X114225942Y-106640569D01*
X114630003Y-107340423D01*
X114790225Y-106742469D01*
X114913472Y-106282505D02*
X114962771Y-106098519D01*
X114941424Y-105994201D01*
X114907752Y-105935880D01*
X114794412Y-105806913D01*
X114622751Y-105711617D01*
X114254779Y-105613020D01*
X114150461Y-105634367D01*
X114092140Y-105668039D01*
X114021494Y-105747707D01*
X113972195Y-105931693D01*
X113993542Y-106036010D01*
X114027214Y-106094331D01*
X114106882Y-106164977D01*
X114336865Y-106226601D01*
X114441182Y-106205254D01*
X114499504Y-106171582D01*
X114570149Y-106091914D01*
X114619448Y-105907928D01*
X114598101Y-105803610D01*
X114564430Y-105745289D01*
X114484761Y-105674643D01*
%TO.C,D30*%
X124957643Y-105505834D02*
X125216462Y-104539908D01*
X125446444Y-104601531D01*
X125572109Y-104684502D01*
X125639452Y-104801144D01*
X125660799Y-104905462D01*
X125657497Y-105101773D01*
X125620523Y-105239762D01*
X125525227Y-105411423D01*
X125454582Y-105491091D01*
X125337939Y-105558435D01*
X125187625Y-105567457D01*
X124957643Y-105505834D01*
X126090395Y-104774077D02*
X126688349Y-104934299D01*
X126267776Y-105215998D01*
X126405765Y-105252972D01*
X126485433Y-105323618D01*
X126519105Y-105381939D01*
X126540452Y-105486256D01*
X126478829Y-105716239D01*
X126408183Y-105795907D01*
X126349862Y-105829579D01*
X126245544Y-105850926D01*
X125969565Y-105776977D01*
X125889897Y-105706332D01*
X125856225Y-105648010D01*
X127286303Y-105094520D02*
X127378296Y-105119170D01*
X127457964Y-105189815D01*
X127491636Y-105248137D01*
X127512983Y-105352454D01*
X127509680Y-105548765D01*
X127448057Y-105778747D01*
X127352761Y-105950408D01*
X127282116Y-106030077D01*
X127223794Y-106063748D01*
X127119477Y-106085095D01*
X127027484Y-106060446D01*
X126947816Y-105989800D01*
X126914144Y-105931479D01*
X126892797Y-105827161D01*
X126896099Y-105630851D01*
X126957723Y-105400868D01*
X127053018Y-105229207D01*
X127123664Y-105149539D01*
X127181985Y-105115867D01*
X127286303Y-105094520D01*
%TO.C,D31*%
X179505627Y-112622106D02*
X180471553Y-112363287D01*
X180533176Y-112593270D01*
X180524154Y-112743584D01*
X180456810Y-112860226D01*
X180377142Y-112930872D01*
X180205481Y-113026167D01*
X180067492Y-113063142D01*
X179871181Y-113066444D01*
X179766863Y-113045097D01*
X179650221Y-112977753D01*
X179567250Y-112852089D01*
X179505627Y-112622106D01*
X180705722Y-113237220D02*
X180865944Y-113835174D01*
X180411699Y-113611797D01*
X180448673Y-113749786D01*
X180427326Y-113854104D01*
X180393654Y-113912425D01*
X180313986Y-113983071D01*
X180084004Y-114044694D01*
X179979686Y-114023347D01*
X179921365Y-113989676D01*
X179850719Y-113910007D01*
X179776771Y-113634029D01*
X179798118Y-113529711D01*
X179831789Y-113471390D01*
X180146512Y-115013923D02*
X179998615Y-114461965D01*
X180072564Y-114737944D02*
X181038490Y-114479125D01*
X180875851Y-114424106D01*
X180759208Y-114356763D01*
X180688562Y-114277094D01*
%TO.C,D32*%
X197205627Y-105282106D02*
X198171553Y-105023287D01*
X198233176Y-105253270D01*
X198224154Y-105403584D01*
X198156810Y-105520226D01*
X198077142Y-105590872D01*
X197905481Y-105686167D01*
X197767492Y-105723142D01*
X197571181Y-105726444D01*
X197466863Y-105705097D01*
X197350221Y-105637753D01*
X197267250Y-105512089D01*
X197205627Y-105282106D01*
X198405722Y-105897220D02*
X198565944Y-106495174D01*
X198111699Y-106271797D01*
X198148673Y-106409786D01*
X198127326Y-106514104D01*
X198093654Y-106572425D01*
X198013986Y-106643071D01*
X197784004Y-106704694D01*
X197679686Y-106683347D01*
X197621365Y-106649676D01*
X197550719Y-106570007D01*
X197476771Y-106294029D01*
X197498118Y-106189711D01*
X197531789Y-106131390D01*
X198572548Y-106887795D02*
X198630870Y-106921467D01*
X198701515Y-107001135D01*
X198763139Y-107231118D01*
X198741792Y-107335435D01*
X198708120Y-107393757D01*
X198628452Y-107464403D01*
X198536459Y-107489052D01*
X198386145Y-107480030D01*
X197686291Y-107075969D01*
X197846512Y-107673923D01*
%TO.C,D33*%
X213875627Y-94092106D02*
X214841553Y-93833287D01*
X214903176Y-94063270D01*
X214894154Y-94213584D01*
X214826810Y-94330226D01*
X214747142Y-94400872D01*
X214575481Y-94496167D01*
X214437492Y-94533142D01*
X214241181Y-94536444D01*
X214136863Y-94515097D01*
X214020221Y-94447753D01*
X213937250Y-94322089D01*
X213875627Y-94092106D01*
X215075722Y-94707220D02*
X215235944Y-95305174D01*
X214781699Y-95081797D01*
X214818673Y-95219786D01*
X214797326Y-95324104D01*
X214763654Y-95382425D01*
X214683986Y-95453071D01*
X214454004Y-95514694D01*
X214349686Y-95493347D01*
X214291365Y-95459676D01*
X214220719Y-95380007D01*
X214146771Y-95104029D01*
X214168118Y-94999711D01*
X214201789Y-94941390D01*
X215322217Y-95627150D02*
X215482438Y-96225104D01*
X215028193Y-96001726D01*
X215065167Y-96139716D01*
X215043820Y-96244033D01*
X215010148Y-96302354D01*
X214930480Y-96373000D01*
X214700498Y-96434624D01*
X214596180Y-96413277D01*
X214537859Y-96379605D01*
X214467213Y-96299937D01*
X214393265Y-96023958D01*
X214414612Y-95919640D01*
X214448284Y-95861319D01*
%TO.C,D34*%
X233785627Y-94972106D02*
X234751553Y-94713287D01*
X234813176Y-94943270D01*
X234804154Y-95093584D01*
X234736810Y-95210226D01*
X234657142Y-95280872D01*
X234485481Y-95376167D01*
X234347492Y-95413142D01*
X234151181Y-95416444D01*
X234046863Y-95395097D01*
X233930221Y-95327753D01*
X233847250Y-95202089D01*
X233785627Y-94972106D01*
X234985722Y-95587220D02*
X235145944Y-96185174D01*
X234691699Y-95961797D01*
X234728673Y-96099786D01*
X234707326Y-96204104D01*
X234673654Y-96262425D01*
X234593986Y-96333071D01*
X234364004Y-96394694D01*
X234259686Y-96373347D01*
X234201365Y-96339676D01*
X234130719Y-96260007D01*
X234056771Y-95984029D01*
X234078118Y-95879711D01*
X234111789Y-95821390D01*
X235045813Y-97099384D02*
X234401863Y-97271930D01*
X235352161Y-96770804D02*
X234600591Y-96725692D01*
X234760812Y-97323646D01*
%TO.C,D35*%
X255235627Y-101642106D02*
X256201553Y-101383287D01*
X256263176Y-101613270D01*
X256254154Y-101763584D01*
X256186810Y-101880226D01*
X256107142Y-101950872D01*
X255935481Y-102046167D01*
X255797492Y-102083142D01*
X255601181Y-102086444D01*
X255496863Y-102065097D01*
X255380221Y-101997753D01*
X255297250Y-101872089D01*
X255235627Y-101642106D01*
X256435722Y-102257220D02*
X256595944Y-102855174D01*
X256141699Y-102631797D01*
X256178673Y-102769786D01*
X256157326Y-102874104D01*
X256123654Y-102932425D01*
X256043986Y-103003071D01*
X255814004Y-103064694D01*
X255709686Y-103043347D01*
X255651365Y-103009676D01*
X255580719Y-102930007D01*
X255506771Y-102654029D01*
X255528118Y-102549711D01*
X255561789Y-102491390D01*
X256830113Y-103729107D02*
X256706866Y-103269143D01*
X256234577Y-103346393D01*
X256292898Y-103380065D01*
X256363544Y-103459733D01*
X256425167Y-103689716D01*
X256403820Y-103794033D01*
X256370148Y-103852354D01*
X256290480Y-103923000D01*
X256060498Y-103984624D01*
X255956180Y-103963277D01*
X255897859Y-103929605D01*
X255827213Y-103849937D01*
X255765590Y-103619954D01*
X255786937Y-103515637D01*
X255820608Y-103457316D01*
%TO.C,D36*%
X273595627Y-96722106D02*
X274561553Y-96463287D01*
X274623176Y-96693270D01*
X274614154Y-96843584D01*
X274546810Y-96960226D01*
X274467142Y-97030872D01*
X274295481Y-97126167D01*
X274157492Y-97163142D01*
X273961181Y-97166444D01*
X273856863Y-97145097D01*
X273740221Y-97077753D01*
X273657250Y-96952089D01*
X273595627Y-96722106D01*
X274795722Y-97337220D02*
X274955944Y-97935174D01*
X274501699Y-97711797D01*
X274538673Y-97849786D01*
X274517326Y-97954104D01*
X274483654Y-98012425D01*
X274403986Y-98083071D01*
X274174004Y-98144694D01*
X274069686Y-98123347D01*
X274011365Y-98089676D01*
X273940719Y-98010007D01*
X273866771Y-97734029D01*
X273888118Y-97629711D01*
X273921789Y-97571390D01*
X275177788Y-98763111D02*
X275128490Y-98579125D01*
X275057844Y-98499457D01*
X274999522Y-98465785D01*
X274836884Y-98410766D01*
X274640573Y-98414068D01*
X274272601Y-98512666D01*
X274192933Y-98583312D01*
X274159261Y-98641633D01*
X274137914Y-98745951D01*
X274187213Y-98929937D01*
X274257859Y-99009605D01*
X274316180Y-99043277D01*
X274420498Y-99064624D01*
X274650480Y-99003000D01*
X274730148Y-98932354D01*
X274763820Y-98874033D01*
X274785167Y-98769716D01*
X274735868Y-98585730D01*
X274665222Y-98506061D01*
X274606901Y-98472390D01*
X274502584Y-98451043D01*
%TO.C,D37*%
X99167197Y-128370212D02*
X98201271Y-128111393D01*
X98262894Y-127881411D01*
X98345865Y-127755746D01*
X98462507Y-127688403D01*
X98566825Y-127667056D01*
X98763136Y-127670358D01*
X98901125Y-127707332D01*
X99072786Y-127802628D01*
X99152454Y-127873273D01*
X99219798Y-127989916D01*
X99228820Y-128140230D01*
X99167197Y-128370212D01*
X98435440Y-127237460D02*
X98595662Y-126639506D01*
X98877361Y-127060079D01*
X98914335Y-126922090D01*
X98984981Y-126842422D01*
X99043302Y-126808750D01*
X99147619Y-126787403D01*
X99377602Y-126849026D01*
X99457270Y-126919672D01*
X99490942Y-126977993D01*
X99512289Y-127082311D01*
X99438340Y-127358290D01*
X99367695Y-127437958D01*
X99309373Y-127471630D01*
X98681935Y-126317531D02*
X98854481Y-125673580D01*
X99709484Y-126346368D01*
%TO.C,D38*%
X118386419Y-138028372D02*
X117520394Y-137528372D01*
X117639441Y-137322176D01*
X117752109Y-137222267D01*
X117882207Y-137187408D01*
X117988495Y-137193788D01*
X118177262Y-137247786D01*
X118300980Y-137319215D01*
X118442127Y-137455692D01*
X118500796Y-137544551D01*
X118535656Y-137674648D01*
X118505467Y-137822176D01*
X118386419Y-138028372D01*
X117972775Y-136744825D02*
X118282298Y-136208714D01*
X118445546Y-136687866D01*
X118516975Y-136564148D01*
X118605833Y-136505479D01*
X118670882Y-136488049D01*
X118777170Y-136494429D01*
X118983367Y-136613476D01*
X119042036Y-136702335D01*
X119059465Y-136767384D01*
X119053086Y-136873672D01*
X118910229Y-137121108D01*
X118821370Y-137179777D01*
X118756321Y-137197206D01*
X118939166Y-135928129D02*
X118850308Y-135986798D01*
X118785259Y-136004227D01*
X118678971Y-135997848D01*
X118637732Y-135974038D01*
X118579063Y-135885180D01*
X118561633Y-135820131D01*
X118568013Y-135713843D01*
X118663251Y-135548886D01*
X118752109Y-135490217D01*
X118817158Y-135472787D01*
X118923446Y-135479166D01*
X118964685Y-135502976D01*
X119023354Y-135591834D01*
X119040784Y-135656883D01*
X119034405Y-135763171D01*
X118939166Y-135928129D01*
X118932787Y-136034417D01*
X118950216Y-136099466D01*
X119008886Y-136188324D01*
X119173843Y-136283562D01*
X119280131Y-136289942D01*
X119345180Y-136272512D01*
X119434038Y-136213843D01*
X119529276Y-136048886D01*
X119535656Y-135942597D01*
X119518226Y-135877549D01*
X119459557Y-135788690D01*
X119294600Y-135693452D01*
X119188312Y-135687072D01*
X119123263Y-135704502D01*
X119034405Y-135763171D01*
%TO.C,D39*%
X134214277Y-152556607D02*
X133507171Y-151849500D01*
X133675529Y-151681141D01*
X133810216Y-151613798D01*
X133944903Y-151613798D01*
X134045919Y-151647470D01*
X134214277Y-151748485D01*
X134315293Y-151849500D01*
X134416308Y-152017859D01*
X134449980Y-152118874D01*
X134449980Y-152253561D01*
X134382636Y-152388248D01*
X134214277Y-152556607D01*
X134146934Y-151209737D02*
X134584667Y-150772004D01*
X134618338Y-151277080D01*
X134719354Y-151176065D01*
X134820369Y-151142393D01*
X134887713Y-151142393D01*
X134988728Y-151176065D01*
X135157087Y-151344424D01*
X135190758Y-151445439D01*
X135190758Y-151512783D01*
X135157087Y-151613798D01*
X134955056Y-151815828D01*
X134854041Y-151849500D01*
X134786697Y-151849500D01*
X135628491Y-151142393D02*
X135763178Y-151007706D01*
X135796850Y-150906691D01*
X135796850Y-150839347D01*
X135763178Y-150670989D01*
X135662163Y-150502630D01*
X135392789Y-150233256D01*
X135291774Y-150199584D01*
X135224430Y-150199584D01*
X135123415Y-150233256D01*
X134988728Y-150367943D01*
X134955056Y-150468958D01*
X134955056Y-150536302D01*
X134988728Y-150637317D01*
X135157087Y-150805676D01*
X135258102Y-150839347D01*
X135325445Y-150839347D01*
X135426461Y-150805676D01*
X135561148Y-150670989D01*
X135594819Y-150569973D01*
X135594819Y-150502630D01*
X135561148Y-150401615D01*
%TO.C,D40*%
X172440526Y-141073470D02*
X173147633Y-140366364D01*
X173315992Y-140534722D01*
X173383335Y-140669409D01*
X173383335Y-140804096D01*
X173349663Y-140905112D01*
X173248648Y-141073470D01*
X173147633Y-141174486D01*
X172979274Y-141275501D01*
X172878259Y-141309173D01*
X172743572Y-141309173D01*
X172608885Y-141241829D01*
X172440526Y-141073470D01*
X173922083Y-141612219D02*
X173450679Y-142083623D01*
X174023099Y-141174486D02*
X173349663Y-141511203D01*
X173787396Y-141948936D01*
X174662862Y-141881593D02*
X174730205Y-141948936D01*
X174763877Y-142049951D01*
X174763877Y-142117295D01*
X174730205Y-142218310D01*
X174629190Y-142386669D01*
X174460831Y-142555028D01*
X174292473Y-142656043D01*
X174191457Y-142689715D01*
X174124114Y-142689715D01*
X174023099Y-142656043D01*
X173955755Y-142588699D01*
X173922083Y-142487684D01*
X173922083Y-142420341D01*
X173955755Y-142319325D01*
X174056770Y-142150967D01*
X174225129Y-141982608D01*
X174393488Y-141881593D01*
X174494503Y-141847921D01*
X174561847Y-141847921D01*
X174662862Y-141881593D01*
%TO.C,D41*%
X191254722Y-128878341D02*
X192120748Y-128378341D01*
X192239795Y-128584537D01*
X192269985Y-128732065D01*
X192235125Y-128862162D01*
X192176456Y-128951021D01*
X192035308Y-129087498D01*
X191911590Y-129158927D01*
X191722824Y-129212925D01*
X191616535Y-129219305D01*
X191486438Y-129184446D01*
X191373770Y-129084537D01*
X191254722Y-128878341D01*
X192546358Y-129782187D02*
X191969008Y-130115520D01*
X192757225Y-129385514D02*
X192019588Y-129536460D01*
X192329112Y-130072571D01*
X192492817Y-131022785D02*
X192207103Y-130527913D01*
X192349960Y-130775349D02*
X193215986Y-130275349D01*
X193044649Y-130264299D01*
X192914551Y-130229439D01*
X192825693Y-130170770D01*
%TO.C,D42*%
X211555627Y-122142106D02*
X212521553Y-121883287D01*
X212583176Y-122113270D01*
X212574154Y-122263584D01*
X212506810Y-122380226D01*
X212427142Y-122450872D01*
X212255481Y-122546167D01*
X212117492Y-122583142D01*
X211921181Y-122586444D01*
X211816863Y-122565097D01*
X211700221Y-122497753D01*
X211617250Y-122372089D01*
X211555627Y-122142106D01*
X212569319Y-123349454D02*
X211925368Y-123522000D01*
X212875667Y-123020874D02*
X212124096Y-122975763D01*
X212284318Y-123573717D01*
X212922548Y-123747795D02*
X212980870Y-123781467D01*
X213051515Y-123861135D01*
X213113139Y-124091118D01*
X213091792Y-124195435D01*
X213058120Y-124253757D01*
X212978452Y-124324403D01*
X212886459Y-124349052D01*
X212736145Y-124340030D01*
X212036291Y-123935969D01*
X212196512Y-124533923D01*
%TO.C,F1*%
X140958571Y-60733333D02*
X140958571Y-61066666D01*
X141482380Y-61066666D02*
X140482380Y-61066666D01*
X140482380Y-60590476D01*
X141482380Y-59685714D02*
X141482380Y-60257142D01*
X141482380Y-59971428D02*
X140482380Y-59971428D01*
X140625238Y-60066666D01*
X140720476Y-60161904D01*
X140768095Y-60257142D01*
%TO.C,J1*%
D17*
X153269697Y-51957923D02*
X153984196Y-51957923D01*
X154127096Y-52005556D01*
X154222362Y-52100822D01*
X154269996Y-52243722D01*
X154269996Y-52338989D01*
X154269996Y-50957624D02*
X154269996Y-51529223D01*
X154269996Y-51243423D02*
X153269697Y-51243423D01*
X153412597Y-51338690D01*
X153507863Y-51433956D01*
X153555496Y-51529223D01*
%TO.C,NPNR1*%
D10*
X219456285Y-117354880D02*
X219456285Y-116354880D01*
X220027714Y-117354880D01*
X220027714Y-116354880D01*
X220503904Y-117354880D02*
X220503904Y-116354880D01*
X220884857Y-116354880D01*
X220980095Y-116402500D01*
X221027714Y-116450119D01*
X221075333Y-116545357D01*
X221075333Y-116688214D01*
X221027714Y-116783452D01*
X220980095Y-116831071D01*
X220884857Y-116878690D01*
X220503904Y-116878690D01*
X221503904Y-117354880D02*
X221503904Y-116354880D01*
X222075333Y-117354880D01*
X222075333Y-116354880D01*
X223122952Y-117354880D02*
X222789619Y-116878690D01*
X222551523Y-117354880D02*
X222551523Y-116354880D01*
X222932476Y-116354880D01*
X223027714Y-116402500D01*
X223075333Y-116450119D01*
X223122952Y-116545357D01*
X223122952Y-116688214D01*
X223075333Y-116783452D01*
X223027714Y-116831071D01*
X222932476Y-116878690D01*
X222551523Y-116878690D01*
X224075333Y-117354880D02*
X223503904Y-117354880D01*
X223789619Y-117354880D02*
X223789619Y-116354880D01*
X223694380Y-116497738D01*
X223599142Y-116592976D01*
X223503904Y-116640595D01*
%TO.C,R1*%
X46281481Y-70158508D02*
X45735244Y-70357236D01*
X46133585Y-70710466D02*
X45167659Y-70451647D01*
X45266257Y-70083675D01*
X45336903Y-70004007D01*
X45395224Y-69970335D01*
X45499541Y-69948988D01*
X45637531Y-69985962D01*
X45717199Y-70056608D01*
X45750871Y-70114929D01*
X45772218Y-70219247D01*
X45673620Y-70587218D01*
X46527976Y-69238579D02*
X46380079Y-69790536D01*
X46454027Y-69514557D02*
X45488102Y-69255738D01*
X45601442Y-69384705D01*
X45668785Y-69501348D01*
X45690132Y-69605665D01*
%TO.C,R2*%
X64631481Y-75068508D02*
X64085244Y-75267236D01*
X64483585Y-75620466D02*
X63517659Y-75361647D01*
X63616257Y-74993675D01*
X63686903Y-74914007D01*
X63745224Y-74880335D01*
X63849541Y-74858988D01*
X63987531Y-74895962D01*
X64067199Y-74966608D01*
X64100871Y-75024929D01*
X64122218Y-75129247D01*
X64023620Y-75497218D01*
X63856146Y-74466367D02*
X63822475Y-74408045D01*
X63801127Y-74303728D01*
X63862751Y-74073745D01*
X63933397Y-73994077D01*
X63991718Y-73960405D01*
X64096036Y-73939058D01*
X64188029Y-73963708D01*
X64313693Y-74046678D01*
X64717754Y-74746533D01*
X64877976Y-74148579D01*
%TO.C,R3*%
X86091481Y-68398508D02*
X85545244Y-68597236D01*
X85943585Y-68950466D02*
X84977659Y-68691647D01*
X85076257Y-68323675D01*
X85146903Y-68244007D01*
X85205224Y-68210335D01*
X85309541Y-68188988D01*
X85447531Y-68225962D01*
X85527199Y-68296608D01*
X85560871Y-68354929D01*
X85582218Y-68459247D01*
X85483620Y-68827218D01*
X85211829Y-67817714D02*
X85372050Y-67219760D01*
X85653749Y-67640333D01*
X85690723Y-67502343D01*
X85761369Y-67422675D01*
X85819690Y-67389003D01*
X85924008Y-67367656D01*
X86153990Y-67429280D01*
X86233658Y-67499926D01*
X86267330Y-67558247D01*
X86288677Y-67662564D01*
X86214729Y-67938543D01*
X86144083Y-68018211D01*
X86085762Y-68051883D01*
%TO.C,R4*%
X105991481Y-67518508D02*
X105445244Y-67717236D01*
X105843585Y-68070466D02*
X104877659Y-67811647D01*
X104976257Y-67443675D01*
X105046903Y-67364007D01*
X105105224Y-67330335D01*
X105209541Y-67308988D01*
X105347531Y-67345962D01*
X105427199Y-67416608D01*
X105460871Y-67474929D01*
X105482218Y-67579247D01*
X105383620Y-67947218D01*
X105569376Y-66518025D02*
X106213326Y-66690572D01*
X105139780Y-66649410D02*
X105768104Y-67064263D01*
X105928325Y-66466309D01*
%TO.C,R5*%
X122661481Y-78718508D02*
X122115244Y-78917236D01*
X122513585Y-79270466D02*
X121547659Y-79011647D01*
X121646257Y-78643675D01*
X121716903Y-78564007D01*
X121775224Y-78530335D01*
X121879541Y-78508988D01*
X122017531Y-78545962D01*
X122097199Y-78616608D01*
X122130871Y-78674929D01*
X122152218Y-78779247D01*
X122053620Y-79147218D01*
X121929725Y-77585756D02*
X121806478Y-78045721D01*
X122254118Y-78214964D01*
X122220446Y-78156643D01*
X122199099Y-78052325D01*
X122260723Y-77822343D01*
X122331369Y-77742675D01*
X122389690Y-77709003D01*
X122494008Y-77687656D01*
X122723990Y-77749280D01*
X122803658Y-77819926D01*
X122837330Y-77878247D01*
X122858677Y-77982564D01*
X122797053Y-78212547D01*
X122726407Y-78292215D01*
X122668086Y-78325887D01*
%TO.C,R6*%
X140371481Y-86048508D02*
X139825244Y-86247236D01*
X140223585Y-86600466D02*
X139257659Y-86341647D01*
X139356257Y-85973675D01*
X139426903Y-85894007D01*
X139485224Y-85860335D01*
X139589541Y-85838988D01*
X139727531Y-85875962D01*
X139807199Y-85946608D01*
X139840871Y-86004929D01*
X139862218Y-86109247D01*
X139763620Y-86477218D01*
X139627401Y-84961752D02*
X139578102Y-85145738D01*
X139599449Y-85250056D01*
X139633120Y-85308377D01*
X139746460Y-85437344D01*
X139918122Y-85532640D01*
X140286093Y-85631237D01*
X140390411Y-85609890D01*
X140448732Y-85576219D01*
X140519378Y-85496550D01*
X140568677Y-85312564D01*
X140547330Y-85208247D01*
X140513658Y-85149926D01*
X140433990Y-85079280D01*
X140204008Y-85017656D01*
X140099690Y-85039003D01*
X140041369Y-85072675D01*
X139970723Y-85152343D01*
X139921424Y-85336329D01*
X139942771Y-85440647D01*
X139976443Y-85498968D01*
X140056111Y-85569614D01*
%TO.C,R7*%
X171568940Y-81663071D02*
X171942631Y-81217848D01*
X171421043Y-81111113D02*
X172386969Y-80852294D01*
X172485567Y-81220266D01*
X172464219Y-81324583D01*
X172430548Y-81382905D01*
X172350880Y-81453550D01*
X172212890Y-81490525D01*
X172108572Y-81469178D01*
X172050251Y-81435506D01*
X171979605Y-81355838D01*
X171881008Y-80987866D01*
X172621138Y-81726227D02*
X172793684Y-82370177D01*
X171716836Y-82215028D01*
%TO.C,R8*%
X189278940Y-74333071D02*
X189652631Y-73887848D01*
X189131043Y-73781113D02*
X190096969Y-73522294D01*
X190195567Y-73890266D01*
X190174219Y-73994583D01*
X190140548Y-74052905D01*
X190060880Y-74123550D01*
X189922890Y-74160525D01*
X189818572Y-74139178D01*
X189760251Y-74105506D01*
X189689605Y-74025838D01*
X189591008Y-73657866D01*
X189978794Y-74737132D02*
X190000141Y-74632814D01*
X190033813Y-74574493D01*
X190113481Y-74503847D01*
X190159477Y-74491522D01*
X190263795Y-74512869D01*
X190322116Y-74546541D01*
X190392762Y-74626209D01*
X190442061Y-74810195D01*
X190420714Y-74914513D01*
X190387042Y-74972834D01*
X190307374Y-75043480D01*
X190261377Y-75055805D01*
X190157060Y-75034458D01*
X190098739Y-75000786D01*
X190028093Y-74921118D01*
X189978794Y-74737132D01*
X189908148Y-74657463D01*
X189849827Y-74623792D01*
X189745509Y-74602445D01*
X189561523Y-74651744D01*
X189481855Y-74722389D01*
X189448183Y-74780711D01*
X189426836Y-74885028D01*
X189476135Y-75069014D01*
X189546781Y-75148682D01*
X189605102Y-75182354D01*
X189709420Y-75203701D01*
X189893406Y-75154402D01*
X189973074Y-75083756D01*
X190006746Y-75025435D01*
X190028093Y-74921118D01*
%TO.C,R9*%
X205948940Y-63133071D02*
X206322631Y-62687848D01*
X205801043Y-62581113D02*
X206766969Y-62322294D01*
X206865567Y-62690266D01*
X206844219Y-62794583D01*
X206810548Y-62852905D01*
X206730880Y-62923550D01*
X206592890Y-62960525D01*
X206488572Y-62939178D01*
X206430251Y-62905506D01*
X206359605Y-62825838D01*
X206261008Y-62457866D01*
X206072187Y-63593035D02*
X206121486Y-63777021D01*
X206192131Y-63856689D01*
X206250453Y-63890361D01*
X206413091Y-63945380D01*
X206609402Y-63942078D01*
X206977374Y-63843480D01*
X207057042Y-63772834D01*
X207090714Y-63714513D01*
X207112061Y-63610195D01*
X207062762Y-63426209D01*
X206992116Y-63346541D01*
X206933795Y-63312869D01*
X206829477Y-63291522D01*
X206599495Y-63353146D01*
X206519827Y-63423792D01*
X206486155Y-63482113D01*
X206464808Y-63586431D01*
X206514107Y-63770416D01*
X206584753Y-63850085D01*
X206643074Y-63883756D01*
X206747391Y-63905103D01*
%TO.C,R10*%
X225725692Y-63553106D02*
X226099384Y-63107884D01*
X225577796Y-63001148D02*
X226543722Y-62742329D01*
X226642319Y-63110301D01*
X226620972Y-63214619D01*
X226587301Y-63272940D01*
X226507632Y-63343586D01*
X226369643Y-63380560D01*
X226265325Y-63359213D01*
X226207004Y-63325541D01*
X226136358Y-63245873D01*
X226037760Y-62877901D01*
X225972187Y-64473035D02*
X225824290Y-63921078D01*
X225898238Y-64197057D02*
X226864164Y-63938237D01*
X226701525Y-63883219D01*
X226584883Y-63815875D01*
X226514237Y-63736207D01*
X227098334Y-64812170D02*
X227122983Y-64904163D01*
X227101636Y-65008481D01*
X227067964Y-65066802D01*
X226988296Y-65137448D01*
X226816635Y-65232743D01*
X226586653Y-65294367D01*
X226390342Y-65297669D01*
X226286025Y-65276322D01*
X226227703Y-65242651D01*
X226157057Y-65162982D01*
X226132408Y-65070989D01*
X226153755Y-64966672D01*
X226187427Y-64908351D01*
X226267095Y-64837705D01*
X226438756Y-64742409D01*
X226668739Y-64680786D01*
X226865049Y-64677483D01*
X226969367Y-64698830D01*
X227027688Y-64732502D01*
X227098334Y-64812170D01*
%TO.C,R11*%
X247185692Y-70223106D02*
X247559384Y-69777884D01*
X247037796Y-69671148D02*
X248003722Y-69412329D01*
X248102319Y-69780301D01*
X248080972Y-69884619D01*
X248047301Y-69942940D01*
X247967632Y-70013586D01*
X247829643Y-70050560D01*
X247725325Y-70029213D01*
X247667004Y-69995541D01*
X247596358Y-69915873D01*
X247497760Y-69547901D01*
X247432187Y-71143035D02*
X247284290Y-70591078D01*
X247358238Y-70867057D02*
X248324164Y-70608237D01*
X248161525Y-70553219D01*
X248044883Y-70485875D01*
X247974237Y-70406207D01*
X247678681Y-72062965D02*
X247530784Y-71511007D01*
X247604733Y-71786986D02*
X248570659Y-71528167D01*
X248408020Y-71473148D01*
X248291377Y-71405805D01*
X248220731Y-71326136D01*
%TO.C,R12*%
X265535692Y-65313106D02*
X265909384Y-64867884D01*
X265387796Y-64761148D02*
X266353722Y-64502329D01*
X266452319Y-64870301D01*
X266430972Y-64974619D01*
X266397301Y-65032940D01*
X266317632Y-65103586D01*
X266179643Y-65140560D01*
X266075325Y-65119213D01*
X266017004Y-65085541D01*
X265946358Y-65005873D01*
X265847760Y-64637901D01*
X265782187Y-66233035D02*
X265634290Y-65681078D01*
X265708238Y-65957057D02*
X266674164Y-65698237D01*
X266511525Y-65643219D01*
X266394883Y-65575875D01*
X266324237Y-65496207D01*
X266754717Y-66366837D02*
X266813039Y-66400509D01*
X266883684Y-66480177D01*
X266945308Y-66710160D01*
X266923961Y-66814477D01*
X266890289Y-66872799D01*
X266810621Y-66943445D01*
X266718628Y-66968094D01*
X266568314Y-66959072D01*
X265868460Y-66555011D01*
X266028681Y-67152965D01*
%TO.C,R13*%
X41238234Y-88968473D02*
X40691997Y-89167201D01*
X41090338Y-89520430D02*
X40124412Y-89261611D01*
X40223010Y-88893639D01*
X40293655Y-88813971D01*
X40351977Y-88780299D01*
X40456294Y-88758952D01*
X40594284Y-88795927D01*
X40673952Y-88866572D01*
X40707624Y-88924894D01*
X40728971Y-89029211D01*
X40630373Y-89397183D01*
X41484729Y-88048543D02*
X41336832Y-88600501D01*
X41410780Y-88324522D02*
X40444854Y-88065703D01*
X40558194Y-88194670D01*
X40625538Y-88311312D01*
X40646885Y-88415630D01*
X40605076Y-87467749D02*
X40765297Y-86869795D01*
X41046996Y-87290368D01*
X41083970Y-87152378D01*
X41154616Y-87072710D01*
X41212937Y-87039038D01*
X41317255Y-87017691D01*
X41547237Y-87079315D01*
X41626905Y-87149961D01*
X41660577Y-87208282D01*
X41681924Y-87312600D01*
X41607976Y-87588579D01*
X41537330Y-87668247D01*
X41479009Y-87701919D01*
%TO.C,R14*%
X59588234Y-93888473D02*
X59041997Y-94087201D01*
X59440338Y-94440430D02*
X58474412Y-94181611D01*
X58573010Y-93813639D01*
X58643655Y-93733971D01*
X58701977Y-93700299D01*
X58806294Y-93678952D01*
X58944284Y-93715927D01*
X59023952Y-93786572D01*
X59057624Y-93844894D01*
X59078971Y-93949211D01*
X58980373Y-94317183D01*
X59834729Y-92968543D02*
X59686832Y-93520501D01*
X59760780Y-93244522D02*
X58794854Y-92985703D01*
X58908194Y-93114670D01*
X58975538Y-93231312D01*
X58996885Y-93335630D01*
X59412623Y-91968061D02*
X60056573Y-92140607D01*
X58983028Y-92099445D02*
X59611351Y-92514299D01*
X59771572Y-91916344D01*
%TO.C,R15*%
X81048234Y-87208473D02*
X80501997Y-87407201D01*
X80900338Y-87760430D02*
X79934412Y-87501611D01*
X80033010Y-87133639D01*
X80103655Y-87053971D01*
X80161977Y-87020299D01*
X80266294Y-86998952D01*
X80404284Y-87035927D01*
X80483952Y-87106572D01*
X80517624Y-87164894D01*
X80538971Y-87269211D01*
X80440373Y-87637183D01*
X81294729Y-86288543D02*
X81146832Y-86840501D01*
X81220780Y-86564522D02*
X80254854Y-86305703D01*
X80368194Y-86434670D01*
X80435538Y-86551312D01*
X80456885Y-86655630D01*
X80562972Y-85155791D02*
X80439725Y-85615756D01*
X80887365Y-85785000D01*
X80853693Y-85726678D01*
X80832346Y-85622361D01*
X80893970Y-85392378D01*
X80964616Y-85312710D01*
X81022937Y-85279038D01*
X81127255Y-85257691D01*
X81357237Y-85319315D01*
X81436905Y-85389961D01*
X81470577Y-85448282D01*
X81491924Y-85552600D01*
X81430300Y-85782582D01*
X81359655Y-85862250D01*
X81301333Y-85895922D01*
%TO.C,R16*%
X100958234Y-86338473D02*
X100411997Y-86537201D01*
X100810338Y-86890430D02*
X99844412Y-86631611D01*
X99943010Y-86263639D01*
X100013655Y-86183971D01*
X100071977Y-86150299D01*
X100176294Y-86128952D01*
X100314284Y-86165927D01*
X100393952Y-86236572D01*
X100427624Y-86294894D01*
X100448971Y-86399211D01*
X100350373Y-86767183D01*
X101204729Y-85418543D02*
X101056832Y-85970501D01*
X101130780Y-85694522D02*
X100164854Y-85435703D01*
X100278194Y-85564670D01*
X100345538Y-85681312D01*
X100366885Y-85785630D01*
X100460648Y-84331788D02*
X100411349Y-84515774D01*
X100432696Y-84620091D01*
X100466368Y-84678413D01*
X100579708Y-84807380D01*
X100751369Y-84902675D01*
X101119340Y-85001273D01*
X101223658Y-84979926D01*
X101281979Y-84946254D01*
X101352625Y-84866586D01*
X101401924Y-84682600D01*
X101380577Y-84578282D01*
X101346905Y-84519961D01*
X101267237Y-84449315D01*
X101037255Y-84387691D01*
X100932937Y-84409038D01*
X100874616Y-84442710D01*
X100803970Y-84522378D01*
X100754671Y-84706364D01*
X100776018Y-84810682D01*
X100809690Y-84869003D01*
X100889358Y-84939649D01*
%TO.C,R17*%
X117628947Y-97528473D02*
X117082710Y-97727201D01*
X117481051Y-98080430D02*
X116515125Y-97821611D01*
X116613723Y-97453639D01*
X116684368Y-97373971D01*
X116742690Y-97340299D01*
X116847007Y-97318952D01*
X116984997Y-97355927D01*
X117064665Y-97426572D01*
X117098337Y-97484894D01*
X117119684Y-97589211D01*
X117021086Y-97957183D01*
X117875442Y-96608543D02*
X117727545Y-97160501D01*
X117801493Y-96884522D02*
X116835567Y-96625703D01*
X116948907Y-96754670D01*
X117016251Y-96871312D01*
X117037598Y-96975630D01*
X116995789Y-96027749D02*
X117168335Y-95383798D01*
X118023338Y-96056586D01*
%TO.C,R18*%
X135328234Y-104858473D02*
X134781997Y-105057201D01*
X135180338Y-105410430D02*
X134214412Y-105151611D01*
X134313010Y-104783639D01*
X134383655Y-104703971D01*
X134441977Y-104670299D01*
X134546294Y-104648952D01*
X134684284Y-104685927D01*
X134763952Y-104756572D01*
X134797624Y-104814894D01*
X134818971Y-104919211D01*
X134720373Y-105287183D01*
X135574729Y-103938543D02*
X135426832Y-104490501D01*
X135500780Y-104214522D02*
X134534854Y-103955703D01*
X134648194Y-104084670D01*
X134715538Y-104201312D01*
X134736885Y-104305630D01*
X135170668Y-103238689D02*
X135100022Y-103318357D01*
X135041700Y-103352029D01*
X134937383Y-103373376D01*
X134891386Y-103361051D01*
X134811718Y-103290405D01*
X134778046Y-103232084D01*
X134756699Y-103127767D01*
X134805998Y-102943781D01*
X134876644Y-102864113D01*
X134934965Y-102830441D01*
X135039283Y-102809094D01*
X135085279Y-102821418D01*
X135164948Y-102892064D01*
X135198619Y-102950386D01*
X135219966Y-103054703D01*
X135170668Y-103238689D01*
X135192015Y-103343007D01*
X135225686Y-103401328D01*
X135305355Y-103471974D01*
X135489340Y-103521273D01*
X135593658Y-103499926D01*
X135651979Y-103466254D01*
X135722625Y-103386586D01*
X135771924Y-103202600D01*
X135750577Y-103098282D01*
X135716905Y-103039961D01*
X135637237Y-102969315D01*
X135453251Y-102920016D01*
X135348934Y-102941363D01*
X135290612Y-102975035D01*
X135219966Y-103054703D01*
%TO.C,R19*%
X176365692Y-99553106D02*
X176739384Y-99107884D01*
X176217796Y-99001148D02*
X177183722Y-98742329D01*
X177282319Y-99110301D01*
X177260972Y-99214619D01*
X177227301Y-99272940D01*
X177147632Y-99343586D01*
X177009643Y-99380560D01*
X176905325Y-99359213D01*
X176847004Y-99325541D01*
X176776358Y-99245873D01*
X176677760Y-98877901D01*
X176612187Y-100473035D02*
X176464290Y-99921078D01*
X176538238Y-100197057D02*
X177504164Y-99938237D01*
X177341525Y-99883219D01*
X177224883Y-99815875D01*
X177154237Y-99736207D01*
X176735434Y-100933000D02*
X176784733Y-101116986D01*
X176855379Y-101196654D01*
X176913700Y-101230326D01*
X177076339Y-101285345D01*
X177272649Y-101282042D01*
X177640621Y-101183445D01*
X177720289Y-101112799D01*
X177753961Y-101054477D01*
X177775308Y-100950160D01*
X177726009Y-100766174D01*
X177655363Y-100686506D01*
X177597042Y-100652834D01*
X177492724Y-100631487D01*
X177262742Y-100693110D01*
X177183074Y-100763756D01*
X177149402Y-100822078D01*
X177128055Y-100926395D01*
X177177354Y-101110381D01*
X177248000Y-101190049D01*
X177306321Y-101223721D01*
X177410639Y-101245068D01*
%TO.C,R20*%
X194065692Y-92223106D02*
X194439384Y-91777884D01*
X193917796Y-91671148D02*
X194883722Y-91412329D01*
X194982319Y-91780301D01*
X194960972Y-91884619D01*
X194927301Y-91942940D01*
X194847632Y-92013586D01*
X194709643Y-92050560D01*
X194605325Y-92029213D01*
X194547004Y-91995541D01*
X194476358Y-91915873D01*
X194377760Y-91547901D01*
X195038223Y-92356908D02*
X195096544Y-92390580D01*
X195167190Y-92470248D01*
X195228814Y-92700230D01*
X195207467Y-92804548D01*
X195173795Y-92862869D01*
X195094127Y-92933515D01*
X195002134Y-92958165D01*
X194851820Y-92949142D01*
X194151965Y-92545081D01*
X194312187Y-93143035D01*
X195438334Y-93482170D02*
X195462983Y-93574163D01*
X195441636Y-93678481D01*
X195407964Y-93736802D01*
X195328296Y-93807448D01*
X195156635Y-93902743D01*
X194926653Y-93964367D01*
X194730342Y-93967669D01*
X194626025Y-93946322D01*
X194567703Y-93912651D01*
X194497057Y-93832982D01*
X194472408Y-93740989D01*
X194493755Y-93636672D01*
X194527427Y-93578351D01*
X194607095Y-93507705D01*
X194778756Y-93412409D01*
X195008739Y-93350786D01*
X195205049Y-93347483D01*
X195309367Y-93368830D01*
X195367688Y-93402502D01*
X195438334Y-93482170D01*
%TO.C,R21*%
X210735692Y-81033106D02*
X211109384Y-80587884D01*
X210587796Y-80481148D02*
X211553722Y-80222329D01*
X211652319Y-80590301D01*
X211630972Y-80694619D01*
X211597301Y-80752940D01*
X211517632Y-80823586D01*
X211379643Y-80860560D01*
X211275325Y-80839213D01*
X211217004Y-80805541D01*
X211146358Y-80725873D01*
X211047760Y-80357901D01*
X211708223Y-81166908D02*
X211766544Y-81200580D01*
X211837190Y-81280248D01*
X211898814Y-81510230D01*
X211877467Y-81614548D01*
X211843795Y-81672869D01*
X211764127Y-81743515D01*
X211672134Y-81768165D01*
X211521820Y-81759142D01*
X210821965Y-81355081D01*
X210982187Y-81953035D01*
X211228681Y-82872965D02*
X211080784Y-82321007D01*
X211154733Y-82596986D02*
X212120659Y-82338167D01*
X211958020Y-82283148D01*
X211841377Y-82215805D01*
X211770731Y-82136136D01*
%TO.C,R22*%
X230645692Y-81903106D02*
X231019384Y-81457884D01*
X230497796Y-81351148D02*
X231463722Y-81092329D01*
X231562319Y-81460301D01*
X231540972Y-81564619D01*
X231507301Y-81622940D01*
X231427632Y-81693586D01*
X231289643Y-81730560D01*
X231185325Y-81709213D01*
X231127004Y-81675541D01*
X231056358Y-81595873D01*
X230957760Y-81227901D01*
X231618223Y-82036908D02*
X231676544Y-82070580D01*
X231747190Y-82150248D01*
X231808814Y-82380230D01*
X231787467Y-82484548D01*
X231753795Y-82542869D01*
X231674127Y-82613515D01*
X231582134Y-82638165D01*
X231431820Y-82629142D01*
X230731965Y-82225081D01*
X230892187Y-82823035D01*
X231864717Y-82956837D02*
X231923039Y-82990509D01*
X231993684Y-83070177D01*
X232055308Y-83300160D01*
X232033961Y-83404477D01*
X232000289Y-83462799D01*
X231920621Y-83533445D01*
X231828628Y-83558094D01*
X231678314Y-83549072D01*
X230978460Y-83145011D01*
X231138681Y-83742965D01*
%TO.C,R23*%
X252105692Y-88583106D02*
X252479384Y-88137884D01*
X251957796Y-88031148D02*
X252923722Y-87772329D01*
X253022319Y-88140301D01*
X253000972Y-88244619D01*
X252967301Y-88302940D01*
X252887632Y-88373586D01*
X252749643Y-88410560D01*
X252645325Y-88389213D01*
X252587004Y-88355541D01*
X252516358Y-88275873D01*
X252417760Y-87907901D01*
X253078223Y-88716908D02*
X253136544Y-88750580D01*
X253207190Y-88830248D01*
X253268814Y-89060230D01*
X253247467Y-89164548D01*
X253213795Y-89222869D01*
X253134127Y-89293515D01*
X253042134Y-89318165D01*
X252891820Y-89309142D01*
X252191965Y-88905081D01*
X252352187Y-89503035D01*
X253404386Y-89566192D02*
X253564607Y-90164146D01*
X253110362Y-89940768D01*
X253147336Y-90078758D01*
X253125989Y-90183075D01*
X253092317Y-90241396D01*
X253012649Y-90312042D01*
X252782667Y-90373666D01*
X252678349Y-90352319D01*
X252620028Y-90318647D01*
X252549382Y-90238979D01*
X252475434Y-89963000D01*
X252496781Y-89858682D01*
X252530453Y-89800361D01*
%TO.C,R24*%
X270455692Y-83663106D02*
X270829384Y-83217884D01*
X270307796Y-83111148D02*
X271273722Y-82852329D01*
X271372319Y-83220301D01*
X271350972Y-83324619D01*
X271317301Y-83382940D01*
X271237632Y-83453586D01*
X271099643Y-83490560D01*
X270995325Y-83469213D01*
X270937004Y-83435541D01*
X270866358Y-83355873D01*
X270767760Y-82987901D01*
X271428223Y-83796908D02*
X271486544Y-83830580D01*
X271557190Y-83910248D01*
X271618814Y-84140230D01*
X271597467Y-84244548D01*
X271563795Y-84302869D01*
X271484127Y-84373515D01*
X271392134Y-84398165D01*
X271241820Y-84389142D01*
X270541965Y-83985081D01*
X270702187Y-84583035D01*
X271567982Y-85238426D02*
X270924032Y-85410972D01*
X271874330Y-84909846D02*
X271122760Y-84864734D01*
X271282981Y-85462688D01*
%TO.C,R25*%
X36318234Y-107318473D02*
X35771997Y-107517201D01*
X36170338Y-107870430D02*
X35204412Y-107611611D01*
X35303010Y-107243639D01*
X35373655Y-107163971D01*
X35431977Y-107130299D01*
X35536294Y-107108952D01*
X35674284Y-107145927D01*
X35753952Y-107216572D01*
X35787624Y-107274894D01*
X35808971Y-107379211D01*
X35710373Y-107747183D01*
X35542899Y-106716331D02*
X35509227Y-106658010D01*
X35487880Y-106553692D01*
X35549504Y-106323710D01*
X35620150Y-106244042D01*
X35678471Y-106210370D01*
X35782789Y-106189023D01*
X35874782Y-106213673D01*
X36000446Y-106296643D01*
X36404507Y-106996497D01*
X36564729Y-106398543D01*
X35832972Y-105265791D02*
X35709725Y-105725756D01*
X36157365Y-105895000D01*
X36123693Y-105836678D01*
X36102346Y-105732361D01*
X36163970Y-105502378D01*
X36234616Y-105422710D01*
X36292937Y-105389038D01*
X36397255Y-105367691D01*
X36627237Y-105429315D01*
X36706905Y-105499961D01*
X36740577Y-105558282D01*
X36761924Y-105662600D01*
X36700300Y-105892582D01*
X36629655Y-105972250D01*
X36571333Y-106005922D01*
%TO.C,R26*%
X54678234Y-112238473D02*
X54131997Y-112437201D01*
X54530338Y-112790430D02*
X53564412Y-112531611D01*
X53663010Y-112163639D01*
X53733655Y-112083971D01*
X53791977Y-112050299D01*
X53896294Y-112028952D01*
X54034284Y-112065927D01*
X54113952Y-112136572D01*
X54147624Y-112194894D01*
X54168971Y-112299211D01*
X54070373Y-112667183D01*
X53902899Y-111636331D02*
X53869227Y-111578010D01*
X53847880Y-111473692D01*
X53909504Y-111243710D01*
X53980150Y-111164042D01*
X54038471Y-111130370D01*
X54142789Y-111109023D01*
X54234782Y-111133673D01*
X54360446Y-111216643D01*
X54764507Y-111916497D01*
X54924729Y-111318543D01*
X54180648Y-110231788D02*
X54131349Y-110415774D01*
X54152696Y-110520091D01*
X54186368Y-110578413D01*
X54299708Y-110707380D01*
X54471369Y-110802675D01*
X54839340Y-110901273D01*
X54943658Y-110879926D01*
X55001979Y-110846254D01*
X55072625Y-110766586D01*
X55121924Y-110582600D01*
X55100577Y-110478282D01*
X55066905Y-110419961D01*
X54987237Y-110349315D01*
X54757255Y-110287691D01*
X54652937Y-110309038D01*
X54594616Y-110342710D01*
X54523970Y-110422378D01*
X54474671Y-110606364D01*
X54496018Y-110710682D01*
X54529690Y-110769003D01*
X54609358Y-110839649D01*
%TO.C,R27*%
X76128234Y-105568473D02*
X75581997Y-105767201D01*
X75980338Y-106120430D02*
X75014412Y-105861611D01*
X75113010Y-105493639D01*
X75183655Y-105413971D01*
X75241977Y-105380299D01*
X75346294Y-105358952D01*
X75484284Y-105395927D01*
X75563952Y-105466572D01*
X75597624Y-105524894D01*
X75618971Y-105629211D01*
X75520373Y-105997183D01*
X75352899Y-104966331D02*
X75319227Y-104908010D01*
X75297880Y-104803692D01*
X75359504Y-104573710D01*
X75430150Y-104494042D01*
X75488471Y-104460370D01*
X75592789Y-104439023D01*
X75684782Y-104463673D01*
X75810446Y-104546643D01*
X76214507Y-105246497D01*
X76374729Y-104648543D01*
X75495076Y-104067749D02*
X75667622Y-103423798D01*
X76522625Y-104096586D01*
%TO.C,R28*%
X96038234Y-104688473D02*
X95491997Y-104887201D01*
X95890338Y-105240430D02*
X94924412Y-104981611D01*
X95023010Y-104613639D01*
X95093655Y-104533971D01*
X95151977Y-104500299D01*
X95256294Y-104478952D01*
X95394284Y-104515927D01*
X95473952Y-104586572D01*
X95507624Y-104644894D01*
X95528971Y-104749211D01*
X95430373Y-105117183D01*
X95262899Y-104086331D02*
X95229227Y-104028010D01*
X95207880Y-103923692D01*
X95269504Y-103693710D01*
X95340150Y-103614042D01*
X95398471Y-103580370D01*
X95502789Y-103559023D01*
X95594782Y-103583673D01*
X95720446Y-103666643D01*
X96124507Y-104366497D01*
X96284729Y-103768543D01*
X95880668Y-103068689D02*
X95810022Y-103148357D01*
X95751700Y-103182029D01*
X95647383Y-103203376D01*
X95601386Y-103191051D01*
X95521718Y-103120405D01*
X95488046Y-103062084D01*
X95466699Y-102957767D01*
X95515998Y-102773781D01*
X95586644Y-102694113D01*
X95644965Y-102660441D01*
X95749283Y-102639094D01*
X95795279Y-102651418D01*
X95874948Y-102722064D01*
X95908619Y-102780386D01*
X95929966Y-102884703D01*
X95880668Y-103068689D01*
X95902015Y-103173007D01*
X95935686Y-103231328D01*
X96015355Y-103301974D01*
X96199340Y-103351273D01*
X96303658Y-103329926D01*
X96361979Y-103296254D01*
X96432625Y-103216586D01*
X96481924Y-103032600D01*
X96460577Y-102928282D01*
X96426905Y-102869961D01*
X96347237Y-102799315D01*
X96163251Y-102750016D01*
X96058934Y-102771363D01*
X96000612Y-102805035D01*
X95929966Y-102884703D01*
%TO.C,R29*%
X112708234Y-115878473D02*
X112161997Y-116077201D01*
X112560338Y-116430430D02*
X111594412Y-116171611D01*
X111693010Y-115803639D01*
X111763655Y-115723971D01*
X111821977Y-115690299D01*
X111926294Y-115668952D01*
X112064284Y-115705927D01*
X112143952Y-115776572D01*
X112177624Y-115834894D01*
X112198971Y-115939211D01*
X112100373Y-116307183D01*
X111932899Y-115276331D02*
X111899227Y-115218010D01*
X111877880Y-115113692D01*
X111939504Y-114883710D01*
X112010150Y-114804042D01*
X112068471Y-114770370D01*
X112172789Y-114749023D01*
X112264782Y-114773673D01*
X112390446Y-114856643D01*
X112794507Y-115556497D01*
X112954729Y-114958543D01*
X113077976Y-114498579D02*
X113127275Y-114314593D01*
X113105928Y-114210275D01*
X113072256Y-114151954D01*
X112958916Y-114022987D01*
X112787255Y-113927691D01*
X112419283Y-113829094D01*
X112314965Y-113850441D01*
X112256644Y-113884113D01*
X112185998Y-113963781D01*
X112136699Y-114147767D01*
X112158046Y-114252084D01*
X112191718Y-114310405D01*
X112271386Y-114381051D01*
X112501369Y-114442675D01*
X112605686Y-114421328D01*
X112664008Y-114387656D01*
X112734653Y-114307988D01*
X112783952Y-114124002D01*
X112762605Y-114019684D01*
X112728934Y-113961363D01*
X112649265Y-113890717D01*
%TO.C,R30*%
X118976912Y-126959360D02*
X118778184Y-126413123D01*
X118424955Y-126811464D02*
X118683774Y-125845538D01*
X119051746Y-125944136D01*
X119131414Y-126014781D01*
X119165086Y-126073103D01*
X119186433Y-126177420D01*
X119149458Y-126315410D01*
X119078813Y-126395078D01*
X119020491Y-126428750D01*
X118916174Y-126450097D01*
X118548202Y-126351499D01*
X119557707Y-126079707D02*
X120155661Y-126239929D01*
X119735088Y-126521628D01*
X119873077Y-126558602D01*
X119952745Y-126629248D01*
X119986417Y-126687569D01*
X120007764Y-126791886D01*
X119946141Y-127021869D01*
X119875495Y-127101537D01*
X119817174Y-127135209D01*
X119712856Y-127156556D01*
X119436877Y-127082607D01*
X119357209Y-127011962D01*
X119323537Y-126953640D01*
X120753615Y-126400150D02*
X120845608Y-126424800D01*
X120925276Y-126495445D01*
X120958948Y-126553767D01*
X120980295Y-126658084D01*
X120976992Y-126854395D01*
X120915369Y-127084377D01*
X120820073Y-127256038D01*
X120749428Y-127335707D01*
X120691106Y-127369378D01*
X120586789Y-127390725D01*
X120494796Y-127366076D01*
X120415128Y-127295430D01*
X120381456Y-127237109D01*
X120360109Y-127132791D01*
X120363411Y-126936481D01*
X120425035Y-126706498D01*
X120520330Y-126534837D01*
X120590976Y-126455169D01*
X120649297Y-126421497D01*
X120753615Y-126400150D01*
%TO.C,R31*%
X181285692Y-117913106D02*
X181659384Y-117467884D01*
X181137796Y-117361148D02*
X182103722Y-117102329D01*
X182202319Y-117470301D01*
X182180972Y-117574619D01*
X182147301Y-117632940D01*
X182067632Y-117703586D01*
X181929643Y-117740560D01*
X181825325Y-117719213D01*
X181767004Y-117685541D01*
X181696358Y-117605873D01*
X181597760Y-117237901D01*
X182337891Y-117976262D02*
X182498113Y-118574216D01*
X182043868Y-118350839D01*
X182080842Y-118488828D01*
X182059495Y-118593146D01*
X182025823Y-118651467D01*
X181946155Y-118722113D01*
X181716173Y-118783736D01*
X181611855Y-118762389D01*
X181553534Y-118728718D01*
X181482888Y-118649049D01*
X181408940Y-118373071D01*
X181430287Y-118268753D01*
X181463958Y-118210432D01*
X181778681Y-119752965D02*
X181630784Y-119201007D01*
X181704733Y-119476986D02*
X182670659Y-119218167D01*
X182508020Y-119163148D01*
X182391377Y-119095805D01*
X182320731Y-119016136D01*
%TO.C,R32*%
X198985692Y-110573106D02*
X199359384Y-110127884D01*
X198837796Y-110021148D02*
X199803722Y-109762329D01*
X199902319Y-110130301D01*
X199880972Y-110234619D01*
X199847301Y-110292940D01*
X199767632Y-110363586D01*
X199629643Y-110400560D01*
X199525325Y-110379213D01*
X199467004Y-110345541D01*
X199396358Y-110265873D01*
X199297760Y-109897901D01*
X200037891Y-110636262D02*
X200198113Y-111234216D01*
X199743868Y-111010839D01*
X199780842Y-111148828D01*
X199759495Y-111253146D01*
X199725823Y-111311467D01*
X199646155Y-111382113D01*
X199416173Y-111443736D01*
X199311855Y-111422389D01*
X199253534Y-111388718D01*
X199182888Y-111309049D01*
X199108940Y-111033071D01*
X199130287Y-110928753D01*
X199163958Y-110870432D01*
X200204717Y-111626837D02*
X200263039Y-111660509D01*
X200333684Y-111740177D01*
X200395308Y-111970160D01*
X200373961Y-112074477D01*
X200340289Y-112132799D01*
X200260621Y-112203445D01*
X200168628Y-112228094D01*
X200018314Y-112219072D01*
X199318460Y-111815011D01*
X199478681Y-112412965D01*
%TO.C,R33*%
X215655692Y-99383106D02*
X216029384Y-98937884D01*
X215507796Y-98831148D02*
X216473722Y-98572329D01*
X216572319Y-98940301D01*
X216550972Y-99044619D01*
X216517301Y-99102940D01*
X216437632Y-99173586D01*
X216299643Y-99210560D01*
X216195325Y-99189213D01*
X216137004Y-99155541D01*
X216066358Y-99075873D01*
X215967760Y-98707901D01*
X216707891Y-99446262D02*
X216868113Y-100044216D01*
X216413868Y-99820839D01*
X216450842Y-99958828D01*
X216429495Y-100063146D01*
X216395823Y-100121467D01*
X216316155Y-100192113D01*
X216086173Y-100253736D01*
X215981855Y-100232389D01*
X215923534Y-100198718D01*
X215852888Y-100119049D01*
X215778940Y-99843071D01*
X215800287Y-99738753D01*
X215833958Y-99680432D01*
X216954386Y-100366192D02*
X217114607Y-100964146D01*
X216660362Y-100740768D01*
X216697336Y-100878758D01*
X216675989Y-100983075D01*
X216642317Y-101041396D01*
X216562649Y-101112042D01*
X216332667Y-101173666D01*
X216228349Y-101152319D01*
X216170028Y-101118647D01*
X216099382Y-101038979D01*
X216025434Y-100763000D01*
X216046781Y-100658682D01*
X216080453Y-100600361D01*
%TO.C,R34*%
X235565692Y-100263106D02*
X235939384Y-99817884D01*
X235417796Y-99711148D02*
X236383722Y-99452329D01*
X236482319Y-99820301D01*
X236460972Y-99924619D01*
X236427301Y-99982940D01*
X236347632Y-100053586D01*
X236209643Y-100090560D01*
X236105325Y-100069213D01*
X236047004Y-100035541D01*
X235976358Y-99955873D01*
X235877760Y-99587901D01*
X236617891Y-100326262D02*
X236778113Y-100924216D01*
X236323868Y-100700839D01*
X236360842Y-100838828D01*
X236339495Y-100943146D01*
X236305823Y-101001467D01*
X236226155Y-101072113D01*
X235996173Y-101133736D01*
X235891855Y-101112389D01*
X235833534Y-101078718D01*
X235762888Y-100999049D01*
X235688940Y-100723071D01*
X235710287Y-100618753D01*
X235743958Y-100560432D01*
X236677982Y-101838426D02*
X236034032Y-102010972D01*
X236984330Y-101509846D02*
X236232760Y-101464734D01*
X236392981Y-102062688D01*
%TO.C,R35*%
X257015692Y-106933106D02*
X257389384Y-106487884D01*
X256867796Y-106381148D02*
X257833722Y-106122329D01*
X257932319Y-106490301D01*
X257910972Y-106594619D01*
X257877301Y-106652940D01*
X257797632Y-106723586D01*
X257659643Y-106760560D01*
X257555325Y-106739213D01*
X257497004Y-106705541D01*
X257426358Y-106625873D01*
X257327760Y-106257901D01*
X258067891Y-106996262D02*
X258228113Y-107594216D01*
X257773868Y-107370839D01*
X257810842Y-107508828D01*
X257789495Y-107613146D01*
X257755823Y-107671467D01*
X257676155Y-107742113D01*
X257446173Y-107803736D01*
X257341855Y-107782389D01*
X257283534Y-107748718D01*
X257212888Y-107669049D01*
X257138940Y-107393071D01*
X257160287Y-107288753D01*
X257193958Y-107230432D01*
X258462282Y-108468149D02*
X258339035Y-108008185D01*
X257866746Y-108085435D01*
X257925067Y-108119107D01*
X257995713Y-108198775D01*
X258057336Y-108428758D01*
X258035989Y-108533075D01*
X258002317Y-108591396D01*
X257922649Y-108662042D01*
X257692667Y-108723666D01*
X257588349Y-108702319D01*
X257530028Y-108668647D01*
X257459382Y-108588979D01*
X257397759Y-108358996D01*
X257419106Y-108254679D01*
X257452777Y-108196358D01*
%TO.C,R36*%
X275375692Y-102013106D02*
X275749384Y-101567884D01*
X275227796Y-101461148D02*
X276193722Y-101202329D01*
X276292319Y-101570301D01*
X276270972Y-101674619D01*
X276237301Y-101732940D01*
X276157632Y-101803586D01*
X276019643Y-101840560D01*
X275915325Y-101819213D01*
X275857004Y-101785541D01*
X275786358Y-101705873D01*
X275687760Y-101337901D01*
X276427891Y-102076262D02*
X276588113Y-102674216D01*
X276133868Y-102450839D01*
X276170842Y-102588828D01*
X276149495Y-102693146D01*
X276115823Y-102751467D01*
X276036155Y-102822113D01*
X275806173Y-102883736D01*
X275701855Y-102862389D01*
X275643534Y-102828718D01*
X275572888Y-102749049D01*
X275498940Y-102473071D01*
X275520287Y-102368753D01*
X275553958Y-102310432D01*
X276809957Y-103502153D02*
X276760659Y-103318167D01*
X276690013Y-103238499D01*
X276631691Y-103204827D01*
X276469053Y-103149808D01*
X276272742Y-103153110D01*
X275904770Y-103251708D01*
X275825102Y-103322354D01*
X275791430Y-103380675D01*
X275770083Y-103484993D01*
X275819382Y-103668979D01*
X275890028Y-103748647D01*
X275948349Y-103782319D01*
X276052667Y-103803666D01*
X276282649Y-103742042D01*
X276362317Y-103671396D01*
X276395989Y-103613075D01*
X276417336Y-103508758D01*
X276368037Y-103324772D01*
X276297391Y-103245103D01*
X276239070Y-103211432D01*
X276134753Y-103190085D01*
%TO.C,R37*%
X98358234Y-132738473D02*
X97811997Y-132937201D01*
X98210338Y-133290430D02*
X97244412Y-133031611D01*
X97343010Y-132663639D01*
X97413655Y-132583971D01*
X97471977Y-132550299D01*
X97576294Y-132528952D01*
X97714284Y-132565927D01*
X97793952Y-132636572D01*
X97827624Y-132694894D01*
X97848971Y-132799211D01*
X97750373Y-133167183D01*
X97478581Y-132157678D02*
X97638803Y-131559724D01*
X97920502Y-131980297D01*
X97957476Y-131842308D01*
X98028122Y-131762640D01*
X98086443Y-131728968D01*
X98190760Y-131707621D01*
X98420743Y-131769244D01*
X98500411Y-131839890D01*
X98534083Y-131898211D01*
X98555430Y-132002529D01*
X98481481Y-132278508D01*
X98410836Y-132358176D01*
X98352514Y-132391848D01*
X97725076Y-131237749D02*
X97897622Y-130593798D01*
X98752625Y-131266586D01*
%TO.C,R38*%
X116277312Y-142438292D02*
X115698253Y-142488871D01*
X115991598Y-142933163D02*
X115125573Y-142433163D01*
X115316049Y-142103249D01*
X115404907Y-142044580D01*
X115469956Y-142027150D01*
X115576244Y-142033530D01*
X115699962Y-142104958D01*
X115758631Y-142193817D01*
X115776061Y-142258865D01*
X115769681Y-142365154D01*
X115579205Y-142695068D01*
X115577954Y-141649616D02*
X115887477Y-141113505D01*
X116050725Y-141592657D01*
X116122154Y-141468939D01*
X116211012Y-141410270D01*
X116276061Y-141392840D01*
X116382349Y-141399220D01*
X116588546Y-141518267D01*
X116647215Y-141607126D01*
X116664644Y-141672175D01*
X116658265Y-141778463D01*
X116515408Y-142025899D01*
X116426549Y-142084568D01*
X116361500Y-142101997D01*
X116544345Y-140832920D02*
X116455487Y-140891589D01*
X116390438Y-140909018D01*
X116284150Y-140902639D01*
X116242911Y-140878829D01*
X116184242Y-140789971D01*
X116166812Y-140724922D01*
X116173192Y-140618634D01*
X116268430Y-140453677D01*
X116357288Y-140395008D01*
X116422337Y-140377578D01*
X116528625Y-140383957D01*
X116569864Y-140407767D01*
X116628533Y-140496625D01*
X116645963Y-140561674D01*
X116639584Y-140667962D01*
X116544345Y-140832920D01*
X116537966Y-140939208D01*
X116555395Y-141004257D01*
X116614065Y-141093115D01*
X116779022Y-141188353D01*
X116885310Y-141194733D01*
X116950359Y-141177303D01*
X117039217Y-141118634D01*
X117134455Y-140953677D01*
X117140835Y-140847388D01*
X117123405Y-140782340D01*
X117064736Y-140693481D01*
X116899779Y-140598243D01*
X116793491Y-140591863D01*
X116728442Y-140609293D01*
X116639584Y-140667962D01*
%TO.C,R39*%
X130115806Y-157150054D02*
X129543387Y-157049039D01*
X129711745Y-157554115D02*
X129004639Y-156847008D01*
X129274013Y-156577634D01*
X129375028Y-156543962D01*
X129442371Y-156543962D01*
X129543387Y-156577634D01*
X129644402Y-156678649D01*
X129678074Y-156779665D01*
X129678074Y-156847008D01*
X129644402Y-156948023D01*
X129375028Y-157217397D01*
X129644402Y-156207245D02*
X130082135Y-155769512D01*
X130115806Y-156274588D01*
X130216822Y-156173573D01*
X130317837Y-156139901D01*
X130385181Y-156139901D01*
X130486196Y-156173573D01*
X130654555Y-156341932D01*
X130688226Y-156442947D01*
X130688226Y-156510291D01*
X130654555Y-156611306D01*
X130452524Y-156813336D01*
X130351509Y-156847008D01*
X130284165Y-156847008D01*
X131125959Y-156139901D02*
X131260646Y-156005214D01*
X131294318Y-155904199D01*
X131294318Y-155836855D01*
X131260646Y-155668497D01*
X131159631Y-155500138D01*
X130890257Y-155230764D01*
X130789242Y-155197092D01*
X130721898Y-155197092D01*
X130620883Y-155230764D01*
X130486196Y-155365451D01*
X130452524Y-155466466D01*
X130452524Y-155533810D01*
X130486196Y-155634825D01*
X130654555Y-155803184D01*
X130755570Y-155836855D01*
X130822913Y-155836855D01*
X130923929Y-155803184D01*
X131058616Y-155668497D01*
X131092287Y-155567481D01*
X131092287Y-155500138D01*
X131058616Y-155399123D01*
%TO.C,R40*%
X176627609Y-144765578D02*
X176728624Y-144193159D01*
X176223548Y-144361517D02*
X176930655Y-143654411D01*
X177200029Y-143923785D01*
X177233701Y-144024800D01*
X177233701Y-144092143D01*
X177200029Y-144193159D01*
X177099014Y-144294174D01*
X176997998Y-144327846D01*
X176930655Y-144327846D01*
X176829640Y-144294174D01*
X176560266Y-144024800D01*
X177705105Y-144900266D02*
X177233701Y-145371670D01*
X177806121Y-144462533D02*
X177132685Y-144799250D01*
X177570418Y-145236983D01*
X178445884Y-145169640D02*
X178513227Y-145236983D01*
X178546899Y-145337998D01*
X178546899Y-145405342D01*
X178513227Y-145506357D01*
X178412212Y-145674716D01*
X178243853Y-145843075D01*
X178075495Y-145944090D01*
X177974479Y-145977762D01*
X177907136Y-145977762D01*
X177806121Y-145944090D01*
X177738777Y-145876746D01*
X177705105Y-145775731D01*
X177705105Y-145708388D01*
X177738777Y-145607372D01*
X177839792Y-145439014D01*
X178008151Y-145270655D01*
X178176510Y-145169640D01*
X178277525Y-145135968D01*
X178344869Y-145135968D01*
X178445884Y-145169640D01*
%TO.C,R41*%
X194343546Y-133528340D02*
X194589272Y-133001570D01*
X194057831Y-133033469D02*
X194923857Y-132533469D01*
X195114333Y-132863383D01*
X195120713Y-132969671D01*
X195103283Y-133034720D01*
X195044614Y-133123578D01*
X194920896Y-133195007D01*
X194814608Y-133201387D01*
X194749559Y-133183957D01*
X194660700Y-133125288D01*
X194470224Y-132795373D01*
X195349467Y-133937315D02*
X194772117Y-134270648D01*
X195560334Y-133540642D02*
X194822697Y-133691588D01*
X195132221Y-134227699D01*
X195295926Y-135177913D02*
X195010212Y-134683041D01*
X195153069Y-134930477D02*
X196019095Y-134430477D01*
X195847758Y-134419427D01*
X195717660Y-134384567D01*
X195628802Y-134325898D01*
%TO.C,R42*%
X213335692Y-127433106D02*
X213709384Y-126987884D01*
X213187796Y-126881148D02*
X214153722Y-126622329D01*
X214252319Y-126990301D01*
X214230972Y-127094619D01*
X214197301Y-127152940D01*
X214117632Y-127223586D01*
X213979643Y-127260560D01*
X213875325Y-127239213D01*
X213817004Y-127205541D01*
X213746358Y-127125873D01*
X213647760Y-126757901D01*
X214201488Y-128088496D02*
X213557537Y-128261042D01*
X214507836Y-127759916D02*
X213756265Y-127714805D01*
X213916487Y-128312759D01*
X214554717Y-128486837D02*
X214613039Y-128520509D01*
X214683684Y-128600177D01*
X214745308Y-128830160D01*
X214723961Y-128934477D01*
X214690289Y-128992799D01*
X214610621Y-129063445D01*
X214518628Y-129088094D01*
X214368314Y-129079072D01*
X213668460Y-128675011D01*
X213828681Y-129272965D01*
%TO.C,R43*%
X147002380Y-97742857D02*
X146526190Y-98076190D01*
X147002380Y-98314285D02*
X146002380Y-98314285D01*
X146002380Y-97933333D01*
X146050000Y-97838095D01*
X146097619Y-97790476D01*
X146192857Y-97742857D01*
X146335714Y-97742857D01*
X146430952Y-97790476D01*
X146478571Y-97838095D01*
X146526190Y-97933333D01*
X146526190Y-98314285D01*
X146335714Y-96885714D02*
X147002380Y-96885714D01*
X145954761Y-97123809D02*
X146669047Y-97361904D01*
X146669047Y-96742857D01*
X146002380Y-96457142D02*
X146002380Y-95838095D01*
X146383333Y-96171428D01*
X146383333Y-96028571D01*
X146430952Y-95933333D01*
X146478571Y-95885714D01*
X146573809Y-95838095D01*
X146811904Y-95838095D01*
X146907142Y-95885714D01*
X146954761Y-95933333D01*
X147002380Y-96028571D01*
X147002380Y-96314285D01*
X146954761Y-96409523D01*
X146907142Y-96457142D01*
%TO.C,R44*%
X146233630Y-66642857D02*
X145757440Y-66976190D01*
X146233630Y-67214285D02*
X145233630Y-67214285D01*
X145233630Y-66833333D01*
X145281250Y-66738095D01*
X145328869Y-66690476D01*
X145424107Y-66642857D01*
X145566964Y-66642857D01*
X145662202Y-66690476D01*
X145709821Y-66738095D01*
X145757440Y-66833333D01*
X145757440Y-67214285D01*
X145566964Y-65785714D02*
X146233630Y-65785714D01*
X145186011Y-66023809D02*
X145900297Y-66261904D01*
X145900297Y-65642857D01*
X145566964Y-64833333D02*
X146233630Y-64833333D01*
X145186011Y-65071428D02*
X145900297Y-65309523D01*
X145900297Y-64690476D01*
%TO.C,R45*%
X148233630Y-66642857D02*
X147757440Y-66976190D01*
X148233630Y-67214285D02*
X147233630Y-67214285D01*
X147233630Y-66833333D01*
X147281250Y-66738095D01*
X147328869Y-66690476D01*
X147424107Y-66642857D01*
X147566964Y-66642857D01*
X147662202Y-66690476D01*
X147709821Y-66738095D01*
X147757440Y-66833333D01*
X147757440Y-67214285D01*
X147566964Y-65785714D02*
X148233630Y-65785714D01*
X147186011Y-66023809D02*
X147900297Y-66261904D01*
X147900297Y-65642857D01*
X147233630Y-64785714D02*
X147233630Y-65261904D01*
X147709821Y-65309523D01*
X147662202Y-65261904D01*
X147614583Y-65166666D01*
X147614583Y-64928571D01*
X147662202Y-64833333D01*
X147709821Y-64785714D01*
X147805059Y-64738095D01*
X148043154Y-64738095D01*
X148138392Y-64785714D01*
X148186011Y-64833333D01*
X148233630Y-64928571D01*
X148233630Y-65166666D01*
X148186011Y-65261904D01*
X148138392Y-65309523D01*
%TO.C,R46*%
X144355823Y-142030538D02*
X144456838Y-141458119D01*
X143951762Y-141626477D02*
X144658869Y-140919371D01*
X144928243Y-141188745D01*
X144961915Y-141289760D01*
X144961915Y-141357103D01*
X144928243Y-141458119D01*
X144827228Y-141559134D01*
X144726212Y-141592806D01*
X144658869Y-141592806D01*
X144557854Y-141559134D01*
X144288480Y-141289760D01*
X145433319Y-142165226D02*
X144961915Y-142636630D01*
X145534335Y-141727493D02*
X144860899Y-142064210D01*
X145298632Y-142501943D01*
X146342457Y-142602958D02*
X146207770Y-142468271D01*
X146106754Y-142434600D01*
X146039411Y-142434600D01*
X145871052Y-142468271D01*
X145702693Y-142569287D01*
X145433319Y-142838661D01*
X145399648Y-142939676D01*
X145399648Y-143007019D01*
X145433319Y-143108035D01*
X145568006Y-143242722D01*
X145669022Y-143276393D01*
X145736365Y-143276393D01*
X145837380Y-143242722D01*
X146005739Y-143074363D01*
X146039411Y-142973348D01*
X146039411Y-142906004D01*
X146005739Y-142804989D01*
X145871052Y-142670302D01*
X145770037Y-142636630D01*
X145702693Y-142636630D01*
X145601678Y-142670302D01*
%TO.C,U1*%
X152773222Y-134470610D02*
X153345642Y-135043030D01*
X153446657Y-135076702D01*
X153514001Y-135076702D01*
X153615016Y-135043030D01*
X153749703Y-134908343D01*
X153783375Y-134807328D01*
X153783375Y-134739984D01*
X153749703Y-134638969D01*
X153177283Y-134066549D01*
X154591497Y-134066549D02*
X154187436Y-134470610D01*
X154389466Y-134268580D02*
X153682360Y-133561473D01*
X153716031Y-133729832D01*
X153716031Y-133864519D01*
X153682360Y-133965534D01*
%TO.C,U2*%
X150333630Y-60761904D02*
X151143154Y-60761904D01*
X151238392Y-60714285D01*
X151286011Y-60666666D01*
X151333630Y-60571428D01*
X151333630Y-60380952D01*
X151286011Y-60285714D01*
X151238392Y-60238095D01*
X151143154Y-60190476D01*
X150333630Y-60190476D01*
X150428869Y-59761904D02*
X150381250Y-59714285D01*
X150333630Y-59619047D01*
X150333630Y-59380952D01*
X150381250Y-59285714D01*
X150428869Y-59238095D01*
X150524107Y-59190476D01*
X150619345Y-59190476D01*
X150762202Y-59238095D01*
X151333630Y-59809523D01*
X151333630Y-59190476D01*
%TO.C,Y1*%
X138620404Y-116663702D02*
X138620404Y-117139892D01*
X138287071Y-116139892D02*
X138620404Y-116663702D01*
X138953737Y-116139892D01*
X139810880Y-117139892D02*
X139239452Y-117139892D01*
X139525166Y-117139892D02*
X139525166Y-116139892D01*
X139429928Y-116282750D01*
X139334690Y-116377988D01*
X139239452Y-116425607D01*
%TD*%
M02*
